<svg xmlns="http://www.w3.org/2000/svg">
<defs>
<font id="GTHaptikMedium" horiz-adv-x="640" >
  <font-face 
    font-family="GT Haptik Medium"
    font-weight="650"
    font-stretch="normal"
    units-per-em="1000"
    panose-1="2 0 6 5 2 0 0 2 0 4"
    ascent="800"
    descent="-200"
    x-height="500"
    cap-height="700"
    bbox="-199 -276.002 1277 950"
    underline-thickness="0"
    underline-position="0"
    unicode-range="U+0020-U+FB04"
  />
<missing-glyph horiz-adv-x="879" 
d="M325 580l-64 -95v-68h-30v68l-65 95h34l46 -64l45 64h34zM612 474c0 5.33301 -0.666016 11.5 -1.99902 18.5s-5.5 13.833 -12.5 20.5s-18 12.167 -33 16.5s-36.167 6.5 -63.5 6.5c-26.667 0 -60.334 -4 -101.001 -12v-171c0 -8 -3.33301 -14.167 -10 -18.5
s-14 -7.83301 -22 -10.5s-15.333 -5.66699 -22 -9s-10 -8 -10 -14c0 -10.667 7.33301 -16 22 -16c23.333 0 46.833 2.83301 70.5 8.5s48.167 8.5 73.5 8.5c20 0 39.667 -2.16699 59 -6.5s36.333 -10.5 51 -18.5v197zM414.001 414c0 23.333 7.33301 42.5 22 57.5
s33.667 22.5 57 22.5c24 0 43.5 -7.5 58.5 -22.5s22.5 -34.167 22.5 -57.5s-7.5 -42.666 -22.5 -57.999s-34.5 -23 -58.5 -23c-23.333 0 -42.333 7.66699 -57 23s-22 34.666 -22 57.999zM546.001 414c0 15.333 -5 27.666 -15 36.999s-22.667 14 -38 14
c-14.667 0 -26.834 -4.66699 -36.501 -14s-14.5 -21.666 -14.5 -36.999s4.83301 -27.833 14.5 -37.5s21.834 -14.5 36.501 -14.5c15.333 0 28 4.83301 38 14.5s15 22.167 15 37.5zM371.001 577c0 10 -2.33398 18.5 -7.00098 25.5s-10.5 12.667 -17.5 17s-15 7.5 -24 9.5
s-17.833 3 -26.5 3c-13.333 0 -27.666 -1.5 -42.999 -4.5s-31 -6.66699 -47 -11s-31.333 -9.16602 -46 -14.499l-40 -15v-230c30 11.333 59.833 21.166 89.5 29.499s58.5 12.5 86.5 12.5c11.333 0 23.833 -1 37.5 -3s26.167 -5.66699 37.5 -11v192zM719 373v-100h-29v100h29
zM64 676c0 10.667 3.49609 19.333 10.4961 26s15.833 10 26.5 10c10 0 18.667 -3.33301 26 -10s11 -15.334 11 -26.001c0 -6.66699 -1.5 -13.167 -4.5 -19.5s-7.5 -11.166 -13.5 -14.499v-24c12 4.66699 25.333 9.5 40 14.5s29.834 9.5 45.501 13.5s31.167 7.33301 46.5 10

<glyph glyph-name="IJ" unicode="IJ" horiz-adv-x="533" 
d="M191 700v-700h-114v700h114zM466 700v-469.001c0 -36 -5.16699 -68.333 -15.5 -97s-25 -53 -44 -73s-41.5 -35.167 -67.5 -45.5s-54.667 -15.5 -86 -15.5l1 114c31.333 0 55.5 10.833 72.5 32.5s25.5 49.834 25.5 84.501v469h114z" />
    <glyph glyph-name="ij" unicode="ij" horiz-adv-x="500" 
d="M297 644c0 21.333 7.33301 39.333 22 54s32.667 22 54 22s39.333 -7.33301 54 -22s22 -32.667 22 -54s-7.33301 -39.333 -22 -54s-32.667 -22 -54 -22s-39.333 7.33301 -54 22s-22 32.667 -22 54zM48 644c0 21.333 7.33301 39.333 22 54s32.667 22 54 22
s39.333 -7.33301 54 -22s22 -32.667 22 -54s-7.33301 -39.333 -22 -54s-32.667 -22 -54 -22s-39.333 7.33301 -54 22s-22 32.667 -22 54zM427 500v-520.001c0 -64 -16.333 -110.833 -49 -140.5s-84.667 -44.5 -156 -44.5h-10c-2.66699 0 -6 0.333008 -10 1v102h9
c22 0 40 1.83301 54 5.5s25 9.33398 33 17.001s13.5 17 16.5 28s4.5 23.5 4.5 37.5v514h108zM178 499.999v-500h-108v500h108z" />
    <glyph glyph-name="ff" unicode="ff" horiz-adv-x="758" 
d="M485 408h-269.002v-408h-108v408h-96v92h96v27c0 32.667 4.33301 60.667 13 84s20.5 42.333 35.5 57s33 25.334 54 32.001s43.833 10 68.5 10c16 0 30.833 -0.833008 44.5 -2.5s27.834 -3.5 42.501 -5.5v-100c-14 2.66699 -26.5 4.66699 -37.5 6s-21.833 2 -32.5 2
c-29.333 0 -50 -6.83301 -62 -20.5s-18 -36.834 -18 -69.501v-20h269v27c0 32.667 4.33301 60.667 13 84s20.5 42.333 35.5 57s33 25.334 54 32.001s43.833 10 68.5 10c16 0 30.833 -0.833008 44.5 -2.5s27.834 -3.5 42.501 -5.5v-100c-14 2.66699 -26.5 4.66699 -37.5 6
s-21.833 2 -32.5 2c-29.333 0 -50 -6.83301 -62 -20.5s-18 -36.834 -18 -69.501v-20h144v-92h-144v-408h-108v408z" />
    <glyph glyph-name="fi" unicode="fi" horiz-adv-x="630" 
d="M429 644c0 21.333 7.33301 39.333 22 54s32.667 22 54 22s39.333 -7.33301 54 -22s22 -32.667 22 -54s-7.33301 -39.333 -22 -54s-32.667 -22 -54 -22s-39.333 7.33301 -54 22s-22 32.667 -22 54zM559 500v-500h-108v500h108zM216 408l-0.000976562 -408h-108v408h-96v92
h96v27c0 32.667 4.33301 60.667 13 84s20.5 42.333 35.5 57s33 25.334 54 32.001s43.833 10 68.5 10c16 0 30.833 -0.833008 44.5 -2.5s27.834 -3.5 42.501 -5.5v-100c-14 2.66699 -26.5 4.66699 -37.5 6s-21.833 2 -32.5 2c-29.333 0 -50 -6.83301 -62 -20.5
s-18 -36.834 -18 -69.501v-20h144v-92h-144z" />
    <glyph glyph-name="fl" unicode="fl" horiz-adv-x="619" 
d="M555 700v-700h-110v700h110zM216 408l-0.000976562 -408h-108v408h-96v92h96v27c0 32.667 4.33301 60.667 13 84s20.5 42.333 35.5 57s33 25.334 54 32.001s43.833 10 68.5 10c16 0 30.833 -0.833008 44.5 -2.5s27.834 -3.5 42.501 -5.5v-100
c-14 2.66699 -26.5 4.66699 -37.5 6s-21.833 2 -32.5 2c-29.333 0 -50 -6.83301 -62 -20.5s-18 -36.834 -18 -69.501v-20h144v-92h-144z" />
    <glyph glyph-name="ffi" unicode="ffi" horiz-adv-x="1002" 
d="M802 644c0 21.333 7.33301 39.333 22 54s32.667 22 54 22s39.333 -7.33301 54 -22s22 -32.667 22 -54s-7.33301 -39.333 -22 -54s-32.667 -22 -54 -22s-39.333 7.33301 -54 22s-22 32.667 -22 54zM932 500v-500h-108v500h108zM485 408h-269.002v-408h-108v408h-96v92h96
v27c0 32.667 4.33301 60.667 13 84s20.5 42.333 35.5 57s33 25.334 54 32.001s43.833 10 68.5 10c16 0 30.833 -0.833008 44.5 -2.5s27.834 -3.5 42.501 -5.5v-100c-14 2.66699 -26.5 4.66699 -37.5 6s-21.833 2 -32.5 2c-29.333 0 -50 -6.83301 -62 -20.5
s-18 -36.834 -18 -69.501v-20h269v27c0 32.667 4.33301 60.667 13 84s20.5 42.333 35.5 57s33 25.334 54 32.001s43.833 10 68.5 10c16 0 30.833 -0.833008 44.5 -2.5s27.834 -3.5 42.501 -5.5v-100c-14 2.66699 -26.5 4.66699 -37.5 6s-21.833 2 -32.5 2
c-29.333 0 -50 -6.83301 -62 -20.5s-18 -36.834 -18 -69.501v-20h144v-92h-144v-408h-108v408z" />
    <glyph glyph-name="ffl" unicode="ffl" horiz-adv-x="994" 
d="M928 700v-700h-110v700h110zM485 408h-269.002v-408h-108v408h-96v92h96v27c0 32.667 4.33301 60.667 13 84s20.5 42.333 35.5 57s33 25.334 54 32.001s43.833 10 68.5 10c16 0 30.833 -0.833008 44.5 -2.5s27.834 -3.5 42.501 -5.5v-100
c-14 2.66699 -26.5 4.66699 -37.5 6s-21.833 2 -32.5 2c-29.333 0 -50 -6.83301 -62 -20.5s-18 -36.834 -18 -69.501v-20h269v27c0 32.667 4.33301 60.667 13 84s20.5 42.333 35.5 57s33 25.334 54 32.001s43.833 10 68.5 10c16 0 30.833 -0.833008 44.5 -2.5
s27.834 -3.5 42.501 -5.5v-100c-14 2.66699 -26.5 4.66699 -37.5 6s-21.833 2 -32.5 2c-29.333 0 -50 -6.83301 -62 -20.5s-18 -36.834 -18 -69.501v-20h144v-92h-144v-408h-108v408z" />
    <glyph glyph-name=".notdef" horiz-adv-x="879" 
d="M325 580l-64 -95v-68h-30v68l-65 95h34l46 -64l45 64h34zM612 474c0 5.33301 -0.666016 11.5 -1.99902 18.5s-5.5 13.833 -12.5 20.5s-18 12.167 -33 16.5s-36.167 6.5 -63.5 6.5c-26.667 0 -60.334 -4 -101.001 -12v-171c0 -8 -3.33301 -14.167 -10 -18.5
s-14 -7.83301 -22 -10.5s-15.333 -5.66699 -22 -9s-10 -8 -10 -14c0 -10.667 7.33301 -16 22 -16c23.333 0 46.833 2.83301 70.5 8.5s48.167 8.5 73.5 8.5c20 0 39.667 -2.16699 59 -6.5s36.333 -10.5 51 -18.5v197zM414.001 414c0 23.333 7.33301 42.5 22 57.5
s33.667 22.5 57 22.5c24 0 43.5 -7.5 58.5 -22.5s22.5 -34.167 22.5 -57.5s-7.5 -42.666 -22.5 -57.999s-34.5 -23 -58.5 -23c-23.333 0 -42.333 7.66699 -57 23s-22 34.666 -22 57.999zM546.001 414c0 15.333 -5 27.666 -15 36.999s-22.667 14 -38 14
c-14.667 0 -26.834 -4.66699 -36.501 -14s-14.5 -21.666 -14.5 -36.999s4.83301 -27.833 14.5 -37.5s21.834 -14.5 36.501 -14.5c15.333 0 28 4.83301 38 14.5s15 22.167 15 37.5zM371.001 577c0 10 -2.33398 18.5 -7.00098 25.5s-10.5 12.667 -17.5 17s-15 7.5 -24 9.5
s-17.833 3 -26.5 3c-13.333 0 -27.666 -1.5 -42.999 -4.5s-31 -6.66699 -47 -11s-31.333 -9.16602 -46 -14.499l-40 -15v-230c30 11.333 59.833 21.166 89.5 29.499s58.5 12.5 86.5 12.5c11.333 0 23.833 -1 37.5 -3s26.167 -5.66699 37.5 -11v192zM719 373v-100h-29v100h29
zM64 676c0 10.667 3.49609 19.333 10.4961 26s15.833 10 26.5 10c10 0 18.667 -3.33301 26 -10s11 -15.334 11 -26.001c0 -6.66699 -1.5 -13.167 -4.5 -19.5s-7.5 -11.166 -13.5 -14.499v-24c12 4.66699 25.333 9.5 40 14.5s29.834 9.5 45.501 13.5s31.167 7.33301 46.5 10
s30 4 44 4c12.667 0 25.167 -1.66699 37.5 -5s23.5 -8.33301 33.5 -15s18 -15.334 24 -26.001s9 -23 9 -37v-25c11.333 2.66699 26.333 5.33398 45 8.00098s37.667 4 57 4c16.667 0 33.167 -1.16699 49.5 -3.5s31 -6.66602 44 -12.999s23.667 -14.833 32 -25.5
s12.5 -24.334 12.5 -41.001v-48c12 3.33301 24.5 6.16602 37.5 8.49902s26.167 3.5 39.5 3.5c41.333 0 70.333 -7.5 87 -22.5s25 -33.833 25 -56.5v-240c-20.667 12.667 -40.167 21.167 -58.5 25.5s-36.166 6.5 -53.499 6.5c-19.333 0 -38.5 -3.33301 -57.5 -10
s-39.167 -10 -60.5 -10c-32 0 -48 15.333 -48 46v86c-15.333 3.33301 -31.666 5 -48.999 5c-23.333 0 -46.833 -3 -70.5 -9s-48.167 -9 -73.5 -9c-15.333 0 -27.166 4.16699 -35.499 12.5s-12.5 19.5 -12.5 33.5v68h-14c-14 0 -28.833 -1.5 -44.5 -4.5
s-31.5 -6.66699 -47.5 -11s-31.333 -9.16602 -46 -14.499l-38 -14v-327h-39v643c-11.333 7.33301 -17 18.333 -17 33zM369.996 351.999c0 3.33301 -3 6.5 -9 9.5s-13.667 5.16699 -23 6.5v-32c6 3.33301 12.833 5.83301 20.5 7.5s11.5 4.5 11.5 8.5zM611.996 237.999
c0 7.33301 -3.33301 12.668 -10 16.001s-14.667 6.66602 -24 9.99902v-47c7.33301 5.33301 14.833 9 22.5 11s11.5 5.33301 11.5 10zM684.996 231.001c0 12.667 6.66699 19 20 19c12.667 0 19 -6.33301 19 -19c0 -13.333 -6.33301 -20 -19 -20c-13.333 0 -20 6.66699 -20 20
zM801.996 365.001c0 20.667 -7.83398 34.333 -23.501 41s-36.167 10 -61.5 10c-19.333 0 -45 -4 -77 -12v-167c0 -9.33301 -3.16699 -16.166 -9.5 -20.499s-13.5 -8 -21.5 -11s-15.167 -6.16699 -21.5 -9.5s-9.5 -8.33301 -9.5 -15c0 -10.667 7 -16 21 -16
c19.333 0 38.833 3.5 58.5 10.5s39.834 10.5 60.501 10.5c15.333 0 30 -1.33301 44 -4s27.333 -6.33398 40 -11.001v194z" />
    <glyph glyph-name="NULL" horiz-adv-x="0" 
 />
    <glyph glyph-name="NULL" horiz-adv-x="0" 
 />
    <glyph glyph-name="space" unicode=" " horiz-adv-x="287" 
 />
    <glyph glyph-name="exclam" unicode="!" horiz-adv-x="338" 
d="M226 700v-469h-114v469h114zM169 173c24.667 0 45.334 -8.33301 62.001 -25s25 -37.334 25 -62.001s-8.33301 -45.167 -25 -61.5s-37.334 -24.5 -62.001 -24.5s-45.167 8.16699 -61.5 24.5s-24.5 36.833 -24.5 61.5s8.16699 45.334 24.5 62.001s36.833 25 61.5 25z" />
    <glyph glyph-name="quotedbl" unicode="&#x22;" horiz-adv-x="391" 
d="M163 700v-268h-93v268h93zM321 700v-268h-93v268h93z" />
    <glyph glyph-name="numbersign" unicode="#" horiz-adv-x="588" 
d="M365 422h-118l-20 -139h118zM334 205h-118l-30 -205h-80l29 205h-105l11 78h105l20 139h-106l12 79h106l28 199h81l-29 -199h119l28 199h81l-29 -199h101l-11 -79h-101l-20 -139h101l-11 -78h-101l-30 -205h-80z" />
    <glyph glyph-name="dollar" unicode="$" horiz-adv-x="550" 
d="M170 504c0 -21.333 6.66797 -37.833 20.001 -49.5s30.666 -21.834 51.999 -30.501v159c-24 -4.66699 -42 -14.167 -54 -28.5s-18 -31.166 -18 -50.499zM379.001 197c0 23.333 -6.66895 41.167 -20.002 53.5s-30.666 22.5 -51.999 30.5v-164
c22.667 4 40.334 12.833 53.001 26.5s19 31.5 19 53.5zM241.999 -79.999l-0.00195312 81.998c-21.333 2.66699 -42.166 7.66699 -62.499 15s-39 17.833 -56 31.5s-32 30.667 -45 51s-22.833 44.5 -29.5 72.5l101 48c13.333 -58 44 -92 92 -102v185
c-22 6.66699 -44 15 -66 25s-41.833 22.833 -59.5 38.5s-32.167 34.667 -43.5 57s-17 49.5 -17 81.5c0 28 4.83301 53.333 14.5 76s22.834 42.167 39.501 58.5s36.334 29.333 59.001 39s47 16.167 73 19.5v82h65v-82c48.667 -5.33301 90 -22.666 124 -51.999
s57.333 -68.666 70 -117.999l-105 -43c-7.33301 29.333 -18.666 51.666 -33.999 66.999s-33.666 25.333 -54.999 30v-181c25.333 -8.66699 49.166 -18.167 71.499 -28.5s42 -23.333 59 -39s30.5 -34.334 40.5 -56.001s15 -48.167 15 -79.5c0 -30 -4.83301 -56.667 -14.5 -80
s-22.834 -43.166 -39.501 -59.499s-36.334 -29.166 -59.001 -38.499s-47 -15.333 -73 -18v-82h-65z" />
    <glyph glyph-name="percent" unicode="%" horiz-adv-x="824" 
d="M653 712l57 -47l-542 -677l-57 47zM197 700c22.667 0 44 -4.16699 64 -12.5s37.167 -19.666 51.5 -33.999s25.666 -31.5 33.999 -51.5s12.5 -41.333 12.5 -64c0 -23.333 -4.16699 -44.833 -12.5 -64.5s-19.666 -36.667 -33.999 -51s-31.5 -25.666 -51.5 -33.999
s-41.333 -12.5 -64 -12.5c-23.333 0 -44.833 4.16699 -64.5 12.5s-36.667 19.666 -51 33.999s-25.666 31.333 -33.999 51s-12.5 41.167 -12.5 64.5c0 22.667 4.16699 44 12.5 64s19.666 37.167 33.999 51.5s31.333 25.666 51 33.999s41.167 12.5 64.5 12.5zM281 538
c0 24.667 -7.83301 44.834 -23.5 60.501s-35.834 23.5 -60.501 23.5s-44.834 -7.83301 -60.501 -23.5s-23.5 -35.834 -23.5 -60.501s7.83301 -44.834 23.5 -60.501s35.834 -23.5 60.501 -23.5s44.834 7.83301 60.501 23.5s23.5 35.834 23.5 60.501zM465 162
c0 22.667 4.16699 44 12.5 64s19.666 37.167 33.999 51.5s31.333 25.666 51 33.999s41.167 12.5 64.5 12.5c22.667 0 44 -4.16699 64 -12.5s37.167 -19.666 51.5 -33.999s25.666 -31.5 33.999 -51.5s12.5 -41.333 12.5 -64c0 -23.333 -4.16699 -44.833 -12.5 -64.5
s-19.666 -36.667 -33.999 -51s-31.5 -25.666 -51.5 -33.999s-41.333 -12.5 -64 -12.5c-23.333 0 -44.833 4.16699 -64.5 12.5s-36.667 19.666 -51 33.999s-25.666 31.333 -33.999 51s-12.5 41.167 -12.5 64.5zM627 246c-24.667 0 -44.834 -7.83301 -60.501 -23.5
s-23.5 -35.834 -23.5 -60.501s7.83301 -44.834 23.5 -60.501s35.834 -23.5 60.501 -23.5c24 0 44 7.83301 60 23.5s24 35.834 24 60.501s-8 44.834 -24 60.501s-36 23.5 -60 23.5z" />
    <glyph glyph-name="ampersand" unicode="&#x26;" horiz-adv-x="720" 
d="M299 449c19.333 13.333 35.334 27.5 48.001 42.5s19 33.167 19 54.5c0 20.667 -6 36.5 -18 47.5s-26.667 16.5 -44 16.5c-18 0 -33 -5.66699 -45 -17s-18 -26.333 -18 -45c0 -13.333 3.16699 -25.833 9.5 -37.5s14.166 -23.167 23.499 -34.5zM300.001 95
c26 0 49.334 4.66699 70.001 14s38.667 22.333 54 39l-149 167c-28 -18 -49.833 -35.667 -65.5 -53s-23.5 -39 -23.5 -65c0 -28 9.16699 -52 27.5 -72s47.166 -30 86.499 -30zM496.002 69c-25.333 -25.333 -54.1699 -45.1699 -86.5029 -59.5029s-69.5 -21.5 -111.5 -21.5
c-36 0 -67.833 5.16699 -95.5 15.5s-51 24.5 -70 42.5s-33.333 39.5 -43 64.5s-14.5 52.167 -14.5 81.5c0 25.333 3.5 47.833 10.5 67.5s16.333 37.5 28 53.5s25.334 30.333 41.001 43s32.5 24.667 50.5 36l-13 15c-18 19.333 -33.167 40.166 -45.5 62.499
s-18.5 48.5 -18.5 78.5c0 22.667 4 43.834 12 63.501s19.5 37 34.5 52s33.5 26.833 55.5 35.5s46.667 13 74 13c26 0 49.667 -4.16699 71 -12.5s39.5 -19.666 54.5 -33.999s26.5 -31.666 34.5 -51.999s12 -42.5 12 -66.5c0 -20.667 -2.83301 -39.5 -8.5 -56.5
s-13.5 -32.5 -23.5 -46.5s-21.5 -26.833 -34.5 -38.5s-26.833 -22.5 -41.5 -32.5l119 -129c7.33301 15.333 13.833 31 19.5 47s11.167 32.333 16.5 49l95 -40c-7.33301 -24.667 -15.666 -48.667 -24.999 -72s-19.666 -45.666 -30.999 -66.999l80 -87l-83 -76z" />
    <glyph glyph-name="quotesingle" unicode="'" horiz-adv-x="233" 
d="M163 700v-268h-93v268h93z" />
    <glyph glyph-name="parenleft" unicode="(" horiz-adv-x="338" 
d="M46 317c0 92.667 16.498 179.498 49.498 260.498s80.167 152.833 141.5 215.5l74 -66c-51.333 -57.333 -90.666 -118.666 -117.999 -183.999s-41 -140.666 -41 -225.999s13.667 -161.666 41 -228.999s66.333 -130.333 117 -189l-74 -66
c-30 31.333 -56.833 65.666 -80.5 102.999s-43.667 76.833 -60 118.5s-28.666 84.5 -36.999 128.5s-12.5 88.667 -12.5 134z" />
    <glyph glyph-name="parenright" unicode=")" horiz-adv-x="335" 
d="M101 793c61.333 -62.667 108.5 -134.498 141.5 -215.498s49.5 -167.833 49.5 -260.5c0 -45.333 -4.16699 -90 -12.5 -134s-20.666 -86.833 -36.999 -128.5s-36.333 -81.167 -60 -118.5s-50.5 -71.666 -80.5 -102.999l-74 66c50.667 58.667 89.667 121.667 117 189
s41 143.666 41 228.999s-13.833 160.666 -41.5 225.999s-66.834 126.666 -117.501 183.999l74 66v0z" />
    <glyph glyph-name="asterisk" unicode="*" horiz-adv-x="448" 
d="M265 710v-118l111 37l28 -79l-114 -37l69 -94l-65 -50l-71 96l-69 -96l-66 50l69 94l-113 37l27 79l111 -37v118h83z" />
    <glyph glyph-name="plus" unicode="+" 
d="M377 580v-204h205v-114h-205v-205h-114v205h-204v114h204v204h114z" />
    <glyph glyph-name="comma" unicode="," horiz-adv-x="310" 
d="M194 168l86 -48l-179 -320l-86 46z" />
    <glyph glyph-name="hyphen" unicode="-" horiz-adv-x="627" 
d="M547 362v-114h-467v114h467z" />
    <glyph glyph-name="period" unicode="." horiz-adv-x="321" 
d="M160 173c24.667 0 45.334 -8.33301 62.001 -25s25 -37.334 25 -62.001s-8.33301 -45.167 -25 -61.5s-37.334 -24.5 -62.001 -24.5s-45.167 8.16699 -61.5 24.5s-24.5 36.833 -24.5 61.5s8.16699 45.334 24.5 62.001s36.833 25 61.5 25z" />
    <glyph glyph-name="slash" unicode="/" horiz-adv-x="814" 
d="M692 770l80 -70l-660 -771l-80 70z" />
    <glyph glyph-name="zero" unicode="0" horiz-adv-x="777" 
d="M57 350c0 50.667 8.66699 97.5 26 140.5s40.833 80 70.5 111s64.667 55.167 105 72.5s83.5 26 129.5 26s89.167 -8.66699 129.5 -26s75.5 -41.5 105.5 -72.5s53.667 -68 71 -111s26 -89.833 26 -140.5c0 -51.333 -8.66699 -98.333 -26 -141s-41 -79.5 -71 -110.5
s-65.167 -55.167 -105.5 -72.5s-83.5 -26 -129.5 -26s-89.167 8.66699 -129.5 26s-75.333 41.5 -105 72.5s-53.167 67.833 -70.5 110.5s-26 89.667 -26 141zM606 350c0 34.667 -5.5 66.334 -16.5 95.001s-26.167 53.5 -45.5 74.5s-42.333 37.333 -69 49
s-55.667 17.5 -87 17.5s-60.166 -5.83301 -86.499 -17.5s-49.166 -28 -68.499 -49s-34.5 -45.833 -45.5 -74.5s-16.5 -60.334 -16.5 -95.001s5.5 -66.5 16.5 -95.5s26.167 -53.833 45.5 -74.5s42.166 -36.834 68.499 -48.501s55.166 -17.5 86.499 -17.5
s60.333 5.83301 87 17.5s49.667 27.834 69 48.501s34.5 45.5 45.5 74.5s16.5 60.833 16.5 95.5zM304 350c0 24 8.16699 44.167 24.5 60.5s36.5 24.5 60.5 24.5c23.333 0 43.166 -8.16699 59.499 -24.5s24.5 -36.5 24.5 -60.5s-8.16699 -44.167 -24.5 -60.5
s-36.166 -24.5 -59.499 -24.5c-24 0 -44.167 8.16699 -60.5 24.5s-24.5 36.5 -24.5 60.5z" />
    <glyph glyph-name="one" unicode="1" horiz-adv-x="478" 
d="M374 700v-700h-114v527l-150 -149l-79 81l243 241h100z" />
    <glyph glyph-name="two" unicode="2" horiz-adv-x="553" 
d="M34 547c9.33301 18 21.1689 36.1699 35.502 54.5029s31.166 34.833 50.499 49.5s41.333 26.5 66 35.5s52.334 13.5 83.001 13.5c32.667 0 62.834 -5.33301 90.501 -16s51.667 -25.834 72 -45.501s36.166 -42.834 47.499 -69.501s17 -56 17 -88
c0 -38 -7.16699 -72.167 -21.5 -102.5s-32.166 -55.833 -53.499 -76.5l-187 -188h262v-114h-440v95l279 280c13.333 13.333 24.5 28.5 33.5 45.5s13.5 35.167 13.5 54.5c0 33.333 -10.833 60.166 -32.5 80.499s-48.5 30.5 -80.5 30.5c-17.333 0 -33.333 -3 -48 -9
s-28.334 -14.167 -41.001 -24.5s-23.834 -22.333 -33.501 -36s-17.834 -28.167 -24.501 -43.5l-88 74v0z" />
    <glyph glyph-name="three" unicode="3" horiz-adv-x="540" 
d="M42 564c8 18.667 18.8311 36.1689 32.498 52.502s29.834 30.666 48.501 42.999s39.5 22.166 62.5 29.499s47.833 11 74.5 11c32.667 0 62.5 -4.83301 89.5 -14.5s50.167 -23.167 69.5 -40.5s34.333 -38 45 -62s16 -50.333 16 -79c0 -38 -8.5 -69.833 -25.5 -95.5
s-37.167 -44.834 -60.5 -57.501c24.667 -13.333 45.167 -33 61.5 -59s24.5 -58 24.5 -96c0 -30 -5.33301 -57.167 -16 -81.5s-25.5 -45 -44.5 -62s-42 -30 -69 -39s-56.5 -13.5 -88.5 -13.5c-27.333 0 -52.666 3.5 -75.999 10.5s-44.5 16.833 -63.5 29.5
s-35.333 27.5 -49 44.5s-24.5 35.5 -32.5 55.5l87 81c11.333 -33.333 28.833 -59.5 52.5 -78.5s51.167 -28.5 82.5 -28.5c30 0 54.667 8 74 24s29 38.333 29 67c0 28 -9.33301 49.5 -28 64.5s-42.334 23.167 -71.001 24.5h-47v113h47
c28.667 1.33301 52.334 9.83301 71.001 25.5s28 36.834 28 63.501c0 28 -9.83301 50 -29.5 66s-44.167 24 -73.5 24c-30 0 -57 -9.5 -81 -28.5s-42 -44.167 -54 -75.5l-86 82v0z" />
    <glyph glyph-name="four" unicode="4" horiz-adv-x="685" 
d="M520 700v-459h122v-114h-122v-127h-114v127h-376v101l395 472h95zM406 499l-215 -258h215v258z" />
    <glyph glyph-name="five" unicode="5" horiz-adv-x="559" 
d="M504 700l0.000976562 -114h-300v-119c4 1.33301 11.5 2.66602 22.5 3.99902s22.833 2 35.5 2c36 0 69 -5.5 99 -16.5s55.5 -26.667 76.5 -47s37.333 -45 49 -74s17.5 -61.5 17.5 -97.5c0 -39.333 -6.66699 -73.833 -20 -103.5s-31.333 -54.5 -54 -74.5s-49 -35 -79 -45
s-61.667 -15 -95 -15c-38.667 0 -76.5 6 -113.5 18s-68.5 28.333 -94.5 49l52 102c25.333 -18.667 51.5 -32.5 78.5 -41.5s52.833 -13.5 77.5 -13.5c18 0 35.167 2.5 51.5 7.5s30.666 12.667 42.999 23s22 23.333 29 39s10.5 33.834 10.5 54.501
c0 38.667 -12.5 68.667 -37.5 90s-60.5 32 -106.5 32c-22 0 -46.5 -2.83301 -73.5 -8.5s-54.5 -13.5 -82.5 -23.5v372h414z" />
    <glyph glyph-name="six" unicode="6" horiz-adv-x="581" 
d="M301 0c-46 0 -85.333 9.33594 -118 28.0029s-58.667 43 -78 73c-16.667 26.667 -28.667 57.5 -36 92.5s-11 75.167 -11 120.5s4.5 90.833 13.5 136.5s24.333 87 46 124s50.167 67.167 85.5 90.5s79.333 35 132 35c34 0 64 -4.66699 90 -14s51 -21 75 -35l-52 -99
c-17.333 9.33301 -35.5 17.333 -54.5 24s-40.167 10 -63.5 10c-22.667 0 -42.834 -4.33301 -60.501 -13s-32.667 -20.334 -45 -35.001s-21.833 -31.334 -28.5 -50.001s-10.334 -38.334 -11.001 -59.001v-1c19.333 12 39.5 21.167 60.5 27.5s41.5 9.5 61.5 9.5
c32 0 61.667 -5.33301 89 -16s51.333 -26 72 -46s36.834 -44.167 48.501 -72.5s17.5 -59.833 17.5 -94.5c0 -35.333 -5.83301 -67.333 -17.5 -96s-28 -53.5 -49 -74.5s-45.667 -37.167 -74 -48.5s-59.166 -17 -92.499 -17zM300 351.003
c-36 0 -65.334 -10.832 -88.001 -32.499s-34 -50.5 -34 -86.5c0 -18.667 3.16699 -35.334 9.5 -50.001s15 -27 26 -37s23.833 -17.667 38.5 -23s30.334 -8 47.001 -8c36 0 65.167 11 87.5 33s33.5 51 33.5 87s-11 64.5 -33 85.5s-51 31.5 -87 31.5z" />
    <glyph glyph-name="seven" unicode="7" horiz-adv-x="545" 
d="M508 700v-101l-311 -599h-128l304 586h-334v114h469z" />
    <glyph glyph-name="eight" unicode="8" horiz-adv-x="556" 
d="M60 506c0 30 5.33301 56.8389 16 80.5059s25.667 44 45 61s42.333 30 69 39s56 13.5 88 13.5s61.333 -4.5 88 -13.5s49.667 -22 69 -39s34.333 -37.333 45 -61s16 -50.167 16 -79.5c0 -32.667 -7.16699 -62.334 -21.5 -89.001s-36.5 -49.334 -66.5 -68.001
c30 -18.667 52.167 -41.334 66.5 -68.001s21.5 -56.334 21.5 -89.001c0 -29.333 -5.33301 -55.833 -16 -79.5s-25.667 -44 -45 -61s-42.333 -30 -69 -39s-56 -13.5 -88 -13.5s-61.333 4.5 -88 13.5s-49.667 22 -69 39s-34.333 37.333 -45 61s-16 50.5 -16 80.5
c0 34 7.33301 64.167 22 90.5s36 48.166 64 65.499c-27.333 16 -48.5 37.167 -63.5 63.5s-22.5 57.166 -22.5 92.499zM382 498.006c0 26.667 -9.33398 48 -28.001 64s-43.667 24 -75 24c-32 0 -57.5 -8 -76.5 -24s-28.5 -37.333 -28.5 -64
c0 -29.333 10.333 -51.833 31 -67.5s45.334 -23.5 74.001 -23.5c28 0 52.167 7.83301 72.5 23.5s30.5 38.167 30.5 67.5zM381.999 202.006c0 29.333 -10.166 51.833 -30.499 67.5s-44.5 23.5 -72.5 23.5c-28.667 0 -53.334 -7.83301 -74.001 -23.5s-31 -38.167 -31 -67.5
c0 -26.667 9.5 -48 28.5 -64s44.5 -24 76.5 -24c31.333 0 56.333 8 75 24s28 37.333 28 64z" />
    <glyph glyph-name="nine" unicode="9" horiz-adv-x="573" 
d="M407 468c0 18.667 -3.33105 35.333 -9.99805 50s-15.5 27 -26.5 37s-23.833 17.667 -38.5 23s-30.334 8 -47.001 8c-35.333 0 -64.333 -11 -87 -33s-34 -51 -34 -87s11.167 -64.5 33.5 -85.5s51.166 -31.5 86.499 -31.5c36 0 65.5 10.833 88.5 32.5s34.5 50.5 34.5 86.5z
M50.002 462.999c0 35.333 5.99902 67.4971 17.999 96.4971s28.5 54 49.5 75s46 37.167 75 48.5s60.5 17 94.5 17c42.667 0 79.5 -8.33301 110.5 -25s56.167 -39 75.5 -67s33 -60.667 41 -98s12 -80.666 12 -129.999c0 -47.333 -4 -93.666 -12 -138.999
s-22.5 -85.833 -43.5 -121.5s-49.5 -64.5 -85.5 -86.5s-82 -33 -138 -33c-32 0 -61.167 3.66699 -87.5 11s-53.166 17.666 -80.499 30.999l44 104c21.333 -11.333 42.833 -19.5 64.5 -24.5s42.167 -7.5 61.5 -7.5c25.333 0 47.333 4.66699 66 14s34.167 21.5 46.5 36.5
s21.5 31.833 27.5 50.5s9 37.334 9 56.001v1c-37.333 -24.667 -77.666 -37 -120.999 -37c-32 0 -61.667 5.33301 -89 16s-51.333 25.834 -72 45.501s-36.834 43.5 -48.501 71.5s-17.5 59.667 -17.5 95z" />
    <glyph glyph-name="colon" unicode=":" horiz-adv-x="321" 
d="M160 512c24.667 0 45.334 -8.33301 62.001 -25s25 -37.334 25 -62.001s-8.33301 -45.167 -25 -61.5s-37.334 -24.5 -62.001 -24.5s-45.167 8.16699 -61.5 24.5s-24.5 36.833 -24.5 61.5s8.16699 45.334 24.5 62.001s36.833 25 61.5 25zM160 173
c24.667 0 45.334 -8.33301 62.001 -25s25 -37.334 25 -62.001s-8.33301 -45.167 -25 -61.5s-37.334 -24.5 -62.001 -24.5s-45.167 8.16699 -61.5 24.5s-24.5 36.833 -24.5 61.5s8.16699 45.334 24.5 62.001s36.833 25 61.5 25z" />
    <glyph glyph-name="semicolon" unicode=";" horiz-adv-x="395" 
d="M145 425c0 24.667 8.33301 45.334 25 62.001s37 25 61 25c24.667 0 45.334 -8.33301 62.001 -25s25 -37.334 25 -62.001s-8.33301 -45.167 -25 -61.5s-37.334 -24.5 -62.001 -24.5c-24 0 -44.333 8.16699 -61 24.5s-25 36.833 -25 61.5zM193 168l87 -48l-180 -320l-86 46
z" />
    <glyph glyph-name="less" unicode="&#x3c;" 
d="M517 549l47 -107l-341 -143l341 -144l-47 -107l-441 192v117z" />
    <glyph glyph-name="equal" unicode="=" 
d="M577 464v-114h-514v114h514zM577 240v-114h-514v114h514z" />
    <glyph glyph-name="greater" unicode="&#x3e;" 
d="M564 357v-117l-441 -192l-47 107l341 144l-341 143l47 107z" />
    <glyph glyph-name="question" unicode="?" horiz-adv-x="554" 
d="M50 471c0 34.667 5 66.1699 15 94.5029s24.333 52.5 43 72.5s41.667 35.333 69 46s58 16 92 16c31.333 0 59.666 -4.83301 84.999 -14.5s46.833 -23 64.5 -40s31.334 -37.333 41.001 -61s14.5 -49.834 14.5 -78.501c0 -20 -2.33301 -38 -7 -54s-11.167 -30.5 -19.5 -43.5
s-17.833 -25.167 -28.5 -36.5s-22 -22.333 -34 -33c-9.33301 -8 -18 -15.833 -26 -23.5s-15 -15.5 -21 -23.5s-10.833 -16.833 -14.5 -26.5s-5.5 -20.834 -5.5 -33.501v-19h-114v32c0 20.667 3 39.167 9 55.5s13.667 31.166 23 44.499s19.833 25.333 31.5 36
s23.167 20.667 34.5 30c14 11.333 27.167 23.833 39.5 37.5s18.5 31.167 18.5 52.5c0 22.667 -7.5 42.5 -22.5 59.5s-38.5 25.5 -70.5 25.5c-34 0 -60.167 -10 -78.5 -30s-27.5 -48.333 -27.5 -85h-111zM264 173.003c24.667 0 45.334 -8.33301 62.001 -25
s25 -37.334 25 -62.001s-8.33301 -45.167 -25 -61.5s-37.334 -24.5 -62.001 -24.5s-45.167 8.16699 -61.5 24.5s-24.5 36.833 -24.5 61.5s8.16699 45.334 24.5 62.001s36.833 25 61.5 25z" />
    <glyph glyph-name="at" unicode="@" horiz-adv-x="951" 
d="M881 353c0 -40 -4.16406 -76.0029 -12.4971 -108.003s-20.333 -59.333 -36 -82s-35 -40.167 -58 -52.5s-49.5 -18.5 -79.5 -18.5c-28.667 0 -51.834 5.83301 -69.501 17.5s-30.834 30.167 -39.501 55.5c-14 -22 -32.167 -39.833 -54.5 -53.5s-49.5 -20.5 -81.5 -20.5
c-22 0 -41.833 3.33301 -59.5 10s-32.834 16 -45.501 28s-22.334 26 -29.001 42s-10 33 -10 51c0 20 3.5 37.5 10.5 52.5s16.333 27.833 28 38.5s25.167 19 40.5 25s31.333 9.66699 48 11l126 12c0 25.333 -5.5 43.666 -16.5 54.999s-29.833 17 -56.5 17
c-21.333 0 -41.5 -4.66699 -60.5 -14s-31.5 -25.666 -37.5 -48.999l-76 42c11.333 32 31 57.833 59 77.5s66 29.5 114 29.5c58.667 0 101.334 -14.833 128.001 -44.5s40 -68.167 40 -115.5v-126c0 -17.333 4 -30.666 12 -39.999s18.667 -14 32 -14
c25.333 0 45.5 13.833 60.5 41.5s22.5 70.167 22.5 127.5c0 38 -6.66699 73.167 -20 105.5s-32.666 60.5 -57.999 84.5s-56.166 42.833 -92.499 56.5s-77.833 20.5 -124.5 20.5c-47.333 0 -90.333 -7.83301 -129 -23.5s-71.667 -37.5 -99 -65.5s-48.333 -61.167 -63 -99.5
s-22 -79.833 -22 -124.5c0 -45.333 7.33301 -87.166 22 -125.499s35.5 -71.5 62.5 -99.5s59.5 -50 97.5 -66s80.667 -24 128 -24c43.333 0 82.666 4 117.999 12s66 16.667 92 26l15 -94c-30.667 -11.333 -64 -20.833 -100 -28.5s-77.667 -11.5 -125 -11.5
c-61.333 0 -117.333 10.5 -168 31.5s-94 49.833 -130 86.5s-64 80.167 -84 130.5s-30 104.5 -30 162.5s10.167 112 30.5 162s48.666 93.333 84.999 130s80 65.5 131 86.5s107.5 31.5 169.5 31.5c59.333 0 113.333 -8.83301 162 -26.5s90.167 -42.167 124.5 -73.5
s61 -69.166 80 -113.499s28.5 -92.833 28.5 -145.5zM461.003 175.997c14 0 27 2.33301 39 7s22.5 11.167 31.5 19.5s16 17.833 21 28.5s7.5 22 7.5 34v19l-112 -14c-15.333 -1.33301 -26.833 -6.5 -34.5 -15.5s-11.5 -19.5 -11.5 -31.5c0 -12.667 4.66699 -23.667 14 -33
s24.333 -14 45 -14z" />
    <glyph glyph-name="A" unicode="A" horiz-adv-x="779" 
d="M241 231h297l-149 320zM591 117h-403l-54 -117h-125l325 700h111l325 -700h-125z" />
    <glyph glyph-name="B" unicode="B" horiz-adv-x="617" 
d="M372 700c30 0 57.333 -4.8291 82 -14.4961s45.834 -23.167 63.501 -40.5s31.5 -38 41.5 -62s15 -50.333 15 -79c0 -34.667 -7.83301 -65.334 -23.5 -92.001s-36.5 -47.334 -62.5 -62.001c26.667 -14.667 47.667 -35.334 63 -62.001s23 -57.334 23 -92.001
c0 -28.667 -5 -55 -15 -79s-23.833 -44.667 -41.5 -62s-38.834 -30.833 -63.501 -40.5s-52 -14.5 -82 -14.5h-295v700h295zM460 499.004c0 26 -8.16699 47 -24.5 63s-37.833 24 -64.5 24h-180v-179h183c25.333 0 46 8.5 62 25.5s24 39.167 24 66.5zM460 201.004
c0 27.333 -8 49.499 -24 66.499s-36.667 25.5 -62 25.5h-183v-179h180c26.667 0 48.167 7.83301 64.5 23.5s24.5 36.834 24.5 63.501z" />
    <glyph glyph-name="C" unicode="C" horiz-adv-x="655" 
d="M44 350c0 50 9.00098 96.333 27.001 139s42.667 79.667 74 111s68.166 55.833 110.499 73.5s88.166 26.5 137.499 26.5c48 0 93.167 -8.5 135.5 -25.5s80.5 -40.833 114.5 -71.5l-54 -106c-25.333 26.667 -54.666 48.167 -87.999 64.5s-70.333 24.5 -111 24.5
c-33.333 0 -64 -5.66699 -92 -17s-52.5 -27.5 -73.5 -48.5s-37.333 -46 -49 -75s-17.5 -60.833 -17.5 -95.5c0 -35.333 5.83301 -67.333 17.5 -96s28 -53.5 49 -74.5s45.5 -37.167 73.5 -48.5s58.667 -17 92 -17c20 0 40.833 2.16699 62.5 6.5s45.167 12.5 70.5 24.5
l22 -113c-28 -10.667 -54.167 -18.667 -78.5 -24s-49.833 -8 -76.5 -8c-48 -0 -93.167 8.83301 -135.5 26.5s-79 42.167 -110 73.5s-55.5 68.333 -73.5 111s-27 89 -27 139z" />
    <glyph glyph-name="D" unicode="D" horiz-adv-x="714" 
d="M324 700c49.333 0 95.166 -8.83105 137.499 -26.498s79 -42 110 -73s55.167 -67.833 72.5 -110.5s26 -89.334 26 -140.001s-8.66699 -97.334 -26 -140.001s-41.5 -79.5 -72.5 -110.5s-67.667 -55.333 -110 -73s-88.166 -26.5 -137.499 -26.5h-247v700h247zM556 350.002
c0 34 -5.66699 65.5 -17 94.5s-27.333 54 -48 75s-45.167 37.333 -73.5 49s-59.5 17.5 -93.5 17.5h-133v-472h133c34 0 65.167 5.83301 93.5 17.5s52.833 28 73.5 49s36.667 46 48 75s17 60.5 17 94.5z" />
    <glyph glyph-name="E" unicode="E" horiz-adv-x="573" 
d="M518 700v-114h-327v-179h327v-114h-327v-179h327v-114h-441v700h441z" />
    <glyph glyph-name="F" unicode="F" horiz-adv-x="555" 
d="M518 700v-114h-327v-179h327v-114h-327v-293h-114v700h441z" />
    <glyph glyph-name="G" unicode="G" horiz-adv-x="656" 
d="M44 350c0 50 8.83008 96.333 26.4971 139s42 79.667 73 111s68 55.833 111 73.5s89.5 26.5 139.5 26.5c48.667 0 93.834 -8.5 135.501 -25.5s79.5 -41.167 113.5 -72.5l-54 -106c-25.333 27.333 -54.5 49.166 -87.5 65.499s-69.833 24.5 -110.5 24.5
c-33.333 0 -64.333 -5.66699 -93 -17s-53.334 -27.5 -74.001 -48.5s-36.834 -46 -48.501 -75s-17.5 -60.833 -17.5 -95.5c0 -35.333 5.83301 -67.333 17.5 -96s27.834 -53.5 48.501 -74.5s45.334 -37.167 74.001 -48.5s60 -17 94 -17c9.33301 0 17.5 0.5 24.5 1.5
s14.5 2.5 22.5 4.5v149h-147v114h261v-353c-26 -9.33301 -52.167 -16.666 -78.5 -21.999s-54.166 -8 -83.499 -8c-49.333 -0 -95.166 8.83301 -137.499 26.5s-79 42 -110 73s-55.333 68 -73 111s-26.5 89.5 -26.5 139.5z" />
    <glyph glyph-name="H" unicode="H" horiz-adv-x="737" 
d="M660 700v-700h-114v293h-355v-293h-114v700h114v-293h355v293h114z" />
    <glyph glyph-name="I" unicode="I" horiz-adv-x="268" 
d="M191 700v-700h-114v700h114z" />
    <glyph glyph-name="J" unicode="J" horiz-adv-x="506" 
d="M439 700l0.00195312 -469.002c0 -36 -5 -68.333 -15 -97s-24.333 -53 -43 -73s-41.167 -35.167 -67.5 -45.5s-55.5 -15.5 -87.5 -15.5c-36.667 0 -68.334 6 -95.001 18s-48.834 27.833 -66.501 47.5s-30.834 41.834 -39.501 66.501s-13 49.667 -13 75l104 49
c0 -20 2.16699 -38.667 6.5 -56s11 -32.333 20 -45s20.333 -22.667 34 -30s30.167 -11 49.5 -11c34.667 0 59.834 10.833 75.501 32.5s23.5 49.834 23.5 84.501v469h114z" />
    <glyph glyph-name="K" unicode="K" horiz-adv-x="675" 
d="M288 313l-97 -98v-215h-114v700h114v-323l320 323h161l-303 -306l304 -394h-145z" />
    <glyph glyph-name="L" unicode="L" horiz-adv-x="536" 
d="M191 700v-586h333v-114h-447v700h114z" />
    <glyph glyph-name="M" unicode="M" horiz-adv-x="1009" 
d="M191 0h-114v700h112l316 -552l315 552h112v-700h-114v463l-265 -463h-97l-265 463v-463z" />
    <glyph glyph-name="N" unicode="N" horiz-adv-x="773" 
d="M703 700v-700h-105l-414 509v-509h-114v700h105l414 -510v510h114z" />
    <glyph glyph-name="O" unicode="O" horiz-adv-x="788" 
d="M44 350c0 50 8.83301 96.333 26.5 139s42.167 79.667 73.5 111s68.333 55.833 111 73.5s89 26.5 139 26.5s96.5 -8.83301 139.5 -26.5s80 -42.167 111 -73.5s55.333 -68.333 73 -111s26.5 -89 26.5 -139s-8.83301 -96.333 -26.5 -139s-42 -79.667 -73 -111
s-68 -55.833 -111 -73.5s-89.5 -26.5 -139.5 -26.5s-96.333 8.83301 -139 26.5s-79.667 42.167 -111 73.5s-55.833 68.333 -73.5 111s-26.5 89 -26.5 139zM630 350c0 34 -5.83301 65.5 -17.5 94.5s-28 54 -49 75s-46 37.333 -75 49s-60.5 17.5 -94.5 17.5
s-65.5 -5.83301 -94.5 -17.5s-54 -28 -75 -49s-37.333 -46 -49 -75s-17.5 -60.5 -17.5 -94.5s5.83301 -65.5 17.5 -94.5s28 -54 49 -75s46 -37.333 75 -49s60.5 -17.5 94.5 -17.5s65.5 5.83301 94.5 17.5s54 28 75 49s37.333 46 49 75s17.5 60.5 17.5 94.5z" />
    <glyph glyph-name="P" unicode="P" horiz-adv-x="606" 
d="M338 700c34.667 0 66.834 -6.00195 96.501 -18.002s55.167 -28.667 76.5 -50s38 -46.666 50 -75.999s18 -61.333 18 -96s-6 -66.667 -18 -96s-28.667 -54.666 -50 -75.999s-46.833 -38 -76.5 -50s-61.834 -18 -96.501 -18h-147v-220h-114v700h261zM465 459.998
c0 36.667 -11.833 66.832 -35.5 90.499s-54.167 35.5 -91.5 35.5h-147v-252h147c37.333 0 67.833 11.833 91.5 35.5s35.5 53.834 35.5 90.501z" />
    <glyph glyph-name="Q" unicode="Q" horiz-adv-x="824" 
d="M598 61c-28 -19.333 -59.168 -34.333 -93.501 -45s-71.166 -16 -110.499 -16c-50 -0 -96.333 8.83301 -139 26.5s-79.667 42.167 -111 73.5s-55.833 68.333 -73.5 111s-26.5 89 -26.5 139s8.83301 96.333 26.5 139s42.167 79.667 73.5 111s68.333 55.833 111 73.5
s89 26.5 139 26.5s96.5 -8.83301 139.5 -26.5s80 -42.167 111 -73.5s55.333 -68.333 73 -111s26.5 -89 26.5 -139c0 -40 -5.66699 -77.667 -17 -113s-27.333 -67.333 -48 -96l171 -172l-79 -81zM393.999 114c22.667 0 44.168 2.66895 64.501 8.00195
s39.166 12.666 56.499 21.999l-177 178l79 81l179 -180c22.667 37.333 34 79.666 34 126.999c0 34 -5.83301 65.5 -17.5 94.5s-28 54 -49 75s-46 37.333 -75 49s-60.5 17.5 -94.5 17.5s-65.5 -5.83301 -94.5 -17.5s-54 -28 -75 -49s-37.333 -46 -49 -75
s-17.5 -60.5 -17.5 -94.5s5.83301 -65.5 17.5 -94.5s28 -54 49 -75s46 -37.333 75 -49s60.5 -17.5 94.5 -17.5z" />
    <glyph glyph-name="R" unicode="R" horiz-adv-x="680" 
d="M289 335l-30 42l94 63l67 -93c21.333 9.33301 38.5 24 51.5 44s19.5 43.333 19.5 70c0 36.667 -11.833 66.667 -35.5 90s-54.167 35 -91.5 35h-173v-251h98zM191 0l-114.001 -0.000976562v700h287c34.667 0 66.834 -6 96.501 -18s55.167 -28.667 76.5 -50
s38 -46.666 50 -75.999s18 -61 18 -95c0 -46.667 -10.5 -88 -31.5 -124s-49.5 -64.333 -85.5 -85l182 -252h-141l-158 221h-7h-173v-221z" />
    <glyph glyph-name="S" unicode="S" horiz-adv-x="536" 
d="M49 505c0 30.667 5.66602 58.1689 16.999 82.502s27 44.833 47 61.5s43.333 29.334 70 38.001s55 13 85 13c56.667 0 105 -15 145 -45s67 -72.333 81 -127l-105 -43c-9.33301 36 -24.5 61.833 -45.5 77.5s-46.833 23.5 -77.5 23.5c-34 0 -59.667 -8 -77 -24
s-26 -35.333 -26 -58c0 -15.333 3.33301 -28 10 -38s16 -18.667 28 -26s26.167 -14 42.5 -20s34.166 -12 53.499 -18c25.333 -8.66699 49.5 -18.167 72.5 -28.5s43.167 -23.333 60.5 -39s31 -34.5 41 -56.5s15 -48.667 15 -80c0 -32.667 -5.66699 -61.334 -17 -86.001
s-26.833 -45.334 -46.5 -62.001s-42.667 -29.167 -69 -37.5s-54.166 -12.5 -83.499 -12.5c-24 0 -48 3 -72 9s-46.333 15.833 -67 29.5s-38.834 31.334 -54.501 53.001s-27.167 48.5 -34.5 80.5l101 48c16 -70.667 58.333 -106 127 -106c32 0 57 7.16699 75 21.5
s27 34.833 27 61.5c0 16 -3.33301 29.333 -10 40s-15.667 19.667 -27 27s-24.5 13.666 -39.5 18.999s-30.833 10.666 -47.5 15.999c-22.667 6.66699 -45.667 15 -69 25s-44.666 22.833 -63.999 38.5s-35.166 35 -47.499 58s-18.5 51.167 -18.5 84.5z" />
    <glyph glyph-name="T" unicode="T" horiz-adv-x="653" 
d="M384 586v-586h-114v586h-265v114h643v-114h-264z" />
    <glyph glyph-name="U" unicode="U" horiz-adv-x="774" 
d="M710 700l-0.00195312 -378c0 -46.667 -8.16699 -89.667 -24.5 -129s-39 -73.333 -68 -102s-63.167 -51 -102.5 -67s-82 -24 -128 -24s-88.667 8 -128 24s-73.5 38.333 -102.5 67s-51.667 62.667 -68 102s-24.5 82.333 -24.5 129v378h114v-378
c0 -30.667 5.33301 -58.834 16 -84.501s25.334 -47.667 44.001 -66s40.667 -32.5 66 -42.5s53 -15 83 -15s57.667 5 83 15s47.333 24.167 66 42.5s33.334 40.333 44.001 66s16 53.834 16 84.501v378h114z" />
    <glyph glyph-name="V" unicode="V" horiz-adv-x="763" 
d="M334 0l-332 700h126l254 -535l252 535h127l-332 -700h-95z" />
    <glyph glyph-name="W" unicode="W" horiz-adv-x="1230" 
d="M285 0l-275 700h123l203 -518l223 518h111l224 -518l203 518h123l-275 -700h-97l-233 538l-233 -538h-97z" />
    <glyph glyph-name="X" unicode="X" horiz-adv-x="737" 
d="M12 0l283 350l-283 350h147l210 -259l210 259h146l-283 -350l283 -350h-147l-209 259l-210 -259h-147z" />
    <glyph glyph-name="Y" unicode="Y" horiz-adv-x="685" 
d="M285 0v283l-283 417h138l202 -297l203 297h138l-284 -417v-283h-114z" />
    <glyph glyph-name="Z" unicode="Z" horiz-adv-x="663" 
d="M615 700v-84l-396 -502h396v-114h-566v84l396 502h-396v114h566z" />
    <glyph glyph-name="bracketleft" unicode="[" horiz-adv-x="343" 
d="M321 761v-94h-120v-707h120v-94h-220v895h220z" />
    <glyph glyph-name="backslash" unicode="\" horiz-adv-x="814" 
d="M112 770l660 -771l-80 -70l-660 771z" />
    <glyph glyph-name="bracketright" unicode="]" horiz-adv-x="343" 
d="M242 761v-895h-220v94h120v707h-120v94h220z" />
    <glyph glyph-name="asciicircum" unicode="^" horiz-adv-x="431" 
d="M269 727l142 -254l-89 -45l-107 193l-106 -193l-89 45l141 254h108z" />
    <glyph glyph-name="underscore" unicode="_" horiz-adv-x="598" 
d="M568 13v-106h-538v106h538z" />
    <glyph glyph-name="grave" unicode="`" horiz-adv-x="367" 
d="M99 767l218 -136l-48 -75l-219 134z" />
    <glyph glyph-name="a" unicode="a" horiz-adv-x="526" 
d="M366 231l-143.999 -17.999c-24.667 -3.33301 -42.834 -10.833 -54.501 -22.5s-17.5 -25.834 -17.5 -42.501c0 -19.333 6.83301 -34.833 20.5 -46.5s34.167 -17.5 61.5 -17.5c20.667 0 39.334 3.33301 56.001 10s30.667 15.5 42 26.5s20.166 23.667 26.499 38
s9.5 28.833 9.5 43.5v29zM53.001 392.001c12.667 37.333 36.4971 66.668 71.4971 88.001s81.833 32 140.5 32c70.667 0 123.167 -16.333 157.5 -49s51.5 -81.334 51.5 -146.001v-317h-108v69c-15.333 -23.333 -36.166 -42.333 -62.499 -57s-58.5 -22 -96.5 -22
c-26 0 -49.5 3.83301 -70.5 11.5s-38.667 18.334 -53 32.001s-25.5 30 -33.5 49s-12 39.833 -12 62.5c0 46 15.167 82.333 45.5 109s68.5 42 114.5 46l139 14c19.333 2 29 9.66699 29 23v11c0 19.333 -8.16699 35.166 -24.5 47.499s-41.166 18.5 -74.499 18.5
c-30.667 0 -57.667 -5.83301 -81 -17.5s-38.666 -31.5 -45.999 -59.5z" />
    <glyph glyph-name="b" unicode="b" horiz-adv-x="607" 
d="M172 700l-0.000976562 -272.002c19.333 24 43 44 71 60s62 24 102 24c32 0 62.167 -5.83301 90.5 -17.5s53 -28.834 74 -51.501s37.667 -50.167 50 -82.5s18.5 -69.166 18.5 -110.499s-6.16699 -78.166 -18.5 -110.499s-29 -59.666 -50 -81.999s-45.667 -39.5 -74 -51.5
s-58.833 -18 -91.5 -18c-39.333 0 -73.166 7.5 -101.499 22.5s-51.833 35.167 -70.5 60.5v-71h-108v700h108zM466.999 249.998c0 47.333 -13.667 85.6699 -41 115.003s-63.666 44 -108.999 44c-44.667 0 -80.834 -14.333 -108.501 -43s-41.5 -67.334 -41.5 -116.001
s13.833 -87.334 41.5 -116.001s63.834 -43 108.501 -43c45.333 0 81.666 14.667 108.999 44s41 67.666 41 114.999z" />
    <glyph glyph-name="c" unicode="c" horiz-adv-x="500" 
d="M29 249c0 38.667 6.50391 74 19.5039 106s31.167 59.667 54.5 83s51.166 41.5 83.499 54.5s68.166 19.5 107.499 19.5s74.333 -6.5 105 -19.5s57.334 -30.833 80.001 -53.5l-65 -85c-15.333 15.333 -33 28 -53 38s-43.333 15 -70 15c-21.333 0 -41.333 -3.66699 -60 -11
s-34.667 -17.833 -48 -31.5s-23.833 -30.167 -31.5 -49.5s-11.5 -41 -11.5 -65s3.83301 -45.667 11.5 -65s18.167 -35.833 31.5 -49.5s29.166 -24.167 47.499 -31.5s38.166 -11 59.499 -11c28 0 52.5 5.33301 73.5 16s39.5 23.667 55.5 39l62 -86
c-21.333 -21.333 -48 -39 -80 -53s-69 -21 -111 -21c-39.333 0 -75 6.33301 -107 19s-59.333 30.5 -82 53.5s-40.334 50.5 -53.001 82.5s-19 67.333 -19 106z" />
    <glyph glyph-name="d" unicode="d" horiz-adv-x="607" 
d="M290 409c-45.333 0 -81.666 -14.6709 -108.999 -44.0039s-41 -67.666 -41 -114.999s13.667 -85.666 41 -114.999s63.666 -44 108.999 -44c44.667 0 80.834 14.333 108.501 43s41.5 67.334 41.5 116.001s-13.833 87.334 -41.5 116.001s-63.834 43 -108.501 43z
M543 699.996l-0.000976562 -699.998h-108v71c-18.667 -25.333 -42.167 -45.5 -70.5 -60.5s-62.166 -22.5 -101.499 -22.5c-32.667 0 -63.167 6 -91.5 18s-53 29.167 -74 51.5s-37.667 49.666 -50 81.999s-18.5 69.166 -18.5 110.499s6.16699 78.166 18.5 110.499
s29 59.833 50 82.5s45.667 39.834 74 51.501s58.5 17.5 90.5 17.5c40 0 74 -8 102 -24s51.667 -36 71 -60v272h108z" />
    <glyph glyph-name="e" unicode="e" horiz-adv-x="548" 
d="M29 248c0 36.667 5.83008 70.9971 17.4971 102.997s28.334 60 50.001 84s48 42.833 79 56.5s65.833 20.5 104.5 20.5s73.167 -6.5 103.5 -19.5s55.833 -31.167 76.5 -54.5s36.334 -51.166 47.001 -83.499s16 -67.833 16 -106.5v-31h-384v-1
c2.66699 -21.333 8.5 -40 17.5 -56s20.333 -29.167 34 -39.5s29 -18.166 46 -23.499s34.5 -8 52.5 -8c33.333 0 62.333 6.33301 87 19s45.667 28 63 46l51 -87c-20.667 -20 -47.334 -38.167 -80.001 -54.5s-72.667 -24.5 -120 -24.5c-40 0 -76.167 6.33301 -108.5 19
s-59.666 30.5 -81.999 53.5s-39.666 50.333 -51.999 82s-18.5 66.834 -18.5 105.501zM404.997 298.997c-3.33301 34.667 -15.499 62.833 -36.499 84.5s-51.167 32.5 -90.5 32.5c-40 0 -71.333 -10.5 -94 -31.5s-37.334 -49.5 -44.001 -85.5h265z" />
    <glyph glyph-name="f" unicode="f" horiz-adv-x="381" 
d="M216 408l-0.000976562 -408h-108v408h-96v92h96v27c0 32.667 4.33301 60.667 13 84s20.5 42.333 35.5 57s33 25.334 54 32.001s43.833 10 68.5 10c16 0 30.833 -0.833008 44.5 -2.5s27.834 -3.5 42.501 -5.5v-100c-14 2.66699 -26.5 4.66699 -37.5 6s-21.833 2 -32.5 2
c-29.333 0 -50 -6.83301 -62 -20.5s-18 -36.834 -18 -69.501v-20h144v-92h-144z" />
    <glyph glyph-name="g" unicode="g" horiz-adv-x="615" 
d="M446 250c0 48.667 -13.333 87.332 -40 115.999s-62.334 43 -107.001 43c-22.667 0 -43.334 -3.83301 -62.001 -11.5s-34.667 -18.5 -48 -32.5s-23.666 -30.833 -30.999 -50.5s-11 -41.167 -11 -64.5s3.66699 -44.833 11 -64.5s17.666 -36.5 30.999 -50.5
s29.333 -24.833 48 -32.5s39.334 -11.5 62.001 -11.5c44.667 0 80.334 14.333 107.001 43s40 67.334 40 116.001zM36 250.998c0 40.667 6.16504 77.167 18.498 109.5s29.333 59.666 51 81.999s46.834 39.5 75.501 51.5s59.667 18 93 18c40 0 74.333 -8 103 -24
s50 -35 64 -57v69h109v-470c0 -31.333 -3.83301 -61.5 -11.5 -90.5s-21.167 -54.833 -40.5 -77.5s-45.5 -40.834 -78.5 -54.501s-74.833 -20.5 -125.5 -20.5c-57.333 0 -103.333 9.16699 -138 27.5s-63.334 42.833 -86.001 73.5l66 80c18.667 -26.667 40.834 -47 66.501 -61
s56.5 -21 92.5 -21c30 0 54.5 4 73.5 12s34.167 18.833 45.5 32.5s19.166 29.334 23.499 47.001s6.5 36.167 6.5 55.5v37c-16 -23.333 -38.5 -42.166 -67.5 -56.499s-62.5 -21.5 -100.5 -21.5c-35.333 0 -67.666 5.83301 -96.999 17.5s-54.666 28.667 -75.999 51
s-37.833 49.5 -49.5 81.5s-17.5 68.333 -17.5 109z" />
    <glyph glyph-name="h" unicode="h" horiz-adv-x="574" 
d="M172 700v-269.001c18 25.333 40.333 45.166 67 59.499s58 21.5 94 21.5c30.667 0 57.5 -5 80.5 -15s42 -24.167 57 -42.5s26.167 -40.333 33.5 -66s11 -54.5 11 -86.5v-302h-110v288c0 38.667 -9 68.667 -27 90s-43.667 32 -77 32c-24 0 -44.333 -4.33301 -61 -13
s-30 -20.667 -40 -36s-17.167 -33.666 -21.5 -54.999s-6.5 -44.666 -6.5 -69.999v-236h-108v700h108z" />
    <glyph glyph-name="i" unicode="i" horiz-adv-x="249" 
d="M48 644c0 21.333 7.33301 39.333 22 54s32.667 22 54 22s39.333 -7.33301 54 -22s22 -32.667 22 -54s-7.33301 -39.333 -22 -54s-32.667 -22 -54 -22s-39.333 7.33301 -54 22s-22 32.667 -22 54zM178 500v-500h-108v500h108z" />
    <glyph glyph-name="j" unicode="j" horiz-adv-x="266" 
d="M62 644c0 21.333 7.33301 39.333 22 54s32.667 22 54 22s39.333 -7.33301 54 -22s22 -32.667 22 -54s-7.33301 -39.333 -22 -54s-32.667 -22 -54 -22s-39.333 7.33301 -54 22s-22 32.667 -22 54zM192 500v-520.001c0 -64 -16.333 -110.833 -49 -140.5
s-84.667 -44.5 -156 -44.5h-10c-2.66699 0 -6 0.333008 -10 1v102h9c22 0 40 1.83301 54 5.5s25 9.33398 33 17.001s13.5 17 16.5 28s4.5 23.5 4.5 37.5v514h108z" />
    <glyph glyph-name="k" unicode="k" horiz-adv-x="533" 
d="M236 210l-64 -64v-146h-108v700h108v-418l206 218h147l-216 -217l216 -283h-140z" />
    <glyph glyph-name="l" unicode="l" horiz-adv-x="238" 
d="M174 700v-700h-110v700h110z" />
    <glyph glyph-name="m" unicode="m" horiz-adv-x="920" 
d="M486 416c17.333 28 40.168 50.999 68.501 68.999s64.833 27 109.5 27c64 0 111.833 -19.5 143.5 -58.5s47.5 -91.5 47.5 -157.5v-296h-109v288c0 40 -8.66699 70.333 -26 91s-43.333 31 -78 31c-24.667 0 -45.167 -4.5 -61.5 -13.5s-29.5 -21.167 -39.5 -36.5
s-17.167 -33.666 -21.5 -54.999s-6.5 -44.333 -6.5 -69v-236h-108v288c0 40 -8.83301 70.333 -26.5 91s-43.834 31 -78.501 31c-24.667 0 -45.167 -4.5 -61.5 -13.5s-29.5 -21.333 -39.5 -37s-17 -34 -21 -55s-6 -43.833 -6 -68.5v-236h-108v500h105v-71
c15.333 24.667 35.833 44.667 61.5 60s57.5 23 95.5 23c40 0 73.333 -8.5 100 -25.5s46.667 -40.5 60 -70.5z" />
    <glyph glyph-name="n" unicode="n" horiz-adv-x="581" 
d="M169 431c18.667 26 42 45.998 70 59.998s59.333 21 94 21c30.667 0 57.5 -5 80.5 -15s42 -24.167 57 -42.5s26.167 -40.333 33.5 -66s11 -54.5 11 -86.5v-302h-110v288c0 41.333 -9.5 72 -28.5 92s-44.5 30 -76.5 30c-24 0 -44.167 -4.33301 -60.5 -13
s-29.5 -20.667 -39.5 -36s-17.167 -33.666 -21.5 -54.999s-6.5 -44.666 -6.5 -69.999v-236h-108v500h105v-69v0z" />
    <glyph glyph-name="o" unicode="o" horiz-adv-x="588" 
d="M29 250c0 38 6.66699 73.167 20 105.5s31.833 60 55.5 83s51.667 41 84 54s67.5 19.5 105.5 19.5s73.167 -6.5 105.5 -19.5s60.333 -31 84 -54s42.167 -50.667 55.5 -83s20 -67.5 20 -105.5s-6.66699 -73.167 -20 -105.5s-31.833 -60 -55.5 -83s-51.667 -41 -84 -54
s-67.5 -19.5 -105.5 -19.5s-73.167 6.5 -105.5 19.5s-60.333 31 -84 54s-42.167 50.667 -55.5 83s-20 67.5 -20 105.5zM448 250c0 23.333 -3.83301 44.666 -11.5 63.999s-18.334 35.833 -32.001 49.5s-29.834 24.334 -48.501 32.001s-39.334 11.5 -62.001 11.5
s-43.334 -3.83301 -62.001 -11.5s-34.834 -18.334 -48.501 -32.001s-24.334 -30.167 -32.001 -49.5s-11.5 -40.666 -11.5 -63.999s3.83301 -44.666 11.5 -63.999s18.334 -35.833 32.001 -49.5s29.834 -24.334 48.501 -32.001s39.334 -11.5 62.001 -11.5
s43.334 3.83301 62.001 11.5s34.834 18.334 48.501 32.001s24.334 30.167 32.001 49.5s11.5 40.666 11.5 63.999z" />
    <glyph glyph-name="p" unicode="p" horiz-adv-x="607" 
d="M317 91c45.333 0 81.666 14.6709 108.999 44.0039s41 67.666 41 114.999s-13.667 85.666 -41 114.999s-63.666 44 -108.999 44c-44.667 0 -80.834 -14.333 -108.501 -43s-41.5 -67.334 -41.5 -116.001s13.833 -87.334 41.5 -116.001s63.834 -43 108.501 -43zM64 -199.996
l0.000976562 700.001h108v-71c18.667 25.333 42.167 45.5 70.5 60.5s62.166 22.5 101.499 22.5c32.667 0 63.167 -6 91.5 -18s53 -29.167 74 -51.5s37.667 -49.833 50 -82.5s18.5 -69.334 18.5 -110.001c0 -41.333 -6.16699 -78.166 -18.5 -110.499s-29 -59.833 -50 -82.5
s-45.667 -39.834 -74 -51.501s-58.5 -17.5 -90.5 -17.5c-40 0 -74 8 -102 24s-51.667 36 -71 60v-272h-108z" />
    <glyph glyph-name="q" unicode="q" horiz-adv-x="607" 
d="M435 -200l0.000976562 271.999c-19.333 -24 -43 -44 -71 -60s-62 -24 -102 -24c-32 0 -62.167 5.83301 -90.5 17.5s-53 28.834 -74 51.501s-37.667 50.167 -50 82.5s-18.5 69.166 -18.5 110.499c0 40.667 6.16699 77.334 18.5 110.001s29 60.167 50 82.5
s45.667 39.5 74 51.5s58.833 18 91.5 18c39.333 0 73.166 -7.5 101.499 -22.5s51.833 -35.167 70.5 -60.5v71h108v-700h-108zM140.001 249.999c0 -47.333 13.667 -85.6699 41 -115.003s63.666 -44 108.999 -44c44.667 0 80.834 14.333 108.501 43s41.5 67.334 41.5 116.001
s-13.833 87.334 -41.5 116.001s-63.834 43 -108.501 43c-45.333 0 -81.666 -14.667 -108.999 -44s-41 -67.666 -41 -114.999z" />
    <glyph glyph-name="r" unicode="r" horiz-adv-x="379" 
d="M168 421c15.333 28.667 34.833 51 58.5 67s53.167 24 88.5 24c16.667 0 33 -2 49 -6v-115c-8.66699 2 -17.5 3.66699 -26.5 5s-18.5 2 -28.5 2c-50 0 -85.333 -14.833 -106 -44.5s-31 -71.167 -31 -124.5v-229h-108v500h104v-79v0z" />
    <glyph glyph-name="s" unicode="s" horiz-adv-x="470" 
d="M50 359c0 47.333 17.3301 84.6699 51.9971 112.003s83.334 41 146.001 41c48 0 88 -8.16699 120 -24.5s58.333 -38.5 79 -66.5l-73 -70c-12 18 -29.167 32.833 -51.5 44.5s-49.166 17.5 -80.499 17.5c-24.667 0 -44.5 -4.33301 -59.5 -13s-22.5 -20.667 -22.5 -36
c0 -18.667 9.83301 -31.667 29.5 -39s49.167 -15.333 88.5 -24c21.333 -4.66699 42.166 -10.167 62.499 -16.5s38.5 -15.166 54.5 -26.499s28.833 -25.833 38.5 -43.5s14.5 -40.167 14.5 -67.5s-5 -51 -15 -71s-23.833 -36.5 -41.5 -49.5s-39 -22.667 -64 -29
s-52.5 -9.5 -82.5 -9.5c-48 0 -91.667 8 -131 24s-69.666 41.667 -90.999 77l74 71c15.333 -26 36.833 -44.833 64.5 -56.5s57.834 -17.5 90.501 -17.5c25.333 0 46 4.16699 62 12.5s24 22.166 24 41.499s-9 32.833 -27 40.5s-46 15.5 -84 23.5
c-19.333 4 -39.5 9.16699 -60.5 15.5s-40.167 15.166 -57.5 26.499s-31.5 26.166 -42.5 44.499s-16.5 41.166 -16.5 68.499z" />
    <glyph glyph-name="t" unicode="t" horiz-adv-x="378" 
d="M348 9c-32 -9.33301 -64.332 -14 -96.999 -14c-46 0 -81.167 11.333 -105.5 34s-36.5 61.667 -36.5 117v262h-95v92h95v134h108v-134h132v-92h-132v-255c0 -17.333 4.16699 -30.5 12.5 -39.5s22.166 -13.5 41.499 -13.5c13.333 0 25.5 0.666992 36.5 2
s24.5 3.33301 40.5 6v-99v0z" />
    <glyph glyph-name="u" unicode="u" horiz-adv-x="574" 
d="M508 500l0.00292969 -499.999h-104v74c-18.667 -27.333 -40.334 -48.5 -65.001 -63.5s-56 -22.5 -94 -22.5c-32 0 -59.5 5 -82.5 15s-41.833 24.333 -56.5 43s-25.334 40.667 -32.001 66s-10 53.666 -10 84.999v303h111v-288c0 -37.333 7.16699 -66.833 21.5 -88.5
s40.166 -32.5 77.499 -32.5c24 0 44 4.5 60 13.5s28.833 21.333 38.5 37s16.667 34 21 55s6.5 43.5 6.5 67.5v236h108z" />
    <glyph glyph-name="v" unicode="v" horiz-adv-x="536" 
d="M226 0l-222 500h123l141 -347l141 347h123l-222 -500h-84z" />
    <glyph glyph-name="w" unicode="w" horiz-adv-x="859" 
d="M208 0l-204 500h120l127 -336l137 336h83l137 -336l127 336h120l-204 -500h-82l-140 329l-139 -329h-82z" />
    <glyph glyph-name="x" unicode="x" horiz-adv-x="540" 
d="M270 168l-130 -168h-131l196 252l-193 248h132l127 -163l126 163h131l-192 -247l196 -253h-132z" />
    <glyph glyph-name="y" unicode="y" horiz-adv-x="531" 
d="M96 -200l123 269l-215 431h128l144 -306l140 306h115l-320 -700h-115z" />
    <glyph glyph-name="z" unicode="z" horiz-adv-x="470" 
d="M434 500v-90l-266 -310h275v-100h-416v90l265 310h-252v100h394z" />
    <glyph glyph-name="braceleft" unicode="{" horiz-adv-x="380" 
d="M365 761v-94.0029h-39c-20 0 -36.5 -5.66699 -49.5 -17s-19.5 -27.666 -19.5 -48.999v-164c0 -28 -5.66699 -52.333 -17 -73s-32.333 -36 -63 -46c30.667 -10 51.667 -25.167 63 -45.5s17 -44.166 17 -71.499v-175c0 -21.333 6.5 -37.666 19.5 -48.999s29.5 -17 49.5 -17
h39v-94h-37c-25.333 0 -48.5 2.83301 -69.5 8.5s-39 14.667 -54 27s-26.5 28.5 -34.5 48.5s-12 44.333 -12 73v163c0 50 -35.667 76.667 -107 80v96c36 1.33301 62.833 9.5 80.5 24.5s26.5 35.167 26.5 60.5v157c0 28.667 4 53 12 73s19.5 36.167 34.5 48.5s33 21.333 54 27
s44.167 8.5 69.5 8.5h37z" />
    <glyph glyph-name="bar" unicode="|" horiz-adv-x="298" 
d="M198 761v-895h-98v895h98z" />
    <glyph glyph-name="braceright" unicode="}" horiz-adv-x="380" 
d="M52 761c25.333 0 48.5 -2.83008 69.5 -8.49707s39 -14.667 54 -27s26.5 -28.5 34.5 -48.5s12 -44.333 12 -73v-157c0 -25.333 8.83301 -45.5 26.5 -60.5s44.5 -23.167 80.5 -24.5v-96c-71.333 -3.33301 -107 -30 -107 -80v-163c0 -28.667 -4 -53 -12 -73
s-19.5 -36.167 -34.5 -48.5s-33 -21.333 -54 -27s-44.167 -8.5 -69.5 -8.5h-37v94h39c20 0 36.5 5.66699 49.5 17s19.5 27.666 19.5 48.999v175c0 27.333 5.66699 51.166 17 71.499s32.333 35.5 63 45.5c-30.667 10 -51.667 25.333 -63 46s-17 45 -17 73v164
c0 21.333 -6.5 37.666 -19.5 48.999s-29.5 17 -49.5 17h-39v94h37z" />
    <glyph glyph-name="asciitilde" unicode="~" horiz-adv-x="718" 
d="M70 317c10.667 10 22.667 20.332 36 30.999s27.5 20.167 42.5 28.5s30.667 15.166 47 20.499s33.166 8 50.499 8c23.333 0 45.333 -4.16699 66 -12.5s40.334 -17.5 59.001 -27.5l52.5 -27.5c16.333 -8.33301 32.166 -12.5 47.499 -12.5c18.667 0 37.5 6 56.5 18
s37.167 26.333 54.5 43l66 -72c-11.333 -11.333 -23.833 -22.666 -37.5 -33.999s-28 -21.666 -43 -30.999s-30.667 -17 -47 -23s-33.166 -9 -50.499 -9c-22.667 0 -44.167 4.16699 -64.5 12.5s-39.833 17.5 -58.5 27.5l-53 27.5c-16.667 8.33301 -32.667 12.5 -48 12.5
c-18 0 -36.5 -6 -55.5 -18s-37.167 -26.333 -54.5 -43l-66 81v0z" />
    <glyph glyph-name="exclamdown" unicode="&#xa1;" horiz-adv-x="338" 
d="M256 414c0 -24.667 -8.33301 -45.334 -25 -62.001s-37.334 -25 -62.001 -25s-45.167 8.33301 -61.5 25s-24.5 37.334 -24.5 62.001s8.16699 45.167 24.5 61.5s36.833 24.5 61.5 24.5s45.334 -8.16699 62.001 -24.5s25 -36.833 25 -61.5zM112 -200v469h114v-469h-114z" />
    <glyph glyph-name="cent" unicode="&#xa2;" horiz-adv-x="500" 
d="M481 62c-19.333 -19.333 -43.001 -35.6699 -71.001 -49.0029s-60 -21.333 -96 -24v-76h-65v78c-33.333 4 -63.5 13.167 -90.5 27.5s-50.167 32.833 -69.5 55.5s-34.166 48.667 -44.499 78s-15.5 61.666 -15.5 96.999c0 34.667 5.33301 66.834 16 96.501
s25.5 55.834 44.5 78.501s42 41.334 69 56.001s57.167 24.334 90.5 29.001v80h65v-78c34.667 -2 65.667 -9.33301 93 -22s51.333 -29.334 72 -50.001l-65 -85c-13.333 12.667 -28 23.667 -44 33s-34.667 15.333 -56 18v-310c21.333 3.33301 40.833 9.83301 58.5 19.5
s33.167 20.834 46.5 33.501zM139.999 249.996c0 -40 10.167 -73.167 30.5 -99.5s46.5 -43.833 78.5 -52.5v304c-32 -8.66699 -58.167 -26.167 -78.5 -52.5s-30.5 -59.5 -30.5 -99.5z" />
    <glyph glyph-name="sterling" unicode="&#xa3;" horiz-adv-x="623" 
d="M600 91c-10 -12 -21.166 -23.501 -33.499 -34.501s-26.5 -20.667 -42.5 -29s-34.333 -15 -55 -20s-44.667 -7.5 -72 -7.5h-329v103c26.667 3.33301 47.167 12.5 61.5 27.5s21.5 37.5 21.5 67.5v127h-91v74h91v99c0 28.667 4.16699 55.334 12.5 80.001s20.833 46 37.5 64
s37.5 32.167 62.5 42.5s54.5 15.5 88.5 15.5c23.333 0 44.666 -3.16699 63.999 -9.5s36.666 -14.5 51.999 -24.5s28.833 -21.5 40.5 -34.5s21.5 -26.167 29.5 -39.5l-83 -75c-10.667 21.333 -24.667 38.833 -42 52.5s-36.666 20.5 -57.999 20.5
c-28.667 0 -50.834 -8.5 -66.501 -25.5s-23.5 -41.5 -23.5 -73.5v-92h184v-74h-184v-123c0 -25.333 -4.66699 -45.5 -14 -60.5s-18.666 -25.167 -27.999 -30.5h174c36 0 65.667 7.5 89 22.5s43 33.833 59 56.5l55 -99v0z" />
    <glyph glyph-name="currency" unicode="&#xa4;" horiz-adv-x="539" 
d="M396 179c-17.333 -13.333 -36.832 -23.833 -58.499 -31.5s-44.5 -11.5 -68.5 -11.5c-23.333 0 -45.666 3.5 -66.999 10.5s-40.666 17.167 -57.999 30.5l-77 -76l-45 45l77 77c-13.333 17.333 -23.5 36.5 -30.5 57.5s-10.5 43.167 -10.5 66.5s3.5 45.833 10.5 67.5
s17.167 41.167 30.5 58.5l-74 74l46 45l73 -74c17.333 13.333 36.666 23.5 57.999 30.5s43.666 10.5 66.999 10.5s45.5 -3.5 66.5 -10.5s40.167 -16.833 57.5 -29.5l74 74l46 -45l-75 -74c13.333 -17.333 23.666 -36.833 30.999 -58.5s11 -44.5 11 -68.5
c0 -23.333 -3.5 -45.333 -10.5 -66s-16.833 -39.667 -29.5 -57l77 -78l-44 -45zM269.001 455c-14.667 0 -28.5 -2.83301 -41.5 -8.5s-24.333 -13.5 -34 -23.5s-17.334 -21.5 -23.001 -34.5s-8.5 -26.833 -8.5 -41.5s2.83301 -28.5 8.5 -41.5s13.334 -24.333 23.001 -34
s21 -17.334 34 -23.001s26.833 -8.5 41.5 -8.5s28.5 2.83301 41.5 8.5s24.5 13.334 34.5 23.001s17.833 21 23.5 34s8.5 26.833 8.5 41.5s-2.83301 28.5 -8.5 41.5s-13.5 24.5 -23.5 34.5s-21.5 17.833 -34.5 23.5s-26.833 8.5 -41.5 8.5z" />
    <glyph glyph-name="yen" unicode="&#xa5;" horiz-adv-x="685" 
d="M399 143v-143h-114v143h-176v73h176v65h-176v73h128l-235 346h138l202 -297l203 297h138l-236 -346h129v-73h-177v-65h177v-73h-177z" />
    <glyph glyph-name="brokenbar" unicode="&#xa6;" horiz-adv-x="298" 
d="M198 761v-388h-98v388h98zM198 284v-418h-98v418h98z" />
    <glyph glyph-name="section" unicode="&#xa7;" horiz-adv-x="533" 
d="M236 364c-20 -7.33301 -37.498 -18.002 -52.498 -32.002s-22.5 -30.667 -22.5 -50c0 -14 4 -25.833 12 -35.5s18.5 -18.167 31.5 -25.5s27.833 -14.333 44.5 -21l51 -21c19.333 7.33301 36.166 18 50.499 32s21.5 30.667 21.5 50c0 13.333 -3.83301 24.833 -11.5 34.5
s-17.834 18.334 -30.501 26.001s-27.167 14.834 -43.5 21.501zM277.002 711.998c39.333 0 75.498 -8.33105 108.498 -24.998s61.167 -42 84.5 -76l-78 -71c-11.333 20 -27.666 36.333 -48.999 49s-44.666 19 -69.999 19s-44.833 -6.16699 -58.5 -18.5
s-20.5 -27.5 -20.5 -45.5s7.16699 -32.667 21.5 -44s32.166 -21.666 53.499 -30.999s44.5 -18.833 69.5 -28.5s48.167 -21.667 69.5 -36s39.166 -32.333 53.499 -54s21.5 -48.834 21.5 -81.501c0 -33.333 -7.5 -62.166 -22.5 -86.499s-35.833 -44.166 -62.5 -59.499
c16 -13.333 28.833 -29.5 38.5 -48.5s14.5 -42.167 14.5 -69.5c0 -24.667 -4.33301 -47.667 -13 -69s-21.334 -39.833 -38.001 -55.5s-37 -28 -61 -37s-51 -13.5 -81 -13.5c-39.333 0 -75.666 8.16699 -108.999 24.5s-62 41.833 -86 76.5l79 71
c11.333 -20 27.5 -36.333 48.5 -49s44.167 -19 69.5 -19s44.833 6.33301 58.5 19s20.5 28.667 20.5 48c0 18 -7.16699 32.833 -21.5 44.5s-32.166 22.167 -53.499 31.5s-44.333 18.666 -69 27.999s-47.667 21.166 -69 35.499s-39.166 32.166 -53.499 53.499
s-21.5 48.333 -21.5 81c0 34 8 63.167 24 87.5s36.667 43.5 62 57.5c-16 13.333 -29 29.666 -39 48.999s-15 43 -15 71c0 26 4.66699 49.5 14 70.5s22.5 39 39.5 54s37.333 26.667 61 35s50.167 12.5 79.5 12.5z" />
    <glyph glyph-name="dieresis" unicode="&#xa8;" horiz-adv-x="449" 
d="M50 644c0 20.667 7 38 21 52s31.333 21 52 21s38 -7 52 -21s21 -31.333 21 -52s-7 -38 -21 -52s-31.333 -21 -52 -21s-38 7 -52 21s-21 31.333 -21 52zM254 644c0 20.667 7 38 21 52s31.333 21 52 21s37.834 -7 51.501 -21s20.5 -31.333 20.5 -52s-6.83301 -38 -20.5 -52
s-30.834 -21 -51.501 -21s-38 7 -52 21s-21 31.333 -21 52z" />
    <glyph glyph-name="copyright" unicode="&#xa9;" horiz-adv-x="824" 
d="M50 350c0 52 9.16699 100 27.5 144s43.5 82.167 75.5 114.5s70.167 57.666 114.5 75.999s92.5 27.5 144.5 27.5s100.167 -9.16699 144.5 -27.5s82.5 -43.666 114.5 -75.999s57.167 -70.5 75.5 -114.5s27.5 -92 27.5 -144s-9.16699 -100 -27.5 -144
s-43.5 -82.167 -75.5 -114.5s-70.167 -57.666 -114.5 -75.999s-92.5 -27.5 -144.5 -27.5s-100.167 9.16699 -144.5 27.5s-82.5 43.666 -114.5 75.999s-57.167 70.5 -75.5 114.5s-27.5 92 -27.5 144zM696 350c0 40.667 -7 78.5 -21 113.5s-33.667 65 -59 90
s-55.333 44.667 -90 59s-72.667 21.5 -114 21.5s-79.333 -7.16699 -114 -21.5s-64.667 -34 -90 -59s-45 -55 -59 -90s-21 -72.833 -21 -113.5c0 -41.333 7 -79.333 21 -114s33.667 -64.5 59 -89.5s55.333 -44.667 90 -59s72.667 -21.5 114 -21.5s79.333 7.16699 114 21.5
s64.667 34 90 59s45 54.833 59 89.5s21 72.667 21 114zM218 353c0 28 5.00098 54 15.001 78s23.833 44.833 41.5 62.5s38.667 31.5 63 41.5s50.5 15 78.5 15c55.333 0 103.333 -21.333 144 -64l-34 -65c-31.333 36.667 -68.666 55 -111.999 55
c-34.667 0 -63.667 -11 -87 -33s-35 -52 -35 -90c0 -37.333 11.667 -67.5 35 -90.5s53 -34.5 89 -34.5c21.333 0 41.166 4.5 59.499 13.5s35.166 21.833 50.499 38.5l34 -64c-40 -40.667 -88 -61 -144 -61c-28 0 -54.167 5 -78.5 15s-45.333 23.833 -63 41.5
s-31.5 38.667 -41.5 63s-15 50.5 -15 78.5z" />
    <glyph glyph-name="ordfeminine" unicode="&#xaa;" horiz-adv-x="449" 
d="M147 449c0 -12.667 5.00195 -22.998 15.002 -30.998s24.667 -12 44 -12c14 0 27.333 2.33301 40 7s23.667 10.834 33 18.501s16.666 16.667 21.999 27s8 21.166 8 32.499v14l-117 -13c-14.667 -2.66699 -25.834 -7.83398 -33.501 -15.501s-11.5 -16.834 -11.5 -27.501z
M399.002 330.002l-90.0029 0.000976562v54c-13.333 -18.667 -30.166 -33.667 -50.499 -45s-44.833 -17 -73.5 -17c-40.667 0 -73.334 11.5 -98.001 34.5s-37 52.833 -37 89.5c0 20 3.66699 37.333 11 52s16.833 26.834 28.5 36.501s25 17.167 40 22.5
s30.5 8.66602 46.5 9.99902l133 12c0 24 -6.16699 41.333 -18.5 52s-32.166 16 -59.499 16c-25.333 0 -46.666 -4.5 -63.999 -13.5s-29.666 -23.5 -36.999 -43.5l-72 52c14 27.333 34.5 48.666 61.5 63.999s63.167 23 108.5 23c114 0 171 -52.333 171 -157v-242z" />
    <glyph glyph-name="guillemotleft" unicode="&#xab;" horiz-adv-x="622" 
d="M40 260l204 223l72 -65l-147 -158l147 -159l-72 -64zM270 260l204 223l72 -65l-147 -158l147 -159l-72 -64z" />
    <glyph glyph-name="logicalnot" unicode="&#xac;" 
d="M566 414v-285h-115v171h-377v114h492z" />
    <glyph glyph-name="softhyphen" unicode="&#xad;" horiz-adv-x="529" 
d="M449 362v-114h-369v114h369z" />
    <glyph glyph-name="registered" unicode="&#xae;" horiz-adv-x="824" 
d="M50 350c0 52 9.16699 100 27.5 144s43.5 82.167 75.5 114.5s70.167 57.666 114.5 75.999s92.5 27.5 144.5 27.5s100.167 -9.16699 144.5 -27.5s82.5 -43.666 114.5 -75.999s57.167 -70.5 75.5 -114.5s27.5 -92 27.5 -144s-9.16699 -100 -27.5 -144
s-43.5 -82.167 -75.5 -114.5s-70.167 -57.666 -114.5 -75.999s-92.5 -27.5 -144.5 -27.5s-100.167 9.16699 -144.5 27.5s-82.5 43.666 -114.5 75.999s-57.167 70.5 -75.5 114.5s-27.5 92 -27.5 144zM696 350c0 40.667 -7 78.5 -21 113.5s-33.667 65 -59 90
s-55.333 44.667 -90 59s-72.667 21.5 -114 21.5s-79.333 -7.16699 -114 -21.5s-64.667 -34 -90 -59s-45 -55 -59 -90s-21 -72.833 -21 -113.5c0 -41.333 7 -79.333 21 -114s33.667 -64.5 59 -89.5s55.333 -44.667 90 -59s72.667 -21.5 114 -21.5s79.333 7.16699 114 21.5
s64.667 34 90 59s45 54.833 59 89.5s21 72.667 21 114zM498 423c0 15.333 -5.83301 28.333 -17.5 39s-26.167 16 -43.5 16h-84v-110h84c17.333 0 31.833 4.5 43.5 13.5s17.5 22.833 17.5 41.5zM287 170l-0.000976562 373h152c36.667 0 66.834 -11.333 90.501 -34
s35.5 -51.334 35.5 -86.001c0 -30.667 -7.83301 -55.667 -23.5 -75s-36.167 -32.666 -61.5 -39.999l85 -138h-79l-78 132l2 1h-57v-133h-66z" />
    <glyph glyph-name="macron" unicode="&#xaf;" horiz-adv-x="400" 
d="M350 691v-84h-300v84h300z" />
    <glyph glyph-name="degree" unicode="&#xb0;" horiz-adv-x="382" 
d="M50 590c0 19.333 3.5 37.333 10.5 54s16.833 31 29.5 43s27.667 21.5 45 28.5s36 10.5 56 10.5s38.667 -3.5 56 -10.5s32.333 -16.5 45 -28.5s22.5 -26.333 29.5 -43s10.5 -34.667 10.5 -54s-3.5 -37.333 -10.5 -54s-16.833 -31 -29.5 -43s-27.667 -21.5 -45 -28.5
s-36 -10.5 -56 -10.5s-38.667 3.5 -56 10.5s-32.333 16.5 -45 28.5s-22.5 26.333 -29.5 43s-10.5 34.667 -10.5 54zM261 590c0 20 -6.33301 36.667 -19 50s-29.667 20 -51 20s-38.333 -6.66699 -51 -20s-19 -30 -19 -50s6.33301 -36.667 19 -50s29.667 -20 51 -20
s38.333 6.66699 51 20s19 30 19 50z" />
    <glyph glyph-name="plusminus" unicode="&#xb1;" 
d="M376 592v-125h196v-112h-196v-126h-112v126h-196v112h196v125h112zM572 180v-113h-504v113h504z" />
    <glyph glyph-name="twosuperior" unicode="&#xb2;" horiz-adv-x="361" 
d="M29 730c5.33301 9.33301 12.167 19.166 20.5 29.499s18.5 20 30.5 29s26 16.5 42 22.5s34.667 9 56 9c20.667 0 39.667 -3.33301 57 -10s32.333 -15.834 45 -27.501s22.334 -25.667 29.001 -42s10 -34.5 10 -54.5c0 -25.333 -4.83301 -47.166 -14.5 -65.499
s-21.5 -34.166 -35.5 -47.499l-90 -87h140v-86h-278v69l160 154c9.33301 8 17 16.833 23 26.5s9 20.167 9 31.5c0 16 -5.33301 28.833 -16 38.5s-24.334 14.5 -41.001 14.5c-20 0 -37 -6 -51 -18s-24.667 -25 -32 -39l-64 53v0z" />
    <glyph glyph-name="threesuperior" unicode="&#xb3;" horiz-adv-x="356" 
d="M28 753c11.333 18.667 29.001 34.499 53.001 47.499s52.333 19.5 85 19.5c46 0 81.5 -10.833 106.5 -32.5s37.5 -49.5 37.5 -83.5c0 -26 -6.16699 -46.667 -18.5 -62s-26.166 -26 -41.499 -32c15.333 -6 29.166 -16.667 41.499 -32s18.5 -36 18.5 -62
c0 -34.667 -12.333 -62.667 -37 -84s-60 -32 -106 -32c-34 0 -62.833 6.5 -86.5 19.5s-41.167 29.167 -52.5 48.5l59 64c9.33301 -15.333 21.166 -26.833 35.499 -34.5s29.5 -11.5 45.5 -11.5c17.333 0 31 3.5 41 10.5s15 17.167 15 30.5c0 12.667 -4.83301 22.667 -14.5 30
s-23.167 11 -40.5 11h-32v85h32c17.333 0 30.833 3.66699 40.5 11s14.5 17 14.5 29c0 13.333 -5 23.5 -15 30.5s-23.667 10.5 -41 10.5c-15.333 0 -30.333 -3.66699 -45 -11s-26.667 -18.666 -36 -33.999l-59 64v0z" />
    <glyph glyph-name="acute" unicode="&#xb4;" horiz-adv-x="367" 
d="M268 767l49 -77l-219 -135l-48 76z" />
    <glyph glyph-name="uni00B5" unicode="&#xb5;" 
d="M279 -12c-29.333 0 -54.3311 4 -74.998 12v-200h-106v700h111v-288c0 -37.333 7.16699 -66.833 21.5 -88.5s40.166 -32.5 77.499 -32.5c24 0 44 4.5 60 13.5s28.833 21.333 38.5 37s16.667 34 21 55s6.5 43.5 6.5 67.5v236h108v-500h-104v74
c-18.667 -27.333 -40.334 -48.5 -65.001 -63.5s-56 -22.5 -94 -22.5z" />
    <glyph glyph-name="paragraph" unicode="&#xb6;" horiz-adv-x="538" 
d="M508 700v-834.001h-96v741h-104v-741h-97v457c-26 1.33301 -50.167 7.16602 -72.5 17.499s-41.5 24 -57.5 41s-28.5 36.833 -37.5 59.5s-13.5 47 -13.5 73s4.83301 50.333 14.5 73s23.167 42.334 40.5 59.001s37.833 29.834 61.5 39.501s49.5 14.5 77.5 14.5h284z" />
    <glyph glyph-name="periodcentered" unicode="&#xb7;" horiz-adv-x="373" 
d="M186 435c24.667 0 45.334 -8.33301 62.001 -25s25 -37.334 25 -62.001s-8.33301 -45.167 -25 -61.5s-37.334 -24.5 -62.001 -24.5s-45.167 8.16699 -61.5 24.5s-24.5 36.833 -24.5 61.5s8.16699 45.334 24.5 62.001s36.833 25 61.5 25z" />
    <glyph glyph-name="cedilla" unicode="&#xb8;" horiz-adv-x="267" 
d="M147 38c26 -26.667 44.166 -50.5 54.499 -71.5s15.5 -41.167 15.5 -60.5c0 -30 -9.5 -53.333 -28.5 -70s-43.167 -25 -72.5 -25c-21.333 0 -43.333 4.33301 -66 13v80c11.333 -3.33301 21 -6 29 -8s15.667 -3 23 -3c8 0 14.5 2.16699 19.5 6.5s7.5 11.833 7.5 22.5
c0 12 -4.66699 27.167 -14 45.5s-26.666 41.833 -51.999 70.5h84z" />
    <glyph glyph-name="onesuperior" unicode="&#xb9;" horiz-adv-x="314" 
d="M246 820v-420h-86v287l-79 -77l-59 62l151 148h73z" />
    <glyph glyph-name="ordmasculine" unicode="&#xba;" horiz-adv-x="518" 
d="M50 525c0 28.667 5.33301 55.5 16 80.5s25.334 46.667 44.001 65s40.667 32.666 66 42.999s53 15.5 83 15.5s57.667 -5.16699 83 -15.5s47.333 -24.666 66 -42.999s33.334 -40 44.001 -65s16 -51.833 16 -80.5c0 -29.333 -5.33301 -56.333 -16 -81
s-25.334 -46.167 -44.001 -64.5s-40.667 -32.666 -66 -42.999s-53 -15.5 -83 -15.5s-57.667 5.16699 -83 15.5s-47.333 24.666 -66 42.999s-33.334 39.833 -44.001 64.5s-16 51.667 -16 81zM372 525c0 16 -2.83301 30.833 -8.5 44.5s-13.5 25.667 -23.5 36
s-22 18.333 -36 24s-29 8.5 -45 8.5s-30.833 -2.83301 -44.5 -8.5s-25.5 -13.667 -35.5 -24s-17.833 -22.333 -23.5 -36s-8.5 -28.5 -8.5 -44.5s2.83301 -30.833 8.5 -44.5s13.5 -25.667 23.5 -36s21.833 -18.333 35.5 -24s28.5 -8.5 44.5 -8.5s31 2.83301 45 8.5
s26 13.667 36 24s17.833 22.333 23.5 36s8.5 28.5 8.5 44.5z" />
    <glyph glyph-name="guillemotright" unicode="&#xbb;" horiz-adv-x="623" 
d="M379 37l-72 64l147 159l-147 158l72 65l204 -223zM149 37l-72 64l147 159l-147 158l72 65l204 -223z" />
    <glyph glyph-name="onequarter" unicode="&#xbc;" horiz-adv-x="882" 
d="M695 712l57 -47l-542 -677l-57 47zM274 700v-420h-86v287l-79 -77l-59 62l151 148h73zM772 420v-269h61v-85h-61v-66h-86v66h-218v73l233 281h71zM686 269l-97 -118h97v118z" />
    <glyph glyph-name="onehalf" unicode="&#xbd;" horiz-adv-x="874" 
d="M677 712l57 -47l-542 -677l-57 47zM274 700v-420h-86v287l-79 -77l-59 62l151 148h73zM534 330c5.33301 9.33301 12.167 19.166 20.5 29.499s18.5 20 30.5 29s26 16.5 42 22.5s34.667 9 56 9c20.667 0 39.667 -3.33301 57 -10s32.333 -15.834 45 -27.501
s22.334 -25.667 29.001 -42s10 -34.5 10 -54.5c0 -25.333 -4.83301 -47.166 -14.5 -65.499s-21.5 -34.166 -35.5 -47.499l-90 -87h140v-86h-278v69l160 154c9.33301 8 17 16.833 23 26.5s9 20.167 9 31.5c0 16 -5.33301 28.833 -16 38.5s-24.334 14.5 -41.001 14.5
c-20 0 -37 -6 -51 -18s-24.667 -25 -32 -39z" />
    <glyph glyph-name="threequarters" unicode="&#xbe;" horiz-adv-x="882" 
d="M712 712l57 -47l-542 -677l-57 47zM771 420v-269h61v-85h-61v-66h-86v66h-218v73l233 281h71zM188 700c46 0 81.501 -10.834 106.501 -32.501s37.5 -49.5 37.5 -83.5c0 -26 -6.16699 -46.667 -18.5 -62s-26.166 -26 -41.499 -32c15.333 -6 29.166 -16.667 41.499 -32
s18.5 -36 18.5 -62c0 -34.667 -12.333 -62.667 -37 -84s-60 -32 -106 -32c-34 0 -62.833 6.5 -86.5 19.5s-41.167 29.167 -52.5 48.5l59 64c9.33301 -15.333 21.166 -26.833 35.499 -34.5s29.5 -11.5 45.5 -11.5c17.333 0 31 3.5 41 10.5s15 17.167 15 30.5
c0 12.667 -4.83301 22.667 -14.5 30s-23.167 11 -40.5 11h-32v85h32c17.333 0 30.833 3.66699 40.5 11s14.5 17 14.5 29c0 13.333 -5 23.5 -15 30.5s-23.667 10.5 -41 10.5c-15.333 0 -30.333 -3.66699 -45 -11s-26.667 -18.666 -36 -33.999l-59 64
c11.333 18.667 29 34.5 53 47.5s52.333 19.5 85 19.5zM685.001 268.999l-97 -118h97v118z" />
    <glyph glyph-name="questiondown" unicode="&#xbf;" horiz-adv-x="554" 
d="M290 327c-24.667 0 -45.334 8.33301 -62.001 25s-25 37.334 -25 62.001s8.33301 45.167 25 61.5s37.334 24.5 62.001 24.5s45.167 -8.16699 61.5 -24.5s24.5 -36.833 24.5 -61.5s-8.16699 -45.334 -24.5 -62.001s-36.833 -25 -61.5 -25zM504 29
c0 -34.667 -5 -66.1699 -15 -94.5029s-24.333 -52.5 -43 -72.5s-41.667 -35.333 -69 -46s-58 -16 -92 -16c-31.333 0 -59.666 4.83301 -84.999 14.5s-46.833 23 -64.5 40s-31.334 37.333 -41.001 61s-14.5 49.834 -14.5 78.501c0 20 2.33301 38 7 54s11.167 30.5 19.5 43.5
s17.833 25.167 28.5 36.5s22 22.333 34 33c9.33301 8 18 15.833 26 23.5s15 15.5 21 23.5s10.833 16.833 14.5 26.5s5.5 20.834 5.5 33.501v19h114v-32c0 -20.667 -3 -39.167 -9 -55.5s-13.667 -31.166 -23 -44.499s-19.833 -25.333 -31.5 -36s-23.167 -20.667 -34.5 -30
c-14 -11.333 -27.167 -23.833 -39.5 -37.5s-18.5 -31.167 -18.5 -52.5c0 -22.667 7.5 -42.5 22.5 -59.5s38.5 -25.5 70.5 -25.5c34 0 60.167 10 78.5 30s27.5 48.333 27.5 85h111z" />
    <glyph glyph-name="Agrave" unicode="&#xc0;" horiz-adv-x="779" 
d="M297 922l218 -136l-48 -75l-219 134zM241 231h297l-149 320zM591 117h-403l-54 -117h-125l325 700h111l325 -700h-125z" />
    <glyph glyph-name="Aacute" unicode="&#xc1;" horiz-adv-x="779" 
d="M482 922l49 -77l-219 -135l-48 76zM241 231h297l-149 320zM591 117h-403l-54 -117h-125l325 700h111l325 -700h-125z" />
    <glyph glyph-name="Acircumflex" unicode="&#xc2;" horiz-adv-x="779" 
d="M386 930l180 -154l-57 -62l-123 106l-123 -106l-57 62zM241 231h297l-149 320zM591 117h-403l-54 -117h-125l325 700h111l325 -700h-125z" />
    <glyph glyph-name="Atilde" unicode="&#xc3;" horiz-adv-x="779" 
d="M451 734c-12.667 0 -24.667 2.33398 -36 7.00098s-22.166 10 -32.499 16l-28.5 16c-8.66699 4.66699 -17 7 -25 7c-10 0 -20.167 -4.33301 -30.5 -13s-20.5 -18 -30.5 -28l-56 57l24 25c8.66699 8.66699 18 16.5 28 23.5s20.5 12.833 31.5 17.5s22.167 7 33.5 7
c12.667 0 24.667 -2.33301 36 -7s22.166 -9.83398 32.499 -15.501l28.5 -15.5c8.66699 -4.66699 17 -7 25 -7c10.667 0 21 4.16699 31 12.5s20 17.5 30 27.5l56 -57l-24 -25c-8.66699 -8.66699 -18 -16.5 -28 -23.5s-20.333 -12.833 -31 -17.5s-22 -7 -34 -7zM241 231.001
h297l-149 320zM591 117.001h-403l-54 -117h-125l325 700h111l325 -700h-125z" />
    <glyph glyph-name="Adieresis" unicode="&#xc4;" horiz-adv-x="779" 
d="M215 805c0 20.667 7 38 21 52s31.333 21 52 21s38 -7 52 -21s21 -31.333 21 -52s-7 -38 -21 -52s-31.333 -21 -52 -21s-38 7 -52 21s-21 31.333 -21 52zM419 805c0 20.667 7 38 21 52s31.333 21 52 21s37.834 -7 51.501 -21s20.5 -31.333 20.5 -52
s-6.83301 -38 -20.5 -52s-30.834 -21 -51.501 -21s-38 7 -52 21s-21 31.333 -21 52zM241 231h297l-149 320zM591 117h-403l-54 -117h-125l325 700h111l325 -700h-125z" />
    <glyph glyph-name="Aring" unicode="&#xc5;" horiz-adv-x="779" 
d="M442 753c0 15.333 -4.83301 28 -14.5 38s-22.167 15 -37.5 15s-28 -5 -38 -15s-15 -22.667 -15 -38s5 -28 15 -38s22.667 -15 38 -15s27.833 5 37.5 15s14.5 22.667 14.5 38zM241 231h297l-149 320zM591 117h-403.001l-54 -117h-125l305 657c-14 11.333 -25 25 -33 41
s-12 34.333 -12 55c0 35.333 11.333 64.333 34 87s51.667 34 87 34c34.667 0 63.334 -11.333 86.001 -34s34 -51.667 34 -87c0 -20.667 -4 -39.167 -12 -55.5s-19 -29.833 -33 -40.5l305 -657h-125z" />
    <glyph glyph-name="AE" unicode="&#xc6;" horiz-adv-x="1014" 
d="M518 117h-302l-75 -117h-136l452 700h61v-113l-229 -356h229v469h441v-114h-327v-179h327v-114h-327v-179h327v-114h-441v117z" />
    <glyph glyph-name="Ccedilla" unicode="&#xc7;" horiz-adv-x="655" 
d="M379 -189c-21.333 0 -43.332 4.33105 -65.999 12.998v80c11.333 -3.33301 21 -6 29 -8s15.667 -3 23 -3c8 0 14.5 2.16699 19.5 6.5s7.5 11.833 7.5 22.5c0 9.33301 -2.66699 20.333 -8 33s-14.666 28.334 -27.999 47.001c-44 4 -85 15.667 -123 35s-71 44.333 -99 75
s-50 66.334 -66 107.001s-24 84.334 -24 131.001c0 50 9 96.333 27 139s42.667 79.667 74 111s68.166 55.833 110.499 73.5s88.166 26.5 137.499 26.5c48 0 93.167 -8.5 135.5 -25.5s80.5 -40.833 114.5 -71.5l-54 -106c-25.333 26.667 -54.666 48.167 -87.999 64.5
s-70.333 24.5 -111 24.5c-33.333 0 -64 -5.66699 -92 -17s-52.5 -27.5 -73.5 -48.5s-37.333 -46 -49 -75s-17.5 -60.833 -17.5 -95.5c0 -35.333 5.83301 -67.333 17.5 -96s28 -53.5 49 -74.5s45.5 -37.167 73.5 -48.5s58.667 -17 92 -17c20 0 40.833 2.16699 62.5 6.5
s45.167 12.5 70.5 24.5l22 -113c-18.667 -7.33301 -36.334 -13.333 -53.001 -18s-33.667 -8.33398 -51 -11.001c14 -18 24 -34.833 30 -50.5s9 -31.167 9 -46.5c0 -30 -9.5 -53.333 -28.5 -70s-43.167 -25 -72.5 -25z" />
    <glyph glyph-name="Egrave" unicode="&#xc8;" horiz-adv-x="573" 
d="M208 922l218 -136l-48 -75l-219 134zM518 700v-114h-327v-179h327v-114h-327v-179h327v-114h-441v700h441z" />
    <glyph glyph-name="Eacute" unicode="&#xc9;" horiz-adv-x="573" 
d="M393 922l49 -77l-219 -135l-48 76zM518 700v-114h-327v-179h327v-114h-327v-179h327v-114h-441v700h441z" />
    <glyph glyph-name="Ecircumflex" unicode="&#xca;" horiz-adv-x="573" 
d="M297 930l180 -154l-57 -62l-123 106l-123 -106l-57 62zM518 700v-114h-327v-179h327v-114h-327v-179h327v-114h-441v700h441z" />
    <glyph glyph-name="Edieresis" unicode="&#xcb;" horiz-adv-x="573" 
d="M126 805c0 20.667 7 38 21 52s31.333 21 52 21s38 -7 52 -21s21 -31.333 21 -52s-7 -38 -21 -52s-31.333 -21 -52 -21s-38 7 -52 21s-21 31.333 -21 52zM330 805c0 20.667 7 38 21 52s31.333 21 52 21s37.834 -7 51.501 -21s20.5 -31.333 20.5 -52
s-6.83301 -38 -20.5 -52s-30.834 -21 -51.501 -21s-38 7 -52 21s-21 31.333 -21 52zM518 700v-114h-327v-179h327v-114h-327v-179h327v-114h-441v700h441z" />
    <glyph glyph-name="Igrave" unicode="&#xcc;" horiz-adv-x="268" 
d="M42 922l218 -136l-48 -75l-219 134zM191 700v-700h-114v700h114z" />
    <glyph glyph-name="Iacute" unicode="&#xcd;" horiz-adv-x="268" 
d="M227 922l49 -77l-219 -135l-48 76zM191 700v-700h-114v700h114z" />
    <glyph glyph-name="Icircumflex" unicode="&#xce;" horiz-adv-x="268" 
d="M131 930l180 -154l-57 -62l-123 106l-123 -106l-57 62zM191 700v-700h-114v700h114z" />
    <glyph glyph-name="Idieresis" unicode="&#xcf;" horiz-adv-x="268" 
d="M-41 805c0 20.667 7 38 21 52s31.333 21 52 21s38 -7 52 -21s21 -31.333 21 -52s-7 -38 -21 -52s-31.333 -21 -52 -21s-38 7 -52 21s-21 31.333 -21 52zM163 805c0 20.667 7 38 21 52s31.333 21 52 21s37.834 -7 51.501 -21s20.5 -31.333 20.5 -52
s-6.83301 -38 -20.5 -52s-30.834 -21 -51.501 -21s-38 7 -52 21s-21 31.333 -21 52zM191 700v-700h-114v700h114z" />
    <glyph glyph-name="Eth" unicode="&#xd0;" horiz-adv-x="715" 
d="M75 0v298.002h-77v114h77v288h247c49.333 0 95.166 -8.83301 137.499 -26.5s79 -42 110 -73s55.167 -67.833 72.5 -110.5s26 -89.334 26 -140.001s-8.66699 -97.334 -26 -140.001s-41.5 -79.5 -72.5 -110.5s-67.667 -55.333 -110 -73s-88.166 -26.5 -137.499 -26.5h-247z
M322 114.002c34 0 65.167 5.83301 93.5 17.5s52.833 28 73.5 49s36.667 46 48 75s17 60.5 17 94.5s-5.66699 65.5 -17 94.5s-27.333 54 -48 75s-45.167 37.333 -73.5 49s-59.5 17.5 -93.5 17.5h-133v-174h157v-114h-157v-184h133z" />
    <glyph glyph-name="Ntilde" unicode="&#xd1;" horiz-adv-x="773" 
d="M453 734c-12.667 0 -24.667 2.33398 -36 7.00098s-22.166 10 -32.499 16l-28.5 16c-8.66699 4.66699 -17 7 -25 7c-10 0 -20.167 -4.33301 -30.5 -13s-20.5 -18 -30.5 -28l-56 57l24 25c8.66699 8.66699 18 16.5 28 23.5s20.5 12.833 31.5 17.5s22.167 7 33.5 7
c12.667 0 24.667 -2.33301 36 -7s22.166 -9.83398 32.499 -15.501l28.5 -15.5c8.66699 -4.66699 17 -7 25 -7c10.667 0 21 4.16699 31 12.5s20 17.5 30 27.5l56 -57l-24 -25c-8.66699 -8.66699 -18 -16.5 -28 -23.5s-20.333 -12.833 -31 -17.5s-22 -7 -34 -7zM703 700.001
v-700h-105l-414 509v-509h-114v700h105l414 -510v510h114z" />
    <glyph glyph-name="Ograve" unicode="&#xd2;" horiz-adv-x="788" 
d="M300 922l218 -136l-48 -75l-219 134zM44 350c0 50 8.83301 96.333 26.5 139s42.167 79.667 73.5 111s68.333 55.833 111 73.5s89 26.5 139 26.5s96.5 -8.83301 139.5 -26.5s80 -42.167 111 -73.5s55.333 -68.333 73 -111s26.5 -89 26.5 -139s-8.83301 -96.333 -26.5 -139
s-42 -79.667 -73 -111s-68 -55.833 -111 -73.5s-89.5 -26.5 -139.5 -26.5s-96.333 8.83301 -139 26.5s-79.667 42.167 -111 73.5s-55.833 68.333 -73.5 111s-26.5 89 -26.5 139zM630 350c0 34 -5.83301 65.5 -17.5 94.5s-28 54 -49 75s-46 37.333 -75 49
s-60.5 17.5 -94.5 17.5s-65.5 -5.83301 -94.5 -17.5s-54 -28 -75 -49s-37.333 -46 -49 -75s-17.5 -60.5 -17.5 -94.5s5.83301 -65.5 17.5 -94.5s28 -54 49 -75s46 -37.333 75 -49s60.5 -17.5 94.5 -17.5s65.5 5.83301 94.5 17.5s54 28 75 49s37.333 46 49 75
s17.5 60.5 17.5 94.5z" />
    <glyph glyph-name="Oacute" unicode="&#xd3;" horiz-adv-x="788" 
d="M485 922l49 -77l-219 -135l-48 76zM44 350c0 50 8.83301 96.333 26.5 139s42.167 79.667 73.5 111s68.333 55.833 111 73.5s89 26.5 139 26.5s96.5 -8.83301 139.5 -26.5s80 -42.167 111 -73.5s55.333 -68.333 73 -111s26.5 -89 26.5 -139s-8.83301 -96.333 -26.5 -139
s-42 -79.667 -73 -111s-68 -55.833 -111 -73.5s-89.5 -26.5 -139.5 -26.5s-96.333 8.83301 -139 26.5s-79.667 42.167 -111 73.5s-55.833 68.333 -73.5 111s-26.5 89 -26.5 139zM630 350c0 34 -5.83301 65.5 -17.5 94.5s-28 54 -49 75s-46 37.333 -75 49
s-60.5 17.5 -94.5 17.5s-65.5 -5.83301 -94.5 -17.5s-54 -28 -75 -49s-37.333 -46 -49 -75s-17.5 -60.5 -17.5 -94.5s5.83301 -65.5 17.5 -94.5s28 -54 49 -75s46 -37.333 75 -49s60.5 -17.5 94.5 -17.5s65.5 5.83301 94.5 17.5s54 28 75 49s37.333 46 49 75
s17.5 60.5 17.5 94.5z" />
    <glyph glyph-name="Ocircumflex" unicode="&#xd4;" horiz-adv-x="788" 
d="M389 930l180 -154l-57 -62l-123 106l-123 -106l-57 62zM44 350c0 50 8.83301 96.333 26.5 139s42.167 79.667 73.5 111s68.333 55.833 111 73.5s89 26.5 139 26.5s96.5 -8.83301 139.5 -26.5s80 -42.167 111 -73.5s55.333 -68.333 73 -111s26.5 -89 26.5 -139
s-8.83301 -96.333 -26.5 -139s-42 -79.667 -73 -111s-68 -55.833 -111 -73.5s-89.5 -26.5 -139.5 -26.5s-96.333 8.83301 -139 26.5s-79.667 42.167 -111 73.5s-55.833 68.333 -73.5 111s-26.5 89 -26.5 139zM630 350c0 34 -5.83301 65.5 -17.5 94.5s-28 54 -49 75
s-46 37.333 -75 49s-60.5 17.5 -94.5 17.5s-65.5 -5.83301 -94.5 -17.5s-54 -28 -75 -49s-37.333 -46 -49 -75s-17.5 -60.5 -17.5 -94.5s5.83301 -65.5 17.5 -94.5s28 -54 49 -75s46 -37.333 75 -49s60.5 -17.5 94.5 -17.5s65.5 5.83301 94.5 17.5s54 28 75 49
s37.333 46 49 75s17.5 60.5 17.5 94.5z" />
    <glyph glyph-name="Otilde" unicode="&#xd5;" horiz-adv-x="788" 
d="M455 734c-12.667 0 -24.667 2.33398 -36 7.00098s-22.166 10 -32.499 16l-28.5 16c-8.66699 4.66699 -17 7 -25 7c-10 0 -20.167 -4.33301 -30.5 -13s-20.5 -18 -30.5 -28l-56 57l24 25c8.66699 8.66699 18 16.5 28 23.5s20.5 12.833 31.5 17.5s22.167 7 33.5 7
c12.667 0 24.667 -2.33301 36 -7s22.166 -9.83398 32.499 -15.501l28.5 -15.5c8.66699 -4.66699 17 -7 25 -7c10.667 0 21 4.16699 31 12.5s20 17.5 30 27.5l56 -57l-24 -25c-8.66699 -8.66699 -18 -16.5 -28 -23.5s-20.333 -12.833 -31 -17.5s-22 -7 -34 -7zM44 350.001
c0 50 8.83301 96.333 26.5 139s42.167 79.667 73.5 111s68.333 55.833 111 73.5s89 26.5 139 26.5s96.5 -8.83301 139.5 -26.5s80 -42.167 111 -73.5s55.333 -68.333 73 -111s26.5 -89 26.5 -139s-8.83301 -96.333 -26.5 -139s-42 -79.667 -73 -111s-68 -55.833 -111 -73.5
s-89.5 -26.5 -139.5 -26.5s-96.333 8.83301 -139 26.5s-79.667 42.167 -111 73.5s-55.833 68.333 -73.5 111s-26.5 89 -26.5 139zM630 350.001c0 34 -5.83301 65.5 -17.5 94.5s-28 54 -49 75s-46 37.333 -75 49s-60.5 17.5 -94.5 17.5s-65.5 -5.83301 -94.5 -17.5
s-54 -28 -75 -49s-37.333 -46 -49 -75s-17.5 -60.5 -17.5 -94.5s5.83301 -65.5 17.5 -94.5s28 -54 49 -75s46 -37.333 75 -49s60.5 -17.5 94.5 -17.5s65.5 5.83301 94.5 17.5s54 28 75 49s37.333 46 49 75s17.5 60.5 17.5 94.5z" />
    <glyph glyph-name="Odieresis" unicode="&#xd6;" horiz-adv-x="788" 
d="M218 805c0 20.667 7 38 21 52s31.333 21 52 21s38 -7 52 -21s21 -31.333 21 -52s-7 -38 -21 -52s-31.333 -21 -52 -21s-38 7 -52 21s-21 31.333 -21 52zM422 805c0 20.667 7 38 21 52s31.333 21 52 21s37.834 -7 51.501 -21s20.5 -31.333 20.5 -52
s-6.83301 -38 -20.5 -52s-30.834 -21 -51.501 -21s-38 7 -52 21s-21 31.333 -21 52zM44 350c0 50 8.83301 96.333 26.5 139s42.167 79.667 73.5 111s68.333 55.833 111 73.5s89 26.5 139 26.5s96.5 -8.83301 139.5 -26.5s80 -42.167 111 -73.5s55.333 -68.333 73 -111
s26.5 -89 26.5 -139s-8.83301 -96.333 -26.5 -139s-42 -79.667 -73 -111s-68 -55.833 -111 -73.5s-89.5 -26.5 -139.5 -26.5s-96.333 8.83301 -139 26.5s-79.667 42.167 -111 73.5s-55.833 68.333 -73.5 111s-26.5 89 -26.5 139zM630 350c0 34 -5.83301 65.5 -17.5 94.5
s-28 54 -49 75s-46 37.333 -75 49s-60.5 17.5 -94.5 17.5s-65.5 -5.83301 -94.5 -17.5s-54 -28 -75 -49s-37.333 -46 -49 -75s-17.5 -60.5 -17.5 -94.5s5.83301 -65.5 17.5 -94.5s28 -54 49 -75s46 -37.333 75 -49s60.5 -17.5 94.5 -17.5s65.5 5.83301 94.5 17.5
s54 28 75 49s37.333 46 49 75s17.5 60.5 17.5 94.5z" />
    <glyph glyph-name="multiply" unicode="&#xd7;" 
d="M489 566l78 -79l-169 -169l169 -169l-78 -79l-170 170l-168 -169l-78 78l168 169l-168 169l78 78l168 -168z" />
    <glyph glyph-name="Oslash" unicode="&#xd8;" horiz-adv-x="794" 
d="M158 350c0 -32 5 -61.5 15 -88.5s24.333 -50.833 43 -71.5l306 362c-37.333 22.667 -80 34 -128 34c-34 0 -65.5 -5.83301 -94.5 -17.5s-54 -28 -75 -49s-37.333 -46 -49 -75s-17.5 -60.5 -17.5 -94.5zM394 114c34 0 65.5 5.83398 94.5 17.501s54 28 75 49
s37.333 46 49 75s17.5 60.5 17.5 94.5c0 31.333 -4.83301 60.166 -14.5 86.499s-23.167 49.5 -40.5 69.5l-304 -361c36 -20.667 77 -31 123 -31zM394 0.000976562c-37.333 0 -72.5 5 -105.5 15s-63.5 24 -91.5 42l-58 -68l-54 45l57 68c-30.667 31.333 -54.667 68 -72 110
s-26 88 -26 138s8.83301 96.333 26.5 139s42.167 79.667 73.5 111s68.333 55.833 111 73.5s89 26.5 139 26.5c38.667 0 75 -5.16699 109 -15.5s65 -25.166 93 -44.499l60 71l53 -46l-59 -70c30 -31.333 53.167 -67.833 69.5 -109.5s24.5 -86.834 24.5 -135.501
c0 -50 -8.83301 -96.333 -26.5 -139s-42 -79.667 -73 -111s-68 -55.833 -111 -73.5s-89.5 -26.5 -139.5 -26.5z" />
    <glyph glyph-name="Ugrave" unicode="&#xd9;" horiz-adv-x="774" 
d="M295 922l218 -136l-48 -75l-219 134zM710 700l-0.00195312 -378c0 -46.667 -8.16699 -89.667 -24.5 -129s-39 -73.333 -68 -102s-63.167 -51 -102.5 -67s-82 -24 -128 -24s-88.667 8 -128 24s-73.5 38.333 -102.5 67s-51.667 62.667 -68 102s-24.5 82.333 -24.5 129v378
h114v-378c0 -30.667 5.33301 -58.834 16 -84.501s25.334 -47.667 44.001 -66s40.667 -32.5 66 -42.5s53 -15 83 -15s57.667 5 83 15s47.333 24.167 66 42.5s33.334 40.333 44.001 66s16 53.834 16 84.501v378h114z" />
    <glyph glyph-name="Uacute" unicode="&#xda;" horiz-adv-x="774" 
d="M480 922l49 -77l-219 -135l-48 76zM710 700l-0.00195312 -378c0 -46.667 -8.16699 -89.667 -24.5 -129s-39 -73.333 -68 -102s-63.167 -51 -102.5 -67s-82 -24 -128 -24s-88.667 8 -128 24s-73.5 38.333 -102.5 67s-51.667 62.667 -68 102s-24.5 82.333 -24.5 129v378
h114v-378c0 -30.667 5.33301 -58.834 16 -84.501s25.334 -47.667 44.001 -66s40.667 -32.5 66 -42.5s53 -15 83 -15s57.667 5 83 15s47.333 24.167 66 42.5s33.334 40.333 44.001 66s16 53.834 16 84.501v378h114z" />
    <glyph glyph-name="Ucircumflex" unicode="&#xdb;" horiz-adv-x="774" 
d="M384 930l180 -154l-57 -62l-123 106l-123 -106l-57 62zM710 700l-0.00195312 -378c0 -46.667 -8.16699 -89.667 -24.5 -129s-39 -73.333 -68 -102s-63.167 -51 -102.5 -67s-82 -24 -128 -24s-88.667 8 -128 24s-73.5 38.333 -102.5 67s-51.667 62.667 -68 102
s-24.5 82.333 -24.5 129v378h114v-378c0 -30.667 5.33301 -58.834 16 -84.501s25.334 -47.667 44.001 -66s40.667 -32.5 66 -42.5s53 -15 83 -15s57.667 5 83 15s47.333 24.167 66 42.5s33.334 40.333 44.001 66s16 53.834 16 84.501v378h114z" />
    <glyph glyph-name="Udieresis" unicode="&#xdc;" horiz-adv-x="774" 
d="M212 805c0 20.667 7 38 21 52s31.333 21 52 21s38 -7 52 -21s21 -31.333 21 -52s-7 -38 -21 -52s-31.333 -21 -52 -21s-38 7 -52 21s-21 31.333 -21 52zM416 805c0 20.667 7 38 21 52s31.333 21 52 21s37.834 -7 51.501 -21s20.5 -31.333 20.5 -52
s-6.83301 -38 -20.5 -52s-30.834 -21 -51.501 -21s-38 7 -52 21s-21 31.333 -21 52zM710 700l-0.00195312 -378c0 -46.667 -8.16699 -89.667 -24.5 -129s-39 -73.333 -68 -102s-63.167 -51 -102.5 -67s-82 -24 -128 -24s-88.667 8 -128 24s-73.5 38.333 -102.5 67
s-51.667 62.667 -68 102s-24.5 82.333 -24.5 129v378h114v-378c0 -30.667 5.33301 -58.834 16 -84.501s25.334 -47.667 44.001 -66s40.667 -32.5 66 -42.5s53 -15 83 -15s57.667 5 83 15s47.333 24.167 66 42.5s33.334 40.333 44.001 66s16 53.834 16 84.501v378h114z" />
    <glyph glyph-name="Yacute" unicode="&#xdd;" horiz-adv-x="685" 
d="M435 922l49 -77l-219 -135l-48 76zM285 0v283l-283 417h138l202 -297l203 297h138l-284 -417v-283h-114z" />
    <glyph glyph-name="Thorn" unicode="&#xde;" horiz-adv-x="608" 
d="M191 471v-242h123c18 0 34.5 3 49.5 9s28.167 14.333 39.5 25s20.166 23.5 26.499 38.5s9.5 31.167 9.5 48.5s-3.16699 33.5 -9.5 48.5s-15.166 27.833 -26.499 38.5s-24.5 19 -39.5 25s-31.5 9 -49.5 9h-123zM191 115v-115h-114v700h114v-115h123
c34.667 0 66.834 -5.83301 96.501 -17.5s55 -28 76 -49s37.5 -45.833 49.5 -74.5s18 -60 18 -94s-6 -65.333 -18 -94s-28.5 -53.5 -49.5 -74.5s-46.333 -37.333 -76 -49s-61.834 -17.5 -96.501 -17.5h-123z" />
    <glyph glyph-name="germandbls" unicode="&#xdf;" horiz-adv-x="574" 
d="M64 477c0 34 4.5 65.333 13.5 94s22.667 53.5 41 74.5s41.333 37.333 69 49s60.167 17.5 97.5 17.5c34.667 0 65 -4.66699 91 -14s47.5 -22 64.5 -38s29.667 -34.667 38 -56s12.5 -44 12.5 -68c0 -33.333 -8.83301 -63.833 -26.5 -91.5s-41.834 -45.834 -72.501 -54.501
c44.667 -6 81.334 -25.167 110.001 -57.5s43 -74.833 43 -127.5c0 -34 -5.66699 -64.167 -17 -90.5s-27.333 -48.5 -48 -66.5s-45.5 -31.667 -74.5 -41s-61.167 -14 -96.5 -14c-10.667 0 -21.5 0.333008 -32.5 1s-22.167 1.66699 -33.5 3v101
c3.33301 0 10.333 -0.333008 21 -1s21.667 -1 33 -1c41.333 0 75 9.33301 101 28s39 48 39 88c0 38.667 -13.833 68.334 -41.5 89.001s-64.167 31 -109.5 31h-35v96h28c34 0 60 8.66699 78 26s27 41 27 71c0 25.333 -9.16699 45.833 -27.5 61.5s-43.833 23.5 -76.5 23.5
c-34 0 -60.667 -11.167 -80 -33.5s-29 -55.5 -29 -99.5v-552h-107v552v0z" />
    <glyph glyph-name="agrave" unicode="&#xe0;" horiz-adv-x="526" 
d="M181 767l218 -136l-48 -75l-219 134zM366 231l-143.999 -17.999c-24.667 -3.33301 -42.834 -10.833 -54.501 -22.5s-17.5 -25.834 -17.5 -42.501c0 -19.333 6.83301 -34.833 20.5 -46.5s34.167 -17.5 61.5 -17.5c20.667 0 39.334 3.33301 56.001 10s30.667 15.5 42 26.5
s20.166 23.667 26.499 38s9.5 28.833 9.5 43.5v29zM53.001 392.001c12.667 37.333 36.4971 66.668 71.4971 88.001s81.833 32 140.5 32c70.667 0 123.167 -16.333 157.5 -49s51.5 -81.334 51.5 -146.001v-317h-108v69c-15.333 -23.333 -36.166 -42.333 -62.499 -57
s-58.5 -22 -96.5 -22c-26 0 -49.5 3.83301 -70.5 11.5s-38.667 18.334 -53 32.001s-25.5 30 -33.5 49s-12 39.833 -12 62.5c0 46 15.167 82.333 45.5 109s68.5 42 114.5 46l139 14c19.333 2 29 9.66699 29 23v11c0 19.333 -8.16699 35.166 -24.5 47.499
s-41.166 18.5 -74.499 18.5c-30.667 0 -57.667 -5.83301 -81 -17.5s-38.666 -31.5 -45.999 -59.5z" />
    <glyph glyph-name="aacute" unicode="&#xe1;" horiz-adv-x="526" 
d="M359 767l49 -77l-219 -135l-48 76zM366 231l-143.999 -17.999c-24.667 -3.33301 -42.834 -10.833 -54.501 -22.5s-17.5 -25.834 -17.5 -42.501c0 -19.333 6.83301 -34.833 20.5 -46.5s34.167 -17.5 61.5 -17.5c20.667 0 39.334 3.33301 56.001 10s30.667 15.5 42 26.5
s20.166 23.667 26.499 38s9.5 28.833 9.5 43.5v29zM53.001 392.001c12.667 37.333 36.4971 66.668 71.4971 88.001s81.833 32 140.5 32c70.667 0 123.167 -16.333 157.5 -49s51.5 -81.334 51.5 -146.001v-317h-108v69c-15.333 -23.333 -36.166 -42.333 -62.499 -57
s-58.5 -22 -96.5 -22c-26 0 -49.5 3.83301 -70.5 11.5s-38.667 18.334 -53 32.001s-25.5 30 -33.5 49s-12 39.833 -12 62.5c0 46 15.167 82.333 45.5 109s68.5 42 114.5 46l139 14c19.333 2 29 9.66699 29 23v11c0 19.333 -8.16699 35.166 -24.5 47.499
s-41.166 18.5 -74.499 18.5c-30.667 0 -57.667 -5.83301 -81 -17.5s-38.666 -31.5 -45.999 -59.5z" />
    <glyph glyph-name="acircumflex" unicode="&#xe2;" horiz-adv-x="526" 
d="M270 768l180 -154l-57 -62l-123 106l-123 -106l-57 62zM366 231l-143.999 -17.999c-24.667 -3.33301 -42.834 -10.833 -54.501 -22.5s-17.5 -25.834 -17.5 -42.501c0 -19.333 6.83301 -34.833 20.5 -46.5s34.167 -17.5 61.5 -17.5c20.667 0 39.334 3.33301 56.001 10
s30.667 15.5 42 26.5s20.166 23.667 26.499 38s9.5 28.833 9.5 43.5v29zM53.001 392.001c12.667 37.333 36.4971 66.668 71.4971 88.001s81.833 32 140.5 32c70.667 0 123.167 -16.333 157.5 -49s51.5 -81.334 51.5 -146.001v-317h-108v69
c-15.333 -23.333 -36.166 -42.333 -62.499 -57s-58.5 -22 -96.5 -22c-26 0 -49.5 3.83301 -70.5 11.5s-38.667 18.334 -53 32.001s-25.5 30 -33.5 49s-12 39.833 -12 62.5c0 46 15.167 82.333 45.5 109s68.5 42 114.5 46l139 14c19.333 2 29 9.66699 29 23v11
c0 19.333 -8.16699 35.166 -24.5 47.499s-41.166 18.5 -74.499 18.5c-30.667 0 -57.667 -5.83301 -81 -17.5s-38.666 -31.5 -45.999 -59.5z" />
    <glyph glyph-name="atilde" unicode="&#xe3;" horiz-adv-x="526" 
d="M331 565c-12.667 0 -24.667 2.33398 -36 7.00098s-22.166 10 -32.499 16l-28.5 16c-8.66699 4.66699 -17 7 -25 7c-10 0 -20.167 -4.33301 -30.5 -13s-20.5 -18 -30.5 -28l-56 57l24 25c8.66699 8.66699 18 16.5 28 23.5s20.5 12.833 31.5 17.5s22.167 7 33.5 7
c12.667 0 24.667 -2.33301 36 -7s22.166 -9.83398 32.499 -15.501l28.5 -15.5c8.66699 -4.66699 17 -7 25 -7c10.667 0 21 4.16699 31 12.5s20 17.5 30 27.5l56 -57l-24 -25c-8.66699 -8.66699 -18 -16.5 -28 -23.5s-20.333 -12.833 -31 -17.5s-22 -7 -34 -7zM366 231.001
l-143.999 -17.999c-24.667 -3.33301 -42.834 -10.833 -54.501 -22.5s-17.5 -25.834 -17.5 -42.501c0 -19.333 6.83301 -34.833 20.5 -46.5s34.167 -17.5 61.5 -17.5c20.667 0 39.334 3.33301 56.001 10s30.667 15.5 42 26.5s20.166 23.667 26.499 38s9.5 28.833 9.5 43.5v29
zM53.001 392.002c12.667 37.333 36.4971 66.668 71.4971 88.001s81.833 32 140.5 32c70.667 0 123.167 -16.333 157.5 -49s51.5 -81.334 51.5 -146.001v-317h-108v69c-15.333 -23.333 -36.166 -42.333 -62.499 -57s-58.5 -22 -96.5 -22c-26 0 -49.5 3.83301 -70.5 11.5
s-38.667 18.334 -53 32.001s-25.5 30 -33.5 49s-12 39.833 -12 62.5c0 46 15.167 82.333 45.5 109s68.5 42 114.5 46l139 14c19.333 2 29 9.66699 29 23v11c0 19.333 -8.16699 35.166 -24.5 47.499s-41.166 18.5 -74.499 18.5c-30.667 0 -57.667 -5.83301 -81 -17.5
s-38.666 -31.5 -45.999 -59.5z" />
    <glyph glyph-name="adieresis" unicode="&#xe4;" horiz-adv-x="526" 
d="M96 644c0 20.667 7 38 21 52s31.333 21 52 21s38 -7 52 -21s21 -31.333 21 -52s-7 -38 -21 -52s-31.333 -21 -52 -21s-38 7 -52 21s-21 31.333 -21 52zM300 644c0 20.667 7 38 21 52s31.333 21 52 21s37.834 -7 51.501 -21s20.5 -31.333 20.5 -52s-6.83301 -38 -20.5 -52
s-30.834 -21 -51.501 -21s-38 7 -52 21s-21 31.333 -21 52zM366 231l-143.999 -17.999c-24.667 -3.33301 -42.834 -10.833 -54.501 -22.5s-17.5 -25.834 -17.5 -42.501c0 -19.333 6.83301 -34.833 20.5 -46.5s34.167 -17.5 61.5 -17.5c20.667 0 39.334 3.33301 56.001 10
s30.667 15.5 42 26.5s20.166 23.667 26.499 38s9.5 28.833 9.5 43.5v29zM53.001 392.001c12.667 37.333 36.4971 66.668 71.4971 88.001s81.833 32 140.5 32c70.667 0 123.167 -16.333 157.5 -49s51.5 -81.334 51.5 -146.001v-317h-108v69
c-15.333 -23.333 -36.166 -42.333 -62.499 -57s-58.5 -22 -96.5 -22c-26 0 -49.5 3.83301 -70.5 11.5s-38.667 18.334 -53 32.001s-25.5 30 -33.5 49s-12 39.833 -12 62.5c0 46 15.167 82.333 45.5 109s68.5 42 114.5 46l139 14c19.333 2 29 9.66699 29 23v11
c0 19.333 -8.16699 35.166 -24.5 47.499s-41.166 18.5 -74.499 18.5c-30.667 0 -57.667 -5.83301 -81 -17.5s-38.666 -31.5 -45.999 -59.5z" />
    <glyph glyph-name="aring" unicode="&#xe5;" horiz-adv-x="526" 
d="M150 683c0 35.333 11.333 64.333 34 87s51.667 34 87 34c34.667 0 63.334 -11.333 86.001 -34s34 -51.667 34 -87s-11.333 -64.166 -34 -86.499s-51.334 -33.5 -86.001 -33.5c-35.333 0 -64.333 11.167 -87 33.5s-34 51.166 -34 86.499zM323 683
c0 15.333 -4.83301 28 -14.5 38s-22.167 15 -37.5 15s-28 -5 -38 -15s-15 -22.667 -15 -38s5 -28 15 -38s22.667 -15 38 -15s27.833 5 37.5 15s14.5 22.667 14.5 38zM366 231l-143.999 -17.999c-24.667 -3.33301 -42.834 -10.833 -54.501 -22.5s-17.5 -25.834 -17.5 -42.501
c0 -19.333 6.83301 -34.833 20.5 -46.5s34.167 -17.5 61.5 -17.5c20.667 0 39.334 3.33301 56.001 10s30.667 15.5 42 26.5s20.166 23.667 26.499 38s9.5 28.833 9.5 43.5v29zM53.001 392.001c12.667 37.333 36.4971 66.668 71.4971 88.001s81.833 32 140.5 32
c70.667 0 123.167 -16.333 157.5 -49s51.5 -81.334 51.5 -146.001v-317h-108v69c-15.333 -23.333 -36.166 -42.333 -62.499 -57s-58.5 -22 -96.5 -22c-26 0 -49.5 3.83301 -70.5 11.5s-38.667 18.334 -53 32.001s-25.5 30 -33.5 49s-12 39.833 -12 62.5
c0 46 15.167 82.333 45.5 109s68.5 42 114.5 46l139 14c19.333 2 29 9.66699 29 23v11c0 19.333 -8.16699 35.166 -24.5 47.499s-41.166 18.5 -74.499 18.5c-30.667 0 -57.667 -5.83301 -81 -17.5s-38.666 -31.5 -45.999 -59.5z" />
    <glyph glyph-name="ae" unicode="&#xe6;" horiz-adv-x="884" 
d="M628 -12c-48 0 -89.5059 9.16504 -124.506 27.498s-63.167 43.833 -84.5 76.5c-23.333 -32 -53 -57 -89 -75s-75 -27 -117 -27c-27.333 0 -51.666 3.83301 -72.999 11.5s-39.666 18.334 -54.999 32.001s-27 30 -35 49s-12 39.833 -12 62.5c0 46 15.167 82.333 45.5 109
s68.5 42 114.5 46l139 14c19.333 2 29 9.66699 29 23v11c0 19.333 -8.16699 35.166 -24.5 47.499s-41.166 18.5 -74.499 18.5c-30.667 0 -57.667 -5.83301 -81 -17.5s-38.666 -31.5 -45.999 -59.5l-87 55c12 36.667 35.833 65.834 71.5 87.501s80.5 32.5 134.5 32.5
c42.667 0 78.5 -7 107.5 -21s51.833 -34.333 68.5 -61c20.667 25.333 46.334 45.333 77.001 60s66.334 22 107.001 22c38 0 71.833 -6.5 101.5 -19.5s54.667 -31.167 75 -54.5s36 -51.166 47 -83.499s16.5 -67.833 16.5 -106.5v-31h-385l1 -1
c5.33301 -43.333 22.5 -75.333 51.5 -96s62.167 -31 99.5 -31c32 0 60.5 6.5 85.5 19.5s46.167 28.167 63.5 45.5l50 -87c-20.667 -20.667 -47 -39 -79 -55s-71.333 -24 -118 -24zM740.994 298.998c-3.33301 34.667 -15.5 62.834 -36.5 84.501s-51.5 32.5 -91.5 32.5
c-38.667 0 -69.5 -10.333 -92.5 -31s-37.833 -49.334 -44.5 -86.001h265zM365.994 230.998l-143.997 -17.999c-24.667 -3.33301 -42.834 -10.833 -54.501 -22.5s-17.5 -25.834 -17.5 -42.501c0 -19.333 6.83301 -34.833 20.5 -46.5s34.5 -17.5 62.5 -17.5
c20.667 0 39.167 3.33301 55.5 10s30.166 15.5 41.499 26.5s20.166 23.667 26.499 38s9.5 28.833 9.5 43.5v29z" />
    <glyph glyph-name="ccedilla" unicode="&#xe7;" horiz-adv-x="500" 
d="M276 -189c-21.333 0 -43.3311 4.33008 -65.998 12.9971v80c11.333 -3.33301 21 -6 29 -8s15.667 -3 23 -3c8 0 14.5 2.16699 19.5 6.5s7.5 11.833 7.5 22.5c0 8 -2 17.5 -6 28.5s-11 23.833 -21 38.5c-35.333 2.66699 -67.166 11 -95.499 25s-52.833 32.333 -73.5 55
s-36.5 49.334 -47.5 80.001s-16.5 64 -16.5 100c0 38.667 6.5 74 19.5 106s31.167 59.667 54.5 83s51.166 41.5 83.499 54.5s68.166 19.5 107.499 19.5s74.333 -6.5 105 -19.5s57.334 -30.833 80.001 -53.5l-65 -85c-15.333 15.333 -33 28 -53 38s-43.333 15 -70 15
c-21.333 0 -41.333 -3.66699 -60 -11s-34.667 -17.833 -48 -31.5s-23.833 -30.167 -31.5 -49.5s-11.5 -41 -11.5 -65s3.83301 -45.667 11.5 -65s18.167 -35.833 31.5 -49.5s29.166 -24.167 47.499 -31.5s38.166 -11 59.499 -11c28 0 52.5 5.33301 73.5 16
s39.5 23.667 55.5 39l62 -86c-16 -16 -35.333 -30.167 -58 -42.5s-48.667 -21.166 -78 -26.499c11.333 -16 19.5 -31.167 24.5 -45.5s7.5 -28.166 7.5 -41.499c0 -30 -9.5 -53.333 -28.5 -70s-43.167 -25 -72.5 -25z" />
    <glyph glyph-name="egrave" unicode="&#xe8;" horiz-adv-x="548" 
d="M198 767l218 -136l-48 -75l-219 134zM29 248c0 36.667 5.83008 70.9971 17.4971 102.997s28.334 60 50.001 84s48 42.833 79 56.5s65.833 20.5 104.5 20.5s73.167 -6.5 103.5 -19.5s55.833 -31.167 76.5 -54.5s36.334 -51.166 47.001 -83.499s16 -67.833 16 -106.5v-31
h-384v-1c2.66699 -21.333 8.5 -40 17.5 -56s20.333 -29.167 34 -39.5s29 -18.166 46 -23.499s34.5 -8 52.5 -8c33.333 0 62.333 6.33301 87 19s45.667 28 63 46l51 -87c-20.667 -20 -47.334 -38.167 -80.001 -54.5s-72.667 -24.5 -120 -24.5
c-40 0 -76.167 6.33301 -108.5 19s-59.666 30.5 -81.999 53.5s-39.666 50.333 -51.999 82s-18.5 66.834 -18.5 105.501zM404.997 298.997c-3.33301 34.667 -15.499 62.833 -36.499 84.5s-51.167 32.5 -90.5 32.5c-40 0 -71.333 -10.5 -94 -31.5s-37.334 -49.5 -44.001 -85.5
h265z" />
    <glyph glyph-name="eacute" unicode="&#xe9;" horiz-adv-x="548" 
d="M377 767l49 -77l-219 -135l-48 76zM29 248c0 36.667 5.83008 70.9971 17.4971 102.997s28.334 60 50.001 84s48 42.833 79 56.5s65.833 20.5 104.5 20.5s73.167 -6.5 103.5 -19.5s55.833 -31.167 76.5 -54.5s36.334 -51.166 47.001 -83.499s16 -67.833 16 -106.5v-31
h-384v-1c2.66699 -21.333 8.5 -40 17.5 -56s20.333 -29.167 34 -39.5s29 -18.166 46 -23.499s34.5 -8 52.5 -8c33.333 0 62.333 6.33301 87 19s45.667 28 63 46l51 -87c-20.667 -20 -47.334 -38.167 -80.001 -54.5s-72.667 -24.5 -120 -24.5
c-40 0 -76.167 6.33301 -108.5 19s-59.666 30.5 -81.999 53.5s-39.666 50.333 -51.999 82s-18.5 66.834 -18.5 105.501zM404.997 298.997c-3.33301 34.667 -15.499 62.833 -36.499 84.5s-51.167 32.5 -90.5 32.5c-40 0 -71.333 -10.5 -94 -31.5s-37.334 -49.5 -44.001 -85.5
h265z" />
    <glyph glyph-name="ecircumflex" unicode="&#xea;" horiz-adv-x="548" 
d="M288 768l180 -154l-57 -62l-123 106l-123 -106l-57 62zM29 248c0 36.667 5.83008 70.9971 17.4971 102.997s28.334 60 50.001 84s48 42.833 79 56.5s65.833 20.5 104.5 20.5s73.167 -6.5 103.5 -19.5s55.833 -31.167 76.5 -54.5s36.334 -51.166 47.001 -83.499
s16 -67.833 16 -106.5v-31h-384v-1c2.66699 -21.333 8.5 -40 17.5 -56s20.333 -29.167 34 -39.5s29 -18.166 46 -23.499s34.5 -8 52.5 -8c33.333 0 62.333 6.33301 87 19s45.667 28 63 46l51 -87c-20.667 -20 -47.334 -38.167 -80.001 -54.5s-72.667 -24.5 -120 -24.5
c-40 0 -76.167 6.33301 -108.5 19s-59.666 30.5 -81.999 53.5s-39.666 50.333 -51.999 82s-18.5 66.834 -18.5 105.501zM404.997 298.997c-3.33301 34.667 -15.499 62.833 -36.499 84.5s-51.167 32.5 -90.5 32.5c-40 0 -71.333 -10.5 -94 -31.5s-37.334 -49.5 -44.001 -85.5
h265z" />
    <glyph glyph-name="edieresis" unicode="&#xeb;" horiz-adv-x="548" 
d="M113 644c0 20.667 7 38 21 52s31.333 21 52 21s38 -7 52 -21s21 -31.333 21 -52s-7 -38 -21 -52s-31.333 -21 -52 -21s-38 7 -52 21s-21 31.333 -21 52zM317 644c0 20.667 7 38 21 52s31.333 21 52 21s37.834 -7 51.501 -21s20.5 -31.333 20.5 -52
s-6.83301 -38 -20.5 -52s-30.834 -21 -51.501 -21s-38 7 -52 21s-21 31.333 -21 52zM29 248c0 36.667 5.83008 70.9971 17.4971 102.997s28.334 60 50.001 84s48 42.833 79 56.5s65.833 20.5 104.5 20.5s73.167 -6.5 103.5 -19.5s55.833 -31.167 76.5 -54.5
s36.334 -51.166 47.001 -83.499s16 -67.833 16 -106.5v-31h-384v-1c2.66699 -21.333 8.5 -40 17.5 -56s20.333 -29.167 34 -39.5s29 -18.166 46 -23.499s34.5 -8 52.5 -8c33.333 0 62.333 6.33301 87 19s45.667 28 63 46l51 -87c-20.667 -20 -47.334 -38.167 -80.001 -54.5
s-72.667 -24.5 -120 -24.5c-40 0 -76.167 6.33301 -108.5 19s-59.666 30.5 -81.999 53.5s-39.666 50.333 -51.999 82s-18.5 66.834 -18.5 105.501zM404.997 298.997c-3.33301 34.667 -15.499 62.833 -36.499 84.5s-51.167 32.5 -90.5 32.5c-40 0 -71.333 -10.5 -94 -31.5
s-37.334 -49.5 -44.001 -85.5h265z" />
    <glyph glyph-name="igrave" unicode="&#xec;" horiz-adv-x="249" 
d="M34 767l218 -136l-48 -75l-219 134zM178 500v-500h-108v500h108z" />
    <glyph glyph-name="iacute" unicode="&#xed;" horiz-adv-x="249" 
d="M213 767l49 -77l-219 -135l-48 76zM178 500v-500h-108v500h108z" />
    <glyph glyph-name="icircumflex" unicode="&#xee;" horiz-adv-x="249" 
d="M124 768l180 -154l-57 -62l-123 106l-123 -106l-57 62zM178 500v-500h-108v500h108z" />
    <glyph glyph-name="idieresis" unicode="&#xef;" horiz-adv-x="249" 
d="M-50 644c0 20.667 7 38 21 52s31.333 21 52 21s38 -7 52 -21s21 -31.333 21 -52s-7 -38 -21 -52s-31.333 -21 -52 -21s-38 7 -52 21s-21 31.333 -21 52zM154 644c0 20.667 7 38 21 52s31.333 21 52 21s37.834 -7 51.501 -21s20.5 -31.333 20.5 -52
s-6.83301 -38 -20.5 -52s-30.834 -21 -51.501 -21s-38 7 -52 21s-21 31.333 -21 52zM178 500v-500h-108v500h108z" />
    <glyph glyph-name="eth" unicode="&#xf0;" horiz-adv-x="601" 
d="M289 -12c-38 0 -73.001 6.49902 -105.001 19.499s-59.5 31 -82.5 54s-40.833 50.667 -53.5 83s-19 67.833 -19 106.5c0 39.333 6.5 75 19.5 107s30.667 59.5 53 82.5s48.833 40.667 79.5 53s63.667 18.5 99 18.5c16.667 0 33.334 -1.66699 50.001 -5
s32.834 -8.66602 48.501 -15.999s30.5 -17 44.5 -29s26.667 -27 38 -45v6c-6.66699 44 -21.5 83.167 -44.5 117.5s-52.167 64.166 -87.5 89.499l-89 -72l-53 57l69 57c-15.333 7.33301 -31.5 13.833 -48.5 19.5s-34.167 10.5 -51.5 14.5l31 91
c57.333 -13.333 108.666 -32.333 153.999 -57l67 55l53 -59l-51 -41c42 -34 75.667 -74.333 101 -121c38 -70 57 -155 57 -255c0 -58 -7.33301 -107.667 -22 -149s-35 -75.666 -61 -102.999c-25.333 -27.333 -54.833 -47.333 -88.5 -60s-69.5 -19 -107.5 -19z
M444.999 248.999c0 22.667 -3.50098 43.668 -10.501 63.001s-17.167 36 -30.5 50s-29.333 25 -48 33s-40 12 -64 12c-23.333 0 -44.333 -3.83301 -63 -11.5s-34.667 -18.334 -48 -32.001s-23.5 -30 -30.5 -49s-10.5 -39.833 -10.5 -62.5c0 -24 3.83301 -45.667 11.5 -65
s18.167 -36 31.5 -50s29.333 -24.833 48 -32.5s39 -11.5 61 -11.5c21.333 0 41.333 3.5 60 10.5s34.834 17.333 48.501 31s24.5 30.167 32.5 49.5s12 41 12 65z" />
    <glyph glyph-name="ntilde" unicode="&#xf1;" horiz-adv-x="581" 
d="M350 565c-12.667 0 -24.667 2.33398 -36 7.00098s-22.166 10 -32.499 16l-28.5 16c-8.66699 4.66699 -17 7 -25 7c-10 0 -20.167 -4.33301 -30.5 -13s-20.5 -18 -30.5 -28l-56 57l24 25c8.66699 8.66699 18 16.5 28 23.5s20.5 12.833 31.5 17.5s22.167 7 33.5 7
c12.667 0 24.667 -2.33301 36 -7s22.166 -9.83398 32.499 -15.501l28.5 -15.5c8.66699 -4.66699 17 -7 25 -7c10.667 0 21 4.16699 31 12.5s20 17.5 30 27.5l56 -57l-24 -25c-8.66699 -8.66699 -18 -16.5 -28 -23.5s-20.333 -12.833 -31 -17.5s-22 -7 -34 -7zM169 431.001
c18.667 26 42 45.998 70 59.998s59.333 21 94 21c30.667 0 57.5 -5 80.5 -15s42 -24.167 57 -42.5s26.167 -40.333 33.5 -66s11 -54.5 11 -86.5v-302h-110v288c0 41.333 -9.5 72 -28.5 92s-44.5 30 -76.5 30c-24 0 -44.167 -4.33301 -60.5 -13s-29.5 -20.667 -39.5 -36
s-17.167 -33.666 -21.5 -54.999s-6.5 -44.666 -6.5 -69.999v-236h-108v500h105v-69z" />
    <glyph glyph-name="ograve" unicode="&#xf2;" horiz-adv-x="588" 
d="M204 767l218 -136l-48 -75l-219 134zM29 250c0 38 6.66699 73.167 20 105.5s31.833 60 55.5 83s51.667 41 84 54s67.5 19.5 105.5 19.5s73.167 -6.5 105.5 -19.5s60.333 -31 84 -54s42.167 -50.667 55.5 -83s20 -67.5 20 -105.5s-6.66699 -73.167 -20 -105.5
s-31.833 -60 -55.5 -83s-51.667 -41 -84 -54s-67.5 -19.5 -105.5 -19.5s-73.167 6.5 -105.5 19.5s-60.333 31 -84 54s-42.167 50.667 -55.5 83s-20 67.5 -20 105.5zM448 250c0 23.333 -3.83301 44.666 -11.5 63.999s-18.334 35.833 -32.001 49.5
s-29.834 24.334 -48.501 32.001s-39.334 11.5 -62.001 11.5s-43.334 -3.83301 -62.001 -11.5s-34.834 -18.334 -48.501 -32.001s-24.334 -30.167 -32.001 -49.5s-11.5 -40.666 -11.5 -63.999s3.83301 -44.666 11.5 -63.999s18.334 -35.833 32.001 -49.5
s29.834 -24.334 48.501 -32.001s39.334 -11.5 62.001 -11.5s43.334 3.83301 62.001 11.5s34.834 18.334 48.501 32.001s24.334 30.167 32.001 49.5s11.5 40.666 11.5 63.999z" />
    <glyph glyph-name="oacute" unicode="&#xf3;" horiz-adv-x="588" 
d="M382 767l49 -77l-219 -135l-48 76zM29 250c0 38 6.66699 73.167 20 105.5s31.833 60 55.5 83s51.667 41 84 54s67.5 19.5 105.5 19.5s73.167 -6.5 105.5 -19.5s60.333 -31 84 -54s42.167 -50.667 55.5 -83s20 -67.5 20 -105.5s-6.66699 -73.167 -20 -105.5
s-31.833 -60 -55.5 -83s-51.667 -41 -84 -54s-67.5 -19.5 -105.5 -19.5s-73.167 6.5 -105.5 19.5s-60.333 31 -84 54s-42.167 50.667 -55.5 83s-20 67.5 -20 105.5zM448 250c0 23.333 -3.83301 44.666 -11.5 63.999s-18.334 35.833 -32.001 49.5
s-29.834 24.334 -48.501 32.001s-39.334 11.5 -62.001 11.5s-43.334 -3.83301 -62.001 -11.5s-34.834 -18.334 -48.501 -32.001s-24.334 -30.167 -32.001 -49.5s-11.5 -40.666 -11.5 -63.999s3.83301 -44.666 11.5 -63.999s18.334 -35.833 32.001 -49.5
s29.834 -24.334 48.501 -32.001s39.334 -11.5 62.001 -11.5s43.334 3.83301 62.001 11.5s34.834 18.334 48.501 32.001s24.334 30.167 32.001 49.5s11.5 40.666 11.5 63.999z" />
    <glyph glyph-name="ocircumflex" unicode="&#xf4;" horiz-adv-x="588" 
d="M294 768l180 -154l-57 -62l-123 106l-123 -106l-57 62zM29 250c0 38 6.66699 73.167 20 105.5s31.833 60 55.5 83s51.667 41 84 54s67.5 19.5 105.5 19.5s73.167 -6.5 105.5 -19.5s60.333 -31 84 -54s42.167 -50.667 55.5 -83s20 -67.5 20 -105.5
s-6.66699 -73.167 -20 -105.5s-31.833 -60 -55.5 -83s-51.667 -41 -84 -54s-67.5 -19.5 -105.5 -19.5s-73.167 6.5 -105.5 19.5s-60.333 31 -84 54s-42.167 50.667 -55.5 83s-20 67.5 -20 105.5zM448 250c0 23.333 -3.83301 44.666 -11.5 63.999
s-18.334 35.833 -32.001 49.5s-29.834 24.334 -48.501 32.001s-39.334 11.5 -62.001 11.5s-43.334 -3.83301 -62.001 -11.5s-34.834 -18.334 -48.501 -32.001s-24.334 -30.167 -32.001 -49.5s-11.5 -40.666 -11.5 -63.999s3.83301 -44.666 11.5 -63.999
s18.334 -35.833 32.001 -49.5s29.834 -24.334 48.501 -32.001s39.334 -11.5 62.001 -11.5s43.334 3.83301 62.001 11.5s34.834 18.334 48.501 32.001s24.334 30.167 32.001 49.5s11.5 40.666 11.5 63.999z" />
    <glyph glyph-name="otilde" unicode="&#xf5;" horiz-adv-x="588" 
d="M355 565c-12.667 0 -24.667 2.33398 -36 7.00098s-22.166 10 -32.499 16l-28.5 16c-8.66699 4.66699 -17 7 -25 7c-10 0 -20.167 -4.33301 -30.5 -13s-20.5 -18 -30.5 -28l-56 57l24 25c8.66699 8.66699 18 16.5 28 23.5s20.5 12.833 31.5 17.5s22.167 7 33.5 7
c12.667 0 24.667 -2.33301 36 -7s22.166 -9.83398 32.499 -15.501l28.5 -15.5c8.66699 -4.66699 17 -7 25 -7c10.667 0 21 4.16699 31 12.5s20 17.5 30 27.5l56 -57l-24 -25c-8.66699 -8.66699 -18 -16.5 -28 -23.5s-20.333 -12.833 -31 -17.5s-22 -7 -34 -7zM29 250.001
c0 38 6.66699 73.167 20 105.5s31.833 60 55.5 83s51.667 41 84 54s67.5 19.5 105.5 19.5s73.167 -6.5 105.5 -19.5s60.333 -31 84 -54s42.167 -50.667 55.5 -83s20 -67.5 20 -105.5s-6.66699 -73.167 -20 -105.5s-31.833 -60 -55.5 -83s-51.667 -41 -84 -54
s-67.5 -19.5 -105.5 -19.5s-73.167 6.5 -105.5 19.5s-60.333 31 -84 54s-42.167 50.667 -55.5 83s-20 67.5 -20 105.5zM448 250.001c0 23.333 -3.83301 44.666 -11.5 63.999s-18.334 35.833 -32.001 49.5s-29.834 24.334 -48.501 32.001s-39.334 11.5 -62.001 11.5
s-43.334 -3.83301 -62.001 -11.5s-34.834 -18.334 -48.501 -32.001s-24.334 -30.167 -32.001 -49.5s-11.5 -40.666 -11.5 -63.999s3.83301 -44.666 11.5 -63.999s18.334 -35.833 32.001 -49.5s29.834 -24.334 48.501 -32.001s39.334 -11.5 62.001 -11.5
s43.334 3.83301 62.001 11.5s34.834 18.334 48.501 32.001s24.334 30.167 32.001 49.5s11.5 40.666 11.5 63.999z" />
    <glyph glyph-name="odieresis" unicode="&#xf6;" horiz-adv-x="588" 
d="M119 644c0 20.667 7 38 21 52s31.333 21 52 21s38 -7 52 -21s21 -31.333 21 -52s-7 -38 -21 -52s-31.333 -21 -52 -21s-38 7 -52 21s-21 31.333 -21 52zM323 644c0 20.667 7 38 21 52s31.333 21 52 21s37.834 -7 51.501 -21s20.5 -31.333 20.5 -52
s-6.83301 -38 -20.5 -52s-30.834 -21 -51.501 -21s-38 7 -52 21s-21 31.333 -21 52zM29 250c0 38 6.66699 73.167 20 105.5s31.833 60 55.5 83s51.667 41 84 54s67.5 19.5 105.5 19.5s73.167 -6.5 105.5 -19.5s60.333 -31 84 -54s42.167 -50.667 55.5 -83
s20 -67.5 20 -105.5s-6.66699 -73.167 -20 -105.5s-31.833 -60 -55.5 -83s-51.667 -41 -84 -54s-67.5 -19.5 -105.5 -19.5s-73.167 6.5 -105.5 19.5s-60.333 31 -84 54s-42.167 50.667 -55.5 83s-20 67.5 -20 105.5zM448 250c0 23.333 -3.83301 44.666 -11.5 63.999
s-18.334 35.833 -32.001 49.5s-29.834 24.334 -48.501 32.001s-39.334 11.5 -62.001 11.5s-43.334 -3.83301 -62.001 -11.5s-34.834 -18.334 -48.501 -32.001s-24.334 -30.167 -32.001 -49.5s-11.5 -40.666 -11.5 -63.999s3.83301 -44.666 11.5 -63.999
s18.334 -35.833 32.001 -49.5s29.834 -24.334 48.501 -32.001s39.334 -11.5 62.001 -11.5s43.334 3.83301 62.001 11.5s34.834 18.334 48.501 32.001s24.334 30.167 32.001 49.5s11.5 40.666 11.5 63.999z" />
    <glyph glyph-name="divide" unicode="&#xf7;" 
d="M313 599c24.667 0 45.334 -8.33301 62.001 -25s25 -37.334 25 -62.001s-8.33301 -45.167 -25 -61.5s-37.334 -24.5 -62.001 -24.5s-45.167 8.16699 -61.5 24.5s-24.5 36.833 -24.5 61.5s8.16699 45.334 24.5 62.001s36.833 25 61.5 25zM599 373v-114h-558v114h558z
M313 209c24.667 0 45.334 -8.33301 62.001 -25s25 -37 25 -61c0 -24.667 -8.33301 -45.167 -25 -61.5s-37.334 -24.5 -62.001 -24.5s-45.167 8.16699 -61.5 24.5s-24.5 36.833 -24.5 61.5c0 24 8.16699 44.333 24.5 61s36.833 25 61.5 25z" />
    <glyph glyph-name="oslash" unicode="&#xf8;" horiz-adv-x="588" 
d="M140 250c0 -37.333 9.33594 -69.333 28.0029 -96l201 236c-22.667 11.333 -47.667 17 -75 17c-22.667 0 -43.334 -3.83301 -62.001 -11.5s-34.834 -18.334 -48.501 -32.001s-24.334 -30.167 -32.001 -49.5s-11.5 -40.666 -11.5 -63.999zM294.003 93
c22.667 0 43.3311 3.83301 61.998 11.5s34.834 18.334 48.501 32.001s24.334 30.167 32.001 49.5s11.5 40.666 11.5 63.999c0 36.667 -9.33301 68 -28 94l-199 -235c22.667 -10.667 47 -16 73 -16zM294 -12c-27.333 0 -53 3.33301 -77 10s-46.333 16 -67 28l-35 -41l-53 44
l35 41c-21.333 22.667 -38 49.334 -50 80.001s-18 64 -18 100c0 38 6.66699 73.167 20 105.5s31.833 60 55.5 83s51.667 41 84 54s67.5 19.5 105.5 19.5c28 0 54 -3.33301 78 -10s46.333 -16.334 67 -29.001l36 42l52 -45l-35 -41c21.333 -22.667 37.833 -49.167 49.5 -79.5
s17.5 -63.5 17.5 -99.5c0 -38 -6.66699 -73.167 -20 -105.5s-31.833 -60 -55.5 -83s-51.667 -41 -84 -54s-67.5 -19.5 -105.5 -19.5z" />
    <glyph glyph-name="ugrave" unicode="&#xf9;" horiz-adv-x="574" 
d="M196 767l218 -136l-48 -75l-219 134zM508 500l0.00292969 -499.999h-104v74c-18.667 -27.333 -40.334 -48.5 -65.001 -63.5s-56 -22.5 -94 -22.5c-32 0 -59.5 5 -82.5 15s-41.833 24.333 -56.5 43s-25.334 40.667 -32.001 66s-10 53.666 -10 84.999v303h111v-288
c0 -37.333 7.16699 -66.833 21.5 -88.5s40.166 -32.5 77.499 -32.5c24 0 44 4.5 60 13.5s28.833 21.333 38.5 37s16.667 34 21 55s6.5 43.5 6.5 67.5v236h108z" />
    <glyph glyph-name="uacute" unicode="&#xfa;" horiz-adv-x="574" 
d="M374 767l49 -77l-219 -135l-48 76zM508 500l0.00292969 -499.999h-104v74c-18.667 -27.333 -40.334 -48.5 -65.001 -63.5s-56 -22.5 -94 -22.5c-32 0 -59.5 5 -82.5 15s-41.833 24.333 -56.5 43s-25.334 40.667 -32.001 66s-10 53.666 -10 84.999v303h111v-288
c0 -37.333 7.16699 -66.833 21.5 -88.5s40.166 -32.5 77.499 -32.5c24 0 44 4.5 60 13.5s28.833 21.333 38.5 37s16.667 34 21 55s6.5 43.5 6.5 67.5v236h108z" />
    <glyph glyph-name="ucircumflex" unicode="&#xfb;" horiz-adv-x="574" 
d="M286 768l180 -154l-57 -62l-123 106l-123 -106l-57 62zM508 500l0.00292969 -499.999h-104v74c-18.667 -27.333 -40.334 -48.5 -65.001 -63.5s-56 -22.5 -94 -22.5c-32 0 -59.5 5 -82.5 15s-41.833 24.333 -56.5 43s-25.334 40.667 -32.001 66s-10 53.666 -10 84.999v303
h111v-288c0 -37.333 7.16699 -66.833 21.5 -88.5s40.166 -32.5 77.499 -32.5c24 0 44 4.5 60 13.5s28.833 21.333 38.5 37s16.667 34 21 55s6.5 43.5 6.5 67.5v236h108z" />
    <glyph glyph-name="udieresis" unicode="&#xfc;" horiz-adv-x="574" 
d="M111 644c0 20.667 7 38 21 52s31.333 21 52 21s38 -7 52 -21s21 -31.333 21 -52s-7 -38 -21 -52s-31.333 -21 -52 -21s-38 7 -52 21s-21 31.333 -21 52zM315 644c0 20.667 7 38 21 52s31.333 21 52 21s37.834 -7 51.501 -21s20.5 -31.333 20.5 -52
s-6.83301 -38 -20.5 -52s-30.834 -21 -51.501 -21s-38 7 -52 21s-21 31.333 -21 52zM508 500l0.00292969 -499.999h-104v74c-18.667 -27.333 -40.334 -48.5 -65.001 -63.5s-56 -22.5 -94 -22.5c-32 0 -59.5 5 -82.5 15s-41.833 24.333 -56.5 43s-25.334 40.667 -32.001 66
s-10 53.666 -10 84.999v303h111v-288c0 -37.333 7.16699 -66.833 21.5 -88.5s40.166 -32.5 77.499 -32.5c24 0 44 4.5 60 13.5s28.833 21.333 38.5 37s16.667 34 21 55s6.5 43.5 6.5 67.5v236h108z" />
    <glyph glyph-name="yacute" unicode="&#xfd;" horiz-adv-x="531" 
d="M356 767l49 -77l-219 -135l-48 76zM96 -200l123 269l-215 431h128l144 -306l140 306h115l-320 -700h-115z" />
    <glyph glyph-name="thorn" unicode="&#xfe;" horiz-adv-x="607" 
d="M317 91c45.333 0 81.666 14.6709 108.999 44.0039s41 67.666 41 114.999s-13.667 85.666 -41 114.999s-63.666 44 -108.999 44c-44.667 0 -80.834 -14.333 -108.501 -43s-41.5 -67.334 -41.5 -116.001s13.833 -87.334 41.5 -116.001s63.834 -43 108.501 -43zM64 -199.996
l0.000976562 900.001h108v-271c18.667 25.333 42.167 45.5 70.5 60.5s62.166 22.5 101.499 22.5c32.667 0 63.167 -6 91.5 -18s53 -29.167 74 -51.5s37.667 -49.833 50 -82.5s18.5 -69.334 18.5 -110.001c0 -41.333 -6.16699 -78.166 -18.5 -110.499s-29 -59.833 -50 -82.5
s-45.667 -39.834 -74 -51.501s-58.5 -17.5 -90.5 -17.5c-40 0 -74 8 -102 24s-51.667 36 -71 60v-272h-108z" />
    <glyph glyph-name="ydieresis" unicode="&#xff;" horiz-adv-x="531" 
d="M93 644c0 20.667 7 38 21 52s31.333 21 52 21s38 -7 52 -21s21 -31.333 21 -52s-7 -38 -21 -52s-31.333 -21 -52 -21s-38 7 -52 21s-21 31.333 -21 52zM297 644c0 20.667 7 38 21 52s31.333 21 52 21s37.834 -7 51.501 -21s20.5 -31.333 20.5 -52s-6.83301 -38 -20.5 -52
s-30.834 -21 -51.501 -21s-38 7 -52 21s-21 31.333 -21 52zM96 -200l123 269l-215 431h128l144 -306l140 306h115l-320 -700h-115z" />
    <glyph glyph-name="Amacron" unicode="&#x100;" horiz-adv-x="779" 
d="M539 840v-84h-300v84h300zM241 231h297l-149 320zM591 117h-403l-54 -117h-125l325 700h111l325 -700h-125z" />
    <glyph glyph-name="amacron" unicode="&#x101;" horiz-adv-x="526" 
d="M421 691v-84h-300v84h300zM366 231l-143.999 -17.999c-24.667 -3.33301 -42.834 -10.833 -54.501 -22.5s-17.5 -25.834 -17.5 -42.501c0 -19.333 6.83301 -34.833 20.5 -46.5s34.167 -17.5 61.5 -17.5c20.667 0 39.334 3.33301 56.001 10s30.667 15.5 42 26.5
s20.166 23.667 26.499 38s9.5 28.833 9.5 43.5v29zM53.001 392.001c12.667 37.333 36.4971 66.668 71.4971 88.001s81.833 32 140.5 32c70.667 0 123.167 -16.333 157.5 -49s51.5 -81.334 51.5 -146.001v-317h-108v69c-15.333 -23.333 -36.166 -42.333 -62.499 -57
s-58.5 -22 -96.5 -22c-26 0 -49.5 3.83301 -70.5 11.5s-38.667 18.334 -53 32.001s-25.5 30 -33.5 49s-12 39.833 -12 62.5c0 46 15.167 82.333 45.5 109s68.5 42 114.5 46l139 14c19.333 2 29 9.66699 29 23v11c0 19.333 -8.16699 35.166 -24.5 47.499
s-41.166 18.5 -74.499 18.5c-30.667 0 -57.667 -5.83301 -81 -17.5s-38.666 -31.5 -45.999 -59.5z" />
    <glyph glyph-name="Abreve" unicode="&#x102;" horiz-adv-x="779" 
d="M538 887c0 -46 -13.167 -83.667 -39.5 -113s-62.833 -44 -109.5 -44s-83.167 14.667 -109.5 44s-39.5 67 -39.5 113h87c0 -22.667 5.33301 -40.334 16 -53.001s26 -19 46 -19s35.333 6.33301 46 19s16 30.334 16 53.001h87zM241 231h297l-149 320zM591 117h-403l-54 -117
h-125l325 700h111l325 -700h-125z" />
    <glyph glyph-name="abreve" unicode="&#x103;" horiz-adv-x="526" 
d="M420 731c0 -46 -13.167 -83.667 -39.5 -113s-62.833 -44 -109.5 -44s-83.167 14.667 -109.5 44s-39.5 67 -39.5 113h87c0 -22.667 5.33301 -40.334 16 -53.001s26 -19 46 -19s35.333 6.33301 46 19s16 30.334 16 53.001h87zM366 231l-143.999 -17.999
c-24.667 -3.33301 -42.834 -10.833 -54.501 -22.5s-17.5 -25.834 -17.5 -42.501c0 -19.333 6.83301 -34.833 20.5 -46.5s34.167 -17.5 61.5 -17.5c20.667 0 39.334 3.33301 56.001 10s30.667 15.5 42 26.5s20.166 23.667 26.499 38s9.5 28.833 9.5 43.5v29zM53.001 392.001
c12.667 37.333 36.4971 66.668 71.4971 88.001s81.833 32 140.5 32c70.667 0 123.167 -16.333 157.5 -49s51.5 -81.334 51.5 -146.001v-317h-108v69c-15.333 -23.333 -36.166 -42.333 -62.499 -57s-58.5 -22 -96.5 -22c-26 0 -49.5 3.83301 -70.5 11.5
s-38.667 18.334 -53 32.001s-25.5 30 -33.5 49s-12 39.833 -12 62.5c0 46 15.167 82.333 45.5 109s68.5 42 114.5 46l139 14c19.333 2 29 9.66699 29 23v11c0 19.333 -8.16699 35.166 -24.5 47.499s-41.166 18.5 -74.499 18.5c-30.667 0 -57.667 -5.83301 -81 -17.5
s-38.666 -31.5 -45.999 -59.5z" />
    <glyph glyph-name="Aogonek" unicode="&#x104;" horiz-adv-x="779" 
d="M241 231h297l-149 320zM716 -179c-10 -3.33301 -20.166 -5.83594 -30.499 -7.50293s-20.833 -2.5 -31.5 -2.5c-29.333 0 -53.166 7.83301 -71.499 23.5s-27.5 37.167 -27.5 64.5c0 20 6 39.833 18 59.5s32 42.167 60 67.5l-42 91h-403l-54 -117h-125l325 700h111
l325 -700h-85c-17.333 -17.333 -29.5 -32.666 -36.5 -45.999s-10.5 -24.666 -10.5 -33.999c0 -7.33301 2.66699 -13.666 8 -18.999s13.666 -8 24.999 -8c5.33301 0 11.666 0.666992 18.999 2s16 3 26 5v-79z" />
    <glyph glyph-name="aogonek" unicode="&#x105;" horiz-adv-x="526" 
d="M366 231l-143.999 -17.999c-24.667 -3.33301 -42.834 -10.833 -54.501 -22.5s-17.5 -25.834 -17.5 -42.501c0 -19.333 6.83301 -34.833 20.5 -46.5s34.167 -17.5 61.5 -17.5c20.667 0 39.334 3.33301 56.001 10s30.667 15.5 42 26.5s20.166 23.667 26.499 38
s9.5 28.833 9.5 43.5v29zM461.001 -178.999c-10 -3.33301 -20.168 -5.83398 -30.501 -7.50098s-20.833 -2.5 -31.5 -2.5c-29.333 0 -53.166 7.83301 -71.499 23.5s-27.5 37.167 -27.5 64.5c0 18.667 5.16699 37 15.5 55s27.166 38.333 50.499 61v54
c-15.333 -23.333 -36.166 -42.333 -62.499 -57s-58.5 -22 -96.5 -22c-26 0 -49.5 3.83301 -70.5 11.5s-38.667 18.334 -53 32.001s-25.5 30 -33.5 49s-12 39.833 -12 62.5c0 46 15.167 82.333 45.5 109s68.5 42 114.5 46l139 14c19.333 2 29 9.66699 29 23v11
c0 19.333 -8.16699 35.166 -24.5 47.499s-41.166 18.5 -74.499 18.5c-30.667 0 -57.667 -5.83301 -81 -17.5s-38.666 -31.5 -45.999 -59.5l-87 55c12.667 37.333 36.5 66.666 71.5 87.999s81.833 32 140.5 32c70.667 0 123.167 -16.333 157.5 -49
s51.5 -81.334 51.5 -146.001v-317h-44c-17.333 -17.333 -29.5 -32.666 -36.5 -45.999s-10.5 -24.666 -10.5 -33.999c0 -7.33301 2.66699 -13.666 8 -18.999s13.666 -8 24.999 -8c5.33301 0 11.666 0.666992 18.999 2s16 3 26 5v-79z" />
    <glyph glyph-name="Cacute" unicode="&#x106;" horiz-adv-x="655" 
d="M478 922l49 -77l-219 -135l-48 76zM44 350c0 50 9.00098 96.333 27.001 139s42.667 79.667 74 111s68.166 55.833 110.499 73.5s88.166 26.5 137.499 26.5c48 0 93.167 -8.5 135.5 -25.5s80.5 -40.833 114.5 -71.5l-54 -106c-25.333 26.667 -54.666 48.167 -87.999 64.5
s-70.333 24.5 -111 24.5c-33.333 0 -64 -5.66699 -92 -17s-52.5 -27.5 -73.5 -48.5s-37.333 -46 -49 -75s-17.5 -60.833 -17.5 -95.5c0 -35.333 5.83301 -67.333 17.5 -96s28 -53.5 49 -74.5s45.5 -37.167 73.5 -48.5s58.667 -17 92 -17c20 0 40.833 2.16699 62.5 6.5
s45.167 12.5 70.5 24.5l22 -113c-28 -10.667 -54.167 -18.667 -78.5 -24s-49.833 -8 -76.5 -8c-48 -0 -93.167 8.83301 -135.5 26.5s-79 42.167 -110 73.5s-55.5 68.333 -73.5 111s-27 89 -27 139z" />
    <glyph glyph-name="cacute" unicode="&#x107;" horiz-adv-x="500" 
d="M375 767l49 -77l-219 -135l-48 76zM29 249c0 38.667 6.50391 74 19.5039 106s31.167 59.667 54.5 83s51.166 41.5 83.499 54.5s68.166 19.5 107.499 19.5s74.333 -6.5 105 -19.5s57.334 -30.833 80.001 -53.5l-65 -85c-15.333 15.333 -33 28 -53 38s-43.333 15 -70 15
c-21.333 0 -41.333 -3.66699 -60 -11s-34.667 -17.833 -48 -31.5s-23.833 -30.167 -31.5 -49.5s-11.5 -41 -11.5 -65s3.83301 -45.667 11.5 -65s18.167 -35.833 31.5 -49.5s29.166 -24.167 47.499 -31.5s38.166 -11 59.499 -11c28 0 52.5 5.33301 73.5 16
s39.5 23.667 55.5 39l62 -86c-21.333 -21.333 -48 -39 -80 -53s-69 -21 -111 -21c-39.333 0 -75 6.33301 -107 19s-59.333 30.5 -82 53.5s-40.334 50.5 -53.001 82.5s-19 67.333 -19 106z" />
    <glyph glyph-name="Ccircumflex" unicode="&#x108;" horiz-adv-x="655" 
d="M382 930l180 -154l-57 -62l-123 106l-123 -106l-57 62zM44 350c0 50 9.00098 96.333 27.001 139s42.667 79.667 74 111s68.166 55.833 110.499 73.5s88.166 26.5 137.499 26.5c48 0 93.167 -8.5 135.5 -25.5s80.5 -40.833 114.5 -71.5l-54 -106
c-25.333 26.667 -54.666 48.167 -87.999 64.5s-70.333 24.5 -111 24.5c-33.333 0 -64 -5.66699 -92 -17s-52.5 -27.5 -73.5 -48.5s-37.333 -46 -49 -75s-17.5 -60.833 -17.5 -95.5c0 -35.333 5.83301 -67.333 17.5 -96s28 -53.5 49 -74.5s45.5 -37.167 73.5 -48.5
s58.667 -17 92 -17c20 0 40.833 2.16699 62.5 6.5s45.167 12.5 70.5 24.5l22 -113c-28 -10.667 -54.167 -18.667 -78.5 -24s-49.833 -8 -76.5 -8c-48 -0 -93.167 8.83301 -135.5 26.5s-79 42.167 -110 73.5s-55.5 68.333 -73.5 111s-27 89 -27 139z" />
    <glyph glyph-name="ccircumflex" unicode="&#x109;" horiz-adv-x="500" 
d="M286 768l180 -154l-57 -62l-123 106l-123 -106l-57 62zM29 249c0 38.667 6.50391 74 19.5039 106s31.167 59.667 54.5 83s51.166 41.5 83.499 54.5s68.166 19.5 107.499 19.5s74.333 -6.5 105 -19.5s57.334 -30.833 80.001 -53.5l-65 -85c-15.333 15.333 -33 28 -53 38
s-43.333 15 -70 15c-21.333 0 -41.333 -3.66699 -60 -11s-34.667 -17.833 -48 -31.5s-23.833 -30.167 -31.5 -49.5s-11.5 -41 -11.5 -65s3.83301 -45.667 11.5 -65s18.167 -35.833 31.5 -49.5s29.166 -24.167 47.499 -31.5s38.166 -11 59.499 -11c28 0 52.5 5.33301 73.5 16
s39.5 23.667 55.5 39l62 -86c-21.333 -21.333 -48 -39 -80 -53s-69 -21 -111 -21c-39.333 0 -75 6.33301 -107 19s-59.333 30.5 -82 53.5s-40.334 50.5 -53.001 82.5s-19 67.333 -19 106z" />
    <glyph glyph-name="Cdotaccent" unicode="&#x10a;" horiz-adv-x="655" 
d="M310 800c0 21.333 7.33301 39.333 22 54s32.667 22 54 22s39.333 -7.33301 54 -22s22 -32.667 22 -54s-7.33301 -39.333 -22 -54s-32.667 -22 -54 -22s-39.333 7.33301 -54 22s-22 32.667 -22 54zM44 350c0 50 9.00098 96.333 27.001 139s42.667 79.667 74 111
s68.166 55.833 110.499 73.5s88.166 26.5 137.499 26.5c48 0 93.167 -8.5 135.5 -25.5s80.5 -40.833 114.5 -71.5l-54 -106c-25.333 26.667 -54.666 48.167 -87.999 64.5s-70.333 24.5 -111 24.5c-33.333 0 -64 -5.66699 -92 -17s-52.5 -27.5 -73.5 -48.5
s-37.333 -46 -49 -75s-17.5 -60.833 -17.5 -95.5c0 -35.333 5.83301 -67.333 17.5 -96s28 -53.5 49 -74.5s45.5 -37.167 73.5 -48.5s58.667 -17 92 -17c20 0 40.833 2.16699 62.5 6.5s45.167 12.5 70.5 24.5l22 -113c-28 -10.667 -54.167 -18.667 -78.5 -24
s-49.833 -8 -76.5 -8c-48 -0 -93.167 8.83301 -135.5 26.5s-79 42.167 -110 73.5s-55.5 68.333 -73.5 111s-27 89 -27 139z" />
    <glyph glyph-name="cdotaccent" unicode="&#x10b;" horiz-adv-x="500" 
d="M210 644c0 21.333 7.33301 39.333 22 54s32.667 22 54 22s39.333 -7.33301 54 -22s22 -32.667 22 -54s-7.33301 -39.333 -22 -54s-32.667 -22 -54 -22s-39.333 7.33301 -54 22s-22 32.667 -22 54zM29 249c0 38.667 6.50391 74 19.5039 106s31.167 59.667 54.5 83
s51.166 41.5 83.499 54.5s68.166 19.5 107.499 19.5s74.333 -6.5 105 -19.5s57.334 -30.833 80.001 -53.5l-65 -85c-15.333 15.333 -33 28 -53 38s-43.333 15 -70 15c-21.333 0 -41.333 -3.66699 -60 -11s-34.667 -17.833 -48 -31.5s-23.833 -30.167 -31.5 -49.5
s-11.5 -41 -11.5 -65s3.83301 -45.667 11.5 -65s18.167 -35.833 31.5 -49.5s29.166 -24.167 47.499 -31.5s38.166 -11 59.499 -11c28 0 52.5 5.33301 73.5 16s39.5 23.667 55.5 39l62 -86c-21.333 -21.333 -48 -39 -80 -53s-69 -21 -111 -21c-39.333 0 -75 6.33301 -107 19
s-59.333 30.5 -82 53.5s-40.334 50.5 -53.001 82.5s-19 67.333 -19 106z" />
    <glyph glyph-name="Ccaron" unicode="&#x10c;" horiz-adv-x="655" 
d="M505 941l57 -62l-180 -154l-180 154l57 62l123 -106zM44 350c0 50 9.00098 96.333 27.001 139s42.667 79.667 74 111s68.166 55.833 110.499 73.5s88.166 26.5 137.499 26.5c48 0 93.167 -8.5 135.5 -25.5s80.5 -40.833 114.5 -71.5l-54 -106
c-25.333 26.667 -54.666 48.167 -87.999 64.5s-70.333 24.5 -111 24.5c-33.333 0 -64 -5.66699 -92 -17s-52.5 -27.5 -73.5 -48.5s-37.333 -46 -49 -75s-17.5 -60.833 -17.5 -95.5c0 -35.333 5.83301 -67.333 17.5 -96s28 -53.5 49 -74.5s45.5 -37.167 73.5 -48.5
s58.667 -17 92 -17c20 0 40.833 2.16699 62.5 6.5s45.167 12.5 70.5 24.5l22 -113c-28 -10.667 -54.167 -18.667 -78.5 -24s-49.833 -8 -76.5 -8c-48 -0 -93.167 8.83301 -135.5 26.5s-79 42.167 -110 73.5s-55.5 68.333 -73.5 111s-27 89 -27 139z" />
    <glyph glyph-name="ccaron" unicode="&#x10d;" horiz-adv-x="500" 
d="M406 771l57 -62l-180 -154l-180 154l57 62l123 -106zM29 249c0 38.667 6.50391 74 19.5039 106s31.167 59.667 54.5 83s51.166 41.5 83.499 54.5s68.166 19.5 107.499 19.5s74.333 -6.5 105 -19.5s57.334 -30.833 80.001 -53.5l-65 -85c-15.333 15.333 -33 28 -53 38
s-43.333 15 -70 15c-21.333 0 -41.333 -3.66699 -60 -11s-34.667 -17.833 -48 -31.5s-23.833 -30.167 -31.5 -49.5s-11.5 -41 -11.5 -65s3.83301 -45.667 11.5 -65s18.167 -35.833 31.5 -49.5s29.166 -24.167 47.499 -31.5s38.166 -11 59.499 -11c28 0 52.5 5.33301 73.5 16
s39.5 23.667 55.5 39l62 -86c-21.333 -21.333 -48 -39 -80 -53s-69 -21 -111 -21c-39.333 0 -75 6.33301 -107 19s-59.333 30.5 -82 53.5s-40.334 50.5 -53.001 82.5s-19 67.333 -19 106z" />
    <glyph glyph-name="Dcaron" unicode="&#x10e;" horiz-adv-x="714" 
d="M423 941l57 -62l-180 -154l-180 154l57 62l123 -106zM324 700c49.333 0 95.166 -8.83105 137.499 -26.498s79 -42 110 -73s55.167 -67.833 72.5 -110.5s26 -89.334 26 -140.001s-8.66699 -97.334 -26 -140.001s-41.5 -79.5 -72.5 -110.5s-67.667 -55.333 -110 -73
s-88.166 -26.5 -137.499 -26.5h-247v700h247zM556 350.002c0 34 -5.66699 65.5 -17 94.5s-27.333 54 -48 75s-45.167 37.333 -73.5 49s-59.5 17.5 -93.5 17.5h-133v-472h133c34 0 65.167 5.83301 93.5 17.5s52.833 28 73.5 49s36.667 46 48 75s17 60.5 17 94.5z" />
    <glyph glyph-name="dcaron" unicode="&#x10f;" horiz-adv-x="773" 
d="M585 430l71.002 120c-16.667 5.33301 -30.167 15.333 -40.5 30s-15.5 31 -15.5 49c0 10.667 2.16699 21.167 6.5 31.5s10.166 19.166 17.499 26.499s16 13.333 26 18s21 7 33 7s23 -2.33301 33 -7s18.667 -10.667 26 -18s13.166 -16.166 17.499 -26.499
s6.5 -20.833 6.5 -31.5c0 -17.333 -4 -32 -12 -44l-111 -188zM290.002 409c-45.333 0 -81.666 -14.6709 -108.999 -44.0039s-41 -67.666 -41 -114.999s13.667 -85.666 41 -114.999s63.666 -44 108.999 -44c44.667 0 80.834 14.333 108.501 43s41.5 67.334 41.5 116.001
s-13.833 87.334 -41.5 116.001s-63.834 43 -108.501 43zM543.002 699.996l-0.000976562 -699.998h-108v71c-18.667 -25.333 -42.167 -45.5 -70.5 -60.5s-62.166 -22.5 -101.499 -22.5c-32.667 0 -63.167 6 -91.5 18s-53 29.167 -74 51.5s-37.667 49.666 -50 81.999
s-18.5 69.166 -18.5 110.499s6.16699 78.166 18.5 110.499s29 59.833 50 82.5s45.667 39.834 74 51.501s58.5 17.5 90.5 17.5c40 0 74 -8 102 -24s51.667 -36 71 -60v272h108z" />
    <glyph glyph-name="Dcroat" unicode="&#x110;" horiz-adv-x="715" 
d="M75 0v298.002h-77v114h77v288h247c49.333 0 95.166 -8.83301 137.499 -26.5s79 -42 110 -73s55.167 -67.833 72.5 -110.5s26 -89.334 26 -140.001s-8.66699 -97.334 -26 -140.001s-41.5 -79.5 -72.5 -110.5s-67.667 -55.333 -110 -73s-88.166 -26.5 -137.499 -26.5h-247z
M322 114.002c34 0 65.167 5.83301 93.5 17.5s52.833 28 73.5 49s36.667 46 48 75s17 60.5 17 94.5s-5.66699 65.5 -17 94.5s-27.333 54 -48 75s-45.167 37.333 -73.5 49s-59.5 17.5 -93.5 17.5h-133v-174h157v-114h-157v-184h133z" />
    <glyph glyph-name="dcroat" unicode="&#x111;" horiz-adv-x="609" 
d="M290 409c-45.333 0 -81.666 -14.6709 -108.999 -44.0039s-41 -67.666 -41 -114.999s13.667 -85.666 41 -114.999s63.666 -44 108.999 -44c44.667 0 80.834 14.333 108.501 43s41.5 67.334 41.5 116.001s-13.833 87.334 -41.5 116.001s-63.834 43 -108.501 43z
M435 70.9961c-18.667 -25.333 -42.168 -45.498 -70.501 -60.498s-62.166 -22.5 -101.499 -22.5c-32.667 0 -63.167 6 -91.5 18s-53 29.167 -74 51.5s-37.667 49.666 -50 81.999s-18.5 69.166 -18.5 110.499s6.16699 78.166 18.5 110.499s29 59.833 50 82.5
s45.667 39.834 74 51.501s58.5 17.5 90.5 17.5c40 0 74 -8 102 -24s51.667 -36 71 -60v145h-110v81h110v46h108v-46h62v-81h-62v-573h-108v71z" />
    <glyph glyph-name="Emacron" unicode="&#x112;" horiz-adv-x="573" 
d="M450 840v-84h-300v84h300zM518 700v-114h-327v-179h327v-114h-327v-179h327v-114h-441v700h441z" />
    <glyph glyph-name="emacron" unicode="&#x113;" horiz-adv-x="548" 
d="M438 691v-84h-300v84h300zM29 248c0 36.667 5.83008 70.9971 17.4971 102.997s28.334 60 50.001 84s48 42.833 79 56.5s65.833 20.5 104.5 20.5s73.167 -6.5 103.5 -19.5s55.833 -31.167 76.5 -54.5s36.334 -51.166 47.001 -83.499s16 -67.833 16 -106.5v-31h-384v-1
c2.66699 -21.333 8.5 -40 17.5 -56s20.333 -29.167 34 -39.5s29 -18.166 46 -23.499s34.5 -8 52.5 -8c33.333 0 62.333 6.33301 87 19s45.667 28 63 46l51 -87c-20.667 -20 -47.334 -38.167 -80.001 -54.5s-72.667 -24.5 -120 -24.5c-40 0 -76.167 6.33301 -108.5 19
s-59.666 30.5 -81.999 53.5s-39.666 50.333 -51.999 82s-18.5 66.834 -18.5 105.501zM404.997 298.997c-3.33301 34.667 -15.499 62.833 -36.499 84.5s-51.167 32.5 -90.5 32.5c-40 0 -71.333 -10.5 -94 -31.5s-37.334 -49.5 -44.001 -85.5h265z" />
    <glyph glyph-name="Ebreve" unicode="&#x114;" horiz-adv-x="573" 
d="M449 887c0 -46 -13.167 -83.667 -39.5 -113s-62.833 -44 -109.5 -44s-83.167 14.667 -109.5 44s-39.5 67 -39.5 113h87c0 -22.667 5.33301 -40.334 16 -53.001s26 -19 46 -19s35.333 6.33301 46 19s16 30.334 16 53.001h87zM518 700v-114h-327v-179h327v-114h-327v-179
h327v-114h-441v700h441z" />
    <glyph glyph-name="ebreve" unicode="&#x115;" horiz-adv-x="548" 
d="M437 731c0 -46 -13.167 -83.667 -39.5 -113s-62.833 -44 -109.5 -44s-83.167 14.667 -109.5 44s-39.5 67 -39.5 113h87c0 -22.667 5.33301 -40.334 16 -53.001s26 -19 46 -19s35.333 6.33301 46 19s16 30.334 16 53.001h87zM29 248
c0 36.667 5.83008 70.9971 17.4971 102.997s28.334 60 50.001 84s48 42.833 79 56.5s65.833 20.5 104.5 20.5s73.167 -6.5 103.5 -19.5s55.833 -31.167 76.5 -54.5s36.334 -51.166 47.001 -83.499s16 -67.833 16 -106.5v-31h-384v-1c2.66699 -21.333 8.5 -40 17.5 -56
s20.333 -29.167 34 -39.5s29 -18.166 46 -23.499s34.5 -8 52.5 -8c33.333 0 62.333 6.33301 87 19s45.667 28 63 46l51 -87c-20.667 -20 -47.334 -38.167 -80.001 -54.5s-72.667 -24.5 -120 -24.5c-40 0 -76.167 6.33301 -108.5 19s-59.666 30.5 -81.999 53.5
s-39.666 50.333 -51.999 82s-18.5 66.834 -18.5 105.501zM404.997 298.997c-3.33301 34.667 -15.499 62.833 -36.499 84.5s-51.167 32.5 -90.5 32.5c-40 0 -71.333 -10.5 -94 -31.5s-37.334 -49.5 -44.001 -85.5h265z" />
    <glyph glyph-name="Edotaccent" unicode="&#x116;" horiz-adv-x="573" 
d="M225 800c0 21.333 7.33301 39.333 22 54s32.667 22 54 22s39.333 -7.33301 54 -22s22 -32.667 22 -54s-7.33301 -39.333 -22 -54s-32.667 -22 -54 -22s-39.333 7.33301 -54 22s-22 32.667 -22 54zM518 700v-114h-327v-179h327v-114h-327v-179h327v-114h-441v700h441z" />
    <glyph glyph-name="edotaccent" unicode="&#x117;" horiz-adv-x="548" 
d="M212 644c0 21.333 7.33301 39.333 22 54s32.667 22 54 22s39.333 -7.33301 54 -22s22 -32.667 22 -54s-7.33301 -39.333 -22 -54s-32.667 -22 -54 -22s-39.333 7.33301 -54 22s-22 32.667 -22 54zM29 248c0 36.667 5.83008 70.9971 17.4971 102.997s28.334 60 50.001 84
s48 42.833 79 56.5s65.833 20.5 104.5 20.5s73.167 -6.5 103.5 -19.5s55.833 -31.167 76.5 -54.5s36.334 -51.166 47.001 -83.499s16 -67.833 16 -106.5v-31h-384v-1c2.66699 -21.333 8.5 -40 17.5 -56s20.333 -29.167 34 -39.5s29 -18.166 46 -23.499s34.5 -8 52.5 -8
c33.333 0 62.333 6.33301 87 19s45.667 28 63 46l51 -87c-20.667 -20 -47.334 -38.167 -80.001 -54.5s-72.667 -24.5 -120 -24.5c-40 0 -76.167 6.33301 -108.5 19s-59.666 30.5 -81.999 53.5s-39.666 50.333 -51.999 82s-18.5 66.834 -18.5 105.501zM404.997 298.997
c-3.33301 34.667 -15.499 62.833 -36.499 84.5s-51.167 32.5 -90.5 32.5c-40 0 -71.333 -10.5 -94 -31.5s-37.334 -49.5 -44.001 -85.5h265z" />
    <glyph glyph-name="Eogonek" unicode="&#x118;" horiz-adv-x="573" 
d="M502 -179c-10 -3.33301 -20.166 -5.83594 -30.499 -7.50293s-20.833 -2.5 -31.5 -2.5c-29.333 0 -53.166 7.83301 -71.499 23.5s-27.5 37.167 -27.5 64.5c0 16.667 4 33 12 49s21 33.333 39 52h-315v700h441v-114h-327v-179h327v-114h-327v-179h327v-114h-47
c-17.333 -17.333 -29.5 -32.666 -36.5 -45.999s-10.5 -24.666 -10.5 -33.999c0 -7.33301 2.66699 -13.666 8 -18.999s13.666 -8 24.999 -8c5.33301 0 11.666 0.666992 18.999 2s16 3 26 5v-79v0z" />
    <glyph glyph-name="eogonek" unicode="&#x119;" horiz-adv-x="548" 
d="M379 -189c-29.333 0 -53.1689 7.83008 -71.502 23.4971s-27.5 37.167 -27.5 64.5c0 15.333 3.16699 30.166 9.5 44.499s16.833 29.5 31.5 45.5c-5.33301 0 -10.5 -0.166992 -15.5 -0.5s-10.167 -0.5 -15.5 -0.5c-40 0 -76.167 6.33301 -108.5 19
s-59.666 30.5 -81.999 53.5s-39.666 50.333 -51.999 82s-18.5 66.834 -18.5 105.501c0 36.667 5.83301 71 17.5 103s28.334 60 50.001 84s48 42.833 79 56.5s65.833 20.5 104.5 20.5s73.167 -6.5 103.5 -19.5s55.833 -31.167 76.5 -54.5s36.334 -51.166 47.001 -83.499
s16 -67.833 16 -106.5v-31h-384v-1c2.66699 -21.333 8.5 -40 17.5 -56s20.333 -29.167 34 -39.5s29 -18.166 46 -23.499s34.5 -8 52.5 -8c33.333 0 62.333 6.33301 87 19s45.667 28 63 46l51 -87l-23 -20c-8 -6.66699 -17 -12.667 -27 -18
c-28 -25.333 -47.833 -46.833 -59.5 -64.5s-17.5 -32.5 -17.5 -44.5c0 -7.33301 2.66699 -13.666 8 -18.999s13.666 -8 24.999 -8c5.33301 0 11.666 0.666992 18.999 2s16 3 26 5v-79c-10 -3.33301 -20.167 -5.83301 -30.5 -7.5s-20.833 -2.5 -31.5 -2.5zM404.997 298.997
c-3.33301 34.667 -15.499 62.833 -36.499 84.5s-51.167 32.5 -90.5 32.5c-40 0 -71.333 -10.5 -94 -31.5s-37.334 -49.5 -44.001 -85.5h265z" />
    <glyph glyph-name="Ecaron" unicode="&#x11a;" horiz-adv-x="573" 
d="M420 941l57 -62l-180 -154l-180 154l57 62l123 -106zM518 700v-114h-327v-179h327v-114h-327v-179h327v-114h-441v700h441z" />
    <glyph glyph-name="ecaron" unicode="&#x11b;" horiz-adv-x="548" 
d="M408 771l57 -62l-180 -154l-180 154l57 62l123 -106zM29 248c0 36.667 5.83008 70.9971 17.4971 102.997s28.334 60 50.001 84s48 42.833 79 56.5s65.833 20.5 104.5 20.5s73.167 -6.5 103.5 -19.5s55.833 -31.167 76.5 -54.5s36.334 -51.166 47.001 -83.499
s16 -67.833 16 -106.5v-31h-384v-1c2.66699 -21.333 8.5 -40 17.5 -56s20.333 -29.167 34 -39.5s29 -18.166 46 -23.499s34.5 -8 52.5 -8c33.333 0 62.333 6.33301 87 19s45.667 28 63 46l51 -87c-20.667 -20 -47.334 -38.167 -80.001 -54.5s-72.667 -24.5 -120 -24.5
c-40 0 -76.167 6.33301 -108.5 19s-59.666 30.5 -81.999 53.5s-39.666 50.333 -51.999 82s-18.5 66.834 -18.5 105.501zM404.997 298.997c-3.33301 34.667 -15.499 62.833 -36.499 84.5s-51.167 32.5 -90.5 32.5c-40 0 -71.333 -10.5 -94 -31.5s-37.334 -49.5 -44.001 -85.5
h265z" />
    <glyph glyph-name="Gcircumflex" unicode="&#x11c;" horiz-adv-x="656" 
d="M382 930l180 -154l-57 -62l-123 106l-123 -106l-57 62zM44 350c0 50 8.83008 96.333 26.4971 139s42 79.667 73 111s68 55.833 111 73.5s89.5 26.5 139.5 26.5c48.667 0 93.834 -8.5 135.501 -25.5s79.5 -41.167 113.5 -72.5l-54 -106
c-25.333 27.333 -54.5 49.166 -87.5 65.499s-69.833 24.5 -110.5 24.5c-33.333 0 -64.333 -5.66699 -93 -17s-53.334 -27.5 -74.001 -48.5s-36.834 -46 -48.501 -75s-17.5 -60.833 -17.5 -95.5c0 -35.333 5.83301 -67.333 17.5 -96s27.834 -53.5 48.501 -74.5
s45.334 -37.167 74.001 -48.5s60 -17 94 -17c9.33301 0 17.5 0.5 24.5 1.5s14.5 2.5 22.5 4.5v149h-147v114h261v-353c-26 -9.33301 -52.167 -16.666 -78.5 -21.999s-54.166 -8 -83.499 -8c-49.333 -0 -95.166 8.83301 -137.499 26.5s-79 42 -110 73s-55.333 68 -73 111
s-26.5 89.5 -26.5 139.5z" />
    <glyph glyph-name="gcircumflex" unicode="&#x11d;" horiz-adv-x="615" 
d="M301 768l180 -154l-57 -62l-123 106l-123 -106l-57 62zM446 250c0 48.667 -13.333 87.332 -40 115.999s-62.334 43 -107.001 43c-22.667 0 -43.334 -3.83301 -62.001 -11.5s-34.667 -18.5 -48 -32.5s-23.666 -30.833 -30.999 -50.5s-11 -41.167 -11 -64.5
s3.66699 -44.833 11 -64.5s17.666 -36.5 30.999 -50.5s29.333 -24.833 48 -32.5s39.334 -11.5 62.001 -11.5c44.667 0 80.334 14.333 107.001 43s40 67.334 40 116.001zM36 250.998c0 40.667 6.16504 77.167 18.498 109.5s29.333 59.666 51 81.999s46.834 39.5 75.501 51.5
s59.667 18 93 18c40 0 74.333 -8 103 -24s50 -35 64 -57v69h109v-470c0 -31.333 -3.83301 -61.5 -11.5 -90.5s-21.167 -54.833 -40.5 -77.5s-45.5 -40.834 -78.5 -54.501s-74.833 -20.5 -125.5 -20.5c-57.333 0 -103.333 9.16699 -138 27.5s-63.334 42.833 -86.001 73.5
l66 80c18.667 -26.667 40.834 -47 66.501 -61s56.5 -21 92.5 -21c30 0 54.5 4 73.5 12s34.167 18.833 45.5 32.5s19.166 29.334 23.499 47.001s6.5 36.167 6.5 55.5v37c-16 -23.333 -38.5 -42.166 -67.5 -56.499s-62.5 -21.5 -100.5 -21.5
c-35.333 0 -67.666 5.83301 -96.999 17.5s-54.666 28.667 -75.999 51s-37.833 49.5 -49.5 81.5s-17.5 68.333 -17.5 109z" />
    <glyph glyph-name="Gbreve" unicode="&#x11e;" horiz-adv-x="656" 
d="M534 887c0 -46 -13.167 -83.667 -39.5 -113s-62.833 -44 -109.5 -44s-83.167 14.667 -109.5 44s-39.5 67 -39.5 113h87c0 -22.667 5.33301 -40.334 16 -53.001s26 -19 46 -19s35.333 6.33301 46 19s16 30.334 16 53.001h87zM44 350c0 50 8.83008 96.333 26.4971 139
s42 79.667 73 111s68 55.833 111 73.5s89.5 26.5 139.5 26.5c48.667 0 93.834 -8.5 135.501 -25.5s79.5 -41.167 113.5 -72.5l-54 -106c-25.333 27.333 -54.5 49.166 -87.5 65.499s-69.833 24.5 -110.5 24.5c-33.333 0 -64.333 -5.66699 -93 -17
s-53.334 -27.5 -74.001 -48.5s-36.834 -46 -48.501 -75s-17.5 -60.833 -17.5 -95.5c0 -35.333 5.83301 -67.333 17.5 -96s27.834 -53.5 48.501 -74.5s45.334 -37.167 74.001 -48.5s60 -17 94 -17c9.33301 0 17.5 0.5 24.5 1.5s14.5 2.5 22.5 4.5v149h-147v114h261v-353
c-26 -9.33301 -52.167 -16.666 -78.5 -21.999s-54.166 -8 -83.499 -8c-49.333 -0 -95.166 8.83301 -137.499 26.5s-79 42 -110 73s-55.333 68 -73 111s-26.5 89.5 -26.5 139.5z" />
    <glyph glyph-name="gbreve" unicode="&#x11f;" horiz-adv-x="615" 
d="M450 731c0 -46 -13.167 -83.667 -39.5 -113s-62.833 -44 -109.5 -44s-83.167 14.667 -109.5 44s-39.5 67 -39.5 113h87c0 -22.667 5.33301 -40.334 16 -53.001s26 -19 46 -19s35.333 6.33301 46 19s16 30.334 16 53.001h87zM446 250c0 48.667 -13.333 87.332 -40 115.999
s-62.334 43 -107.001 43c-22.667 0 -43.334 -3.83301 -62.001 -11.5s-34.667 -18.5 -48 -32.5s-23.666 -30.833 -30.999 -50.5s-11 -41.167 -11 -64.5s3.66699 -44.833 11 -64.5s17.666 -36.5 30.999 -50.5s29.333 -24.833 48 -32.5s39.334 -11.5 62.001 -11.5
c44.667 0 80.334 14.333 107.001 43s40 67.334 40 116.001zM36 250.998c0 40.667 6.16504 77.167 18.498 109.5s29.333 59.666 51 81.999s46.834 39.5 75.501 51.5s59.667 18 93 18c40 0 74.333 -8 103 -24s50 -35 64 -57v69h109v-470c0 -31.333 -3.83301 -61.5 -11.5 -90.5
s-21.167 -54.833 -40.5 -77.5s-45.5 -40.834 -78.5 -54.501s-74.833 -20.5 -125.5 -20.5c-57.333 0 -103.333 9.16699 -138 27.5s-63.334 42.833 -86.001 73.5l66 80c18.667 -26.667 40.834 -47 66.501 -61s56.5 -21 92.5 -21c30 0 54.5 4 73.5 12s34.167 18.833 45.5 32.5
s19.166 29.334 23.499 47.001s6.5 36.167 6.5 55.5v37c-16 -23.333 -38.5 -42.166 -67.5 -56.499s-62.5 -21.5 -100.5 -21.5c-35.333 0 -67.666 5.83301 -96.999 17.5s-54.666 28.667 -75.999 51s-37.833 49.5 -49.5 81.5s-17.5 68.333 -17.5 109z" />
    <glyph glyph-name="Gdotaccent" unicode="&#x120;" horiz-adv-x="656" 
d="M310 800c0 21.333 7.33301 39.333 22 54s32.667 22 54 22s39.333 -7.33301 54 -22s22 -32.667 22 -54s-7.33301 -39.333 -22 -54s-32.667 -22 -54 -22s-39.333 7.33301 -54 22s-22 32.667 -22 54zM44 350c0 50 8.83008 96.333 26.4971 139s42 79.667 73 111
s68 55.833 111 73.5s89.5 26.5 139.5 26.5c48.667 0 93.834 -8.5 135.501 -25.5s79.5 -41.167 113.5 -72.5l-54 -106c-25.333 27.333 -54.5 49.166 -87.5 65.499s-69.833 24.5 -110.5 24.5c-33.333 0 -64.333 -5.66699 -93 -17s-53.334 -27.5 -74.001 -48.5
s-36.834 -46 -48.501 -75s-17.5 -60.833 -17.5 -95.5c0 -35.333 5.83301 -67.333 17.5 -96s27.834 -53.5 48.501 -74.5s45.334 -37.167 74.001 -48.5s60 -17 94 -17c9.33301 0 17.5 0.5 24.5 1.5s14.5 2.5 22.5 4.5v149h-147v114h261v-353
c-26 -9.33301 -52.167 -16.666 -78.5 -21.999s-54.166 -8 -83.499 -8c-49.333 -0 -95.166 8.83301 -137.499 26.5s-79 42 -110 73s-55.333 68 -73 111s-26.5 89.5 -26.5 139.5z" />
    <glyph glyph-name="gdotaccent" unicode="&#x121;" horiz-adv-x="615" 
d="M226 644c0 21.333 7.33301 39.333 22 54s32.667 22 54 22s39.333 -7.33301 54 -22s22 -32.667 22 -54s-7.33301 -39.333 -22 -54s-32.667 -22 -54 -22s-39.333 7.33301 -54 22s-22 32.667 -22 54zM446 250c0 48.667 -13.333 87.332 -40 115.999s-62.334 43 -107.001 43
c-22.667 0 -43.334 -3.83301 -62.001 -11.5s-34.667 -18.5 -48 -32.5s-23.666 -30.833 -30.999 -50.5s-11 -41.167 -11 -64.5s3.66699 -44.833 11 -64.5s17.666 -36.5 30.999 -50.5s29.333 -24.833 48 -32.5s39.334 -11.5 62.001 -11.5c44.667 0 80.334 14.333 107.001 43
s40 67.334 40 116.001zM36 250.998c0 40.667 6.16504 77.167 18.498 109.5s29.333 59.666 51 81.999s46.834 39.5 75.501 51.5s59.667 18 93 18c40 0 74.333 -8 103 -24s50 -35 64 -57v69h109v-470c0 -31.333 -3.83301 -61.5 -11.5 -90.5s-21.167 -54.833 -40.5 -77.5
s-45.5 -40.834 -78.5 -54.501s-74.833 -20.5 -125.5 -20.5c-57.333 0 -103.333 9.16699 -138 27.5s-63.334 42.833 -86.001 73.5l66 80c18.667 -26.667 40.834 -47 66.501 -61s56.5 -21 92.5 -21c30 0 54.5 4 73.5 12s34.167 18.833 45.5 32.5s19.166 29.334 23.499 47.001
s6.5 36.167 6.5 55.5v37c-16 -23.333 -38.5 -42.166 -67.5 -56.499s-62.5 -21.5 -100.5 -21.5c-35.333 0 -67.666 5.83301 -96.999 17.5s-54.666 28.667 -75.999 51s-37.833 49.5 -49.5 81.5s-17.5 68.333 -17.5 109z" />
    <glyph glyph-name="Gcommaaccent" unicode="&#x122;" horiz-adv-x="656" 
d="M44 350c0 50 8.83008 96.333 26.4971 139s42 79.667 73 111s68 55.833 111 73.5s89.5 26.5 139.5 26.5c48.667 0 93.834 -8.5 135.501 -25.5s79.5 -41.167 113.5 -72.5l-54 -106c-25.333 27.333 -54.5 49.166 -87.5 65.499s-69.833 24.5 -110.5 24.5
c-33.333 0 -64.333 -5.66699 -93 -17s-53.334 -27.5 -74.001 -48.5s-36.834 -46 -48.501 -75s-17.5 -60.833 -17.5 -95.5c0 -35.333 5.83301 -67.333 17.5 -96s27.834 -53.5 48.501 -74.5s45.334 -37.167 74.001 -48.5s60 -17 94 -17c9.33301 0 17.5 0.5 24.5 1.5
s14.5 2.5 22.5 4.5v149h-147v114h261v-353c-26 -9.33301 -52.167 -16.666 -78.5 -21.999s-54.166 -8 -83.499 -8c-49.333 -0 -95.166 8.83301 -137.499 26.5s-79 42 -110 73s-55.333 68 -73 111s-26.5 89.5 -26.5 139.5zM307.997 -244l47 76
c-12.667 5.33301 -23 13.833 -31 25.5s-12 25.167 -12 40.5c0 19.333 6.83301 35.833 20.5 49.5s30.167 20.5 49.5 20.5s36 -6.83301 50 -20.5s21 -30.167 21 -49.5c0 -14 -4 -26.667 -12 -38l-81 -136z" />
    <glyph glyph-name="gcommaaccent" unicode="&#x123;" horiz-adv-x="615" 
d="M283 552c-19.333 0 -35.833 6.83398 -49.5 20.501s-20.5 30.167 -20.5 49.5c0 7.33301 1.16699 14.166 3.5 20.499s5.16602 12.166 8.49902 17.499l81 135l53 -32l-47 -77c12.667 -5.33301 22.834 -13.666 30.501 -24.999s11.5 -24.333 11.5 -39
c0 -19.333 -7 -35.833 -21 -49.5s-30.667 -20.5 -50 -20.5zM446 250.001c0 48.667 -13.333 87.332 -40 115.999s-62.334 43 -107.001 43c-22.667 0 -43.334 -3.83301 -62.001 -11.5s-34.667 -18.5 -48 -32.5s-23.666 -30.833 -30.999 -50.5s-11 -41.167 -11 -64.5
s3.66699 -44.833 11 -64.5s17.666 -36.5 30.999 -50.5s29.333 -24.833 48 -32.5s39.334 -11.5 62.001 -11.5c44.667 0 80.334 14.333 107.001 43s40 67.334 40 116.001zM36 250.999c0 40.667 6.16504 77.167 18.498 109.5s29.333 59.666 51 81.999s46.834 39.5 75.501 51.5
s59.667 18 93 18c40 0 74.333 -8 103 -24s50 -35 64 -57v69h109v-470c0 -31.333 -3.83301 -61.5 -11.5 -90.5s-21.167 -54.833 -40.5 -77.5s-45.5 -40.834 -78.5 -54.501s-74.833 -20.5 -125.5 -20.5c-57.333 0 -103.333 9.16699 -138 27.5s-63.334 42.833 -86.001 73.5
l66 80c18.667 -26.667 40.834 -47 66.501 -61s56.5 -21 92.5 -21c30 0 54.5 4 73.5 12s34.167 18.833 45.5 32.5s19.166 29.334 23.499 47.001s6.5 36.167 6.5 55.5v37c-16 -23.333 -38.5 -42.166 -67.5 -56.499s-62.5 -21.5 -100.5 -21.5
c-35.333 0 -67.666 5.83301 -96.999 17.5s-54.666 28.667 -75.999 51s-37.833 49.5 -49.5 81.5s-17.5 68.333 -17.5 109z" />
    <glyph glyph-name="Hcircumflex" unicode="&#x124;" horiz-adv-x="737" 
d="M366 930l180 -154l-57 -62l-123 106l-123 -106l-57 62zM660 700v-700h-114v293h-355v-293h-114v700h114v-293h355v293h114z" />
    <glyph glyph-name="hcircumflex" unicode="&#x125;" horiz-adv-x="574" 
d="M120 930l180 -154l-57 -62l-123 106l-123 -106l-57 62zM172 700v-269.001c18 25.333 40.333 45.166 67 59.499s58 21.5 94 21.5c30.667 0 57.5 -5 80.5 -15s42 -24.167 57 -42.5s26.167 -40.333 33.5 -66s11 -54.5 11 -86.5v-302h-110v288c0 38.667 -9 68.667 -27 90
s-43.667 32 -77 32c-24 0 -44.333 -4.33301 -61 -13s-30 -20.667 -40 -36s-17.167 -33.666 -21.5 -54.999s-6.5 -44.666 -6.5 -69.999v-236h-108v700h108z" />
    <glyph glyph-name="Hbar" unicode="&#x126;" horiz-adv-x="740" 
d="M546 407v90h-355v-90h355zM191 0h-114v497h-51v105h51v98h114v-98h355v98h114v-98h55v-105h-55v-497h-114v293h-355v-293z" />
    <glyph glyph-name="hbar" unicode="&#x127;" horiz-adv-x="575" 
d="M172 0l-108 -0.000976562v573h-63v81h63v46h108v-46h101v-81h-101v-142c18 25.333 40.333 45.166 67 59.499s58 21.5 94 21.5c30.667 0 57.5 -5 80.5 -15s42 -24.167 57 -42.5s26.167 -40.333 33.5 -66s11 -54.5 11 -86.5v-302h-110v288c0 38.667 -9 68.667 -27 90
s-43.667 32 -77 32c-24 0 -44.333 -4.33301 -61 -13s-30 -20.667 -40 -36s-17.167 -33.666 -21.5 -54.999s-6.5 -44.666 -6.5 -69.999v-236z" />
    <glyph glyph-name="Itilde" unicode="&#x128;" horiz-adv-x="268" 
d="M196 734c-12.667 0 -24.667 2.33398 -36 7.00098s-22.166 10 -32.499 16l-28.5 16c-8.66699 4.66699 -17 7 -25 7c-10 0 -20.167 -4.33301 -30.5 -13s-20.5 -18 -30.5 -28l-56 57l24 25c8.66699 8.66699 18 16.5 28 23.5s20.5 12.833 31.5 17.5s22.167 7 33.5 7
c12.667 0 24.667 -2.33301 36 -7s22.166 -9.83398 32.499 -15.501l28.5 -15.5c8.66699 -4.66699 17 -7 25 -7c10.667 0 21 4.16699 31 12.5s20 17.5 30 27.5l56 -57l-24 -25c-8.66699 -8.66699 -18 -16.5 -28 -23.5s-20.333 -12.833 -31 -17.5s-22 -7 -34 -7zM191 700.001
v-700h-114v700h114z" />
    <glyph glyph-name="itilde" unicode="&#x129;" horiz-adv-x="249" 
d="M185 565c-12.667 0 -24.667 2.33398 -36 7.00098s-22.166 10 -32.499 16l-28.5 16c-8.66699 4.66699 -17 7 -25 7c-10 0 -20.167 -4.33301 -30.5 -13s-20.5 -18 -30.5 -28l-56 57l24 25c8.66699 8.66699 18 16.5 28 23.5s20.5 12.833 31.5 17.5s22.167 7 33.5 7
c12.667 0 24.667 -2.33301 36 -7s22.166 -9.83398 32.499 -15.501l28.5 -15.5c8.66699 -4.66699 17 -7 25 -7c10.667 0 21 4.16699 31 12.5s20 17.5 30 27.5l56 -57l-24 -25c-8.66699 -8.66699 -18 -16.5 -28 -23.5s-20.333 -12.833 -31 -17.5s-22 -7 -34 -7zM178 500.001
v-500h-108v500h108z" />
    <glyph glyph-name="Imacron" unicode="&#x12a;" horiz-adv-x="268" 
d="M284 840v-84h-300v84h300zM191 700v-700h-114v700h114z" />
    <glyph glyph-name="imacron" unicode="&#x12b;" horiz-adv-x="249" 
d="M274 691v-84h-300v84h300zM178 500v-500h-108v500h108z" />
    <glyph glyph-name="Ibreve" unicode="&#x12c;" horiz-adv-x="268" 
d="M283 887c0 -46 -13.167 -83.667 -39.5 -113s-62.833 -44 -109.5 -44s-83.167 14.667 -109.5 44s-39.5 67 -39.5 113h87c0 -22.667 5.33301 -40.334 16 -53.001s26 -19 46 -19s35.333 6.33301 46 19s16 30.334 16 53.001h87zM191 700v-700h-114v700h114z" />
    <glyph glyph-name="ibreve" unicode="&#x12d;" horiz-adv-x="249" 
d="M273 731c0 -46 -13.167 -83.667 -39.5 -113s-62.833 -44 -109.5 -44s-83.167 14.667 -109.5 44s-39.5 67 -39.5 113h87c0 -22.667 5.33301 -40.334 16 -53.001s26 -19 46 -19s35.333 6.33301 46 19s16 30.334 16 53.001h87zM178 500v-500h-108v500h108z" />
    <glyph glyph-name="Iogonek" unicode="&#x12e;" horiz-adv-x="268" 
d="M178 -179c-10 -3.33301 -20.165 -5.83594 -30.498 -7.50293s-20.833 -2.5 -31.5 -2.5c-29.333 0 -53.166 7.83301 -71.499 23.5s-27.5 37.167 -27.5 64.5c0 18 4.66699 35.5 14 52.5s24.666 36.167 45.999 57.5v691h114v-700h-44
c-17.333 -17.333 -29.5 -32.666 -36.5 -45.999s-10.5 -24.666 -10.5 -33.999c0 -7.33301 2.66699 -13.666 8 -18.999s13.666 -8 24.999 -8c5.33301 0 11.666 0.666992 18.999 2s16 3 26 5v-79v0z" />
    <glyph glyph-name="iogonek" unicode="&#x12f;" horiz-adv-x="249" 
d="M48 644c0 21.333 7.33301 39.333 22 54s32.667 22 54 22s39.333 -7.33301 54 -22s22 -32.667 22 -54s-7.33301 -39.333 -22 -54s-32.667 -22 -54 -22s-39.333 7.33301 -54 22s-22 32.667 -22 54zM169 -179c-10 -3.33301 -20.166 -5.83594 -30.499 -7.50293
s-20.833 -2.5 -31.5 -2.5c-29.333 0 -53.166 7.83301 -71.499 23.5s-27.5 37.167 -27.5 64.5c0 18 4.83301 35.833 14.5 53.5s25.5 37.167 47.5 58.5v489h108v-500h-40c-17.333 -17.333 -29.5 -32.666 -36.5 -45.999s-10.5 -24.666 -10.5 -33.999
c0 -7.33301 2.66699 -13.666 8 -18.999s13.666 -8 24.999 -8c5.33301 0 11.666 0.666992 18.999 2s16 3 26 5v-79z" />
    <glyph glyph-name="Idotaccent" unicode="&#x130;" horiz-adv-x="268" 
d="M58 800c0 21.333 7.33301 39.333 22 54s32.667 22 54 22s39.333 -7.33301 54 -22s22 -32.667 22 -54s-7.33301 -39.333 -22 -54s-32.667 -22 -54 -22s-39.333 7.33301 -54 22s-22 32.667 -22 54zM191 700v-700h-114v700h114z" />
    <glyph glyph-name="dotlessi" unicode="&#x131;" horiz-adv-x="249" 
d="M178 500v-500h-108v500h108z" />
    <glyph glyph-name="Jcircumflex" unicode="&#x134;" horiz-adv-x="506" 
d="M379 930l180 -154l-57 -62l-123 106l-123 -106l-57 62zM439 700l0.00195312 -469.002c0 -36 -5 -68.333 -15 -97s-24.333 -53 -43 -73s-41.167 -35.167 -67.5 -45.5s-55.5 -15.5 -87.5 -15.5c-36.667 0 -68.334 6 -95.001 18s-48.834 27.833 -66.501 47.5
s-30.834 41.834 -39.501 66.501s-13 49.667 -13 75l104 49c0 -20 2.16699 -38.667 6.5 -56s11 -32.333 20 -45s20.333 -22.667 34 -30s30.167 -11 49.5 -11c34.667 0 59.834 10.833 75.501 32.5s23.5 49.834 23.5 84.501v469h114z" />
    <glyph glyph-name="jcircumflex" unicode="&#x135;" horiz-adv-x="266" 
d="M135 761l180 -154l-57 -62l-123 106l-123 -106l-57 62zM193 500v-520.001c0 -64 -16.167 -110.833 -48.5 -140.5s-84.5 -44.5 -156.5 -44.5h-10c-2.66699 0 -6 0.333008 -10 1v102h9c22 0 40 1.83301 54 5.5s25 9.33398 33 17.001s13.5 17 16.5 28s4.5 23.5 4.5 37.5v514
h108z" />
    <glyph glyph-name="Kcommaaccent" unicode="&#x136;" horiz-adv-x="675" 
d="M288 313l-97 -98v-215h-114v700h114v-323l320 323h161l-303 -306l304 -394h-145zM265 -244l47 76c-12.667 5.33301 -23 13.833 -31 25.5s-12 25.167 -12 40.5c0 19.333 6.83301 35.833 20.5 49.5s30.167 20.5 49.5 20.5s36 -6.83301 50 -20.5s21 -30.167 21 -49.5
c0 -14 -4 -26.667 -12 -38l-81 -136z" />
    <glyph glyph-name="kcommaaccent" unicode="&#x137;" horiz-adv-x="533" 
d="M236 210l-64 -64v-146h-108v700h108v-418l206 218h147l-216 -217l216 -283h-140zM192 -244l47 76c-12.667 5.33301 -23 13.833 -31 25.5s-12 25.167 -12 40.5c0 19.333 6.83301 35.833 20.5 49.5s30.167 20.5 49.5 20.5s36 -6.83301 50 -20.5s21 -30.167 21 -49.5
c0 -14 -4 -26.667 -12 -38l-81 -136z" />
    <glyph glyph-name="kgreenlandic" unicode="&#x138;" horiz-adv-x="533" 
d="M236 210l-64 -64v-146h-108v500h108v-218l206 218h147l-216 -217l216 -283h-140z" />
    <glyph glyph-name="Lacute" unicode="&#x139;" horiz-adv-x="536" 
d="M307 922l49 -77l-219 -135l-48 76zM191 700v-586h333v-114h-447v700h114z" />
    <glyph glyph-name="lacute" unicode="&#x13a;" horiz-adv-x="238" 
d="M223 925l49 -77l-219 -135l-48 76zM174 700v-700h-110v700h110z" />
    <glyph glyph-name="Lcommaaccent" unicode="&#x13b;" horiz-adv-x="536" 
d="M191 700v-586h333v-114h-447v700h114zM201 -244l47 76c-12.667 5.33301 -23 13.833 -31 25.5s-12 25.167 -12 40.5c0 19.333 6.83301 35.833 20.5 49.5s30.167 20.5 49.5 20.5s36 -6.83301 50 -20.5s21 -30.167 21 -49.5c0 -14 -4 -26.667 -12 -38l-81 -136z" />
    <glyph glyph-name="lcommaaccent" unicode="&#x13c;" horiz-adv-x="238" 
d="M174 700v-700h-110v700h110zM40 -244l47 76c-12.667 5.33301 -23 13.833 -31 25.5s-12 25.167 -12 40.5c0 19.333 6.83301 35.833 20.5 49.5s30.167 20.5 49.5 20.5s36 -6.83301 50 -20.5s21 -30.167 21 -49.5c0 -14 -4 -26.667 -12 -38l-81 -136z" />
    <glyph glyph-name="Lcaron" unicode="&#x13d;" horiz-adv-x="536" 
d="M314 430l71.002 121c-16 5.33301 -29.167 15.333 -39.5 30s-15.5 30.667 -15.5 48c0 11.333 2.16699 22 6.5 32s10.166 18.833 17.499 26.5s16 13.834 26 18.501s21 7 33 7s23 -2.33301 33 -7s18.667 -10.834 26 -18.501s13.166 -16.5 17.499 -26.5s6.5 -20.667 6.5 -32
c0 -16 -4.33301 -30.333 -13 -43l-110 -189zM191.002 700v-586h333v-114h-447v700h114z" />
    <glyph glyph-name="lcaron" unicode="&#x13e;" horiz-adv-x="400" 
d="M220 440l68 116c-16 5.33301 -29 15 -39 29s-15 29.667 -15 47c0 22 7.5 40.833 22.5 56.5s34.167 23.5 57.5 23.5s42.5 -7.83301 57.5 -23.5s22.5 -34.5 22.5 -56.5c0 -14.667 -3.33301 -27.667 -10 -39l-107 -186zM174 700v-700h-110v700h110z" />
    <glyph glyph-name="Ldot" unicode="&#x13f;" horiz-adv-x="536" 
d="M191 700v-586h333v-114h-447v700h114zM394 509c24.667 0 45.334 -8.33301 62.001 -25s25 -37.334 25 -62.001s-8.33301 -45.167 -25 -61.5s-37.334 -24.5 -62.001 -24.5s-45.167 8.16699 -61.5 24.5s-24.5 36.833 -24.5 61.5s8.16699 45.334 24.5 62.001
s36.833 25 61.5 25z" />
    <glyph glyph-name="ldot" unicode="&#x140;" horiz-adv-x="391" 
d="M174 700v-700h-110v700h110zM224 396c0 22.667 7.66699 41.5 23 56.5s34 22.5 56 22.5c22.667 0 41.5 -7.5 56.5 -22.5s22.5 -33.833 22.5 -56.5s-7.5 -41.5 -22.5 -56.5s-33.833 -22.5 -56.5 -22.5c-22 0 -40.667 7.5 -56 22.5s-23 33.833 -23 56.5z" />
    <glyph glyph-name="Lslash" unicode="&#x141;" horiz-adv-x="536" 
d="M77 0v248l-60 -25l-38 88l98 41v348h114v-301l175 72l38 -88l-213 -88v-181h333v-114h-447z" />
    <glyph glyph-name="lslash" unicode="&#x142;" horiz-adv-x="238" 
d="M64 0v321l-76 -34l-35 72l111 49v292h110v-243l76 34l35 -72l-111 -49v-370h-110z" />
    <glyph glyph-name="Nacute" unicode="&#x143;" horiz-adv-x="773" 
d="M483 922l49 -77l-219 -135l-48 76zM703 700v-700h-105l-414 509v-509h-114v700h105l414 -510v510h114z" />
    <glyph glyph-name="nacute" unicode="&#x144;" horiz-adv-x="581" 
d="M378 767l49 -77l-219 -135l-48 76zM169 431c18.667 26 42 45.998 70 59.998s59.333 21 94 21c30.667 0 57.5 -5 80.5 -15s42 -24.167 57 -42.5s26.167 -40.333 33.5 -66s11 -54.5 11 -86.5v-302h-110v288c0 41.333 -9.5 72 -28.5 92s-44.5 30 -76.5 30
c-24 0 -44.167 -4.33301 -60.5 -13s-29.5 -20.667 -39.5 -36s-17.167 -33.666 -21.5 -54.999s-6.5 -44.666 -6.5 -69.999v-236h-108v500h105v-69z" />
    <glyph glyph-name="Ncommaaccent" unicode="&#x145;" horiz-adv-x="773" 
d="M703 700v-700h-105l-414 509v-509h-114v700h105l414 -510v510h114zM296 -244l47 76c-12.667 5.33301 -23 13.833 -31 25.5s-12 25.167 -12 40.5c0 19.333 6.83301 35.833 20.5 49.5s30.167 20.5 49.5 20.5s36 -6.83301 50 -20.5s21 -30.167 21 -49.5
c0 -14 -4 -26.667 -12 -38l-81 -136z" />
    <glyph glyph-name="ncommaaccent" unicode="&#x146;" horiz-adv-x="581" 
d="M169 431c18.667 26 42 45.998 70 59.998s59.333 21 94 21c30.667 0 57.5 -5 80.5 -15s42 -24.167 57 -42.5s26.167 -40.333 33.5 -66s11 -54.5 11 -86.5v-302h-110v288c0 41.333 -9.5 72 -28.5 92s-44.5 30 -76.5 30c-24 0 -44.167 -4.33301 -60.5 -13
s-29.5 -20.667 -39.5 -36s-17.167 -33.666 -21.5 -54.999s-6.5 -44.666 -6.5 -69.999v-236h-108v500h105v-69zM214 -244.002l47 76c-12.667 5.33301 -23 13.833 -31 25.5s-12 25.167 -12 40.5c0 19.333 6.83301 35.833 20.5 49.5s30.167 20.5 49.5 20.5
s36 -6.83301 50 -20.5s21 -30.167 21 -49.5c0 -14 -4 -26.667 -12 -38l-81 -136z" />
    <glyph glyph-name="Ncaron" unicode="&#x147;" horiz-adv-x="773" 
d="M510 941l57 -62l-180 -154l-180 154l57 62l123 -106zM703 700v-700h-105l-414 509v-509h-114v700h105l414 -510v510h114z" />
    <glyph glyph-name="ncaron" unicode="&#x148;" horiz-adv-x="581" 
d="M409 771l57 -62l-180 -154l-180 154l57 62l123 -106zM169 431c18.667 26 42 45.998 70 59.998s59.333 21 94 21c30.667 0 57.5 -5 80.5 -15s42 -24.167 57 -42.5s26.167 -40.333 33.5 -66s11 -54.5 11 -86.5v-302h-110v288c0 41.333 -9.5 72 -28.5 92s-44.5 30 -76.5 30
c-24 0 -44.167 -4.33301 -60.5 -13s-29.5 -20.667 -39.5 -36s-17.167 -33.666 -21.5 -54.999s-6.5 -44.666 -6.5 -69.999v-236h-108v500h105v-69z" />
    <glyph glyph-name="napostrophe" unicode="&#x149;" horiz-adv-x="684" 
d="M7 430l71.002 120c-16.667 5.33301 -30.167 15.333 -40.5 30s-15.5 31 -15.5 49c0 10.667 2.16699 21.167 6.5 31.5s10.166 19.166 17.499 26.499s16 13.333 26 18s21 7 33 7s23 -2.33301 33 -7s18.667 -10.667 26 -18s13.166 -16.166 17.499 -26.499
s6.5 -20.833 6.5 -31.5c0 -17.333 -4 -32 -12 -44l-111 -188zM272.002 431c18.667 26 42 45.998 70 59.998s59.333 21 94 21c30.667 0 57.5 -5 80.5 -15s42 -24.167 57 -42.5s26.167 -40.333 33.5 -66s11 -54.5 11 -86.5v-302h-110v288c0 41.333 -9.5 72 -28.5 92
s-44.5 30 -76.5 30c-24 0 -44.167 -4.33301 -60.5 -13s-29.5 -20.667 -39.5 -36s-17.167 -33.666 -21.5 -54.999s-6.5 -44.666 -6.5 -69.999v-236h-108v500h105v-69z" />
    <glyph glyph-name="Eng" unicode="&#x14a;" horiz-adv-x="773" 
d="M547 -205c-10.667 0 -22.166 0.666992 -34.499 2s-25.5 3 -39.5 5v99c11.333 -1.33301 20.666 -2.33301 27.999 -3s15.666 -1 24.999 -1c21.333 0 37.5 5.5 48.5 16.5s16.5 32.167 16.5 63.5v32l-407 500v-509h-114v700h105l414 -510v510h114v-726
c0 -32.667 -3.66699 -60.334 -11 -83.001s-17.833 -41.167 -31.5 -55.5s-30.167 -24.666 -49.5 -30.999s-40.666 -9.5 -63.999 -9.5z" />
    <glyph glyph-name="eng" unicode="&#x14b;" horiz-adv-x="577" 
d="M362 -203c-18.667 0 -42.001 1.99707 -70.001 5.99707v99c12 -1.33301 22 -2.33301 30 -3s16.333 -1 25 -1c19.333 0 33.833 5.33301 43.5 16s14.5 31.667 14.5 63v311c0 41.333 -9.5 72 -28.5 92s-44.5 30 -76.5 30c-24 0 -44.167 -4.33301 -60.5 -13
s-29.5 -20.667 -39.5 -36s-17.167 -33.666 -21.5 -54.999s-6.5 -44.666 -6.5 -69.999v-236h-108v500h105v-69c18.667 26 42 46 70 60s59.333 21 94 21c30.667 0 57.5 -5 80.5 -15s42 -24.167 57 -42.5s26.167 -40.333 33.5 -66s11 -54.5 11 -86.5v-325
c0 -32.667 -3.66699 -60.5 -11 -83.5s-17.666 -41.667 -30.999 -56s-29.5 -24.666 -48.5 -30.999s-39.833 -9.5 -62.5 -9.5z" />
    <glyph glyph-name="Omacron" unicode="&#x14c;" horiz-adv-x="788" 
d="M543 840v-84h-300v84h300zM44 350c0 50 8.83301 96.333 26.5 139s42.167 79.667 73.5 111s68.333 55.833 111 73.5s89 26.5 139 26.5s96.5 -8.83301 139.5 -26.5s80 -42.167 111 -73.5s55.333 -68.333 73 -111s26.5 -89 26.5 -139s-8.83301 -96.333 -26.5 -139
s-42 -79.667 -73 -111s-68 -55.833 -111 -73.5s-89.5 -26.5 -139.5 -26.5s-96.333 8.83301 -139 26.5s-79.667 42.167 -111 73.5s-55.833 68.333 -73.5 111s-26.5 89 -26.5 139zM630 350c0 34 -5.83301 65.5 -17.5 94.5s-28 54 -49 75s-46 37.333 -75 49
s-60.5 17.5 -94.5 17.5s-65.5 -5.83301 -94.5 -17.5s-54 -28 -75 -49s-37.333 -46 -49 -75s-17.5 -60.5 -17.5 -94.5s5.83301 -65.5 17.5 -94.5s28 -54 49 -75s46 -37.333 75 -49s60.5 -17.5 94.5 -17.5s65.5 5.83301 94.5 17.5s54 28 75 49s37.333 46 49 75
s17.5 60.5 17.5 94.5z" />
    <glyph glyph-name="omacron" unicode="&#x14d;" horiz-adv-x="588" 
d="M444 691v-84h-300v84h300zM29 250c0 38 6.66699 73.167 20 105.5s31.833 60 55.5 83s51.667 41 84 54s67.5 19.5 105.5 19.5s73.167 -6.5 105.5 -19.5s60.333 -31 84 -54s42.167 -50.667 55.5 -83s20 -67.5 20 -105.5s-6.66699 -73.167 -20 -105.5s-31.833 -60 -55.5 -83
s-51.667 -41 -84 -54s-67.5 -19.5 -105.5 -19.5s-73.167 6.5 -105.5 19.5s-60.333 31 -84 54s-42.167 50.667 -55.5 83s-20 67.5 -20 105.5zM448 250c0 23.333 -3.83301 44.666 -11.5 63.999s-18.334 35.833 -32.001 49.5s-29.834 24.334 -48.501 32.001
s-39.334 11.5 -62.001 11.5s-43.334 -3.83301 -62.001 -11.5s-34.834 -18.334 -48.501 -32.001s-24.334 -30.167 -32.001 -49.5s-11.5 -40.666 -11.5 -63.999s3.83301 -44.666 11.5 -63.999s18.334 -35.833 32.001 -49.5s29.834 -24.334 48.501 -32.001
s39.334 -11.5 62.001 -11.5s43.334 3.83301 62.001 11.5s34.834 18.334 48.501 32.001s24.334 30.167 32.001 49.5s11.5 40.666 11.5 63.999z" />
    <glyph glyph-name="Obreve" unicode="&#x14e;" horiz-adv-x="788" 
d="M541 887c0 -46 -13.167 -83.667 -39.5 -113s-62.833 -44 -109.5 -44s-83.167 14.667 -109.5 44s-39.5 67 -39.5 113h87c0 -22.667 5.33301 -40.334 16 -53.001s26 -19 46 -19s35.333 6.33301 46 19s16 30.334 16 53.001h87zM44 350c0 50 8.83301 96.333 26.5 139
s42.167 79.667 73.5 111s68.333 55.833 111 73.5s89 26.5 139 26.5s96.5 -8.83301 139.5 -26.5s80 -42.167 111 -73.5s55.333 -68.333 73 -111s26.5 -89 26.5 -139s-8.83301 -96.333 -26.5 -139s-42 -79.667 -73 -111s-68 -55.833 -111 -73.5s-89.5 -26.5 -139.5 -26.5
s-96.333 8.83301 -139 26.5s-79.667 42.167 -111 73.5s-55.833 68.333 -73.5 111s-26.5 89 -26.5 139zM630 350c0 34 -5.83301 65.5 -17.5 94.5s-28 54 -49 75s-46 37.333 -75 49s-60.5 17.5 -94.5 17.5s-65.5 -5.83301 -94.5 -17.5s-54 -28 -75 -49s-37.333 -46 -49 -75
s-17.5 -60.5 -17.5 -94.5s5.83301 -65.5 17.5 -94.5s28 -54 49 -75s46 -37.333 75 -49s60.5 -17.5 94.5 -17.5s65.5 5.83301 94.5 17.5s54 28 75 49s37.333 46 49 75s17.5 60.5 17.5 94.5z" />
    <glyph glyph-name="obreve" unicode="&#x14f;" horiz-adv-x="588" 
d="M443 731c0 -46 -13.167 -83.667 -39.5 -113s-62.833 -44 -109.5 -44s-83.167 14.667 -109.5 44s-39.5 67 -39.5 113h87c0 -22.667 5.33301 -40.334 16 -53.001s26 -19 46 -19s35.333 6.33301 46 19s16 30.334 16 53.001h87zM29 250c0 38 6.66699 73.167 20 105.5
s31.833 60 55.5 83s51.667 41 84 54s67.5 19.5 105.5 19.5s73.167 -6.5 105.5 -19.5s60.333 -31 84 -54s42.167 -50.667 55.5 -83s20 -67.5 20 -105.5s-6.66699 -73.167 -20 -105.5s-31.833 -60 -55.5 -83s-51.667 -41 -84 -54s-67.5 -19.5 -105.5 -19.5
s-73.167 6.5 -105.5 19.5s-60.333 31 -84 54s-42.167 50.667 -55.5 83s-20 67.5 -20 105.5zM448 250c0 23.333 -3.83301 44.666 -11.5 63.999s-18.334 35.833 -32.001 49.5s-29.834 24.334 -48.501 32.001s-39.334 11.5 -62.001 11.5s-43.334 -3.83301 -62.001 -11.5
s-34.834 -18.334 -48.501 -32.001s-24.334 -30.167 -32.001 -49.5s-11.5 -40.666 -11.5 -63.999s3.83301 -44.666 11.5 -63.999s18.334 -35.833 32.001 -49.5s29.834 -24.334 48.501 -32.001s39.334 -11.5 62.001 -11.5s43.334 3.83301 62.001 11.5
s34.834 18.334 48.501 32.001s24.334 30.167 32.001 49.5s11.5 40.666 11.5 63.999z" />
    <glyph glyph-name="Ohungarumlaut" unicode="&#x150;" horiz-adv-x="788" 
d="M371 950l74 -52l-122 -174l-71 49zM536 937l74 -52l-121 -173l-72 48zM44 350c0 50 8.83301 96.333 26.5 139s42.167 79.667 73.5 111s68.333 55.833 111 73.5s89 26.5 139 26.5s96.5 -8.83301 139.5 -26.5s80 -42.167 111 -73.5s55.333 -68.333 73 -111
s26.5 -89 26.5 -139s-8.83301 -96.333 -26.5 -139s-42 -79.667 -73 -111s-68 -55.833 -111 -73.5s-89.5 -26.5 -139.5 -26.5s-96.333 8.83301 -139 26.5s-79.667 42.167 -111 73.5s-55.833 68.333 -73.5 111s-26.5 89 -26.5 139zM630 350c0 34 -5.83301 65.5 -17.5 94.5
s-28 54 -49 75s-46 37.333 -75 49s-60.5 17.5 -94.5 17.5s-65.5 -5.83301 -94.5 -17.5s-54 -28 -75 -49s-37.333 -46 -49 -75s-17.5 -60.5 -17.5 -94.5s5.83301 -65.5 17.5 -94.5s28 -54 49 -75s46 -37.333 75 -49s60.5 -17.5 94.5 -17.5s65.5 5.83301 94.5 17.5
s54 28 75 49s37.333 46 49 75s17.5 60.5 17.5 94.5z" />
    <glyph glyph-name="ohungarumlaut" unicode="&#x151;" horiz-adv-x="588" 
d="M261 791l74 -52l-122 -174l-71 49zM426 778l74 -52l-121 -173l-72 48zM29 250c0 38 6.66699 73.167 20 105.5s31.833 60 55.5 83s51.667 41 84 54s67.5 19.5 105.5 19.5s73.167 -6.5 105.5 -19.5s60.333 -31 84 -54s42.167 -50.667 55.5 -83s20 -67.5 20 -105.5
s-6.66699 -73.167 -20 -105.5s-31.833 -60 -55.5 -83s-51.667 -41 -84 -54s-67.5 -19.5 -105.5 -19.5s-73.167 6.5 -105.5 19.5s-60.333 31 -84 54s-42.167 50.667 -55.5 83s-20 67.5 -20 105.5zM448 250c0 23.333 -3.83301 44.666 -11.5 63.999
s-18.334 35.833 -32.001 49.5s-29.834 24.334 -48.501 32.001s-39.334 11.5 -62.001 11.5s-43.334 -3.83301 -62.001 -11.5s-34.834 -18.334 -48.501 -32.001s-24.334 -30.167 -32.001 -49.5s-11.5 -40.666 -11.5 -63.999s3.83301 -44.666 11.5 -63.999
s18.334 -35.833 32.001 -49.5s29.834 -24.334 48.501 -32.001s39.334 -11.5 62.001 -11.5s43.334 3.83301 62.001 11.5s34.834 18.334 48.501 32.001s24.334 30.167 32.001 49.5s11.5 40.666 11.5 63.999z" />
    <glyph glyph-name="OE" unicode="&#x152;" horiz-adv-x="893" 
d="M397 700h441v-114h-327v-179h327v-114h-327v-179h327v-114h-441c-50 -0 -96.333 8.83301 -139 26.5s-79.667 42.167 -111 73.5s-55.833 68.333 -73.5 111s-26.5 89 -26.5 139s8.83301 96.333 26.5 139s42.167 79.667 73.5 111s68.333 55.833 111 73.5s89 26.5 139 26.5
v-114c-34 0 -65.5 -5.83301 -94.5 -17.5s-54 -28 -75 -49s-37.333 -46 -49 -75s-17.5 -60.5 -17.5 -94.5s5.83301 -65.5 17.5 -94.5s28 -54 49 -75s46 -37.333 75 -49s60.5 -17.5 94.5 -17.5v586z" />
    <glyph glyph-name="oe" unicode="&#x153;" horiz-adv-x="966" 
d="M707 -12c-47.333 0 -88.168 8.83203 -122.501 26.499s-62.166 42.5 -83.499 74.5c-22 -32 -50.5 -56.833 -85.5 -74.5s-75.5 -26.5 -121.5 -26.5c-38 0 -73.167 6.5 -105.5 19.5s-60.333 31 -84 54s-42.167 50.667 -55.5 83s-20 67.5 -20 105.5s6.66699 73.167 20 105.5
s31.833 60 55.5 83s51.667 41 84 54s67.5 19.5 105.5 19.5c46 0 86.667 -9 122 -27s64 -43 86 -75c20 31.333 46.333 56.166 79 74.499s71.334 27.5 116.001 27.5c38.667 0 73.167 -6.5 103.5 -19.5s55.833 -31.167 76.5 -54.5s36.5 -51.166 47.5 -83.499
s16.5 -67.833 16.5 -106.5v-31h-385v-1c2.66699 -21.333 8.66699 -40 18 -56s20.666 -29.167 33.999 -39.5s28.5 -18.166 45.5 -23.499s34.5 -8 52.5 -8c34 0 63.333 6.33301 88 19s45.667 28 63 46l50 -87c-20.667 -20 -47.167 -38.167 -79.5 -54.5
s-72.5 -24.5 -120.5 -24.5zM822.998 298.999c-3.33301 34.667 -15.667 62.834 -37 84.501s-51.333 32.5 -90 32.5c-40 0 -71.5 -10.333 -94.5 -31s-37.5 -49.334 -43.5 -86.001h265zM447.997 249.999c0 23.333 -3.83301 44.666 -11.5 63.999s-18.334 35.833 -32.001 49.5
s-29.834 24.334 -48.501 32.001s-39.334 11.5 -62.001 11.5s-43.334 -3.83301 -62.001 -11.5s-34.834 -18.334 -48.501 -32.001s-24.334 -30.167 -32.001 -49.5s-11.5 -40.666 -11.5 -63.999s3.83301 -44.666 11.5 -63.999s18.334 -35.833 32.001 -49.5
s29.834 -24.334 48.501 -32.001s39.334 -11.5 62.001 -11.5s43.334 3.83301 62.001 11.5s34.834 18.334 48.501 32.001s24.334 30.167 32.001 49.5s11.5 40.666 11.5 63.999z" />
    <glyph glyph-name="Racute" unicode="&#x154;" horiz-adv-x="680" 
d="M418 922l49 -77l-219 -135l-48 76zM289 335l-30 42l94 63l67 -93c21.333 9.33301 38.5 24 51.5 44s19.5 43.333 19.5 70c0 36.667 -11.833 66.667 -35.5 90s-54.167 35 -91.5 35h-173v-251h98zM191 0l-114.001 -0.000976562v700h287c34.667 0 66.834 -6 96.501 -18
s55.167 -28.667 76.5 -50s38 -46.666 50 -75.999s18 -61 18 -95c0 -46.667 -10.5 -88 -31.5 -124s-49.5 -64.333 -85.5 -85l182 -252h-141l-158 221h-7h-173v-221z" />
    <glyph glyph-name="racute" unicode="&#x155;" horiz-adv-x="379" 
d="M281 767l49 -77l-219 -135l-48 76zM168 421c15.333 28.667 34.833 51 58.5 67s53.167 24 88.5 24c16.667 0 33 -2 49 -6v-115c-8.66699 2 -17.5 3.66699 -26.5 5s-18.5 2 -28.5 2c-50 0 -85.333 -14.833 -106 -44.5s-31 -71.167 -31 -124.5v-229h-108v500h104v-79z" />
    <glyph glyph-name="Rcommaaccent" unicode="&#x156;" horiz-adv-x="680" 
d="M289 335l-30 42l94 63l67 -93c21.333 9.33301 38.5 24 51.5 44s19.5 43.333 19.5 70c0 36.667 -11.833 66.667 -35.5 90s-54.167 35 -91.5 35h-173v-251h98zM191 0l-114.001 -0.000976562v700h287c34.667 0 66.834 -6 96.501 -18s55.167 -28.667 76.5 -50
s38 -46.666 50 -75.999s18 -61 18 -95c0 -46.667 -10.5 -88 -31.5 -124s-49.5 -64.333 -85.5 -85l182 -252h-141l-158 221h-7h-173v-221zM270.999 -244.001l47 76c-12.667 5.33301 -23 13.833 -31 25.5s-12 25.167 -12 40.5c0 19.333 6.83301 35.833 20.5 49.5
s30.167 20.5 49.5 20.5s36 -6.83301 50 -20.5s21 -30.167 21 -49.5c0 -14 -4 -26.667 -12 -38l-81 -136z" />
    <glyph glyph-name="rcommaaccent" unicode="&#x157;" horiz-adv-x="379" 
d="M168 421c15.333 28.667 34.833 51 58.5 67s53.167 24 88.5 24c16.667 0 33 -2 49 -6v-115c-8.66699 2 -17.5 3.66699 -26.5 5s-18.5 2 -28.5 2c-50 0 -85.333 -14.833 -106 -44.5s-31 -71.167 -31 -124.5v-229h-108v500h104v-79zM45 -244l47 76
c-12.667 5.33301 -23 13.833 -31 25.5s-12 25.167 -12 40.5c0 19.333 6.83301 35.833 20.5 49.5s30.167 20.5 49.5 20.5s36 -6.83301 50 -20.5s21 -30.167 21 -49.5c0 -14 -4 -26.667 -12 -38l-81 -136z" />
    <glyph glyph-name="Rcaron" unicode="&#x158;" horiz-adv-x="680" 
d="M445 941l57 -62l-180 -154l-180 154l57 62l123 -106zM289 335l-30 42l94 63l67 -93c21.333 9.33301 38.5 24 51.5 44s19.5 43.333 19.5 70c0 36.667 -11.833 66.667 -35.5 90s-54.167 35 -91.5 35h-173v-251h98zM191 0l-114.001 -0.000976562v700h287
c34.667 0 66.834 -6 96.501 -18s55.167 -28.667 76.5 -50s38 -46.666 50 -75.999s18 -61 18 -95c0 -46.667 -10.5 -88 -31.5 -124s-49.5 -64.333 -85.5 -85l182 -252h-141l-158 221h-7h-173v-221z" />
    <glyph glyph-name="rcaron" unicode="&#x159;" horiz-adv-x="379" 
d="M312 771l57 -62l-180 -154l-180 154l57 62l123 -106zM168 421c15.333 28.667 34.833 51 58.5 67s53.167 24 88.5 24c16.667 0 33 -2 49 -6v-115c-8.66699 2 -17.5 3.66699 -26.5 5s-18.5 2 -28.5 2c-50 0 -85.333 -14.833 -106 -44.5s-31 -71.167 -31 -124.5v-229h-108
v500h104v-79z" />
    <glyph glyph-name="Sacute" unicode="&#x15a;" horiz-adv-x="536" 
d="M361 922l49 -77l-219 -135l-48 76zM49 505c0 30.667 5.66602 58.1689 16.999 82.502s27 44.833 47 61.5s43.333 29.334 70 38.001s55 13 85 13c56.667 0 105 -15 145 -45s67 -72.333 81 -127l-105 -43c-9.33301 36 -24.5 61.833 -45.5 77.5s-46.833 23.5 -77.5 23.5
c-34 0 -59.667 -8 -77 -24s-26 -35.333 -26 -58c0 -15.333 3.33301 -28 10 -38s16 -18.667 28 -26s26.167 -14 42.5 -20s34.166 -12 53.499 -18c25.333 -8.66699 49.5 -18.167 72.5 -28.5s43.167 -23.333 60.5 -39s31 -34.5 41 -56.5s15 -48.667 15 -80
c0 -32.667 -5.66699 -61.334 -17 -86.001s-26.833 -45.334 -46.5 -62.001s-42.667 -29.167 -69 -37.5s-54.166 -12.5 -83.499 -12.5c-24 0 -48 3 -72 9s-46.333 15.833 -67 29.5s-38.834 31.334 -54.501 53.001s-27.167 48.5 -34.5 80.5l101 48
c16 -70.667 58.333 -106 127 -106c32 0 57 7.16699 75 21.5s27 34.833 27 61.5c0 16 -3.33301 29.333 -10 40s-15.667 19.667 -27 27s-24.5 13.666 -39.5 18.999s-30.833 10.666 -47.5 15.999c-22.667 6.66699 -45.667 15 -69 25s-44.666 22.833 -63.999 38.5
s-35.166 35 -47.499 58s-18.5 51.167 -18.5 84.5z" />
    <glyph glyph-name="sacute" unicode="&#x15b;" horiz-adv-x="470" 
d="M333 767l49 -77l-219 -135l-48 76zM50 359c0 47.333 17.3301 84.6699 51.9971 112.003s83.334 41 146.001 41c48 0 88 -8.16699 120 -24.5s58.333 -38.5 79 -66.5l-73 -70c-12 18 -29.167 32.833 -51.5 44.5s-49.166 17.5 -80.499 17.5
c-24.667 0 -44.5 -4.33301 -59.5 -13s-22.5 -20.667 -22.5 -36c0 -18.667 9.83301 -31.667 29.5 -39s49.167 -15.333 88.5 -24c21.333 -4.66699 42.166 -10.167 62.499 -16.5s38.5 -15.166 54.5 -26.499s28.833 -25.833 38.5 -43.5s14.5 -40.167 14.5 -67.5s-5 -51 -15 -71
s-23.833 -36.5 -41.5 -49.5s-39 -22.667 -64 -29s-52.5 -9.5 -82.5 -9.5c-48 0 -91.667 8 -131 24s-69.666 41.667 -90.999 77l74 71c15.333 -26 36.833 -44.833 64.5 -56.5s57.834 -17.5 90.501 -17.5c25.333 0 46 4.16699 62 12.5s24 22.166 24 41.499s-9 32.833 -27 40.5
s-46 15.5 -84 23.5c-19.333 4 -39.5 9.16699 -60.5 15.5s-40.167 15.166 -57.5 26.499s-31.5 26.166 -42.5 44.499s-16.5 41.166 -16.5 68.499z" />
    <glyph glyph-name="Scircumflex" unicode="&#x15c;" horiz-adv-x="536" 
d="M265 930l180 -154l-57 -62l-123 106l-123 -106l-57 62zM49 505c0 30.667 5.66602 58.1689 16.999 82.502s27 44.833 47 61.5s43.333 29.334 70 38.001s55 13 85 13c56.667 0 105 -15 145 -45s67 -72.333 81 -127l-105 -43c-9.33301 36 -24.5 61.833 -45.5 77.5
s-46.833 23.5 -77.5 23.5c-34 0 -59.667 -8 -77 -24s-26 -35.333 -26 -58c0 -15.333 3.33301 -28 10 -38s16 -18.667 28 -26s26.167 -14 42.5 -20s34.166 -12 53.499 -18c25.333 -8.66699 49.5 -18.167 72.5 -28.5s43.167 -23.333 60.5 -39s31 -34.5 41 -56.5
s15 -48.667 15 -80c0 -32.667 -5.66699 -61.334 -17 -86.001s-26.833 -45.334 -46.5 -62.001s-42.667 -29.167 -69 -37.5s-54.166 -12.5 -83.499 -12.5c-24 0 -48 3 -72 9s-46.333 15.833 -67 29.5s-38.834 31.334 -54.501 53.001s-27.167 48.5 -34.5 80.5l101 48
c16 -70.667 58.333 -106 127 -106c32 0 57 7.16699 75 21.5s27 34.833 27 61.5c0 16 -3.33301 29.333 -10 40s-15.667 19.667 -27 27s-24.5 13.666 -39.5 18.999s-30.833 10.666 -47.5 15.999c-22.667 6.66699 -45.667 15 -69 25s-44.666 22.833 -63.999 38.5
s-35.166 35 -47.499 58s-18.5 51.167 -18.5 84.5z" />
    <glyph glyph-name="scircumflex" unicode="&#x15d;" horiz-adv-x="470" 
d="M245 768l180 -154l-57 -62l-123 106l-123 -106l-57 62zM50 359c0 47.333 17.3301 84.6699 51.9971 112.003s83.334 41 146.001 41c48 0 88 -8.16699 120 -24.5s58.333 -38.5 79 -66.5l-73 -70c-12 18 -29.167 32.833 -51.5 44.5s-49.166 17.5 -80.499 17.5
c-24.667 0 -44.5 -4.33301 -59.5 -13s-22.5 -20.667 -22.5 -36c0 -18.667 9.83301 -31.667 29.5 -39s49.167 -15.333 88.5 -24c21.333 -4.66699 42.166 -10.167 62.499 -16.5s38.5 -15.166 54.5 -26.499s28.833 -25.833 38.5 -43.5s14.5 -40.167 14.5 -67.5s-5 -51 -15 -71
s-23.833 -36.5 -41.5 -49.5s-39 -22.667 -64 -29s-52.5 -9.5 -82.5 -9.5c-48 0 -91.667 8 -131 24s-69.666 41.667 -90.999 77l74 71c15.333 -26 36.833 -44.833 64.5 -56.5s57.834 -17.5 90.501 -17.5c25.333 0 46 4.16699 62 12.5s24 22.166 24 41.499s-9 32.833 -27 40.5
s-46 15.5 -84 23.5c-19.333 4 -39.5 9.16699 -60.5 15.5s-40.167 15.166 -57.5 26.499s-31.5 26.166 -42.5 44.499s-16.5 41.166 -16.5 68.499z" />
    <glyph glyph-name="Scedilla" unicode="&#x15e;" horiz-adv-x="536" 
d="M254 -189c-21.333 0 -43.3301 4.33301 -65.9971 13v80c11.333 -3.33301 21 -6 29 -8s15.667 -3 23 -3c8 0 14.5 2.16699 19.5 6.5s7.5 11.833 7.5 22.5c0 9.33301 -2.66699 20.5 -8 33.5s-15 28.833 -29 47.5c-20.667 2.66699 -40.834 7.83398 -60.501 15.501
s-37.834 18.334 -54.501 32.001s-31.334 30.5 -44.001 50.5s-22.334 43.667 -29.001 71l101 48c16 -70.667 58.333 -106 127 -106c32 0 57 7.16699 75 21.5s27 34.833 27 61.5c0 16 -3.33301 29.333 -10 40s-15.667 19.667 -27 27s-24.5 13.666 -39.5 18.999
s-30.833 10.666 -47.5 15.999c-22.667 6.66699 -45.667 15 -69 25s-44.666 22.833 -63.999 38.5s-35.166 35 -47.499 58s-18.5 51.167 -18.5 84.5c0 30.667 5.66699 58.167 17 82.5s27 44.833 47 61.5s43.333 29.334 70 38.001s55 13 85 13c56.667 0 105 -15 145 -45
s67 -72.333 81 -127l-105 -43c-9.33301 36 -24.5 61.833 -45.5 77.5s-46.833 23.5 -77.5 23.5c-34 0 -59.667 -8 -77 -24s-26 -35.333 -26 -58c0 -15.333 3.33301 -28 10 -38s16 -18.667 28 -26s26.167 -14 42.5 -20s34.166 -12 53.499 -18
c25.333 -8.66699 49.5 -18.167 72.5 -28.5s43.167 -23.333 60.5 -39s31 -34.5 41 -56.5s15 -48.667 15 -80c0 -28.667 -4.33301 -54.167 -13 -76.5s-20.667 -41.5 -36 -57.5s-33.333 -29 -54 -39s-43 -17 -67 -21c14 -18.667 24 -35.834 30 -51.501s9 -31.167 9 -46.5
c0 -30 -9.5 -53.333 -28.5 -70s-43.167 -25 -72.5 -25z" />
    <glyph glyph-name="scedilla" unicode="&#x15f;" horiz-adv-x="470" 
d="M224 -189c-21.333 0 -43.332 4.33691 -65.999 13.0039v80c11.333 -3.33301 21 -6 29 -8s15.667 -3 23 -3c8 0 14.5 2.16699 19.5 6.5s7.5 11.833 7.5 22.5c0 8 -2 17.5 -6 28.5s-11 23.833 -21 38.5c-40.667 3.33301 -77.334 13.166 -110.001 29.499
s-58.334 39.833 -77.001 70.5l74 71c15.333 -26 36.833 -44.833 64.5 -56.5s57.834 -17.5 90.501 -17.5c25.333 0 46 4.16699 62 12.5s24 22.166 24 41.499s-9 32.833 -27 40.5s-46 15.5 -84 23.5c-19.333 4 -39.5 9.16699 -60.5 15.5s-40.167 15.166 -57.5 26.499
s-31.5 26.166 -42.5 44.499s-16.5 41.166 -16.5 68.499c0 47.333 17.333 84.666 52 111.999s83.334 41 146.001 41c48 0 88 -8.16699 120 -24.5s58.333 -38.5 79 -66.5l-73 -70c-12 18 -29.167 32.833 -51.5 44.5s-49.166 17.5 -80.499 17.5
c-24.667 0 -44.5 -4.33301 -59.5 -13s-22.5 -20.667 -22.5 -36c0 -18.667 9.83301 -31.667 29.5 -39s49.167 -15.333 88.5 -24c21.333 -4.66699 42.166 -10.167 62.499 -16.5s38.5 -15.166 54.5 -26.499s28.833 -25.833 38.5 -43.5s14.5 -40.167 14.5 -67.5
c0 -47.333 -14 -83.666 -42 -108.999s-65 -41 -111 -47c11.333 -15.333 19.166 -30 23.499 -44s6.5 -27.667 6.5 -41c0 -30 -9.5 -53.333 -28.5 -70s-43.167 -25 -72.5 -25z" />
    <glyph glyph-name="Scaron" unicode="&#x160;" horiz-adv-x="536" 
d="M388 941l57 -62l-180 -154l-180 154l57 62l123 -106zM49 505c0 30.667 5.66602 58.1689 16.999 82.502s27 44.833 47 61.5s43.333 29.334 70 38.001s55 13 85 13c56.667 0 105 -15 145 -45s67 -72.333 81 -127l-105 -43c-9.33301 36 -24.5 61.833 -45.5 77.5
s-46.833 23.5 -77.5 23.5c-34 0 -59.667 -8 -77 -24s-26 -35.333 -26 -58c0 -15.333 3.33301 -28 10 -38s16 -18.667 28 -26s26.167 -14 42.5 -20s34.166 -12 53.499 -18c25.333 -8.66699 49.5 -18.167 72.5 -28.5s43.167 -23.333 60.5 -39s31 -34.5 41 -56.5
s15 -48.667 15 -80c0 -32.667 -5.66699 -61.334 -17 -86.001s-26.833 -45.334 -46.5 -62.001s-42.667 -29.167 -69 -37.5s-54.166 -12.5 -83.499 -12.5c-24 0 -48 3 -72 9s-46.333 15.833 -67 29.5s-38.834 31.334 -54.501 53.001s-27.167 48.5 -34.5 80.5l101 48
c16 -70.667 58.333 -106 127 -106c32 0 57 7.16699 75 21.5s27 34.833 27 61.5c0 16 -3.33301 29.333 -10 40s-15.667 19.667 -27 27s-24.5 13.666 -39.5 18.999s-30.833 10.666 -47.5 15.999c-22.667 6.66699 -45.667 15 -69 25s-44.666 22.833 -63.999 38.5
s-35.166 35 -47.499 58s-18.5 51.167 -18.5 84.5z" />
    <glyph glyph-name="scaron" unicode="&#x161;" horiz-adv-x="470" 
d="M365 771l57 -62l-180 -154l-180 154l57 62l123 -106zM50 359c0 47.333 17.3301 84.6699 51.9971 112.003s83.334 41 146.001 41c48 0 88 -8.16699 120 -24.5s58.333 -38.5 79 -66.5l-73 -70c-12 18 -29.167 32.833 -51.5 44.5s-49.166 17.5 -80.499 17.5
c-24.667 0 -44.5 -4.33301 -59.5 -13s-22.5 -20.667 -22.5 -36c0 -18.667 9.83301 -31.667 29.5 -39s49.167 -15.333 88.5 -24c21.333 -4.66699 42.166 -10.167 62.499 -16.5s38.5 -15.166 54.5 -26.499s28.833 -25.833 38.5 -43.5s14.5 -40.167 14.5 -67.5s-5 -51 -15 -71
s-23.833 -36.5 -41.5 -49.5s-39 -22.667 -64 -29s-52.5 -9.5 -82.5 -9.5c-48 0 -91.667 8 -131 24s-69.666 41.667 -90.999 77l74 71c15.333 -26 36.833 -44.833 64.5 -56.5s57.834 -17.5 90.501 -17.5c25.333 0 46 4.16699 62 12.5s24 22.166 24 41.499s-9 32.833 -27 40.5
s-46 15.5 -84 23.5c-19.333 4 -39.5 9.16699 -60.5 15.5s-40.167 15.166 -57.5 26.499s-31.5 26.166 -42.5 44.499s-16.5 41.166 -16.5 68.499z" />
    <glyph glyph-name="Tcommaaccent" unicode="&#x162;" horiz-adv-x="653" 
d="M384 586v-586h-114v586h-265v114h643v-114h-264zM254 -244l47 76c-12.667 5.33301 -23 13.833 -31 25.5s-12 25.167 -12 40.5c0 19.333 6.83301 35.833 20.5 49.5s30.167 20.5 49.5 20.5s36 -6.83301 50 -20.5s21 -30.167 21 -49.5c0 -14 -4 -26.667 -12 -38l-81 -136z
" />
    <glyph glyph-name="tcommaaccent" unicode="&#x163;" horiz-adv-x="378" 
d="M348 9c-32 -9.33301 -64.332 -14 -96.999 -14c-46 0 -81.167 11.333 -105.5 34s-36.5 61.667 -36.5 117v262h-95v92h95v134h108v-134h132v-92h-132v-255c0 -17.333 4.16699 -30.5 12.5 -39.5s22.166 -13.5 41.499 -13.5c13.333 0 25.5 0.666992 36.5 2
s24.5 3.33301 40.5 6v-99zM162.001 -244l47 76c-12.667 5.33301 -23 13.833 -31 25.5s-12 25.167 -12 40.5c0 19.333 6.83301 35.833 20.5 49.5s30.167 20.5 49.5 20.5s36 -6.83301 50 -20.5s21 -30.167 21 -49.5c0 -14 -4 -26.667 -12 -38l-81 -136z" />
    <glyph glyph-name="Tcaron" unicode="&#x164;" horiz-adv-x="653" 
d="M447 941l57 -62l-180 -154l-180 154l57 62l123 -106zM384 586v-586h-114v586h-265v114h643v-114h-264z" />
    <glyph glyph-name="tcaron" unicode="&#x165;" horiz-adv-x="567" 
d="M380 430l71.002 120.001c-16 6 -29.167 16.167 -39.5 30.5s-15.5 30.5 -15.5 48.5c0 10.667 2.16699 21.167 6.5 31.5s10.166 19.166 17.499 26.499s16 13.333 26 18s21 7 33 7s23 -2.33301 33 -7s18.667 -10.667 26 -18s13.166 -16.166 17.499 -26.499
s6.5 -20.833 6.5 -31.5c0 -16.667 -4.33301 -31.334 -13 -44.001l-110 -188zM348.002 9.00098c-32 -9.33301 -64.332 -14 -96.999 -14c-46 0 -81.167 11.333 -105.5 34s-36.5 61.667 -36.5 117v262h-95v92h95v134h108v-134h132v-92h-132v-255
c0 -17.333 4.16699 -30.5 12.5 -39.5s22.166 -13.5 41.499 -13.5c13.333 0 25.5 0.666992 36.5 2s24.5 3.33301 40.5 6v-99z" />
    <glyph glyph-name="Tbar" unicode="&#x166;" horiz-adv-x="653" 
d="M384 306v-306h-114v306h-128v114h128v166h-265v114h643v-114h-264v-166h126v-114h-126z" />
    <glyph glyph-name="tbar" unicode="&#x167;" horiz-adv-x="374" 
d="M348 9c-32 -9.33301 -64.332 -14 -96.999 -14c-46 0 -81.167 11.333 -105.5 34s-36.5 61.667 -36.5 117v92h-78v87h78v83h-95v92h95v134h108v-134h132v-92h-132v-83h111v-87h-111v-85c0 -17.333 4.16699 -30.5 12.5 -39.5s22.166 -13.5 41.499 -13.5
c13.333 0 25.5 0.666992 36.5 2s24.5 3.33301 40.5 6v-99v0z" />
    <glyph glyph-name="Utilde" unicode="&#x168;" horiz-adv-x="774" 
d="M449 734c-12.667 0 -24.667 2.33398 -36 7.00098s-22.166 10 -32.499 16l-28.5 16c-8.66699 4.66699 -17 7 -25 7c-10 0 -20.167 -4.33301 -30.5 -13s-20.5 -18 -30.5 -28l-56 57l24 25c8.66699 8.66699 18 16.5 28 23.5s20.5 12.833 31.5 17.5s22.167 7 33.5 7
c12.667 0 24.667 -2.33301 36 -7s22.166 -9.83398 32.499 -15.501l28.5 -15.5c8.66699 -4.66699 17 -7 25 -7c10.667 0 21 4.16699 31 12.5s20 17.5 30 27.5l56 -57l-24 -25c-8.66699 -8.66699 -18 -16.5 -28 -23.5s-20.333 -12.833 -31 -17.5s-22 -7 -34 -7zM710 700.001
l-0.00195312 -378c0 -46.667 -8.16699 -89.667 -24.5 -129s-39 -73.333 -68 -102s-63.167 -51 -102.5 -67s-82 -24 -128 -24s-88.667 8 -128 24s-73.5 38.333 -102.5 67s-51.667 62.667 -68 102s-24.5 82.333 -24.5 129v378h114v-378c0 -30.667 5.33301 -58.834 16 -84.501
s25.334 -47.667 44.001 -66s40.667 -32.5 66 -42.5s53 -15 83 -15s57.667 5 83 15s47.333 24.167 66 42.5s33.334 40.333 44.001 66s16 53.834 16 84.501v378h114z" />
    <glyph glyph-name="utilde" unicode="&#x169;" horiz-adv-x="574" 
d="M347 565c-12.667 0 -24.667 2.33398 -36 7.00098s-22.166 10 -32.499 16l-28.5 16c-8.66699 4.66699 -17 7 -25 7c-10 0 -20.167 -4.33301 -30.5 -13s-20.5 -18 -30.5 -28l-56 57l24 25c8.66699 8.66699 18 16.5 28 23.5s20.5 12.833 31.5 17.5s22.167 7 33.5 7
c12.667 0 24.667 -2.33301 36 -7s22.166 -9.83398 32.499 -15.501l28.5 -15.5c8.66699 -4.66699 17 -7 25 -7c10.667 0 21 4.16699 31 12.5s20 17.5 30 27.5l56 -57l-24 -25c-8.66699 -8.66699 -18 -16.5 -28 -23.5s-20.333 -12.833 -31 -17.5s-22 -7 -34 -7zM508 500.001
l0.00292969 -499.999h-104v74c-18.667 -27.333 -40.334 -48.5 -65.001 -63.5s-56 -22.5 -94 -22.5c-32 0 -59.5 5 -82.5 15s-41.833 24.333 -56.5 43s-25.334 40.667 -32.001 66s-10 53.666 -10 84.999v303h111v-288c0 -37.333 7.16699 -66.833 21.5 -88.5
s40.166 -32.5 77.499 -32.5c24 0 44 4.5 60 13.5s28.833 21.333 38.5 37s16.667 34 21 55s6.5 43.5 6.5 67.5v236h108z" />
    <glyph glyph-name="Umacron" unicode="&#x16a;" horiz-adv-x="774" 
d="M537 840v-84h-300v84h300zM710 700l-0.00195312 -378c0 -46.667 -8.16699 -89.667 -24.5 -129s-39 -73.333 -68 -102s-63.167 -51 -102.5 -67s-82 -24 -128 -24s-88.667 8 -128 24s-73.5 38.333 -102.5 67s-51.667 62.667 -68 102s-24.5 82.333 -24.5 129v378h114v-378
c0 -30.667 5.33301 -58.834 16 -84.501s25.334 -47.667 44.001 -66s40.667 -32.5 66 -42.5s53 -15 83 -15s57.667 5 83 15s47.333 24.167 66 42.5s33.334 40.333 44.001 66s16 53.834 16 84.501v378h114z" />
    <glyph glyph-name="umacron" unicode="&#x16b;" horiz-adv-x="574" 
d="M436 691v-84h-300v84h300zM508 500l0.00292969 -499.999h-104v74c-18.667 -27.333 -40.334 -48.5 -65.001 -63.5s-56 -22.5 -94 -22.5c-32 0 -59.5 5 -82.5 15s-41.833 24.333 -56.5 43s-25.334 40.667 -32.001 66s-10 53.666 -10 84.999v303h111v-288
c0 -37.333 7.16699 -66.833 21.5 -88.5s40.166 -32.5 77.499 -32.5c24 0 44 4.5 60 13.5s28.833 21.333 38.5 37s16.667 34 21 55s6.5 43.5 6.5 67.5v236h108z" />
    <glyph glyph-name="Ubreve" unicode="&#x16c;" horiz-adv-x="774" 
d="M536 887c0 -46 -13.167 -83.667 -39.5 -113s-62.833 -44 -109.5 -44s-83.167 14.667 -109.5 44s-39.5 67 -39.5 113h87c0 -22.667 5.33301 -40.334 16 -53.001s26 -19 46 -19s35.333 6.33301 46 19s16 30.334 16 53.001h87zM710 700l-0.00195312 -378
c0 -46.667 -8.16699 -89.667 -24.5 -129s-39 -73.333 -68 -102s-63.167 -51 -102.5 -67s-82 -24 -128 -24s-88.667 8 -128 24s-73.5 38.333 -102.5 67s-51.667 62.667 -68 102s-24.5 82.333 -24.5 129v378h114v-378c0 -30.667 5.33301 -58.834 16 -84.501
s25.334 -47.667 44.001 -66s40.667 -32.5 66 -42.5s53 -15 83 -15s57.667 5 83 15s47.333 24.167 66 42.5s33.334 40.333 44.001 66s16 53.834 16 84.501v378h114z" />
    <glyph glyph-name="ubreve" unicode="&#x16d;" horiz-adv-x="574" 
d="M435 731c0 -46 -13.167 -83.667 -39.5 -113s-62.833 -44 -109.5 -44s-83.167 14.667 -109.5 44s-39.5 67 -39.5 113h87c0 -22.667 5.33301 -40.334 16 -53.001s26 -19 46 -19s35.333 6.33301 46 19s16 30.334 16 53.001h87zM508 500l0.00292969 -499.999h-104v74
c-18.667 -27.333 -40.334 -48.5 -65.001 -63.5s-56 -22.5 -94 -22.5c-32 0 -59.5 5 -82.5 15s-41.833 24.333 -56.5 43s-25.334 40.667 -32.001 66s-10 53.666 -10 84.999v303h111v-288c0 -37.333 7.16699 -66.833 21.5 -88.5s40.166 -32.5 77.499 -32.5
c24 0 44 4.5 60 13.5s28.833 21.333 38.5 37s16.667 34 21 55s6.5 43.5 6.5 67.5v236h108z" />
    <glyph glyph-name="Uring" unicode="&#x16e;" horiz-adv-x="774" 
d="M267 753c0 35.333 11.333 64.333 34 87s51.667 34 87 34c34.667 0 63.334 -11.333 86.001 -34s34 -51.667 34 -87s-11.333 -64.166 -34 -86.499s-51.334 -33.5 -86.001 -33.5c-35.333 0 -64.333 11.167 -87 33.5s-34 51.166 -34 86.499zM440 753
c0 15.333 -4.83301 28 -14.5 38s-22.167 15 -37.5 15s-28 -5 -38 -15s-15 -22.667 -15 -38s5 -28 15 -38s22.667 -15 38 -15s27.833 5 37.5 15s14.5 22.667 14.5 38zM710 700l-0.00195312 -378c0 -46.667 -8.16699 -89.667 -24.5 -129s-39 -73.333 -68 -102
s-63.167 -51 -102.5 -67s-82 -24 -128 -24s-88.667 8 -128 24s-73.5 38.333 -102.5 67s-51.667 62.667 -68 102s-24.5 82.333 -24.5 129v378h114v-378c0 -30.667 5.33301 -58.834 16 -84.501s25.334 -47.667 44.001 -66s40.667 -32.5 66 -42.5s53 -15 83 -15s57.667 5 83 15
s47.333 24.167 66 42.5s33.334 40.333 44.001 66s16 53.834 16 84.501v378h114z" />
    <glyph glyph-name="uring" unicode="&#x16f;" horiz-adv-x="574" 
d="M165 683c0 35.333 11.333 64.333 34 87s51.667 34 87 34c34.667 0 63.334 -11.333 86.001 -34s34 -51.667 34 -87s-11.333 -64.166 -34 -86.499s-51.334 -33.5 -86.001 -33.5c-35.333 0 -64.333 11.167 -87 33.5s-34 51.166 -34 86.499zM338 683
c0 15.333 -4.83301 28 -14.5 38s-22.167 15 -37.5 15s-28 -5 -38 -15s-15 -22.667 -15 -38s5 -28 15 -38s22.667 -15 38 -15s27.833 5 37.5 15s14.5 22.667 14.5 38zM508 500l0.00292969 -499.999h-104v74c-18.667 -27.333 -40.334 -48.5 -65.001 -63.5s-56 -22.5 -94 -22.5
c-32 0 -59.5 5 -82.5 15s-41.833 24.333 -56.5 43s-25.334 40.667 -32.001 66s-10 53.666 -10 84.999v303h111v-288c0 -37.333 7.16699 -66.833 21.5 -88.5s40.166 -32.5 77.499 -32.5c24 0 44 4.5 60 13.5s28.833 21.333 38.5 37s16.667 34 21 55s6.5 43.5 6.5 67.5v236
h108z" />
    <glyph glyph-name="Uhungarumlaut" unicode="&#x170;" horiz-adv-x="774" 
d="M366 950l74 -52l-122 -174l-71 49zM531 937l74 -52l-121 -173l-72 48zM710 700l-0.00195312 -378c0 -46.667 -8.16699 -89.667 -24.5 -129s-39 -73.333 -68 -102s-63.167 -51 -102.5 -67s-82 -24 -128 -24s-88.667 8 -128 24s-73.5 38.333 -102.5 67
s-51.667 62.667 -68 102s-24.5 82.333 -24.5 129v378h114v-378c0 -30.667 5.33301 -58.834 16 -84.501s25.334 -47.667 44.001 -66s40.667 -32.5 66 -42.5s53 -15 83 -15s57.667 5 83 15s47.333 24.167 66 42.5s33.334 40.333 44.001 66s16 53.834 16 84.501v378h114z" />
    <glyph glyph-name="uhungarumlaut" unicode="&#x171;" horiz-adv-x="574" 
d="M253 791l74 -52l-122 -174l-71 49zM418 778l74 -52l-121 -173l-72 48zM508 500l0.00292969 -499.999h-104v74c-18.667 -27.333 -40.334 -48.5 -65.001 -63.5s-56 -22.5 -94 -22.5c-32 0 -59.5 5 -82.5 15s-41.833 24.333 -56.5 43s-25.334 40.667 -32.001 66
s-10 53.666 -10 84.999v303h111v-288c0 -37.333 7.16699 -66.833 21.5 -88.5s40.166 -32.5 77.499 -32.5c24 0 44 4.5 60 13.5s28.833 21.333 38.5 37s16.667 34 21 55s6.5 43.5 6.5 67.5v236h108z" />
    <glyph glyph-name="Uogonek" unicode="&#x172;" horiz-adv-x="774" 
d="M405 -189c-29.333 0 -53.166 7.83496 -71.499 23.502s-27.5 37.167 -27.5 64.5c0 16.667 4 33 12 49s21.333 33.667 40 53c-42 3.33301 -81 13.666 -117 30.999s-67.167 40.166 -93.5 68.499s-46.833 61.333 -61.5 99s-22 78.5 -22 122.5v378h114v-378
c0 -30.667 5.33301 -58.834 16 -84.501s25.334 -47.667 44.001 -66s40.667 -32.5 66 -42.5s53 -15 83 -15s57.667 5 83 15s47.333 24.167 66 42.5s33.334 40.333 44.001 66s16 53.834 16 84.501v378h114v-378c0 -42 -6.66699 -81.167 -20 -117.5s-32 -68.333 -56 -96
s-52.5 -50.5 -85.5 -68.5s-69.167 -30 -108.5 -36c-18.667 -18.667 -31.834 -34.834 -39.501 -48.501s-11.5 -25.5 -11.5 -35.5c0 -7.33301 2.66699 -13.666 8 -18.999s13.666 -8 24.999 -8c5.33301 0 11.666 0.666992 18.999 2s16 3 26 5v-79
c-10 -3.33301 -20.167 -5.83301 -30.5 -7.5s-20.833 -2.5 -31.5 -2.5z" />
    <glyph glyph-name="uogonek" unicode="&#x173;" horiz-adv-x="574" 
d="M495 -179c-10 -3.33301 -20.1631 -5.83301 -30.4961 -7.5s-20.833 -2.5 -31.5 -2.5c-29.333 0 -53.166 7.83301 -71.499 23.5s-27.5 37.167 -27.5 64.5c0 19.333 5.33301 38.166 16 56.499s28.667 39.166 54 62.499v56c-18.667 -27.333 -40.334 -48.5 -65.001 -63.5
s-56 -22.5 -94 -22.5c-32 0 -59.5 5 -82.5 15s-41.833 24.333 -56.5 43s-25.334 40.667 -32.001 66s-10 53.666 -10 84.999v303h111v-288c0 -37.333 7.16699 -66.833 21.5 -88.5s40.166 -32.5 77.499 -32.5c24 0 44 4.5 60 13.5s28.833 21.333 38.5 37s16.667 34 21 55
s6.5 43.5 6.5 67.5v236h108v-500h-44c-17.333 -17.333 -29.5 -32.666 -36.5 -45.999s-10.5 -24.666 -10.5 -33.999c0 -7.33301 2.66699 -13.666 8 -18.999s13.666 -8 24.999 -8c5.33301 0 11.666 0.666992 18.999 2s16 3 26 5v-79v0z" />
    <glyph glyph-name="Wcircumflex" unicode="&#x174;" horiz-adv-x="1230" 
d="M613 930l180 -154l-57 -62l-123 106l-123 -106l-57 62zM285 0l-275 700h123l203 -518l223 518h111l224 -518l203 518h123l-275 -700h-97l-233 538l-233 -538h-97z" />
    <glyph glyph-name="wcircumflex" unicode="&#x175;" horiz-adv-x="859" 
d="M427 768l180 -154l-57 -62l-123 106l-123 -106l-57 62zM208 0l-204 500h120l127 -336l137 336h83l137 -336l127 336h120l-204 -500h-82l-140 329l-139 -329h-82z" />
    <glyph glyph-name="Ycircumflex" unicode="&#x176;" horiz-adv-x="685" 
d="M339 930l180 -154l-57 -62l-123 106l-123 -106l-57 62zM285 0v283l-283 417h138l202 -297l203 297h138l-284 -417v-283h-114z" />
    <glyph glyph-name="ycircumflex" unicode="&#x177;" horiz-adv-x="531" 
d="M267 768l180 -154l-57 -62l-123 106l-123 -106l-57 62zM96 -200l123 269l-215 431h128l144 -306l140 306h115l-320 -700h-115z" />
    <glyph glyph-name="Ydieresis" unicode="&#x178;" horiz-adv-x="685" 
d="M167 805c0 20.667 7 38 21 52s31.333 21 52 21s38 -7 52 -21s21 -31.333 21 -52s-7 -38 -21 -52s-31.333 -21 -52 -21s-38 7 -52 21s-21 31.333 -21 52zM371 805c0 20.667 7 38 21 52s31.333 21 52 21s37.834 -7 51.501 -21s20.5 -31.333 20.5 -52
s-6.83301 -38 -20.5 -52s-30.834 -21 -51.501 -21s-38 7 -52 21s-21 31.333 -21 52zM285 0v283l-283 417h138l202 -297l203 297h138l-284 -417v-283h-114z" />
    <glyph glyph-name="Zacute" unicode="&#x179;" horiz-adv-x="663" 
d="M424 922l49 -77l-219 -135l-48 76zM615 700v-84l-396 -502h396v-114h-566v84l396 502h-396v114h566z" />
    <glyph glyph-name="zacute" unicode="&#x17a;" horiz-adv-x="470" 
d="M325 767l49 -77l-219 -135l-48 76zM434 500v-90l-266 -310h275v-100h-416v90l265 310h-252v100h394z" />
    <glyph glyph-name="Zdotaccent" unicode="&#x17b;" horiz-adv-x="663" 
d="M256 800c0 21.333 7.33301 39.333 22 54s32.667 22 54 22s39.333 -7.33301 54 -22s22 -32.667 22 -54s-7.33301 -39.333 -22 -54s-32.667 -22 -54 -22s-39.333 7.33301 -54 22s-22 32.667 -22 54zM615 700v-84l-396 -502h396v-114h-566v84l396 502h-396v114h566z" />
    <glyph glyph-name="zdotaccent" unicode="&#x17c;" horiz-adv-x="470" 
d="M161 644c0 21.333 7.33301 39.333 22 54s32.667 22 54 22s39.333 -7.33301 54 -22s22 -32.667 22 -54s-7.33301 -39.333 -22 -54s-32.667 -22 -54 -22s-39.333 7.33301 -54 22s-22 32.667 -22 54zM434 500v-90l-266 -310h275v-100h-416v90l265 310h-252v100h394z" />
    <glyph glyph-name="Zcaron" unicode="&#x17d;" horiz-adv-x="663" 
d="M451 941l57 -62l-180 -154l-180 154l57 62l123 -106zM615 700v-84l-396 -502h396v-114h-566v84l396 502h-396v114h566z" />
    <glyph glyph-name="zcaron" unicode="&#x17e;" horiz-adv-x="470" 
d="M356 771l57 -62l-180 -154l-180 154l57 62l123 -106zM434 500v-90l-266 -310h275v-100h-416v90l265 310h-252v100h394z" />
    <glyph glyph-name="florin" unicode="&#x192;" horiz-adv-x="424" 
d="M85 -206c-12.667 0 -24.6689 0.5 -36.002 1.5s-23.666 2.5 -36.999 4.5v99c14 -1.33301 24.833 -2.33301 32.5 -3s16.834 -1 27.501 -1c22 0 37.833 6 47.5 18s14.5 33 14.5 63v446h-92v78h92v26c0 32 4 59.667 12 83s19.5 42.333 34.5 57s33 25.5 54 32.5
s44.167 10.5 69.5 10.5c14 0 28.333 -0.833008 43 -2.5s29.334 -3.5 44.001 -5.5v-99c-15.333 2 -28.5 3.5 -39.5 4.5s-22.5 1.5 -34.5 1.5c-26.667 0 -45.834 -6.33301 -57.501 -19s-17.5 -35 -17.5 -67v-22h143v-78h-143v-450c0 -31.333 -3.83301 -58.333 -11.5 -81
s-18.334 -41.167 -32.001 -55.5s-30.167 -24.833 -49.5 -31.5s-40.666 -10 -63.999 -10z" />
    <glyph glyph-name="AEacute" unicode="&#x1fc;" horiz-adv-x="1014" 
d="M855 922l49 -77l-219 -135l-48 76zM518 117h-302l-75 -117h-136l452 700h61v-113l-229 -356h229v469h441v-114h-327v-179h327v-114h-327v-179h327v-114h-441v117z" />
    <glyph glyph-name="aeacute" unicode="&#x1fd;" horiz-adv-x="884" 
d="M531 767l49 -77l-219 -135l-48 76zM628 -12c-48 0 -89.5059 9.16504 -124.506 27.498s-63.167 43.833 -84.5 76.5c-23.333 -32 -53 -57 -89 -75s-75 -27 -117 -27c-27.333 0 -51.666 3.83301 -72.999 11.5s-39.666 18.334 -54.999 32.001s-27 30 -35 49
s-12 39.833 -12 62.5c0 46 15.167 82.333 45.5 109s68.5 42 114.5 46l139 14c19.333 2 29 9.66699 29 23v11c0 19.333 -8.16699 35.166 -24.5 47.499s-41.166 18.5 -74.499 18.5c-30.667 0 -57.667 -5.83301 -81 -17.5s-38.666 -31.5 -45.999 -59.5l-87 55
c12 36.667 35.833 65.834 71.5 87.501s80.5 32.5 134.5 32.5c42.667 0 78.5 -7 107.5 -21s51.833 -34.333 68.5 -61c20.667 25.333 46.334 45.333 77.001 60s66.334 22 107.001 22c38 0 71.833 -6.5 101.5 -19.5s54.667 -31.167 75 -54.5s36 -51.166 47 -83.499
s16.5 -67.833 16.5 -106.5v-31h-385l1 -1c5.33301 -43.333 22.5 -75.333 51.5 -96s62.167 -31 99.5 -31c32 0 60.5 6.5 85.5 19.5s46.167 28.167 63.5 45.5l50 -87c-20.667 -20.667 -47 -39 -79 -55s-71.333 -24 -118 -24zM740.994 298.998
c-3.33301 34.667 -15.5 62.834 -36.5 84.501s-51.5 32.5 -91.5 32.5c-38.667 0 -69.5 -10.333 -92.5 -31s-37.833 -49.334 -44.5 -86.001h265zM365.994 230.998l-143.997 -17.999c-24.667 -3.33301 -42.834 -10.833 -54.501 -22.5s-17.5 -25.834 -17.5 -42.501
c0 -19.333 6.83301 -34.833 20.5 -46.5s34.5 -17.5 62.5 -17.5c20.667 0 39.167 3.33301 55.5 10s30.166 15.5 41.499 26.5s20.166 23.667 26.499 38s9.5 28.833 9.5 43.5v29z" />
    <glyph glyph-name="Oslashacute" unicode="&#x1fe;" horiz-adv-x="794" 
d="M491 922l49 -77l-219 -135l-48 76zM158 350c0 -32 5 -61.5 15 -88.5s24.333 -50.833 43 -71.5l306 362c-37.333 22.667 -80 34 -128 34c-34 0 -65.5 -5.83301 -94.5 -17.5s-54 -28 -75 -49s-37.333 -46 -49 -75s-17.5 -60.5 -17.5 -94.5zM394 114
c34 0 65.5 5.83398 94.5 17.501s54 28 75 49s37.333 46 49 75s17.5 60.5 17.5 94.5c0 31.333 -4.83301 60.166 -14.5 86.499s-23.167 49.5 -40.5 69.5l-304 -361c36 -20.667 77 -31 123 -31zM394 0.000976562c-37.333 0 -72.5 5 -105.5 15s-63.5 24 -91.5 42l-58 -68l-54 45
l57 68c-30.667 31.333 -54.667 68 -72 110s-26 88 -26 138s8.83301 96.333 26.5 139s42.167 79.667 73.5 111s68.333 55.833 111 73.5s89 26.5 139 26.5c38.667 0 75 -5.16699 109 -15.5s65 -25.166 93 -44.499l60 71l53 -46l-59 -70c30 -31.333 53.167 -67.833 69.5 -109.5
s24.5 -86.834 24.5 -135.501c0 -50 -8.83301 -96.333 -26.5 -139s-42 -79.667 -73 -111s-68 -55.833 -111 -73.5s-89.5 -26.5 -139.5 -26.5z" />
    <glyph glyph-name="oslashacute" unicode="&#x1ff;" horiz-adv-x="588" 
d="M382 767l49 -77l-219 -135l-48 76zM140 250c0 -37.333 9.33594 -69.333 28.0029 -96l201 236c-22.667 11.333 -47.667 17 -75 17c-22.667 0 -43.334 -3.83301 -62.001 -11.5s-34.834 -18.334 -48.501 -32.001s-24.334 -30.167 -32.001 -49.5s-11.5 -40.666 -11.5 -63.999
zM294.003 93c22.667 0 43.3311 3.83301 61.998 11.5s34.834 18.334 48.501 32.001s24.334 30.167 32.001 49.5s11.5 40.666 11.5 63.999c0 36.667 -9.33301 68 -28 94l-199 -235c22.667 -10.667 47 -16 73 -16zM294 -12c-27.333 0 -53 3.33301 -77 10s-46.333 16 -67 28
l-35 -41l-53 44l35 41c-21.333 22.667 -38 49.334 -50 80.001s-18 64 -18 100c0 38 6.66699 73.167 20 105.5s31.833 60 55.5 83s51.667 41 84 54s67.5 19.5 105.5 19.5c28 0 54 -3.33301 78 -10s46.333 -16.334 67 -29.001l36 42l52 -45l-35 -41
c21.333 -22.667 37.833 -49.167 49.5 -79.5s17.5 -63.5 17.5 -99.5c0 -38 -6.66699 -73.167 -20 -105.5s-31.833 -60 -55.5 -83s-51.667 -41 -84 -54s-67.5 -19.5 -105.5 -19.5z" />
    <glyph glyph-name="Scommaaccent" unicode="&#x218;" horiz-adv-x="536" 
d="M49 505c0 30.667 5.66602 58.1689 16.999 82.502s27 44.833 47 61.5s43.333 29.334 70 38.001s55 13 85 13c56.667 0 105 -15 145 -45s67 -72.333 81 -127l-105 -43c-9.33301 36 -24.5 61.833 -45.5 77.5s-46.833 23.5 -77.5 23.5c-34 0 -59.667 -8 -77 -24
s-26 -35.333 -26 -58c0 -15.333 3.33301 -28 10 -38s16 -18.667 28 -26s26.167 -14 42.5 -20s34.166 -12 53.499 -18c25.333 -8.66699 49.5 -18.167 72.5 -28.5s43.167 -23.333 60.5 -39s31 -34.5 41 -56.5s15 -48.667 15 -80c0 -32.667 -5.66699 -61.334 -17 -86.001
s-26.833 -45.334 -46.5 -62.001s-42.667 -29.167 -69 -37.5s-54.166 -12.5 -83.499 -12.5c-24 0 -48 3 -72 9s-46.333 15.833 -67 29.5s-38.834 31.334 -54.501 53.001s-27.167 48.5 -34.5 80.5l101 48c16 -70.667 58.333 -106 127 -106c32 0 57 7.16699 75 21.5
s27 34.833 27 61.5c0 16 -3.33301 29.333 -10 40s-15.667 19.667 -27 27s-24.5 13.666 -39.5 18.999s-30.833 10.666 -47.5 15.999c-22.667 6.66699 -45.667 15 -69 25s-44.666 22.833 -63.999 38.5s-35.166 35 -47.499 58s-18.5 51.167 -18.5 84.5zM194.999 -243.998l47 76
c-12.667 5.33301 -23 13.833 -31 25.5s-12 25.167 -12 40.5c0 19.333 6.83301 35.833 20.5 49.5s30.167 20.5 49.5 20.5s36 -6.83301 50 -20.5s21 -30.167 21 -49.5c0 -14 -4 -26.667 -12 -38l-81 -136z" />
    <glyph glyph-name="scommaaccent" unicode="&#x219;" horiz-adv-x="470" 
d="M50 359c0 47.333 17.3301 84.6699 51.9971 112.003s83.334 41 146.001 41c48 0 88 -8.16699 120 -24.5s58.333 -38.5 79 -66.5l-73 -70c-12 18 -29.167 32.833 -51.5 44.5s-49.166 17.5 -80.499 17.5c-24.667 0 -44.5 -4.33301 -59.5 -13s-22.5 -20.667 -22.5 -36
c0 -18.667 9.83301 -31.667 29.5 -39s49.167 -15.333 88.5 -24c21.333 -4.66699 42.166 -10.167 62.499 -16.5s38.5 -15.166 54.5 -26.499s28.833 -25.833 38.5 -43.5s14.5 -40.167 14.5 -67.5s-5 -51 -15 -71s-23.833 -36.5 -41.5 -49.5s-39 -22.667 -64 -29
s-52.5 -9.5 -82.5 -9.5c-48 0 -91.667 8 -131 24s-69.666 41.667 -90.999 77l74 71c15.333 -26 36.833 -44.833 64.5 -56.5s57.834 -17.5 90.501 -17.5c25.333 0 46 4.16699 62 12.5s24 22.166 24 41.499s-9 32.833 -27 40.5s-46 15.5 -84 23.5
c-19.333 4 -39.5 9.16699 -60.5 15.5s-40.167 15.166 -57.5 26.499s-31.5 26.166 -42.5 44.499s-16.5 41.166 -16.5 68.499zM164.997 -243.996l47 76c-12.667 5.33301 -23 13.833 -31 25.5s-12 25.167 -12 40.5c0 19.333 6.83301 35.833 20.5 49.5s30.167 20.5 49.5 20.5
s36 -6.83301 50 -20.5s21 -30.167 21 -49.5c0 -14 -4 -26.667 -12 -38l-81 -136z" />
    <glyph glyph-name="uni021A" unicode="&#x21a;" horiz-adv-x="653" 
d="M384 586v-586h-114v586h-265v114h643v-114h-264zM254 -244l47 76c-12.667 5.33301 -23 13.833 -31 25.5s-12 25.167 -12 40.5c0 19.333 6.83301 35.833 20.5 49.5s30.167 20.5 49.5 20.5s36 -6.83301 50 -20.5s21 -30.167 21 -49.5c0 -14 -4 -26.667 -12 -38l-81 -136z
" />
    <glyph glyph-name="uni021B" unicode="&#x21b;" horiz-adv-x="378" 
d="M348 9c-32 -9.33301 -64.332 -14 -96.999 -14c-46 0 -81.167 11.333 -105.5 34s-36.5 61.667 -36.5 117v262h-95v92h95v134h108v-134h132v-92h-132v-255c0 -17.333 4.16699 -30.5 12.5 -39.5s22.166 -13.5 41.499 -13.5c13.333 0 25.5 0.666992 36.5 2
s24.5 3.33301 40.5 6v-99zM162.001 -244l47 76c-12.667 5.33301 -23 13.833 -31 25.5s-12 25.167 -12 40.5c0 19.333 6.83301 35.833 20.5 49.5s30.167 20.5 49.5 20.5s36 -6.83301 50 -20.5s21 -30.167 21 -49.5c0 -14 -4 -26.667 -12 -38l-81 -136z" />
    <glyph glyph-name="apostrophemod" unicode="&#x2bc;" horiz-adv-x="262" 
d="M40 429l71.002 121c-16 5.33301 -29.167 15.333 -39.5 30s-15.5 30.667 -15.5 48c0 11.333 2.16699 22 6.5 32s10.166 18.833 17.499 26.5s16 13.834 26 18.501s21 7 33 7s23 -2.33301 33 -7s18.667 -10.834 26 -18.501s13.166 -16.5 17.499 -26.5s6.5 -20.667 6.5 -32
c0 -16 -4.33301 -30.333 -13 -43l-110 -189z" />
    <glyph glyph-name="circumflex" unicode="&#x2c6;" horiz-adv-x="460" 
d="M230 768l180 -154l-57 -62l-123 106l-123 -106l-57 62z" />
    <glyph glyph-name="caron" unicode="&#x2c7;" horiz-adv-x="460" 
d="M353 771l57 -62l-180 -154l-180 154l57 62l123 -106z" />
    <glyph glyph-name="breve" unicode="&#x2d8;" horiz-adv-x="398" 
d="M348 731c0 -46 -13.167 -83.667 -39.5 -113s-62.833 -44 -109.5 -44s-83.167 14.667 -109.5 44s-39.5 67 -39.5 113h87c0 -22.667 5.33301 -40.334 16 -53.001s26 -19 46 -19s35.333 6.33301 46 19s16 30.334 16 53.001h87z" />
    <glyph glyph-name="dotaccent" unicode="&#x2d9;" horiz-adv-x="252" 
d="M50 644c0 21.333 7.33301 39.333 22 54s32.667 22 54 22s39.333 -7.33301 54 -22s22 -32.667 22 -54s-7.33301 -39.333 -22 -54s-32.667 -22 -54 -22s-39.333 7.33301 -54 22s-22 32.667 -22 54z" />
    <glyph glyph-name="ring" unicode="&#x2da;" horiz-adv-x="341" 
d="M50 683c0 35.333 11.333 64.333 34 87s51.667 34 87 34c34.667 0 63.334 -11.333 86.001 -34s34 -51.667 34 -87s-11.333 -64.166 -34 -86.499s-51.334 -33.5 -86.001 -33.5c-35.333 0 -64.333 11.167 -87 33.5s-34 51.166 -34 86.499zM223 683
c0 15.333 -4.83301 28 -14.5 38s-22.167 15 -37.5 15s-28 -5 -38 -15s-15 -22.667 -15 -38s5 -28 15 -38s22.667 -15 38 -15s27.833 5 37.5 15s14.5 22.667 14.5 38z" />
    <glyph glyph-name="ogonek" unicode="&#x2db;" horiz-adv-x="269" 
d="M219 36c-32 -27.333 -54.333 -50.333 -67 -69s-19 -34.334 -19 -47.001c0 -7.33301 2.66699 -13.666 8 -18.999s13.666 -8 24.999 -8c5.33301 0 11.666 0.666992 18.999 2s16 3 26 5v-79c-10 -3.33301 -20.167 -5.83301 -30.5 -7.5s-20.833 -2.5 -31.5 -2.5
c-29.333 0 -53.166 7.83301 -71.499 23.5s-27.5 37.167 -27.5 64.5c0 21.333 6.83301 42.5 20.5 63.5s36.834 45.5 69.501 73.5h79z" />
    <glyph glyph-name="tilde" unicode="&#x2dc;" horiz-adv-x="456" 
d="M289 565c-12.667 0 -24.667 2.33398 -36 7.00098s-22.166 10 -32.499 16l-28.5 16c-8.66699 4.66699 -17 7 -25 7c-10 0 -20.167 -4.33301 -30.5 -13s-20.5 -18 -30.5 -28l-56 57l24 25c8.66699 8.66699 18 16.5 28 23.5s20.5 12.833 31.5 17.5s22.167 7 33.5 7
c12.667 0 24.667 -2.33301 36 -7s22.166 -9.83398 32.499 -15.501l28.5 -15.5c8.66699 -4.66699 17 -7 25 -7c10.667 0 21 4.16699 31 12.5s20 17.5 30 27.5l56 -57l-24 -25c-8.66699 -8.66699 -18 -16.5 -28 -23.5s-20.333 -12.833 -31 -17.5s-22 -7 -34 -7z" />
    <glyph glyph-name="hungarumlaut" unicode="&#x2dd;" horiz-adv-x="458" 
d="M169 791l74 -52l-122 -174l-71 49zM334 778l74 -52l-121 -173l-72 48z" />
    <glyph glyph-name="Delta" unicode="&#x394;" horiz-adv-x="716" 
d="M387 744l309 -744h-676l308 744h59zM358 553l-188 -478h377z" />
    <glyph glyph-name="Omega" unicode="&#x3a9;" horiz-adv-x="757" 
d="M33 0l-0.00195312 96h130c-19.333 15.333 -37.166 32.333 -53.499 51s-30.5 39 -42.5 61s-21.5 46.333 -28.5 73s-10.5 55.667 -10.5 87c0 51.333 8.83301 98.166 26.5 140.499s42.167 78.5 73.5 108.5s68.333 53.333 111 70s89 25 139 25s96.333 -8.33301 139 -25
s79.667 -40 111 -70s55.833 -66.167 73.5 -108.5s26.5 -89.166 26.5 -140.499c0 -31.333 -3.5 -60.333 -10.5 -87s-16.5 -51 -28.5 -73s-26.167 -42.333 -42.5 -61s-33.833 -35.667 -52.5 -51h130v-96h-302v96c26 15.333 50.5 32 73.5 50s43 38 60 60s30.5 46 40.5 72
s15 55 15 87c0 35.333 -5.83301 67.5 -17.5 96.5s-28 53.667 -49 74s-45.667 36.166 -74 47.499s-59.166 17 -92.499 17s-64 -5.66699 -92 -17s-52.5 -27.166 -73.5 -47.499s-37.333 -45 -49 -74s-17.5 -61.167 -17.5 -96.5c0 -32 5 -61 15 -87s23.5 -50 40.5 -72
s37 -42 60 -60s47.5 -34.667 73.5 -50v-96h-302z" />
    <glyph glyph-name="mu" unicode="&#x3bc;" 
d="M279 -12c-15.333 0 -29.3311 1.16699 -41.998 3.5s-24.667 5.5 -36 9.5v-201h-103v700h111v-288c0 -37.333 7.16699 -66.833 21.5 -88.5s40.166 -32.5 77.499 -32.5c24 0 44 4.5 60 13.5s28.833 21.333 38.5 37s16.667 34 21 55s6.5 43.5 6.5 67.5v236h108v-500h-104v74
c-18.667 -27.333 -40.334 -48.5 -65.001 -63.5s-56 -22.5 -94 -22.5z" />
    <glyph glyph-name="pi" unicode="&#x3c0;" 
d="M604 500v-114h-87v-386h-111v386h-127l-85 -386h-113l83 386c-30.667 -1.33301 -56.334 -3.83301 -77.001 -7.5s-38 -7.16699 -52 -10.5v100c17.333 8 38.333 15.333 63 22s53.334 10 86.001 10h420z" />
    <glyph glyph-name="THB" unicode="&#xe3f;" horiz-adv-x="609" 
d="M294 407v179h-90v-179h90zM341 586v-179h18c25.333 0 46 8.5 62 25.5s24 39.167 24 66.5c0 26 -8.16699 47 -24.5 63s-37.833 24 -64.5 24h-15zM294 114v179h-90v-179h90zM341 293v-179.001h15c26.667 0 48.167 7.83301 64.5 23.5s24.5 36.834 24.5 63.501
c0 27.333 -8 49.5 -24 66.5s-36.667 25.5 -62 25.5h-18zM341 -0.000976562v-79.9961h-47v80h-204v700h204v80h47v-80h16c30 0 57.333 -4.83301 82 -14.5s45.834 -23.167 63.501 -40.5s31.5 -38 41.5 -62s15 -50.333 15 -79c0 -34.667 -7.83301 -65.334 -23.5 -92.001
s-36.5 -47.334 -62.5 -62.001c26.667 -14.667 47.667 -35.334 63 -62.001s23 -57.334 23 -92.001c0 -28.667 -5 -55 -15 -79s-23.833 -44.667 -41.5 -62s-38.834 -30.833 -63.501 -40.5s-52 -14.5 -82 -14.5h-16z" />
    <glyph glyph-name="Wgrave" unicode="&#x1e80;" horiz-adv-x="1230" 
d="M524 922l218 -136l-48 -75l-219 134zM285 0l-275 700h123l203 -518l223 518h111l224 -518l203 518h123l-275 -700h-97l-233 538l-233 -538h-97z" />
    <glyph glyph-name="wgrave" unicode="&#x1e81;" horiz-adv-x="859" 
d="M338 767l218 -136l-48 -75l-219 134zM208 0l-204 500h120l127 -336l137 336h83l137 -336l127 336h120l-204 -500h-82l-140 329l-139 -329h-82z" />
    <glyph glyph-name="Wacute" unicode="&#x1e82;" horiz-adv-x="1230" 
d="M709 922l49 -77l-219 -135l-48 76zM285 0l-275 700h123l203 -518l223 518h111l224 -518l203 518h123l-275 -700h-97l-233 538l-233 -538h-97z" />
    <glyph glyph-name="wacute" unicode="&#x1e83;" horiz-adv-x="859" 
d="M516 767l49 -77l-219 -135l-48 76zM208 0l-204 500h120l127 -336l137 336h83l137 -336l127 336h120l-204 -500h-82l-140 329l-139 -329h-82z" />
    <glyph glyph-name="Wdieresis" unicode="&#x1e84;" horiz-adv-x="1230" 
d="M442 805c0 20.667 7 38 21 52s31.333 21 52 21s38 -7 52 -21s21 -31.333 21 -52s-7 -38 -21 -52s-31.333 -21 -52 -21s-38 7 -52 21s-21 31.333 -21 52zM646 805c0 20.667 7 38 21 52s31.333 21 52 21s37.834 -7 51.501 -21s20.5 -31.333 20.5 -52
s-6.83301 -38 -20.5 -52s-30.834 -21 -51.501 -21s-38 7 -52 21s-21 31.333 -21 52zM285 0l-275 700h123l203 -518l223 518h111l224 -518l203 518h123l-275 -700h-97l-233 538l-233 -538h-97z" />
    <glyph glyph-name="wdieresis" unicode="&#x1e85;" horiz-adv-x="859" 
d="M253 644c0 20.667 7 38 21 52s31.333 21 52 21s38 -7 52 -21s21 -31.333 21 -52s-7 -38 -21 -52s-31.333 -21 -52 -21s-38 7 -52 21s-21 31.333 -21 52zM457 644c0 20.667 7 38 21 52s31.333 21 52 21s37.834 -7 51.501 -21s20.5 -31.333 20.5 -52
s-6.83301 -38 -20.5 -52s-30.834 -21 -51.501 -21s-38 7 -52 21s-21 31.333 -21 52zM208 0l-204 500h120l127 -336l137 336h83l137 -336l127 336h120l-204 -500h-82l-140 329l-139 -329h-82z" />
    <glyph glyph-name="Ygrave" unicode="&#x1ef2;" horiz-adv-x="685" 
d="M249 922l218 -136l-48 -75l-219 134zM285 0v283l-283 417h138l202 -297l203 297h138l-284 -417v-283h-114z" />
    <glyph glyph-name="ygrave" unicode="&#x1ef3;" horiz-adv-x="531" 
d="M177 767l218 -136l-48 -75l-219 134zM96 -200l123 269l-215 431h128l144 -306l140 306h115l-320 -700h-115z" />
    <glyph glyph-name="endash" unicode="&#x2013;" horiz-adv-x="916" 
d="M846 362v-114h-776v114h776z" />
    <glyph glyph-name="emdash" unicode="&#x2014;" horiz-adv-x="1347" 
d="M1277 362v-114h-1207v114h1207z" />
    <glyph glyph-name="quoteleft" unicode="&#x2018;" horiz-adv-x="262" 
d="M123 396c-12 0 -23.002 2.33398 -33.002 7.00098s-18.667 10.834 -26 18.501s-13.166 16.5 -17.499 26.5s-6.5 20.667 -6.5 32c0 15.333 4.33301 29.666 13 42.999l110 189l59 -33l-71 -121c16 -5.33301 29.167 -15.333 39.5 -30s15.5 -30.667 15.5 -48
c0 -11.333 -2.16699 -22 -6.5 -32s-10.166 -18.833 -17.499 -26.5s-16 -13.834 -26 -18.501s-21 -7 -33 -7z" />
    <glyph glyph-name="quoteright" unicode="&#x2019;" horiz-adv-x="262" 
d="M40 429l71.002 121c-16 5.33301 -29.167 15.333 -39.5 30s-15.5 30.667 -15.5 48c0 11.333 2.16699 22 6.5 32s10.166 18.833 17.499 26.5s16 13.834 26 18.501s21 7 33 7s23 -2.33301 33 -7s18.667 -10.834 26 -18.501s13.166 -16.5 17.499 -26.5s6.5 -20.667 6.5 -32
c0 -16 -4.33301 -30.333 -13 -43l-110 -189z" />
    <glyph glyph-name="quotesinglbase" unicode="&#x201a;" horiz-adv-x="262" 
d="M40 -116l71.002 121c-16 5.33301 -29.167 15.333 -39.5 30s-15.5 30.667 -15.5 48c0 11.333 2.16699 22 6.5 32s10.166 18.833 17.499 26.5s16 13.834 26 18.501s21 7 33 7s23 -2.33301 33 -7s18.667 -10.834 26 -18.501s13.166 -16.5 17.499 -26.5s6.5 -20.667 6.5 -32
c0 -16 -4.33301 -30.333 -13 -43l-110 -189z" />
    <glyph glyph-name="quotedblleft" unicode="&#x201c;" horiz-adv-x="469" 
d="M330 397c-12 0 -23.001 2.33301 -33.001 7s-18.667 10.667 -26 18s-13.166 16 -17.499 26s-6.5 20.667 -6.5 32c0 15.333 4.33301 30 13 44l110 188l59 -33l-72 -120c17.333 -6 31 -16.167 41 -30.5s15 -30.5 15 -48.5c0 -22 -7.83301 -41.333 -23.5 -58
s-35.5 -25 -59.5 -25zM122.999 397c-12 0 -23.002 2.33203 -33.002 6.99902s-18.667 10.667 -26 18s-13.166 16 -17.499 26s-6.5 20.667 -6.5 32c0 15.333 4.33301 30 13 44l110 188l59 -33l-72 -121c16.667 -5.33301 30.167 -15.166 40.5 -29.499s15.5 -30.5 15.5 -48.5
c0 -11.333 -2.16699 -22 -6.5 -32s-10.166 -18.667 -17.499 -26s-16 -13.333 -26 -18s-21 -7 -33 -7z" />
    </font>
</defs>
</svg>
