<svg fill="none" height="130" width="130" xmlns="http://www.w3.org/2000/svg"><path d="M86.195 63.584c0-4.204-1.243-8.315-3.572-11.81s-5.64-6.222-9.512-7.83c-3.873-1.61-8.135-2.03-12.247-1.21s-7.888 2.844-10.852 5.818a21.28 21.28 0 0 0-5.8 10.885 21.32 21.32 0 0 0 1.205 12.283c1.605 3.885 4.321 7.205 7.807 9.541s7.583 3.583 11.775 3.583A21.188 21.188 0 0 0 79.98 78.61a21.317 21.317 0 0 0 6.215-15.026zM65 82.01a18.33 18.33 0 0 1-10.206-3.105 18.413 18.413 0 0 1-6.766-8.269 18.476 18.476 0 0 1-1.045-10.645 18.441 18.441 0 0 1 5.027-9.434 18.352 18.352 0 0 1 9.406-5.042 18.318 18.318 0 0 1 10.613 1.048 18.382 18.382 0 0 1 8.244 6.786 18.465 18.465 0 0 1 3.096 10.237 18.474 18.474 0 0 1-5.386 13.022 18.362 18.362 0 0 1-12.984 5.402zM28.26 63.584a36.929 36.929 0 0 0 6.192 20.473A36.762 36.762 0 0 0 50.94 97.63c6.713 2.789 14.1 3.519 21.227 2.097s13.673-4.931 18.81-10.085a36.88 36.88 0 0 0 10.055-18.868 36.954 36.954 0 0 0-2.09-21.29c-2.78-6.734-7.49-12.489-13.531-16.538s-13.145-6.21-20.412-6.21c-9.74.01-19.078 3.897-25.966 10.805S28.272 53.815 28.261 63.584zm70.652 0a34.09 34.09 0 0 1-5.715 18.898 33.935 33.935 0 0 1-15.22 12.528 33.817 33.817 0 0 1-19.594 1.936 33.88 33.88 0 0 1-17.363-9.31 34.047 34.047 0 0 1-9.282-17.416c-1.308-6.598-.637-13.437 1.93-19.653s6.914-11.528 12.49-15.265A33.84 33.84 0 0 1 65 29.569a33.9 33.9 0 0 1 23.97 9.974 34.106 34.106 0 0 1 9.943 24.041zM38.45 75.207a1.425 1.425 0 0 1-.735 1.871c-.178.078-.371.117-.565.113a1.423 1.423 0 0 1-1.3-.85 1.413 1.413 0 0 1 .734-1.857 1.417 1.417 0 0 1 1.866.723zm-4.96-15.888a1.417 1.417 0 0 1 .99-1.168 1.407 1.407 0 0 1 1.47.421 1.417 1.417 0 0 1-1.061 2.348.813.813 0 0 1-.184-.013 1.413 1.413 0 0 1-.935-.542 1.421 1.421 0 0 1-.28-1.046zm1.61 9.879a1.409 1.409 0 0 1-1.482-.815 1.42 1.42 0 0 1 .89-1.947 1.409 1.409 0 0 1 1.794 1.16h.013a1.434 1.434 0 0 1-1.214 1.602zm7.461 12.756a1.433 1.433 0 0 1-.197 1.998 1.443 1.443 0 0 1-.905.326 1.413 1.413 0 0 1-1.193-.666 1.425 1.425 0 0 1 1.028-2.167 1.414 1.414 0 0 1 1.267.509zm5.765 5.4a1.405 1.405 0 0 1 .564 1.465 1.412 1.412 0 0 1-.224.504 1.371 1.371 0 0 1-1.145.595 1.468 1.468 0 0 1-.82-.254 1.414 1.414 0 0 1 .574-2.546c.368-.064.746.02 1.051.236zm36.372-45.071a1.42 1.42 0 0 1 .908-2.452c.373-.016.738.117 1.014.369a1.431 1.431 0 0 1 .07 2.012 1.434 1.434 0 0 1-1.992.071zm-48.891 8.66a1.412 1.412 0 0 1 1.176-.836 1.404 1.404 0 0 1 1.293.638 1.415 1.415 0 0 1-1.183 2.182 1.537 1.537 0 0 1-.551-.113 1.415 1.415 0 0 1-.853-1.33c.003-.186.043-.37.118-.541zm53.893-2.551a1.42 1.42 0 0 1 .714-2.07 1.407 1.407 0 0 1 1.526.368 1.417 1.417 0 0 1-.304 2.17 1.378 1.378 0 0 1-1.424.029c-.21-.12-.386-.29-.512-.497zm2.473 31.762a1.42 1.42 0 0 1-1.216.68 1.374 1.374 0 0 1-.72-.212 1.417 1.417 0 0 1-.664-1.431 1.42 1.42 0 0 1 1.066-1.161 1.41 1.41 0 0 1 1.476.546 1.42 1.42 0 0 1 .058 1.578zM64.363 94.085a1.4 1.4 0 0 1-1.398 1.317h-.1a1.406 1.406 0 0 1-1.241-.955 1.417 1.417 0 0 1 .405-1.517 1.406 1.406 0 0 1 2.149.356c.139.242.204.52.185.799zm-8.167-1.29a1.432 1.432 0 0 1-1.342.936 1.333 1.333 0 0 1-.467-.072 1.417 1.417 0 0 1-.94-1.265 1.425 1.425 0 0 1 .805-1.357 1.413 1.413 0 0 1 1.982.934c.07.272.056.559-.038.824zm21.436-56.961a1.403 1.403 0 0 1 1.363-.775c.185.014.365.066.53.151h.015a1.428 1.428 0 0 1 .086 2.474 1.4 1.4 0 0 1-.737.204 1.405 1.405 0 0 1-1.408-1.526c.015-.184.066-.364.15-.528zm-7.928-2.396a1.42 1.42 0 0 1 1.116-1.108 1.409 1.409 0 0 1 1.449.61 1.42 1.42 0 0 1 .206 1.065 1.435 1.435 0 0 1-1.385 1.134 1.401 1.401 0 0 1-1.39-1.146 1.416 1.416 0 0 1 .004-.555zM95.38 62.04a1.405 1.405 0 0 1 1.307.874c.07.173.106.357.106.543v.128a1.42 1.42 0 0 1-1.413 1.418 1.42 1.42 0 0 1-1.413-1.417v-.114a1.421 1.421 0 0 1 .868-1.323c.173-.072.358-.11.545-.109zM46.262 39.561a1.431 1.431 0 0 1 .34-1.984 1.406 1.406 0 0 1 1.96.343 1.417 1.417 0 0 1-.335 1.967 1.314 1.314 0 0 1-.805.27 1.43 1.43 0 0 1-1.16-.596zm26.325 53.574a1.416 1.416 0 0 1-.582 1.456 1.403 1.403 0 0 1-.506.216 2.036 2.036 0 0 1-.297.029 1.413 1.413 0 0 1-1.392-1.277 1.423 1.423 0 0 1 1.11-1.53 1.412 1.412 0 0 1 1.667 1.106zm7.66-3.146a1.429 1.429 0 0 1-.56 1.879 1.42 1.42 0 0 1-.685.19 1.426 1.426 0 0 1-1.354-1.846 1.413 1.413 0 0 1 1.224-.985 1.407 1.407 0 0 1 1.374.762zM53.411 35.366a1.397 1.397 0 0 1 .848-1.8 1.41 1.41 0 0 1 1.809.85 1.421 1.421 0 0 1-.848 1.814 1.401 1.401 0 0 1-1.809-.864zm8.012-2.084a1.417 1.417 0 0 1 .78-1.358 1.406 1.406 0 0 1 1.986.893 1.418 1.418 0 0 1-.492 1.488c-.22.172-.484.274-.761.295h-.1a1.406 1.406 0 0 1-1.413-1.318zM95.62 72.187a1.409 1.409 0 0 1-1.357 1.035 1.174 1.174 0 0 1-.381-.057 1.406 1.406 0 0 1-1.018-1.193 1.417 1.417 0 0 1 .043-.55 1.415 1.415 0 0 1 1.19-1.034 1.406 1.406 0 0 1 1.403.717 1.417 1.417 0 0 1 .12 1.082zm-8.846 12.685a1.43 1.43 0 0 1-.057 2.013 1.419 1.419 0 0 1-1.557.254 1.417 1.417 0 0 1-.826-1.34 1.42 1.42 0 0 1 1.455-1.368c.374.01.728.17.985.441zm6.09-29.24a1.427 1.427 0 0 1 .483-1.503 1.415 1.415 0 0 1 2.142.465 1.426 1.426 0 0 1-.872 2.017 1.776 1.776 0 0 1-.382.056 1.43 1.43 0 0 1-1.37-1.034zM40.497 45.515a1.415 1.415 0 0 1-.215-2 1.412 1.412 0 0 1 1.996-.197 1.399 1.399 0 0 1 .459 1.499 1.403 1.403 0 0 1-.261.485 1.353 1.353 0 0 1-1.088.524 1.368 1.368 0 0 1-.89-.311zm20.235 43.922c-.08.002-.16-.003-.24-.014a1.438 1.438 0 0 1-1.16-1.644 1.419 1.419 0 0 1 1.022-1.126 1.41 1.41 0 0 1 1.77 1.176 1.421 1.421 0 0 1-.634 1.382 1.41 1.41 0 0 1-.758.226zm7.094-50.542a1.418 1.418 0 0 1 1.021-1.124 1.409 1.409 0 0 1 1.448.452 1.418 1.418 0 0 1-1.07 2.331c-.081.003-.162-.002-.241-.014a1.422 1.422 0 0 1-1.158-1.644zm20.489 24.69v-.1a1.419 1.419 0 0 1 1.406-1.423c.374-.002.735.145 1 .41s.418.624.42 1v.113c0 .376-.15.737-.414 1.003a1.411 1.411 0 0 1-2.412-1.003zM78.084 86.29a1.428 1.428 0 0 1-1.936-.525 1.42 1.42 0 0 1 .523-1.927 1.388 1.388 0 0 1 1.921.51 1.419 1.419 0 0 1-.508 1.942zM43.069 55.633a1.414 1.414 0 0 1-1.328.935 1.413 1.413 0 0 1-1.411-1.353 1.42 1.42 0 0 1 .812-1.346 1.407 1.407 0 0 1 1.551.236 1.418 1.418 0 0 1 .376 1.528zm39.734-7.143a1.42 1.42 0 0 1 .399-2.156 1.41 1.41 0 0 1 2.03.812 1.421 1.421 0 0 1-.436 1.514 1.393 1.393 0 0 1-.905.326 1.43 1.43 0 0 1-1.088-.496zm2.233 31.946a1.452 1.452 0 0 1-1.088.496 1.34 1.34 0 0 1-.904-.326 1.404 1.404 0 0 1-.44-1.515c.057-.178.149-.342.27-.484h-.014a1.418 1.418 0 0 1 2.491.793c.035.374-.078.746-.315 1.036zM76.063 41.36a1.407 1.407 0 0 1 1.398-.696 1.403 1.403 0 0 1 1.177 1.028 1.414 1.414 0 0 1-.495 1.485 1.405 1.405 0 0 1-1.557.11 1.42 1.42 0 0 1-.523-1.927zm-6.5 48.046c-.084.012-.169.017-.254.015a1.406 1.406 0 0 1-1.271-.824 1.417 1.417 0 0 1 .862-1.94 1.406 1.406 0 0 1 1.808 1.106 1.438 1.438 0 0 1-1.144 1.643zm18.158-35.73a1.411 1.411 0 0 1 1.816.843 1.423 1.423 0 0 1-.84 1.821 1.413 1.413 0 0 1-1.877-1.082 1.423 1.423 0 0 1 .9-1.582zM51.363 42.85a1.419 1.419 0 0 1 1.577-2.09 1.393 1.393 0 0 1 .854.659 1.42 1.42 0 0 1-.508 1.942c-.216.121-.46.185-.707.184a1.383 1.383 0 0 1-1.216-.695zM43.098 71.62a1.438 1.438 0 0 1-.835 1.829 1.51 1.51 0 0 1-.494.085 1.411 1.411 0 0 1-1.25-.763 1.423 1.423 0 0 1 .68-1.95 1.41 1.41 0 0 1 1.899.8zm46.474.935a1.419 1.419 0 0 1-1.328.922 1.43 1.43 0 0 1-.954-.37 1.409 1.409 0 0 1-.375-1.53 1.42 1.42 0 0 1 1.271-.933 1.41 1.41 0 0 1 1.344.824 1.422 1.422 0 0 1 .042 1.087zm-49.3-7.497c-.375 0-.735-.149-1-.415a1.42 1.42 0 0 1 1.999-2.014 1.399 1.399 0 0 1 .414.998c-.001.377-.15.738-.414 1.006-.265.268-.624.421-1 .425zm4.846-16.285a1.425 1.425 0 0 1 .411-2.433 1.416 1.416 0 0 1 1.72.62 1.427 1.427 0 0 1-.313 1.805c-.256.216-.58.334-.914.334a1.343 1.343 0 0 1-.904-.326zm14.13-9.354a1.403 1.403 0 0 1 .627-1.447c.158-.1.334-.166.518-.197a1.405 1.405 0 0 1 1.44.632c.1.157.167.332.199.516a1.438 1.438 0 0 1-1.145 1.644c-.084.012-.17.017-.254.015a1.405 1.405 0 0 1-1.385-1.163zM46.983 80.634a1.381 1.381 0 0 1-1.978-.17h-.014a1.433 1.433 0 0 1 .17-1.998 1.44 1.44 0 0 1 2.006.17l-.015.014a1.388 1.388 0 0 1-.169 1.984zm5.68 5.868a1.417 1.417 0 0 1-1.38-1.047 1.428 1.428 0 0 1 .655-1.606 1.415 1.415 0 0 1 1.717.223 1.425 1.425 0 0 1 .224 1.722 1.402 1.402 0 0 1-1.215.708zm12.068-65.451a1.416 1.416 0 0 1 1.413 1.417 1.398 1.398 0 0 1-.41.993 1.357 1.357 0 0 1-.99.425 44.128 44.128 0 0 0-4.083.227.647.647 0 0 1-.155.013 1.418 1.418 0 0 1-1.27-.81 1.43 1.43 0 0 1 .168-1.5 1.353 1.353 0 0 1 .947-.51 45.003 45.003 0 0 1 4.38-.255zm16.674 83.181c.132.354.121.745-.029 1.092a1.395 1.395 0 0 1-.791.737 1.47 1.47 0 0 1-.495.099 1.419 1.419 0 0 1-1.395-1.163 1.425 1.425 0 0 1 .887-1.587 1.441 1.441 0 0 1 1.823.822zm-.962-80.347a43.95 43.95 0 0 1 9.058 4.692 1.413 1.413 0 0 1 .596 1.46 1.42 1.42 0 0 1-1.11 1.107 1.398 1.398 0 0 1-1.054-.214 42.237 42.237 0 0 0-8.478-4.394 1.42 1.42 0 0 1-.834-1.828 1.449 1.449 0 0 1 1.823-.823zM43.21 28.492a1.428 1.428 0 0 1-.127-1.077 1.423 1.423 0 0 1 1.2-1.018 1.414 1.414 0 0 1 1.4.72c.18.329.227.715.127 1.077-.108.36-.35.666-.678.85-.208.116-.44.179-.678.185a1.418 1.418 0 0 1-1.244-.737zm-22 38.04c-.014-.482-.029-.978-.029-1.516 0-.964.028-1.928.1-2.877a1.408 1.408 0 1 1 2.812.198 41.681 41.681 0 0 0-.086 2.679c0 .439.015.92.028 1.431a1.43 1.43 0 0 1-1.37 1.46h-.043a1.416 1.416 0 0 1-1.413-1.375zm70.256 33.491c-.246.194-.55.299-.863.298a1.43 1.43 0 0 1-1.058-.495 1.44 1.44 0 0 1-.34-1.121c.053-.373.251-.709.55-.936a1.452 1.452 0 0 1 1.979.27 1.436 1.436 0 0 1-.268 1.984zM32.74 39.631a41.928 41.928 0 0 0-4.96 8.178 1.423 1.423 0 0 1-2.326.372 1.4 1.4 0 0 1-.288-.47 1.457 1.457 0 0 1 .042-1.092 44.726 44.726 0 0 1 5.313-8.73 1.44 1.44 0 0 1 1.979-.242 1.398 1.398 0 0 1 .24 1.984zm73.124 22.196a41.99 41.99 0 0 0-.523-4.082 1.411 1.411 0 0 1 1.145-1.644 1.436 1.436 0 0 1 1.639 1.148c.254 1.432.438 2.905.551 4.35a1.413 1.413 0 0 1-.332 1.038 1.416 1.416 0 0 1-.968.493h-.099a1.414 1.414 0 0 1-1.413-1.303zM27.836 82.32c.156.344.171.736.043 1.091a1.41 1.41 0 0 1-2.089.696 1.44 1.44 0 0 1-.525-.596 1.425 1.425 0 0 1-.043-1.078 1.417 1.417 0 0 1 1.27-.938 1.41 1.41 0 0 1 1.344.825zm73.874-41.3a1.417 1.417 0 0 1-.41 1.956c-.225.15-.491.23-.763.226a1.403 1.403 0 0 1-1.213-.685 1.416 1.416 0 0 1 .46-1.924 1.403 1.403 0 0 1 1.926.426zm-57.821 62.474a44.524 44.524 0 0 1-8.31-5.924 1.429 1.429 0 0 1-.098-1.998 1.45 1.45 0 0 1 2.007-.1 40.975 40.975 0 0 0 7.771 5.542l.001.006.003.004c.002.002.003.003.005.003.002.001.004.002.006.001a1.391 1.391 0 0 1 .65.836 1.367 1.367 0 0 1-.113 1.078 1.421 1.421 0 0 1-1.243.737 1.468 1.468 0 0 1-.68-.185zm20.983 4.054a1.42 1.42 0 0 1-1.399 1.375h-.056a45.204 45.204 0 0 1-4.366-.383 1.42 1.42 0 0 1-1.173-1.05 1.397 1.397 0 0 1-.028-.552c.052-.369.247-.703.544-.929s.67-.325 1.038-.275c1.342.184 2.727.297 4.084.354a1.393 1.393 0 0 1 .98.448 1.42 1.42 0 0 1 .376 1.012zm36.16-20.097a1.417 1.417 0 0 1-.523-1.942 41.455 41.455 0 0 0 3.773-8.787 1.424 1.424 0 0 1 1.752-.95 1.301 1.301 0 0 1 .833.68 1.367 1.367 0 0 1 .114 1.078 43.795 43.795 0 0 1-4.028 9.396 1.394 1.394 0 0 1-1.215.709 1.349 1.349 0 0 1-.706-.184zm-80.93 1.564a50.934 50.934 0 0 1-3.902-9.6 1.421 1.421 0 0 1 .958-1.759 1.409 1.409 0 0 1 1.753.961 48.153 48.153 0 0 0 3.684 9.065 1.422 1.422 0 0 1-.581 1.918 1.409 1.409 0 0 1-1.912-.585zm1.71-50.976a51.396 51.396 0 0 1 6.32-8.2 1.412 1.412 0 0 1 2.437.939c.01.376-.13.74-.387 1.012a48.605 48.605 0 0 0-5.971 7.748 1.415 1.415 0 0 1-1.431.648 1.41 1.41 0 0 1-1.145-1.077 1.42 1.42 0 0 1 .177-1.07zm-6.281 28.215a1.407 1.407 0 0 1 1.352.801c.08.168.127.35.137.536.128 2.305.418 4.597.87 6.86a1.46 1.46 0 0 1-1.094 1.711c-.1.02-.201.03-.303.031a1.357 1.357 0 0 1-1.355-1.085c0-.007-.02-.101-.021-.107a51.717 51.717 0 0 1-.92-7.254 1.421 1.421 0 0 1 .8-1.355 1.41 1.41 0 0 1 .534-.138zm15.67-37.505a1.42 1.42 0 0 1 .122-2 50.851 50.851 0 0 1 5.873-4.492 1.41 1.41 0 0 1 1.953.414 1.421 1.421 0 0 1-.407 1.96 47.895 47.895 0 0 0-5.547 4.241 1.41 1.41 0 0 1-1.994-.123zm49.96-12.137a50.921 50.921 0 0 1 6.815 2.866 1.413 1.413 0 0 1 .774 1.373 1.421 1.421 0 0 1-.973 1.24 1.41 1.41 0 0 1-1.08-.086 48.22 48.22 0 0 0-6.436-2.706 1.413 1.413 0 0 1-.963-1.246 1.42 1.42 0 0 1 .782-1.368 1.408 1.408 0 0 1 1.08-.073zm-60.743 30.41a48.272 48.272 0 0 0-1.784 5.31 1.419 1.419 0 0 1-1.362 1.045 1.414 1.414 0 0 1-1.364-1.792 51.438 51.438 0 0 1 1.888-5.622 1.415 1.415 0 0 1 1.839-.785 1.415 1.415 0 0 1 .783 1.844zm46.144-30.195a1.41 1.41 0 0 1-1.284-.914 1.422 1.422 0 0 1 .826-1.83 1.41 1.41 0 0 1 .546-.09c3.454.11 6.888.575 10.247 1.388a1.414 1.414 0 0 1 1.043 1.71 1.417 1.417 0 0 1-1.705 1.045 47.61 47.61 0 0 0-9.673-1.309zm-1.846 97.808a1.418 1.418 0 0 1-1.412 1.371l-.047-.001A50.525 50.525 0 0 1 53.01 114.6a1.42 1.42 0 0 1-.4-2.587c.32-.196.704-.256 1.068-.167a47.673 47.673 0 0 0 9.672 1.327 1.404 1.404 0 0 1 .985.448 1.412 1.412 0 0 1 .38 1.015zm-5.317-98.944a1.421 1.421 0 0 1-.677 1.42 1.41 1.41 0 0 1-.52.185 49.157 49.157 0 0 0-5.477 1.115 1.41 1.41 0 0 1-1.724-1.012 1.421 1.421 0 0 1 1.005-1.73A51.932 51.932 0 0 1 57.8 14.49a1.415 1.415 0 0 1 1.6 1.2zM28.852 100.91a51.13 51.13 0 0 1-3.912-4.444 1.42 1.42 0 0 1 .242-1.986 1.41 1.41 0 0 1 1.981.236 48.182 48.182 0 0 0 3.695 4.197 1.42 1.42 0 0 1-1.01 2.413 1.414 1.414 0 0 1-.996-.416zm72.23-71.882a51.066 51.066 0 0 1 3.92 4.437 1.415 1.415 0 0 1 .298 1.046 1.41 1.41 0 0 1-.529.95 1.41 1.41 0 0 1-1.989-.243 48.434 48.434 0 0 0-3.703-4.19 1.42 1.42 0 0 1 1.005-2.415c.374 0 .733.15.998.415zm11.996 47.735c.362.1.669.34.854.666s.234.714.135 1.077a51.423 51.423 0 0 1-1.9 5.618 1.408 1.408 0 0 1-2.611.02 1.42 1.42 0 0 1-.008-1.084 48.344 48.344 0 0 0 1.793-5.306 1.41 1.41 0 0 1 1.737-.991zM99.757 98.276a48.438 48.438 0 0 0 5.984-7.737 1.41 1.41 0 0 1 2.576.433c.084.367.02.752-.179 1.07a51.364 51.364 0 0 1-6.335 8.19 1.421 1.421 0 0 1-.99.442 1.402 1.402 0 0 1-1.011-.39 1.42 1.42 0 0 1-.045-2.008zm16.05-35.929a1.434 1.434 0 0 1-.36 1.023 1.43 1.43 0 0 1-.976.468 1.414 1.414 0 0 1-1.048-.387 1.419 1.419 0 0 1-.438-.953 49.038 49.038 0 0 0-.875-6.947l-.036-.176a1.418 1.418 0 0 1 1.108-1.668 1.41 1.41 0 0 1 1.663 1.111l.033.162c.485 2.43.795 4.892.929 7.367zm-36.894 50.281a1.42 1.42 0 0 1-1.01 1.729 51.289 51.289 0 0 1-5.794 1.169 1.405 1.405 0 0 1-1.05-.268 1.42 1.42 0 0 1 .651-2.538 49.705 49.705 0 0 0 5.479-1.104 1.4 1.4 0 0 1 1.071.147 1.418 1.418 0 0 1 .653.865zm19.694-9.312a50.866 50.866 0 0 1-5.883 4.48 1.407 1.407 0 0 1-1.953-.417 1.419 1.419 0 0 1 .413-1.959 48.162 48.162 0 0 0 5.554-4.231 1.411 1.411 0 0 1 2.345 1.153 1.416 1.416 0 0 1-.476.974zM48.75 113.361a50.986 50.986 0 0 1-6.81-2.877 1.415 1.415 0 0 1-.618-1.906 1.413 1.413 0 0 1 1.9-.62 48.255 48.255 0 0 0 6.434 2.718 1.41 1.41 0 0 1 .97 1.249 1.423 1.423 0 0 1-.79 1.371 1.406 1.406 0 0 1-1.086.065zm58.612-71.118a1.41 1.41 0 0 1-.108-1.08 1.421 1.421 0 0 1 1.215-1.002 1.407 1.407 0 0 1 1.385.745 50.985 50.985 0 0 1 3.92 9.592 1.422 1.422 0 0 1-.955 1.76 1.408 1.408 0 0 1-1.755-.957 48.195 48.195 0 0 0-3.702-9.058zM9.453 49.935a1.428 1.428 0 0 1-.127-1.077 60.12 60.12 0 0 1 3.66-9.467 1.448 1.448 0 0 1 1.893-.652 1.424 1.424 0 0 1 .65 1.9 54.442 54.442 0 0 0-3.476 9.013 1.446 1.446 0 0 1-1.37 1.02 1.763 1.763 0 0 1-.382-.056 1.452 1.452 0 0 1-.848-.68zm73.238-40.28a1.411 1.411 0 0 1 .97 1.565 1.416 1.416 0 0 1-1.395 1.2 1.499 1.499 0 0 1-.438-.057 1.447 1.447 0 0 1-.972-1.239 1.368 1.368 0 0 1 .068-.547 1.416 1.416 0 0 1 1.767-.921zm-63.177 91.36a1.396 1.396 0 0 1-.123-1.568c.092-.161.216-.303.363-.416a1.448 1.448 0 0 1 1.978.227 54.558 54.558 0 0 0 6.613 7.03 1.413 1.413 0 0 1 .113 1.998 1.38 1.38 0 0 1-1.06.482 1.412 1.412 0 0 1-.932-.355 58.155 58.155 0 0 1-6.952-7.398zm19.5 14.358a1.425 1.425 0 0 1 1.893-.653 59.353 59.353 0 0 0 3.773 1.673 1.42 1.42 0 0 1-.522 2.735 1.638 1.638 0 0 1-.524-.099 55.56 55.56 0 0 1-3.97-1.772 1.415 1.415 0 0 1-.65-1.884zm-3.066-99.042a1.422 1.422 0 0 1 .536-1.927 66.604 66.604 0 0 1 3.858-1.999 1.45 1.45 0 0 1 1.88.68 1.413 1.413 0 0 1-.679 1.886 70.241 70.241 0 0 0-3.674 1.9c-.21.122-.449.186-.692.183a1.397 1.397 0 0 1-1.23-.723zM10.95 85.95v-.028a1.357 1.357 0 0 1 .028-1.077 1.4 1.4 0 0 1 .777-.752 1.463 1.463 0 0 1 1.837.823 1.43 1.43 0 0 1-1.328 1.927 1.46 1.46 0 0 1-1.314-.893zM54.585 8.253c.22-.305.55-.513.919-.581a56.929 56.929 0 0 1 9.82-.794h.283a1.426 1.426 0 0 1-.014 2.85c-.198-.016-.368-.016-.537-.016a53.996 53.996 0 0 0-9.086.766c-.075.012-.15.017-.226.014a1.41 1.41 0 0 1-1.399-1.19c-.056-.368.03-.743.24-1.049zM22.92 27.117a1.406 1.406 0 0 1-.07-1.998 1.463 1.463 0 0 1 2.006-.07c.265.263.422.617.438.99.008.37-.123.73-.368 1.007-.013 0-.013 0-.013.015a1.41 1.41 0 0 1-1.032.439c-.357 0-.701-.136-.961-.383zM7.192 68.984a66.155 66.155 0 0 1-.141-4.04v-.325a1.42 1.42 0 0 1 1.956-1.3 1.4 1.4 0 0 1 .87 1.314v.312c0 1.29.056 2.58.141 3.84a1.416 1.416 0 0 1-1.314 1.503.243.243 0 0 1-.099.014 1.426 1.426 0 0 1-1.413-1.318zm108.252 24.59c-.098.17-.183.326-.268.482a1.42 1.42 0 0 1-1.23.71 1.544 1.544 0 0 1-.706-.186 1.429 1.429 0 0 1-.522-1.927v-.014l.084-.128c.056-.099.113-.212.17-.311-.001-.002 0-.004.001-.006 0-.002.001-.003.003-.005l.004-.003a.016.016 0 0 1 .006 0 1.456 1.456 0 0 1 1.922-.54 1.42 1.42 0 0 1 .536 1.928zm-2.967-61.893a57.147 57.147 0 0 1 5.045 8.801 1.43 1.43 0 0 1-.678 1.885 1.418 1.418 0 0 1-1.88-.694 55.61 55.61 0 0 0-4.804-8.376 1.482 1.482 0 0 1-.24-1.063c.07-.37.283-.696.593-.908a1.435 1.435 0 0 1 1.964.355zm-8.026 73.955a1.377 1.377 0 0 1 .382 1.02 1.379 1.379 0 0 1-.125.536c-.078.168-.19.318-.328.442a53.693 53.693 0 0 1-3.292 2.849 1.436 1.436 0 0 1-.876.312 1.421 1.421 0 0 1-1.369-1.817c.082-.284.249-.536.48-.72a59.03 59.03 0 0 0 3.122-2.679l.014-.015a1.434 1.434 0 0 1 1.992.072zm-43.945 17.305a1.407 1.407 0 0 1-1.3-1.516 1.429 1.429 0 0 1 1.512-1.305h.014a1.418 1.418 0 0 1 1.288 1.479 1.418 1.418 0 0 1-1.416 1.356.255.255 0 0 1-.098-.014zm58.047-44.844c.311-1.304.594-2.664.82-4.04v-.013a1.418 1.418 0 0 1 1.625-1.162 1.318 1.318 0 0 1 .918.567 1.396 1.396 0 0 1 .255 1.048 60.839 60.839 0 0 1-.876 4.28 1.428 1.428 0 0 1-.642.873 1.406 1.406 0 0 1-1.938-.481 1.42 1.42 0 0 1-.162-1.072zm1.046-20.564a1.425 1.425 0 0 1 1.215-1.603c.371-.05.747.049 1.045.276a1.42 1.42 0 0 1 .27 1.984 1.409 1.409 0 0 1-.933.547 1.425 1.425 0 0 1-1.597-1.204zM87.41 118.59a58.291 58.291 0 0 1-9.637 3.089 1.163 1.163 0 0 1-.31.029 1.423 1.423 0 0 1-1.386-1.092 1.445 1.445 0 0 1 .184-1.077 1.396 1.396 0 0 1 .89-.623 55.71 55.71 0 0 0 9.171-2.948 1.433 1.433 0 0 1 1.851.765 1.425 1.425 0 0 1-.763 1.857zM98.206 17.38a58.269 58.269 0 0 1 3.461 2.622 1.364 1.364 0 0 1 .509.95 1.413 1.413 0 0 1-.35 1.094 1.398 1.398 0 0 1-1.049.465 1.342 1.342 0 0 1-.89-.312 57.345 57.345 0 0 0-3.307-2.494 1.429 1.429 0 0 1-.353-1.97 1.453 1.453 0 0 1 1.979-.355zM48.48 127.646a1.408 1.408 0 0 1 .722-2.06 1.4 1.4 0 0 1 .818-.038c3.281.81 6.622 1.35 9.99 1.616a1.407 1.407 0 0 1 1.286 1.531 1.415 1.415 0 0 1-1.4 1.304.27.27 0 0 1-.111-.015 65.631 65.631 0 0 1-10.443-1.686 1.424 1.424 0 0 1-.862-.652zM31.835 10.563a1.403 1.403 0 0 1 .509-1.942 1.416 1.416 0 0 1 2.042.768c.092.264.104.549.035.82-.1.363-.34.673-.664.864h-.014a1.41 1.41 0 0 1-1.908-.51zM98.05 119.511a1.367 1.367 0 0 1 .141 1.077 1.382 1.382 0 0 1-1.356 1.049 1.393 1.393 0 0 1-1.393-1.128 1.403 1.403 0 0 1 .023-.643 1.417 1.417 0 0 1 .663-.866 1.434 1.434 0 0 1 1.922.511zm-64.067-.454a1.422 1.422 0 0 1 .158 2.359c-.248.19-.552.293-.864.292a1.544 1.544 0 0 1-.707-.184 1.457 1.457 0 0 1-.664-.865 1.436 1.436 0 0 1 .156-1.077 1.45 1.45 0 0 1 1.922-.525zM95.38 8.947a1.45 1.45 0 0 1 1.935-.525 1.414 1.414 0 0 1 .65 1.59 1.416 1.416 0 0 1-1.356 1.047 1.354 1.354 0 0 1-.707-.184 1.415 1.415 0 0 1-.522-1.928zM81.815 126.541a1.44 1.44 0 0 1-.17 1.077 1.332 1.332 0 0 1-.862.638c-1.441.368-2.925.68-4.437.949-.08.016-.16.025-.24.029a1.42 1.42 0 0 1-1.13-2.284c.214-.282.527-.474.875-.537a60.818 60.818 0 0 0 4.254-.907 1.439 1.439 0 0 1 1.71 1.035zM48.057 3.491a1.457 1.457 0 0 1 .155-1.064 1.409 1.409 0 0 1 .876-.652 59.6 59.6 0 0 1 4.423-.95 1.4 1.4 0 0 1 1.44.632c.1.157.168.333.2.517a1.386 1.386 0 0 1-.227 1.05 1.348 1.348 0 0 1-.904.58 59.33 59.33 0 0 0-4.239.92 1.503 1.503 0 0 1-.353.044 1.404 1.404 0 0 1-1.371-1.078zm81.942 61.242a.479.479 0 0 1-.014.14.29.29 0 0 1 .014.114v.015a1.42 1.42 0 0 1-1.413 1.417 1.418 1.418 0 0 1-1.413-1.417v-.284a1.346 1.346 0 0 1 .41-.978 1.406 1.406 0 0 1 2.178.203c.156.233.239.508.238.79zm-61.1-62.39a1.419 1.419 0 0 1 1.173-2.34c3.52.271 7.013.83 10.443 1.673a1.38 1.38 0 0 1 .875.639 1.373 1.373 0 0 1 .156 1.076 1.411 1.411 0 0 1-1.159 1.063 1.401 1.401 0 0 1-.55-.028 63.614 63.614 0 0 0-9.977-1.601 1.376 1.376 0 0 1-.96-.482zM15.444 104.998a1.432 1.432 0 0 1 1.993.17 56.103 56.103 0 0 0 2.91 3.217 1.43 1.43 0 0 1-.042 2.013c-.26.256-.61.399-.975.397a1.43 1.43 0 0 1-1.017-.426 63.725 63.725 0 0 1-3.038-3.387 1.412 1.412 0 0 1 .169-1.984zm105.667-66.911a1.422 1.422 0 0 1-.071-1.077 1.383 1.383 0 0 1 .735-.808 1.439 1.439 0 0 1 1.879.666 67.11 67.11 0 0 1 3.773 9.907c.101.362.056.749-.127 1.077a1.34 1.34 0 0 1-.834.68 1.413 1.413 0 0 1-1.752-.964 62.665 62.665 0 0 0-3.603-9.481zm5.426 43.129a1.38 1.38 0 0 1 1.014 1.193c.019.185.001.372-.053.55a57.12 57.12 0 0 1-1.399 4.322 1.4 1.4 0 0 1-1.809.85 1.377 1.377 0 0 1-.791-.722 1.398 1.398 0 0 1-.057-1.091 56.545 56.545 0 0 0 1.343-4.139 1.442 1.442 0 0 1 1.752-.963zM2.827 65.129a1.42 1.42 0 0 1-.867 1.314 1.41 1.41 0 0 1-1.96-1.3 1.411 1.411 0 1 1 2.826-.014zm106.74-43.61a1.325 1.325 0 0 1-.396-1.007 1.355 1.355 0 0 1 .424-.992 1.417 1.417 0 0 1 1.992.028 61.28 61.28 0 0 1 3.052 3.36c.239.289.355.66.325 1.034a1.346 1.346 0 0 1-.495.964 1.433 1.433 0 0 1-.904.34 1.398 1.398 0 0 1-1.088-.51 61.64 61.64 0 0 0-2.91-3.217zm8.548 78.575a1.416 1.416 0 0 1 .367 1.97 67.587 67.587 0 0 1-6.697 8.206 1.386 1.386 0 0 1-1.018.425 1.41 1.41 0 0 1-1.305-.857 1.411 1.411 0 0 1 .288-1.538 63.114 63.114 0 0 0 6.401-7.852 1.46 1.46 0 0 1 1.964-.354zM7.559 93.814a1.399 1.399 0 0 1-1.271-.807 64.556 64.556 0 0 1-3.745-9.906 1.398 1.398 0 0 1 .961-1.758 1.441 1.441 0 0 1 1.752.964 60.366 60.366 0 0 0 3.59 9.482c.152.344.172.733.056 1.091a1.4 1.4 0 0 1-.735.794 1.28 1.28 0 0 1-.608.14zm4.24-63.792a1.425 1.425 0 0 1-.354-1.97 65.267 65.267 0 0 1 6.684-8.22 1.447 1.447 0 0 1 1.992-.043c.266.264.422.618.438.993a1.43 1.43 0 0 1-.395 1.02 63.154 63.154 0 0 0-6.401 7.852 1.398 1.398 0 0 1-1.458.592 1.39 1.39 0 0 1-.507-.224zm-9.34 17.15c.41-1.446.876-2.906 1.384-4.323a1.445 1.445 0 0 1 1.823-.85 1.428 1.428 0 0 1 .848 1.814c-.495 1.332-.933 2.735-1.343 4.138a1.41 1.41 0 0 1-1.356 1.035 1.783 1.783 0 0 1-.382-.057 1.425 1.425 0 0 1-.975-1.757z" fill="#0a00aa"/></svg>