<svg fill="none" height="119" width="138" xmlns="http://www.w3.org/2000/svg"><g fill="#0a00aa"><path d="M138 119H0L69 0zM5.115 116.059h127.77L69 5.881z"/><path d="M69 119c-21.9 0-39.719-17.741-39.719-39.548 0-21.807 17.819-39.55 39.72-39.55s39.719 17.743 39.719 39.55C108.72 101.258 90.902 119 69 119zm0-76.159c-20.272 0-36.766 16.424-36.766 36.61 0 20.185 16.494 36.609 36.767 36.609s36.766-16.422 36.766-36.608c0-20.186-16.494-36.61-36.766-36.61z"/><path d="M70.476 2.94h-2.953v114.59h2.953z"/></g></svg>