<?xml version="1.0" standalone="no"?>
<!DOCTYPE svg PUBLIC "-//W3C//DTD SVG 1.1//EN" "http://www.w3.org/Graphics/SVG/1.1/DTD/svg11.dtd" >
<svg>
<metadata>
Created by FontForge 20090914 at Sat Jul 18 04:07:28 2015
 By www-data
&#194;&#169; 2010 Klim Type Foundry. All rights reserved.
</metadata>
<defs>
<font id="CopyrightKlimTypeFoundry-NotLicensedforDesktopUse" horiz-adv-x="500" >
  <font-face 
    font-family="Copyright Klim Type Foundry"
    font-weight="900"
    font-stretch="normal"
    units-per-em="1000"
    panose-1="2 2 10 3 6 3 3 6 4 3"
    ascent="783"
    descent="-217"
    x-height="543"
    cap-height="702"
    bbox="-109 -250.004 1361 955"
    underline-thickness="30"
    underline-position="-70"
    unicode-range="U+0009-U+FB04"
  />
<missing-glyph horiz-adv-x="165" 
 />
    <glyph glyph-name="fi" unicode="fi" horiz-adv-x="693" 
d="M624 553v-475c0 -14.667 4.16699 -24 12.5 -28s21.833 -6.66699 40.5 -8v-42h-309v42c18.667 1.33301 31.667 4 39 8s11 13.333 11 28v408h-136v-408c0 -14.667 3.66699 -24 11 -28s20.333 -6.66699 39 -8v-42h-309v42c18.667 1.33301 32.167 4 40.5 8
s12.5 13.333 12.5 28v408h-71v45l71 17v8c0 79.333 27.333 137 82 173s119 54 193 54c64 0 112 -9.16699 144 -27.5s48 -43.5 48 -75.5c0 -14.667 -3.66699 -27.834 -11 -39.501s-16.666 -20.167 -27.999 -25.5h-117c1.33301 6.66699 2.5 14.334 3.5 23.001
s1.5 17.334 1.5 26.001c0 17.333 -3.33301 33.666 -10 48.999s-20 23 -40 23c-20.667 0 -35.834 -9 -45.501 -27s-14.5 -45 -14.5 -81v-85h259l37 10h46z" />
    <glyph glyph-name="fl" unicode="fl" horiz-adv-x="693" 
d="M624 783l-0.00195312 -705c0 -14.667 4.16699 -24 12.5 -28s21.833 -6.66699 40.5 -8v-42h-309v42c18.667 1.33301 31.667 4 39 8s11 13.333 11 28v591c-6.66699 18 -16.167 33.667 -28.5 47s-28.833 20 -49.5 20c-20 0 -34.667 -7.5 -44 -22.5s-14 -38.833 -14 -71.5
v-99h84v-57h-84v-408c0 -14.667 3.66699 -24 11 -28s20.333 -6.66699 39 -8v-42h-309v42c18.667 1.33301 32.167 4 40.5 8s12.5 13.333 12.5 28v408h-71v45l71 17v8c0 79.333 22.833 137 68.5 173s103.834 54 174.501 54c30.667 0 57.334 -2.83301 80.001 -8.5
s42 -12.167 58 -19.5l132 28h35z" />
    <glyph glyph-name=".notdef" horiz-adv-x="165" 
 />
    <glyph glyph-name="NULL" horiz-adv-x="0" 
 />
    <glyph glyph-name="NULL" horiz-adv-x="0" 
 />
    <glyph glyph-name="uni0009" unicode="&#x9;" horiz-adv-x="0" 
 />
    <glyph glyph-name="nonmarkingreturn" unicode="&#xd;" horiz-adv-x="165" 
 />
    <glyph glyph-name="space" unicode=" " horiz-adv-x="165" 
 />
    <glyph glyph-name="exclam" unicode="!" horiz-adv-x="305" 
d="M51 93c0 29.333 10 54.333 30 75s43.667 31 71 31c28.667 0 52.834 -10.333 72.501 -31s29.5 -45.667 29.5 -75c0 -28 -9.83301 -52.167 -29.5 -72.5s-43.834 -30.5 -72.501 -30.5c-27.333 0 -51 10.167 -71 30.5s-30 44.5 -30 72.5zM186 241h-67l-88 461h243z" />
    <glyph glyph-name="quotedbl" unicode="&#x22;" horiz-adv-x="387" 
d="M107 447h-16l-49 148l-14.5 50c-5 18 -7.5 32.667 -7.5 44c0 20.667 6.33301 39.334 19 56.001s32.667 25 60 25s47.333 -8.33301 60 -25s19 -35.334 19 -56.001c0 -11.333 -2.5 -26 -7.5 -44l-14.5 -50zM296 447h-16l-49 148l-14.5 50c-5 18 -7.5 32.667 -7.5 44
c0 20.667 6.33301 39.334 19 56.001s32.667 25 60 25s47.333 -8.33301 60 -25s19 -35.334 19 -56.001c0 -11.333 -2.5 -26 -7.5 -44l-14.5 -50z" />
    <glyph glyph-name="numbersign" unicode="#" horiz-adv-x="523" 
d="M472 229h-124l-75 -239l-56 18l70 221h-129l-75 -239l-56 18l70 221h-72v51h88l45 142h-107v51h123l76 240l56 -18l-71 -222h129l76 240l56 -18l-71 -222h73v-51h-89l-45 -142h108v-51zM219 422l-45 -142h129l45 142h-129z" />
    <glyph glyph-name="dollar" unicode="$" horiz-adv-x="590" 
d="M279 -10c-4.66699 0 -9.66602 0.166992 -14.999 0.5s-10.333 0.5 -15 0.5l-18 -104h-46l19 109c-34.667 4.66699 -66.5 12.5 -95.5 23.5s-52.5 23.5 -70.5 37.5l-12 175h59c9.33301 -42 25.166 -78.833 47.499 -110.5s49.833 -54.167 82.5 -67.5l35 196l-9 3
c-69.333 18.667 -122 45.334 -158 80.001s-54 82.667 -54 144c0 73.333 25.167 130.833 75.5 172.5s113.166 62.5 188.499 62.5c6.66699 0 13.334 -0.166992 20.001 -0.5s13.334 -0.833008 20.001 -1.5l19 104h46l-20 -109c28 -4.66699 53.333 -11.667 76 -21
s42.334 -20 59.001 -32v-153h-49c-8.66699 33.333 -20.834 62.666 -36.501 87.999s-35.834 44.333 -60.501 57l-34 -191c0.666992 0 1.5 -0.166992 2.5 -0.5s1.83301 -0.5 2.5 -0.5c66 -18.667 119.833 -43.5 161.5 -74.5s62.5 -83.167 62.5 -156.5
c0 -80 -27.833 -138.5 -83.5 -175.5s-122.167 -55.5 -199.5 -55.5zM393.001 130c0 28.667 -8.00195 50.833 -24.002 66.5s-41 29.167 -75 40.5l-35 -194c2.66699 -0.666992 5.83398 -1 9.50098 -1h10.5c32.667 0 59.834 7.33301 81.501 22s32.5 36.667 32.5 66z
M191.999 570.999c0 -28.667 7.99902 -50.5 23.999 -65.5s40.333 -28.167 73 -39.5l35 192c-4.66699 0.666992 -9.66699 1.33398 -15 2.00098s-10.666 1 -15.999 1c-28.667 0 -52.667 -7.83301 -72 -23.5s-29 -37.834 -29 -66.501z" />
    <glyph glyph-name="percent" unicode="%" horiz-adv-x="802" 
d="M35 537c0 58 17.667 101.667 53 131s76 44 122 44s86.667 -14.667 122 -44s53 -73 53 -131s-17.667 -101.667 -53 -131s-76 -44 -122 -44s-86.667 14.667 -122 44s-53 73 -53 131zM156 537c0 -38 3.83301 -70.5 11.5 -97.5s21.834 -40.5 42.501 -40.5
s34.834 13.5 42.501 40.5s11.5 59.5 11.5 97.5s-3.83301 70.5 -11.5 97.5s-21.834 40.5 -42.501 40.5s-34.834 -13.5 -42.501 -40.5s-11.5 -59.5 -11.5 -97.5zM153 -10l439 722h57l-439 -722h-57zM767 165c0 -58 -17.667 -101.667 -53 -131s-76 -44 -122 -44
s-86.667 14.667 -122 44s-53 73 -53 131s17.667 101.667 53 131s76 44 122 44s86.667 -14.667 122 -44s53 -73 53 -131zM646 165c0 38 -3.83301 70.5 -11.5 97.5s-21.834 40.5 -42.501 40.5s-34.834 -13.5 -42.501 -40.5s-11.5 -59.5 -11.5 -97.5s3.83301 -70.5 11.5 -97.5
s21.834 -40.5 42.501 -40.5s34.834 13.5 42.501 40.5s11.5 59.5 11.5 97.5z" />
    <glyph glyph-name="ampersand" unicode="&#x26;" horiz-adv-x="752" 
d="M11 184c0 50 14.667 89.5029 44 118.503s70.666 50.167 123.999 63.5c-12.667 16.667 -25.667 38.667 -39 66s-20 57.666 -20 90.999c0 57.333 20.667 103.166 62 137.499s96.666 51.5 165.999 51.5c64 0 116.667 -14 158 -42s62 -66.667 62 -116
c0 -41.333 -13.667 -75 -41 -101s-67.666 -44 -120.999 -54l148 -181c4.66699 10.667 8.16699 22 10.5 34s3.5 24.333 3.5 37c0 16 -4.66699 27.333 -14 34s-22.666 10 -39.999 10v46h216v-46c-35.333 0 -60.5 -4.83301 -75.5 -14.5s-25.833 -28.834 -32.5 -57.501
c-4 -14.667 -8.83301 -29.167 -14.5 -43.5s-12.167 -27.833 -19.5 -40.5l45 -55c20 -24.667 36.333 -43.667 49 -57s29.334 -20 50.001 -20v-45h-232l-26 20.5c-8.66699 7 -16.334 13.833 -23.001 20.5c-28 -16 -58 -28.5 -90 -37.5s-64.667 -13.5 -98 -13.5
c-72 0 -132 17.167 -180 51.5s-72 81.833 -72 142.5zM349 73.0029c10 0 20 0.833984 30 2.50098s20 4.16699 30 7.5l-18 20.5l-18 21.5l-165 206c-8 -12.667 -13.833 -27 -17.5 -43s-5.5 -33.667 -5.5 -53c0 -44.667 14.833 -82.834 44.5 -114.501s69.5 -47.5 119.5 -47.5z
M291 595.004c0 -32.667 9.16699 -61.167 27.5 -85.5s36.166 -46.833 53.499 -67.5l6 -8c14.667 14.667 25.834 33.5 33.501 56.5s11.5 49.833 11.5 80.5c0 24.667 -5.33301 46.834 -16 66.501s-29 29.5 -55 29.5c-20 0 -35.167 -6.83301 -45.5 -20.5
s-15.5 -30.834 -15.5 -51.501z" />
    <glyph glyph-name="quotesingle" unicode="'" horiz-adv-x="198" 
d="M107 447h-16l-49 148l-14.5 50c-5 18 -7.5 32.667 -7.5 44c0 20.667 6.33301 39.334 19 56.001s32.667 25 60 25s47.333 -8.33301 60 -25s19 -35.334 19 -56.001c0 -11.333 -2.5 -26 -7.5 -44l-14.5 -50z" />
    <glyph glyph-name="parenleft" unicode="(" horiz-adv-x="378" 
d="M60 314c0 85.333 21.333 168.833 64 250.5s101 150.167 175 205.5h59c-54.667 -67.333 -93.334 -141.333 -116.001 -222s-34 -158.667 -34 -234s11.333 -153.333 34 -234s61.334 -154.667 116.001 -222h-59c-74 55.333 -132.333 123.833 -175 205.5
s-64 165.167 -64 250.5z" />
    <glyph glyph-name="parenright" unicode=")" horiz-adv-x="378" 
d="M318 314c0 -85.333 -21.333 -168.833 -64 -250.5s-101 -150.167 -175 -205.5h-59c54.667 67.333 93.334 141.333 116.001 222s34 158.667 34 234s-11.333 153.333 -34 234s-61.334 154.667 -116.001 222h59c74 -55.333 132.333 -123.833 175 -205.5
s64 -165.167 64 -250.5z" />
    <glyph glyph-name="asterisk" unicode="*" horiz-adv-x="452" 
d="M373 585l-127 -30l127 -30c24.667 -5.33301 41 -15.666 49 -30.999s7.33301 -31.333 -2 -48c-8.66699 -16 -22 -24.333 -40 -25s-35.333 8.33301 -52 27l-89 94l38 -124c7.33301 -24 6.33301 -43.333 -3 -58s-23.333 -22 -42 -22s-32.667 7.33301 -42 22
s-10.333 34 -3 58l38 124l-89 -94c-16.667 -18.667 -34 -27.667 -52 -27s-31.333 9 -40 25c-9.33301 16.667 -10 32.667 -2 48s24.333 25.666 49 30.999l126 30l-126 30c-24.667 5.33301 -41 15.666 -49 30.999s-7.33301 31.333 2 48c8.66699 16 22 24.333 40 25
s35.333 -8.33301 52 -27l89 -95l-38 125c-7.33301 24 -6.33301 43.333 3 58s23.333 22 42 22s32.667 -7.33301 42 -22s10.333 -34 3 -58l-38 -125l89 95c16.667 18.667 34 27.667 52 27s31.333 -9 40 -25c9.33301 -16.667 10 -32.667 2 -48s-24.333 -25.666 -49 -30.999z
" />
    <glyph glyph-name="plus" unicode="+" horiz-adv-x="576" 
d="M252 591h71v-186h187v-72h-187v-186h-71v186h-186v72h186v186z" />
    <glyph glyph-name="comma" unicode="," horiz-adv-x="282" 
d="M156 7l-41.999 -0.00195312c-22.667 5.33301 -41.5 15.5 -56.5 30.5s-22.5 36.167 -22.5 63.5c0 30 10.167 53.667 30.5 71s44.833 26 73.5 26c34.667 0 62.5 -12.333 83.5 -37s31.5 -56.667 31.5 -96c0 -57.333 -18.833 -102.166 -56.5 -134.499
s-91.834 -49.5 -162.501 -51.5v45c35.333 4.66699 63.5 12.834 84.5 24.501s33.167 31.167 36.5 58.5z" />
    <glyph glyph-name="hyphen" unicode="-" horiz-adv-x="320" 
d="M290 267h-260v86h260v-86z" />
    <glyph glyph-name="period" unicode="." horiz-adv-x="282" 
d="M30 101c0 32.667 10.833 59.5 32.5 80.5s47.834 31.5 78.501 31.5s56.834 -10.5 78.501 -31.5s32.5 -47.833 32.5 -80.5s-10.833 -59.334 -32.5 -80.001s-47.834 -31 -78.501 -31s-56.834 10.333 -78.501 31s-32.5 47.334 -32.5 80.001z" />
    <glyph glyph-name="slash" unicode="/" horiz-adv-x="359" 
d="M354 770l-272 -911h-87l272 911h87z" />
    <glyph glyph-name="zero" unicode="0" horiz-adv-x="686" 
d="M343 35c36.667 0 60.834 30.333 72.501 91s17.5 135.667 17.5 225s-5.83301 164.333 -17.5 225s-35.834 91 -72.501 91s-60.834 -30.333 -72.501 -91s-17.5 -135.667 -17.5 -225s5.83301 -164.333 17.5 -225s35.834 -91 72.501 -91zM343 -10
c-88.667 0 -163.834 30.833 -225.501 92.5s-92.5 151.167 -92.5 268.5s30.833 206.833 92.5 268.5s136.834 92.5 225.501 92.5s163.834 -30.833 225.501 -92.5s92.5 -151.167 92.5 -268.5s-30.833 -206.833 -92.5 -268.5s-136.834 -92.5 -225.501 -92.5z" />
    <glyph glyph-name="one" unicode="1" horiz-adv-x="436" 
d="M422 0l-397 -0.000976562v45c44 2 70.167 6.83301 78.5 14.5s12.5 26.834 12.5 57.501v408h-91v43l47 8c51.333 8.66699 93 24 125 46s61.667 51.667 89 89h47v-594c0 -30.667 4.83301 -49.667 14.5 -57s34.5 -12.333 74.5 -15v-45z" />
    <glyph glyph-name="two" unicode="2" horiz-adv-x="565" 
d="M195 172h172.997c30.667 0 54.334 4.66699 71.001 14s37.667 37.666 63 84.999h33l-19 -271h-511v35l196 194c34 34 60.333 69.333 79 106s28 75.667 28 117c0 34.667 -9.66699 63.334 -29 86.001s-48 34 -86 34c-26 0 -49.667 -5.33301 -71 -16
s-39.666 -24.667 -54.999 -42l-33 23c26.667 48.667 60.334 90 101.001 124s95.667 51 165 51c64 0 115.333 -16.833 154 -50.5s58 -80.5 58 -140.5c0 -73.333 -33.333 -137.333 -100 -192s-139 -107 -217 -157z" />
    <glyph glyph-name="three" unicode="3" horiz-adv-x="555" 
d="M311 404c67.333 -1.33301 121.498 -19.5 162.498 -54.5s61.5 -82.167 61.5 -141.5c0 -72.667 -29.5 -127.167 -88.5 -163.5s-123.833 -54.5 -194.5 -54.5c-81.333 0 -142.833 14 -184.5 42s-62.5 62 -62.5 102c0 20.667 5 38.667 15 54s20.667 25.666 32 30.999h128
c-3.33301 -8.66699 -6.16602 -18.5 -8.49902 -29.5s-3.5 -23.833 -3.5 -38.5c0 -32 7.16699 -59.667 21.5 -83s36.833 -35 67.5 -35c24.667 0 44 11.167 58 33.5s21 54.5 21 96.5c0 47.333 -12.5 85.833 -37.5 115.5s-61.5 44.5 -109.5 44.5h-15l-13 31
c52.667 22.667 87.167 44.667 103.5 66s24.5 45.333 24.5 72c0 26 -7.66699 46.667 -23 62s-38 23 -68 23c-28.667 0 -53.167 -5.83301 -73.5 -17.5s-39.166 -27.5 -56.499 -47.5l-29 23c24 50 56.833 92 98.5 126s97.167 51 166.5 51c54 0 98.5 -12.667 133.5 -38
s52.5 -61 52.5 -107c0 -50.667 -19.833 -88.667 -59.5 -114s-79.5 -41.666 -119.5 -48.999z" />
    <glyph glyph-name="four" unicode="4" horiz-adv-x="653" 
d="M87 236h216v312zM303 111v67h-298v38l337 486h173v-466h113v-58h-113v-67c0 -25.333 4.16699 -42.5 12.5 -51.5s29.5 -14.167 63.5 -15.5v-44h-365v44c34 1.33301 55.333 6.5 64 15.5s13 26.167 13 51.5z" />
    <glyph glyph-name="five" unicode="5" horiz-adv-x="554" 
d="M476 526l-334.001 -0.000976562l-11 -59c130.667 4.66699 229.667 -13 297 -53s101 -104 101 -192c0 -77.333 -26.5 -135.333 -79.5 -174s-116.833 -58 -191.5 -58c-80.667 0 -142.167 13 -184.5 39s-63.5 59.333 -63.5 100c0 19.333 5.16699 37 15.5 53
s23.166 28 38.499 36h120c-2 -7.33301 -4 -16.166 -6 -26.499s-3 -21.5 -3 -33.5c0 -34.667 7.5 -64 22.5 -88s39.5 -36 73.5 -36c27.333 0 49 9 65 27s24 43.333 24 76c0 47.333 -23.5 83.666 -70.5 108.999s-124.833 38 -233.5 38l65 418h286
c16.667 0 28.334 2.33301 35.001 7s14.334 16.334 23.001 35.001h42z" />
    <glyph glyph-name="six" unicode="6" horiz-adv-x="622" 
d="M507 682c-82 -14.667 -142.665 -45.168 -181.998 -91.501s-64.333 -103.166 -75 -170.499c16.667 10.667 37.167 20.334 61.5 29.001s52.5 13 84.5 13c59.333 0 108.166 -19.333 146.499 -58s57.5 -90.334 57.5 -155.001c0 -81.333 -26.833 -144.833 -80.5 -190.5
s-119.834 -68.5 -198.501 -68.5c-90.667 0 -162.167 30 -214.5 90s-78.5 138 -78.5 234c0 110.667 40.333 204.667 121 282s195 116 343 116zM274.002 382.999h-15c-4.66699 0 -9.33398 -0.333008 -14.001 -1l-2 -36.5c-0.666992 -12.333 -1 -24.833 -1 -37.5
c0 -74 7 -137.833 21 -191.5s38 -80.5 72 -80.5c25.333 0 43.5 14.667 54.5 44s16.5 65.333 16.5 108c0 52 -10.667 97.5 -32 136.5s-54.666 58.5 -99.999 58.5z" />
    <glyph glyph-name="seven" unicode="7" horiz-adv-x="525" 
d="M401 497h-259.998c-22.667 0 -40.834 -7 -54.501 -21s-25.834 -38 -36.501 -72h-41l45 298h471v-42l-282 -660h-122z" />
    <glyph glyph-name="eight" unicode="8" horiz-adv-x="600" 
d="M539 551c0 -36 -14 -64.3311 -42 -84.998s-63.333 -32.334 -106 -35.001l20 -8c56 -24.667 97.333 -53.5 124 -86.5s40 -74.167 40 -123.5c0 -71.333 -26 -126.333 -78 -165s-118.667 -58 -200 -58c-84 0 -151.167 14.667 -201.5 44s-75.5 71.666 -75.5 126.999
c0 37.333 14.667 67.666 44 90.999s66 36.666 110 39.999l-14 6c-36 16.667 -65.167 41.834 -87.5 75.501s-33.5 72.834 -33.5 117.501c0 70 25.333 124.333 76 163s111.667 58 183 58c76 0 135.167 -14.333 177.5 -43s63.5 -68 63.5 -118zM335 220.002l-133 59.9971
c-12 -14 -21 -29 -27 -45s-9 -34.667 -9 -56c0 -45.333 12.167 -81 36.5 -107s56.5 -39 96.5 -39c32.667 0 59.667 8.33301 81 25s32 40.334 32 71.001c0 24.667 -6.66699 43.334 -20 56.001s-32.333 24.334 -57 35.001zM276 484.999l81.999 -39.999
c10.667 10.667 20.834 24.667 30.501 42s14.5 39.666 14.5 66.999c0 32.667 -8.83301 60 -26.5 82s-44.167 33 -79.5 33c-28.667 0 -52 -7.83301 -70 -23.5s-27 -36.5 -27 -62.5c0 -24 6.5 -43.5 19.5 -58.5s31.833 -28.167 56.5 -39.5z" />
    <glyph glyph-name="nine" unicode="9" horiz-adv-x="622" 
d="M115 21c82 14.667 142.666 45.166 181.999 91.499s64.333 103.166 75 170.499c-16.667 -11.333 -37.334 -21.166 -62.001 -29.499s-52.667 -12.5 -84 -12.5c-59.333 0 -108.166 19.333 -146.499 58s-57.5 90.334 -57.5 155.001c0 81.333 26.833 144.833 80.5 190.5
s119.834 68.5 198.501 68.5c90.667 0 162.167 -30 214.5 -90s78.5 -138 78.5 -234c0 -110.667 -40.333 -204.667 -121 -282s-195 -116 -343 -116zM347.999 319.999h14.501c5 0 9.5 0.333008 13.5 1c1.33301 12 2.33301 24.167 3 36.5s1 24.833 1 37.5
c0 74 -7 137.833 -21 191.5s-38 80.5 -72 80.5c-25.333 0 -43.5 -14.667 -54.5 -44s-16.5 -65.333 -16.5 -108c0 -52 10.667 -97.5 32 -136.5s54.666 -58.5 99.999 -58.5z" />
    <glyph glyph-name="colon" unicode=":" horiz-adv-x="282" 
d="M30 101c0 32.667 10.833 59.5 32.5 80.5s47.834 31.5 78.501 31.5s56.834 -10.5 78.501 -31.5s32.5 -47.833 32.5 -80.5s-10.833 -59.334 -32.5 -80.001s-47.834 -31 -78.501 -31s-56.834 10.333 -78.501 31s-32.5 47.334 -32.5 80.001zM30 403
c0 32.667 10.833 59.5 32.5 80.5s47.834 31.5 78.501 31.5s56.834 -10.5 78.501 -31.5s32.5 -47.833 32.5 -80.5s-10.833 -59.334 -32.5 -80.001s-47.834 -31 -78.501 -31s-56.834 10.333 -78.501 31s-32.5 47.334 -32.5 80.001z" />
    <glyph glyph-name="semicolon" unicode=";" horiz-adv-x="282" 
d="M156 7l-41.999 -0.00195312c-22.667 5.33301 -41.5 15.5 -56.5 30.5s-22.5 36.167 -22.5 63.5c0 30 10.167 53.667 30.5 71s44.833 26 73.5 26c34.667 0 62.5 -12.333 83.5 -37s31.5 -56.667 31.5 -96c0 -57.333 -18.833 -102.166 -56.5 -134.499
s-91.834 -49.5 -162.501 -51.5v45c35.333 4.66699 63.5 12.834 84.5 24.501s33.167 31.167 36.5 58.5zM30.001 402.998c0 32.667 10.833 59.5 32.5 80.5s47.834 31.5 78.501 31.5s56.834 -10.5 78.501 -31.5s32.5 -47.833 32.5 -80.5s-10.833 -59.334 -32.5 -80.001
s-47.834 -31 -78.501 -31s-56.834 10.333 -78.501 31s-32.5 47.334 -32.5 80.001z" />
    <glyph glyph-name="less" unicode="&#x3c;" horiz-adv-x="428" 
d="M44 362v10l318 195v-86l-194 -113l194 -116v-85z" />
    <glyph glyph-name="equal" unicode="=" horiz-adv-x="586" 
d="M71 261v69h445v-69h-445zM71 408v70h445v-70h-445z" />
    <glyph glyph-name="greater" unicode="&#x3e;" horiz-adv-x="428" 
d="M384 372v-10l-318 -195v85l194 116l-194 113v86z" />
    <glyph glyph-name="question" unicode="?" horiz-adv-x="477" 
d="M304 600c0 20.667 -5.3291 37.334 -15.9961 50.001s-26.334 19 -47.001 19c-26.667 0 -44.834 -10 -54.501 -30s-14.5 -42.333 -14.5 -67c0 -14.667 0.666992 -26 2 -34s2.66602 -17 3.99902 -27h-119c-14.667 6.66699 -25.667 16 -33 28s-11 25.667 -11 41
c0 40 20.5 72 61.5 96s95.167 36 162.5 36c73.333 0 129.666 -15 168.999 -45s59 -72 59 -126c0 -42.667 -11.5 -78.667 -34.5 -108s-57.5 -57 -103.5 -83c-28.667 -16.667 -49 -32 -61 -46s-18 -32.667 -18 -56v-9h-29c-27.333 9.33301 -48.833 23.333 -64.5 42
s-23.5 42 -23.5 70c0 21.333 6.33301 42.666 19 63.999s32 41.333 58 60c25.333 18.667 47.333 37.5 66 56.5s28 41.833 28 68.5zM131.004 93c0 29.333 9.83301 54.333 29.5 75s43.5 31 71.5 31c28.667 0 52.834 -10.333 72.501 -31s29.5 -45.667 29.5 -75
c0 -28 -9.83301 -52.167 -29.5 -72.5s-43.834 -30.5 -72.501 -30.5c-28 0 -51.833 10.167 -71.5 30.5s-29.5 44.5 -29.5 72.5z" />
    <glyph glyph-name="at" unicode="@" horiz-adv-x="894" 
d="M610 77c-53.333 0 -87.6719 15.999 -103.005 47.999s-19.333 68 -12 108c-24.667 -44 -50.334 -81 -77.001 -111s-59 -45 -97 -45c-29.333 0 -54.166 11.5 -74.499 34.5s-30.5 54.5 -30.5 94.5c0 67.333 24.5 131.833 73.5 193.5s110.833 92.5 185.5 92.5
c24 0 44.5 -4.66699 61.5 -14s28.833 -18.666 35.5 -27.999l78 32h46l-35 -94l-57 -198c-5.33301 -19.333 -6 -36.5 -2 -51.5s14.333 -22.5 31 -22.5c32.667 0 63.334 22.833 92.001 68.5s43 107.167 43 184.5c0 71.333 -25.333 136 -76 194s-120.667 87 -210 87
c-108 0 -193.667 -38.167 -257 -114.5s-95 -168.5 -95 -276.5c0 -114 34 -198.667 102 -254s148.333 -83 241 -83c54.667 0 102.834 6.33301 144.501 19s83.5 31.667 125.5 57l14 -21c-36 -33.333 -79.667 -59.333 -131 -78s-109.666 -28 -174.999 -28
c-107.333 0 -202.666 32.667 -285.999 98s-125 161 -125 287c0 120.667 42 223.667 126 309s189.333 128 316 128c116.667 0 207.834 -33 273.501 -99s98.5 -141 98.5 -225c0 -106 -28 -181.167 -84 -225.5s-109.333 -66.5 -160 -66.5zM388.994 173.999
c27.333 0 54.8311 25.833 82.498 77.5s47.834 109.167 60.501 172.5c-3.33301 9.33301 -8.33301 16.833 -15 22.5s-15 8.5 -25 8.5c-36.667 0 -68 -27 -94 -81s-39 -104 -39 -150c0 -15.333 2.33301 -27.5 7 -36.5s12.334 -13.5 23.001 -13.5z" />
    <glyph glyph-name="A" unicode="A" horiz-adv-x="773" 
d="M461 129l-32 82.0049h-247l-30 -82c-2.66699 -6.66699 -4.66699 -13.167 -6 -19.5s-2 -11.833 -2 -16.5c0 -16.667 7 -28.334 21 -35.001s33.667 -11 59 -13v-45h-219v45c13.333 2.66699 25 6.16699 35 10.5s17.667 13.166 23 26.499l203 533l-35 87h233l245 -620
c4.66699 -12.667 12 -21.334 22 -26.001s22.333 -8.33398 37 -11.001v-45h-375v45c22.667 0.666992 41 4.5 55 11.5s21 18.833 21 35.5c0 4.66699 -0.666992 10.167 -2 16.5s-3.33301 13.166 -6 20.499zM302 536.005l-99 -267h203z" />
    <glyph glyph-name="B" unicode="B" horiz-adv-x="718" 
d="M346 332h-32v-214c0 -26.667 4.66699 -44.667 14 -54s26 -14 50 -14h7c30 0 55.333 11.5 76 34.5s31 59.5 31 109.5c0 46 -12.333 80.5 -37 103.5s-61 34.5 -109 34.5zM327 652h-12.999v-261h14c39.333 0 69.5 11.333 90.5 34s31.5 56 31.5 100s-11.333 76.167 -34 96.5
s-52.334 30.5 -89.001 30.5zM414.001 0l-388 0.000976562v45c32.667 3.33301 52.334 9 59.001 17s10 24.667 10 50v478c0 25.333 -3.33301 42 -10 50s-26.334 13.667 -59.001 17v45h381c77.333 0 138 -14.833 182 -44.5s66 -73.5 66 -131.5c0 -50 -19 -88.167 -57 -114.5
s-81.667 -41.833 -131 -46.5c66.667 -2 122.667 -17.833 168 -47.5s68 -71.834 68 -126.501c0 -66 -24.5 -114.333 -73.5 -145s-120.833 -46 -215.5 -46z" />
    <glyph glyph-name="C" unicode="C" horiz-adv-x="695" 
d="M413 712c46 0 87.832 -5.16602 125.499 -15.499s70.834 -24.833 99.501 -43.5l4 -181h-54c-12.667 60 -32.334 106 -59.001 138s-62.667 48 -108 48c-59.333 0 -101.833 -29 -127.5 -87s-38.5 -128.667 -38.5 -212c0 -90 14.833 -164.5 44.5 -223.5
s73.5 -88.5 131.5 -88.5c38.667 0 73.834 16.5 105.501 49.5s57.834 87.833 78.501 164.5h55l-18 -203c-28.667 -21.333 -65.334 -38 -110.001 -50s-91.667 -18 -141 -18c-116 0 -207.667 30.333 -275 91s-101 144 -101 250c0 117.333 38.333 210.166 115 278.499
s167.667 102.5 273 102.5z" />
    <glyph glyph-name="D" unicode="D" horiz-adv-x="807" 
d="M327 652l-13.001 0.000976562v-532c0 -29.333 5.33301 -48.333 16 -57s26.334 -13 47.001 -13h6c52.667 0 94.667 26.667 126 80s47 122.666 47 207.999c0 98.667 -20.667 175.667 -62 231s-97 83 -167 83zM389.999 0.000976562h-364.001v45
c32.667 3.33301 52.334 9 59.001 17s10 24.667 10 50v478c0 25.333 -3.33301 42 -10 50s-26.334 13.667 -59.001 17v45h339c140.667 0 245.334 -32.833 314.001 -98.5s103 -148.167 103 -247.5c0 -110.667 -35 -197.667 -105 -261s-165.667 -95 -287 -95z" />
    <glyph glyph-name="E" unicode="E" horiz-adv-x="664" 
d="M26 0l-0.00195312 44.9971c32.667 3.33301 52.334 9 59.001 17s10 24.667 10 50v478c0 25.333 -3.33301 42 -10 50s-26.334 13.667 -59.001 17v45h586l5 -199h-42c-26.667 56 -50.5 94.833 -71.5 116.5s-55.5 32.5 -103.5 32.5h-86v-260h83
c23.333 0 39.166 6.83301 47.499 20.5s14.5 37.834 18.5 72.501h47v-246h-47c-4 34.667 -10.167 58.834 -18.5 72.501s-24.166 20.5 -47.499 20.5h-83v-215c0 -26.667 6.33301 -44.5 19 -53.5s32 -13.5 58 -13.5h22c46.667 0 80.334 12.333 101.001 37
s49.334 71.334 86.001 140.001h50l-33 -227h-591z" />
    <glyph glyph-name="F" unicode="F" horiz-adv-x="625" 
d="M314 325v-213.002c0 -25.333 8.33301 -42.333 25 -51s46.667 -14 90 -16v-45h-403v45c32.667 3.33301 52.334 9 59.001 17s10 24.667 10 50v478c0 25.333 -3.33301 42 -10 50s-26.334 13.667 -59.001 17v45h579l5 -207h-39c-29.333 56.667 -54.333 97 -75 121
s-55 36 -103 36h-79v-267h76c23.333 0 39.166 6.83301 47.499 20.5s14.5 37.834 18.5 72.501h47v-246h-47c-4 34.667 -10.167 58.834 -18.5 72.501s-24.166 20.5 -47.499 20.5h-76z" />
    <glyph glyph-name="G" unicode="G" horiz-adv-x="752" 
d="M469 50l0.00195312 172.001c0 25.333 -3.33301 42 -10 50s-26.334 13.667 -59.001 17v45h342v-45c-32.667 -3.33301 -52.334 -9 -59.001 -17s-10 -24.667 -10 -50v-166c-34.667 -22 -76.334 -38.5 -125.001 -49.5s-100 -16.5 -154 -16.5c-122 0 -214 32.667 -276 98
s-93 146.666 -93 243.999c0 117.333 38.667 210 116 278s169.333 102 276 102c46 0 88.167 -5.16699 126.5 -15.5s71.833 -24.833 100.5 -43.5l4 -181h-54c-12.667 60 -32.5 106 -59.5 138s-63.5 48 -109.5 48c-60 0 -103.333 -29 -130 -87s-40 -128.667 -40 -212
s14 -156.5 42 -219.5s70.667 -94.5 128 -94.5c8.66699 0 16.334 0.333008 23.001 1s13.667 2 21 4z" />
    <glyph glyph-name="H" unicode="H" horiz-adv-x="860" 
d="M314 590v-202h232v202c0 25.333 -3.33301 42 -10 50s-26.334 13.667 -59.001 17v45h357v-45c-32.667 -3.33301 -52.334 -9 -59.001 -17s-10 -24.667 -10 -50v-478c0 -25.333 3.33301 -42 10 -50s26.334 -13.667 59.001 -17v-45h-357v45
c32.667 3.33301 52.334 9 59.001 17s10 24.667 10 50v208h-232v-208c0 -25.333 3.33301 -42 10 -50s26.334 -13.667 59.001 -17v-45h-357v45c32.667 3.33301 52.334 9 59.001 17s10 24.667 10 50v478c0 25.333 -3.33301 42 -10 50s-26.334 13.667 -59.001 17v45h357v-45
c-32.667 -3.33301 -52.334 -9 -59.001 -17s-10 -24.667 -10 -50z" />
    <glyph glyph-name="I" unicode="I" horiz-adv-x="409" 
d="M314 590v-478c0 -25.333 3.33301 -42 10 -50s26.334 -13.667 59.001 -17v-45h-357v45c32.667 3.33301 52.334 9 59.001 17s10 24.667 10 50v478c0 25.333 -3.33301 42 -10 50s-26.334 13.667 -59.001 17v45h357v-45c-32.667 -3.33301 -52.334 -9 -59.001 -17
s-10 -24.667 -10 -50z" />
    <glyph glyph-name="J" unicode="J" horiz-adv-x="606" 
d="M302 168l0.000976562 422.002c0 25.333 -3.33301 42 -10 50s-26.334 13.667 -59.001 17v45h357v-45c-32.667 -3.33301 -52.334 -9 -59.001 -17s-10 -24.667 -10 -50v-360c0 -83.333 -24.833 -144.166 -74.5 -182.499s-119.167 -57.5 -208.5 -57.5
c-79.333 0 -139.666 13.333 -180.999 40s-62 65 -62 115c0 21.333 4.83301 40.166 14.5 56.499s23.167 29.166 40.5 38.499h139c-2 -12.667 -3.66699 -25.334 -5 -38.001s-2 -27.667 -2 -45c0 -31.333 4 -59.333 12 -84s24.333 -37 49 -37c28 0 44.833 12.5 50.5 37.5
s8.5 56.5 8.5 94.5z" />
    <glyph glyph-name="K" unicode="K" horiz-adv-x="792" 
d="M505 439l204.998 -331.004c10.667 -17.333 21.834 -31.5 33.501 -42.5s27.834 -17.833 48.501 -20.5v-45h-253c-16.667 14.667 -33 33 -49 55s-30.333 44.333 -43 67l-125 218l230 239c8.66699 8.66699 15.667 16.834 21 24.501s8 15.834 8 24.501
c0 8 -4.83301 14.667 -14.5 20s-27.167 8.33301 -52.5 9v45h244v-45c-20.667 -1.33301 -36.5 -4.16602 -47.5 -8.49902s-22.833 -13.166 -35.5 -26.499zM313.998 589.996v-478c0 -25.333 3.33301 -42 10 -50s26.334 -13.667 59.001 -17v-45h-357v45
c32.667 3.33301 52.334 9 59.001 17s10 24.667 10 50v478c0 25.333 -3.33301 42 -10 50s-26.334 13.667 -59.001 17v45h357v-45c-32.667 -3.33301 -52.334 -9 -59.001 -17s-10 -24.667 -10 -50z" />
    <glyph glyph-name="L" unicode="L" horiz-adv-x="658" 
d="M314 590l0.000976562 -473c0 -26.667 5.66699 -44.5 17 -53.5s30 -13.5 56 -13.5h21c30.667 0 59 12.667 85 38s63 78.333 111 159h47l-39 -247h-586v45c32.667 3.33301 52.334 9 59.001 17s10 24.667 10 50v478c0 25.333 -3.33301 42 -10 50s-26.334 13.667 -59.001 17
v45h357v-45c-32.667 -3.33301 -52.334 -9 -59.001 -17s-10 -24.667 -10 -50z" />
    <glyph glyph-name="M" unicode="M" horiz-adv-x="1001" 
d="M694 134l-47.001 364l-173 -498h-88l-177 498l-49 -364c-0.666992 -4 -1.16699 -8.66699 -1.5 -14s-0.5 -9 -0.5 -11c0 -24 6.33301 -40 19 -48s38.667 -13.333 78 -16v-45h-255v45c28.667 1.33301 49.334 6.16602 62.001 14.499s20.334 23.833 23.001 46.5l64 478
c0 26.667 -5.83301 45.167 -17.5 55.5s-34.167 16.166 -67.5 17.499v45h302c0.666992 -11.333 2.5 -22.333 5.5 -33s6.5 -21.667 10.5 -33l123 -357l119 358l11 33.5c3.33301 9.66699 5.33301 20.167 6 31.5h296v-45c-33.333 -1.33301 -55.833 -7.16602 -67.5 -17.499
s-17.5 -28.833 -17.5 -55.5l64 -478c3.33301 -24.667 11.166 -40.667 23.499 -48s32.833 -11.666 61.5 -12.999v-45h-402v45c36 2 61.167 7.16699 75.5 15.5s21.5 24.5 21.5 48.5c0 2 -0.166992 5.66699 -0.5 11s-0.833008 10 -1.5 14z" />
    <glyph glyph-name="N" unicode="N" horiz-adv-x="757" 
d="M598 337l-0.000976562 252.999c0 25.333 -7 42.166 -21 50.499s-41 13.833 -81 16.5v45h244v-45c-32.667 -3.33301 -52.334 -9 -59.001 -17s-10 -24.667 -10 -50v-590h-82l-421 516v-404c0 -25.333 7 -42.166 21 -50.499s41 -13.833 81 -16.5v-45h-244v45
c32.667 3.33301 52.334 9 59.001 17s10 24.667 10 50v480c-11.333 20.667 -21.666 36.334 -30.999 47.001s-22 16.667 -38 18v45h274z" />
    <glyph glyph-name="O" unicode="O" horiz-adv-x="758" 
d="M384 42c46.667 0 78.167 31.667 94.5 95s24.5 129.666 24.5 198.999c0 91.333 -9.66699 168.166 -29 230.499s-52.666 93.5 -99.999 93.5c-46.667 0 -78.167 -31.667 -94.5 -95s-24.5 -129.666 -24.5 -198.999c0 -91.333 9.66699 -168.166 29 -230.499
s52.666 -93.5 99.999 -93.5zM369 -10c-112.667 0 -198.167 34.5 -256.5 103.5s-87.5 150.167 -87.5 243.5c0 114.667 34.167 205.834 102.5 273.501s155.5 101.5 261.5 101.5c112.667 0 198.167 -34.5 256.5 -103.5s87.5 -150.167 87.5 -243.5
c0 -114.667 -34.167 -205.834 -102.5 -273.501s-155.5 -101.5 -261.5 -101.5z" />
    <glyph glyph-name="P" unicode="P" horiz-adv-x="687" 
d="M314 267v-155c0 -25.333 8.33301 -42.333 25 -51s46.667 -14 90 -16v-45h-403v45c32.667 3.33301 52.334 9 59.001 17s10 24.667 10 50v478c0 25.333 -3.33301 42 -10 50s-26.334 13.667 -59.001 17v45h364c98.667 0 171.667 -20.167 219 -60.5s71 -91.166 71 -152.499
c0 -70.667 -24.833 -125.334 -74.5 -164.001s-125.167 -58 -226.5 -58h-65zM314 652v-328h13c44.667 0 79.167 15 103.5 45s36.5 70 36.5 120c0 52 -13.167 92.167 -39.5 120.5s-59.833 42.5 -100.5 42.5h-13z" />
    <glyph glyph-name="Q" unicode="Q" horiz-adv-x="758" 
d="M345 -62l-44 57c-91.333 14.667 -160.166 54.5 -206.499 119.5s-69.5 139.167 -69.5 222.5c0 114.667 34.167 205.834 102.5 273.501s155.5 101.5 261.5 101.5c112.667 0 198.167 -34.5 256.5 -103.5s87.5 -150.167 87.5 -243.5c0 -97.333 -24.833 -177.833 -74.5 -241.5
s-114.834 -104.834 -195.501 -123.501l89 -60c25.333 -17.333 47 -30 65 -38s40.667 -12 68 -12v-19c-12.667 -12.667 -30.5 -25.5 -53.5 -38.5s-50.833 -19.5 -83.5 -19.5c-34 0 -67.833 9.66699 -101.5 29s-67.5 51.333 -101.5 96zM384 42c46.667 0 78.167 31.667 94.5 95
s24.5 129.666 24.5 198.999c0 91.333 -9.66699 168.166 -29 230.499s-52.666 93.5 -99.999 93.5c-46.667 0 -78.167 -31.667 -94.5 -95s-24.5 -129.666 -24.5 -198.999c0 -91.333 9.66699 -168.166 29 -230.499s52.666 -93.5 99.999 -93.5z" />
    <glyph glyph-name="R" unicode="R" horiz-adv-x="778" 
d="M335 649l-21 0.000976562v-305h22c42 0 75.167 13.667 99.5 41s36.5 65.666 36.5 114.999c0 47.333 -12 84 -36 110s-57.667 39 -101 39zM314 290.001v-178c0 -25.333 3.33301 -42 10 -50s26.334 -13.667 59.001 -17v-45h-357v45c32.667 3.33301 52.334 9 59.001 17
s10 24.667 10 50v478c0 25.333 -3.33301 42 -10 50s-26.334 13.667 -59.001 17v45h389c80 0 145.5 -17.833 196.5 -53.5s76.5 -84.834 76.5 -147.501c0 -48.667 -14.833 -87.5 -44.5 -116.5s-62.5 -49.833 -98.5 -62.5l133 -196c20 -30 36 -50.667 48 -62
s29.333 -17.666 52 -18.999v-45h-247c-14 10.667 -27.833 25.167 -41.5 43.5s-27.834 40.5 -42.501 66.5l-103 180h-30z" />
    <glyph glyph-name="S" unicode="S" horiz-adv-x="592" 
d="M281 -10c-50.667 0 -97.3311 6.49707 -139.998 19.4971s-76.334 28.833 -101.001 47.5l-12 175h59c12.667 -54 35.667 -99.167 69 -135.5s75 -54.5 125 -54.5c32.667 0 59.334 7.33301 80.001 22s31 36.667 31 66c0 30 -11.5 53.333 -34.5 70
s-61.167 32.334 -114.5 47.001c-69.333 18.667 -122 46.334 -158 83.001s-54 85.667 -54 147c0 73.333 25.167 130.833 75.5 172.5s113.166 62.5 188.499 62.5c47.333 0 89.833 -5.5 127.5 -16.5s68.5 -25.5 92.5 -43.5v-153h-49c-12.667 48 -32.834 87 -60.501 117
s-64.5 45 -110.5 45c-28.667 0 -52.167 -7.66699 -70.5 -23s-27.5 -36.666 -27.5 -63.999c0 -30.667 11.333 -54.167 34 -70.5s59 -31.5 109 -45.5c66 -18.667 119.833 -44.5 161.5 -77.5s62.5 -86.167 62.5 -159.5c0 -80 -27.833 -138.5 -83.5 -175.5
s-122.167 -55.5 -199.5 -55.5z" />
    <glyph glyph-name="T" unicode="T" horiz-adv-x="723" 
d="M30 702h663.002l15 -261h-45c-38 80.667 -67.833 137.167 -89.5 169.5s-47.834 48.5 -78.501 48.5h-24v-552c0 -25.333 5 -41.166 15 -47.499s31.333 -11.166 64 -14.499v-45h-377v45c32.667 3.33301 54 8.16602 64 14.499s15 22.166 15 47.499v552h-24
c-30.667 0 -56.834 -16.167 -78.501 -48.5s-51.5 -88.833 -89.5 -169.5h-45z" />
    <glyph glyph-name="U" unicode="U" horiz-adv-x="763" 
d="M303 590l0.00195312 -324.999c0 -56 11.167 -100.5 33.5 -133.5s60.5 -49.5 114.5 -49.5c41.333 0 77.5 13.833 108.5 41.5s46.5 76.167 46.5 145.5v321c0 25.333 -5.33301 42.166 -16 50.499s-36 13.833 -76 16.5v45h234v-45c-32.667 -3.33301 -52.334 -9 -59.001 -17
s-10 -24.667 -10 -50v-341c0 -88 -27.667 -153.167 -83 -195.5s-122.666 -63.5 -201.999 -63.5c-99.333 0 -175.833 21.833 -229.5 65.5s-80.5 108.167 -80.5 193.5v341c0 25.333 -3.33301 42 -10 50s-26.334 13.667 -59.001 17v45h357v-45
c-32.667 -3.33301 -52.334 -9 -59.001 -17s-10 -24.667 -10 -50z" />
    <glyph glyph-name="V" unicode="V" horiz-adv-x="741" 
d="M466 269l118.001 303.999l7.5 21.5c2.33301 7 3.5 13.167 3.5 18.5c0 14.667 -4.16699 25.334 -12.5 32.001s-27.166 10.667 -56.499 12v45h210v-45c-14.667 -2.66699 -26.834 -6.16699 -36.501 -10.5s-17.167 -13.166 -22.5 -26.499l-256 -623h-64l-294 623
c-6.66699 13.333 -14.334 22.166 -23.001 26.499s-20.334 7.83301 -35.001 10.5v45h377v-45c-29.333 -1.33301 -48.166 -5.33301 -56.499 -12s-12.5 -17.334 -12.5 -32.001c0 -5.33301 1 -11.666 3 -18.999s4.33301 -14.333 7 -21z" />
    <glyph glyph-name="W" unicode="W" horiz-adv-x="1028" 
d="M661 -3l-133 385l-143 -385h-81l-241 623c-4.66699 10.667 -12 18.834 -22 24.501s-22 9.83398 -36 12.501v45h345v-45c-16.667 -2 -28.5 -6.16699 -35.5 -12.5s-10.5 -14.833 -10.5 -25.5c0 -8 1.5 -17 4.5 -27s6.5 -20.333 10.5 -31l108 -287l71 193l-52 153
c-4 10.667 -9.66699 18.834 -17 24.501s-18 9.83398 -32 12.501v45h345v-45c-24.667 -0.666992 -41.667 -4.5 -51 -11.5s-14 -17.5 -14 -31.5c0 -8.66699 1.33301 -18.5 4 -29.5s6 -23.167 10 -36.5l86 -269l93 273c3.33301 10.667 6.33301 21 9 31s4 19 4 27
c0 13.333 -4.66699 24.166 -14 32.499s-26 13.166 -50 14.499v45h204v-45c-14 -2.66699 -26.167 -6.83398 -36.5 -12.501s-17.5 -13.834 -21.5 -24.501l-222 -623h-82z" />
    <glyph glyph-name="X" unicode="X" horiz-adv-x="763" 
d="M427 120l-108.999 159l-138 -173c-4 -4.66699 -7 -9.33398 -9 -14.001s-3 -9 -3 -13c0 -9.33301 7.16699 -17.166 21.5 -23.499s33.833 -9.83301 58.5 -10.5v-45h-243v45c20 2.66699 34.833 7 44.5 13s17.167 12.333 22.5 19l209 256l-200 292
c-6 8.66699 -13.667 15.5 -23 20.5s-20.333 8.83301 -33 11.5v45h364v-45c-16.667 0 -29.167 -2.16699 -37.5 -6.5s-12.5 -12.166 -12.5 -23.499c0 -6.66699 2 -13.334 6 -20.001s9.33301 -15 16 -25l77 -115l99 129c4 5.33301 7 10.333 9 15s3 9.33398 3 14.001
c0 9.33301 -5.5 16.833 -16.5 22.5s-25.5 8.83398 -43.5 9.50098v45h221v-45c-20 -2.66699 -34.667 -6.83398 -44 -12.501s-17 -12.167 -23 -19.5l-169 -211l221 -327c9.33301 -14 18.666 -23.833 27.999 -29.5s21 -9.83398 35 -12.501v-45h-379v45
c26.667 0.666992 45 3 55 7s15 11.667 15 23c0 6.66699 -1.66699 13 -5 19s-9 14.667 -17 26z" />
    <glyph glyph-name="Y" unicode="Y" horiz-adv-x="727" 
d="M481 258l-0.00292969 -151.002c0 -25.333 5 -41.166 15 -47.499s31.333 -11.166 64 -14.499v-45h-372v45c32.667 3.33301 54 8.16602 64 14.499s15 22.166 15 47.499v146l-204 367c-7.33301 14 -15.166 23 -23.499 27s-19.833 7.33301 -34.5 10v45h365v-45
c-25.333 -0.666992 -42.166 -3.83398 -50.499 -9.50098s-12.5 -14.5 -12.5 -26.5c0 -10.667 2 -21 6 -31s10 -22.333 18 -37l123 -210l103 208c6 12.667 11.667 25.334 17 38.001s8 23.334 8 32.001c0 12 -5.66699 20.833 -17 26.5s-27.666 8.83398 -48.999 9.50098v45h206
v-45c-14 -2.66699 -25.667 -6.5 -35 -11.5s-17 -13.5 -23 -25.5z" />
    <glyph glyph-name="Z" unicode="Z" horiz-adv-x="643" 
d="M266 50h105c42 0 76.333 12.167 103 36.5s62 75.166 106 152.499h48l-37 -239h-576v39l339 613h-97c-48 0 -81.5 -12.667 -100.5 -38s-43.5 -70.666 -73.5 -135.999h-45l10 224h559v-39z" />
    <glyph glyph-name="bracketleft" unicode="[" horiz-adv-x="342" 
d="M209 668v-706.998c0 -26 7.16699 -41.833 21.5 -47.5s41.5 -9.83398 81.5 -12.501v-42h-227v911h227v-42c-40 -2.66699 -67.167 -6.83398 -81.5 -12.501s-21.5 -21.5 -21.5 -47.5z" />
    <glyph glyph-name="backslash" unicode="\" horiz-adv-x="359" 
d="M277 -141l-272 911h87l272 -911h-87z" />
    <glyph glyph-name="bracketright" unicode="]" horiz-adv-x="342" 
d="M133 -39v706.998c0 26 -7.16699 41.833 -21.5 47.5s-41.5 9.83398 -81.5 12.501v42h227v-911h-227v42c40 2.66699 67.167 6.83398 81.5 12.501s21.5 21.5 21.5 47.5z" />
    <glyph glyph-name="asciicircum" unicode="^" horiz-adv-x="470" 
d="M275 770l165 -290h-77l-128 231l-128 -231h-77l165 290h80z" />
    <glyph glyph-name="underscore" unicode="_" horiz-adv-x="420" 
d="M400 -149h-380v83h380v-83z" />
    <glyph glyph-name="grave" unicode="`" 
d="M114 766h197l47 -163h-59l-185 153v10z" />
    <glyph glyph-name="a" unicode="a" horiz-adv-x="568" 
d="M276 98c5.33301 0 10.332 0.499023 14.999 1.49902s9.33398 2.16699 14.001 3.5v185l-40 -15c-16 -6 -29 -14.667 -39 -26s-15 -31.666 -15 -60.999c0 -24.667 4.83301 -45.5 14.5 -62.5s26.5 -25.5 50.5 -25.5zM506.999 374.999l-0.000976562 -265.002
c0 -10 1.33301 -19.333 4 -28s9.66699 -13 21 -13c6.66699 0 12.834 0.666992 18.501 2l12.5 3l7 -30c-17.333 -16 -37.333 -29 -60 -39s-49 -15 -79 -15c-30.667 0 -56.667 7.16699 -78 21.5s-36.333 34.833 -45 61.5c-14 -21.333 -33 -39.833 -57 -55.5
s-54.333 -23.5 -91 -23.5c-42.667 0 -77.834 11.667 -105.501 35s-41.5 57 -41.5 101s13 76.667 39 98s56.333 38 91 50l162 56v110c0 20 -3 36.167 -9 48.5s-17.333 18.5 -34 18.5c-17.333 0 -29.666 -7.16699 -36.999 -21.5s-11 -32.833 -11 -55.5
c0 -12 1 -24.167 3 -36.5s4.33301 -24.833 7 -37.5l-124 -16c-14.667 4.66699 -27 13.334 -37 26.001s-15 28.334 -15 47.001c0 47.333 21.667 81.833 65 103.5s96 32.5 158 32.5c72.667 0 130.167 -12.833 172.5 -38.5s63.5 -72.167 63.5 -139.5z" />
    <glyph glyph-name="b" unicode="b" horiz-adv-x="650" 
d="M53 677l-52.999 27v34l224 45h35v-329c12.667 22 33 44 61 66s63.667 33 107 33c58 0 106.333 -20.333 145 -61s58 -102.667 58 -186c0 -104.667 -29.833 -183.5 -89.5 -236.5s-132.834 -79.5 -219.501 -79.5c-46 0 -93.667 4.83301 -143 14.5s-91 27.5 -125 53.5v619z
M320.001 41c33.333 0 58.333 19.833 75 59.5s25 88.5 25 146.5c0 67.333 -10.833 115.166 -32.5 143.499s-49.167 42.5 -82.5 42.5c-8 0 -15.667 -0.666992 -23 -2s-15 -3.66602 -23 -6.99902v-283c0 -29.333 4 -53.333 12 -72s24.333 -28 49 -28z" />
    <glyph glyph-name="c" unicode="c" horiz-adv-x="517" 
d="M198 330c0 -62.667 13.501 -112.166 40.501 -148.499s65.167 -54.5 114.5 -54.5c28.667 0 53.667 4.83301 75 14.5s39.666 25.5 54.999 47.5l24 -15c-16.667 -64 -45.334 -110.667 -86.001 -140s-90 -44 -148 -44c-70.667 0 -130.5 23.5 -179.5 70.5
s-73.5 111.833 -73.5 194.5c0 85.333 25.833 156.333 77.5 213s119.834 85 204.501 85c50.667 0 95 -10.333 133 -31s57 -54 57 -100c0 -20.667 -5 -37.334 -15 -50.001s-20.667 -21.334 -32 -26.001h-103c1.33301 12 2.33301 22.833 3 32.5s1 18.834 1 27.501
c0 30 -4.5 54 -13.5 72s-24.5 27 -46.5 27c-28 0 -49.667 -16.667 -65 -50s-23 -75 -23 -125z" />
    <glyph glyph-name="d" unicode="d" horiz-adv-x="660" 
d="M325 486c-32.667 0 -57.001 -16.334 -73.001 -49.001s-24 -76 -24 -130c0 -61.333 10 -110.833 30 -148.5s47.667 -56.5 83 -56.5c6.66699 0 13.834 0.5 21.501 1.5s15.167 2.83301 22.5 5.5v284c0 30.667 -4 53.834 -12 69.501s-24 23.5 -48 23.5zM384.999 676.999
l-53.002 27.002v34l224 45h35v-664c0 -16.667 1.66699 -29.334 5 -38.001s12.333 -13 27 -13h23v-44l-225 -34h-39l3 95c-20.667 -32 -44.667 -55.833 -72 -71.5s-57.666 -23.5 -90.999 -23.5c-58 0 -106.167 22 -144.5 66s-57.5 107.667 -57.5 191
c0 98.667 26.5 173.5 79.5 224.5s116.5 76.5 190.5 76.5c19.333 0 37.333 -2.33301 54 -7s30.334 -11.334 41.001 -20.001v156z" />
    <glyph glyph-name="e" unicode="e" horiz-adv-x="541" 
d="M297 553c74.667 0 130.999 -20.998 168.999 -62.998s57 -95.667 57 -161v-25h-317c0 -54.667 14 -98.334 42 -131.001s64 -49 108 -49c31.333 0 59.333 5.5 84 16.5s46.334 28.833 65.001 53.5l21 -13c-14 -58 -40.833 -104.333 -80.5 -139s-92.167 -52 -157.5 -52
c-74 0 -137.167 23.167 -189.5 69.5s-78.5 113.166 -78.5 200.499c0 90 27.833 161.333 83.5 214s120.167 79 193.5 79zM283.999 509.002c-24.667 0 -43.167 -14.3311 -55.5 -42.998s-19.5 -66.334 -21.5 -113.001h141c0 49.333 -4.66699 87.666 -14 114.999s-26 41 -50 41z
" />
    <glyph glyph-name="f" unicode="f" horiz-adv-x="392" 
d="M282 486v-389c0 -22 6 -35.667 18 -41s32 -10 60 -14v-42h-337v42c18.667 1.33301 32.167 4 40.5 8s12.5 13.333 12.5 28v408h-71v45l71 17v8c0 79.333 24.5 137 73.5 173s107.167 54 174.5 54c57.333 0 99.333 -9.16699 126 -27.5s40 -43.5 40 -75.5
c0 -14.667 -3.66699 -27.834 -11 -39.501s-16.666 -20.167 -27.999 -25.5h-103c1.33301 6.66699 2.5 14.334 3.5 23.001s1.5 17.334 1.5 26.001c0 17.333 -1.83301 33.333 -5.5 48s-12.834 22 -27.501 22c-14 0 -23.833 -5.33301 -29.5 -16s-8.5 -25.334 -8.5 -44.001v-131
h114v-57h-114z" />
    <glyph glyph-name="g" unicode="g" horiz-adv-x="571" 
d="M265 187c-18.667 0 -38.0039 1.3291 -58.0039 3.99609s-39.333 7 -58 13c-6.66699 -6 -12.5 -12.5 -17.5 -19.5s-7.5 -15.167 -7.5 -24.5c0 -7.33301 2.33301 -13.666 7 -18.999s11.334 -8 20.001 -8h223c71.333 0 122.5 -14.167 153.5 -42.5s46.5 -65.5 46.5 -111.5
c0 -65.333 -28.5 -115.333 -85.5 -150s-132.167 -52 -225.5 -52c-81.333 0 -146 10.333 -194 31s-72 50.667 -72 90c0 24.667 10.167 42.667 30.5 54s40.833 18 61.5 20c-21.333 8.66699 -38 22.834 -50 42.501s-18 40.167 -18 61.5c0 34 10 62.167 30 84.5
s43.333 40.5 70 54.5c-28 12.667 -51.167 30.834 -69.5 54.501s-27.5 53.834 -27.5 90.501c0 60.667 23.667 108 71 142s107 51 179 51c20.667 0 38.834 -1.33301 54.501 -4s29.834 -5.66699 42.501 -9l183 4v-72h-47l-57 2c18.667 -12.667 33.5 -28.5 44.5 -47.5
s16.5 -40.833 16.5 -65.5c0 -56 -23.667 -99 -71 -129s-105.666 -45 -174.999 -45zM385.996 -54.0039h-274c-2 -2.66699 -3.33301 -6.5 -4 -11.5s-1 -10.167 -1 -15.5c0 -28.667 14.833 -51 44.5 -67s67.834 -24 114.501 -24c43.333 0 82.166 5.66699 116.499 17
s51.5 32.333 51.5 63c0 12.667 -4 22.167 -12 28.5s-20 9.5 -36 9.5zM271.996 229.996c20.667 0 34.333 11.5 41 34.5s10 56.833 10 101.5c0 36.667 -4.5 69.5 -13.5 98.5s-23.833 43.5 -44.5 43.5c-20 0 -33.5 -11.5 -40.5 -34.5s-10.5 -55.5 -10.5 -97.5
c0 -39.333 4.66699 -73.5 14 -102.5s24 -43.5 44 -43.5z" />
    <glyph glyph-name="h" unicode="h" horiz-adv-x="680" 
d="M71 78v599l-53 27v34l224 45h35v-331c18 23.333 42 46 72 68s68.333 33 115 33c48 0 85.833 -13.667 113.5 -41s41.5 -68.333 41.5 -123v-311c0 -14.667 4.16699 -24 12.5 -28s21.833 -6.66699 40.5 -8v-42h-309v42c18.667 1.33301 31.667 4 39 8s11 13.333 11 28v293
c0 18.667 -4.16699 33.667 -12.5 45s-24.833 17 -49.5 17c-14 0 -27 -1.16699 -39 -3.5s-23.667 -5.5 -35 -9.5v-342c0 -14.667 3.66699 -24 11 -28s20.333 -6.66699 39 -8v-42h-309v42c18.667 1.33301 32.167 4 40.5 8s12.5 13.333 12.5 28z" />
    <glyph glyph-name="i" unicode="i" horiz-adv-x="350" 
d="M281 553v-475c0 -14.667 4.16699 -24 12.5 -28s21.833 -6.66699 40.5 -8v-42h-312v42c18.667 1.33301 32.167 4 40.5 8s12.5 13.333 12.5 28v350l-53 34v31l223 60h36zM181 590c-33.333 0 -59.333 9.83301 -78 29.5s-28 42.834 -28 69.501s9.33301 49.834 28 69.501
s44.667 29.5 78 29.5c32.667 0 58.5 -9.83301 77.5 -29.5s28.5 -42.834 28.5 -69.501s-9.5 -49.834 -28.5 -69.501s-44.833 -29.5 -77.5 -29.5z" />
    <glyph glyph-name="j" unicode="j" horiz-adv-x="315" 
d="M59 428l-53 33.999v31l223 60h36v-442c0 -59.333 -7 -104.666 -21 -135.999s-33.667 -58.333 -59 -81c-30.667 -27.333 -59.667 -48 -87 -62s-59.333 -28.333 -96 -43l-17 22l41 63c16 24.667 25.5 53.167 28.5 85.5s4.5 67.833 4.5 106.5v362zM162 589.999
c-33.333 0 -59.333 9.83301 -78 29.5s-28 42.834 -28 69.501s9.33301 49.834 28 69.501s44.667 29.5 78 29.5c32.667 0 58.5 -9.83301 77.5 -29.5s28.5 -42.834 28.5 -69.501s-9.5 -49.834 -28.5 -69.501s-44.833 -29.5 -77.5 -29.5z" />
    <glyph glyph-name="k" unicode="k" horiz-adv-x="662" 
d="M283 283l152 136.999c14 12.667 23.167 22.667 27.5 30s6.5 14.333 6.5 21c0 8.66699 -4.16699 15.167 -12.5 19.5s-23.833 7.83301 -46.5 10.5v42h233v-42c-16.667 -2 -31.5 -5.16699 -44.5 -9.5s-26.167 -13.166 -39.5 -26.499l-106 -102l209 -334v-29h-212zM71 77.999
v599l-53 27v34l224 45h35v-705c0 -14.667 4.16699 -24 12.5 -28s21.833 -6.66699 40.5 -8v-42h-312v42c18.667 1.33301 32.167 4 40.5 8s12.5 13.333 12.5 28z" />
    <glyph glyph-name="l" unicode="l" horiz-adv-x="346" 
d="M277 783v-705c0 -14.667 4.16699 -24 12.5 -28s21.833 -6.66699 40.5 -8v-42h-312v42c18.667 1.33301 32.167 4 40.5 8s12.5 13.333 12.5 28v599l-53 27v34l224 45h35z" />
    <glyph glyph-name="m" unicode="m" horiz-adv-x="998" 
d="M731 78l0.00195312 295.996c0 18.667 -3.83301 33.334 -11.5 44.001s-21.834 16 -42.501 16c-12.667 0 -24.5 -1.5 -35.5 -4.5s-21.833 -6.5 -32.5 -10.5v-341c0 -14.667 3 -24 9 -28s18.333 -6.66699 37 -8v-42h-298v42c18.667 1.33301 31 4 37 8s9 13.333 9 28v296
c0 18.667 -3.83301 33.334 -11.5 44.001s-21.834 16 -42.501 16c-12.667 0 -24.5 -1.33301 -35.5 -4s-21.833 -6 -32.5 -10v-342c0 -14.667 3 -24 9 -28s18.333 -6.66699 37 -8v-42h-305v42c18.667 1.33301 32.167 4 40.5 8s12.5 13.333 12.5 28v350l-53 34v31l223 60h40
l-4 -103c17.333 27.333 40.666 51.333 69.999 72s66.666 31 111.999 31c38.667 0 70.334 -8.16699 95.001 -24.5s40.334 -43.166 47.001 -80.499c16.667 26.667 40.5 50.834 71.5 72.501s68.5 32.5 112.5 32.5c46 0 82.167 -13.167 108.5 -39.5s39.5 -65.5 39.5 -117.5v-318
c0 -14.667 4.16699 -24 12.5 -28s21.833 -6.66699 40.5 -8v-42h-305v42c18.667 1.33301 31 4 37 8s9 13.333 9 28z" />
    <glyph glyph-name="n" unicode="n" horiz-adv-x="684" 
d="M417 78v293c0 18.667 -4.16699 33.667 -12.5 45s-24.833 17 -49.5 17c-14 0 -27 -1.16699 -39 -3.5s-23.667 -5.5 -35 -9.5v-342c0 -14.667 3.66699 -24 11 -28s20.333 -6.66699 39 -8v-42h-309v42c18.667 1.33301 32.167 4 40.5 8s12.5 13.333 12.5 28v350l-53 34v31
l223 60h40l-4 -101c18 23.333 42 46 72 68s68.333 33 115 33c48 0 85.833 -13.667 113.5 -41s41.5 -68.333 41.5 -123v-311c0 -14.667 4.16699 -24 12.5 -28s21.833 -6.66699 40.5 -8v-42h-309v42c18.667 1.33301 31.667 4 39 8s11 13.333 11 28z" />
    <glyph glyph-name="o" unicode="o" horiz-adv-x="620" 
d="M315 34c26.667 0 44.334 17.667 53.001 53s13 84 13 146c0 85.333 -5.5 152.666 -16.5 201.999s-30.833 74 -59.5 74c-26.667 0 -44.334 -17.667 -53.001 -53s-13 -84 -13 -146c0 -85.333 5.5 -152.666 16.5 -201.999s30.833 -74 59.5 -74zM310 -10
c-85.333 0 -155 24.5 -209 73.5s-81 115.167 -81 198.5s27 152.666 81 207.999s123.667 83 209 83s155 -24.5 209 -73.5s81 -115.167 81 -198.5s-27 -152.666 -81 -207.999s-123.667 -83 -209 -83z" />
    <glyph glyph-name="p" unicode="p" horiz-adv-x="665" 
d="M335 41c33.333 0 58.333 19.833 75 59.5s25 88.5 25 146.5c0 67.333 -10.833 115.166 -32.5 143.499s-49.167 42.5 -82.5 42.5c-8 0 -15.667 -0.666992 -23 -2s-15 -3.66602 -23 -6.99902v-283c0 -29.333 4 -53.333 12 -72s24.333 -28 49 -28zM68 -134
l-0.000976562 562.001l-53 34v31l223 60h40l-4 -99c12.667 22 33 44 61 66s63.667 33 107 33c58 0 106.333 -20.333 145 -61s58 -102.667 58 -186c0 -104.667 -28 -183.5 -84 -236.5s-124.667 -79.5 -206 -79.5c-18 0 -34.167 1.5 -48.5 4.5s-25.166 7.16699 -32.499 12.5
v-136c0 -17.333 5.33301 -27.833 16 -31.5s30 -6.83398 58 -9.50098v-42h-333v42c18.667 1.33301 32.167 4 40.5 8s12.5 13.333 12.5 28z" />
    <glyph glyph-name="q" unicode="q" horiz-adv-x="644" 
d="M325 501c-32.667 0 -57.002 -17.168 -73.002 -51.501s-24 -78.5 -24 -132.5c0 -61.333 10 -112.5 30 -153.5s47.667 -61.5 83 -61.5c6.66699 0 13.834 0.5 21.501 1.5s15.167 2.83301 22.5 5.5v299c0 30.667 -5.16699 53.834 -15.5 69.501s-25.166 23.5 -44.499 23.5z
M384.998 -129.001l-0.000976562 213.998c-15.333 -25.333 -36.5 -47.5 -63.5 -66.5s-60.167 -28.5 -99.5 -28.5c-58 0 -106.167 22 -144.5 66s-57.5 107.667 -57.5 191c0 98.667 27 174.334 81 227.001s120 79 198 79c38.667 0 72.334 -5.16699 101.001 -15.5
s53.667 -25.5 75 -45.5l80 58h41l-5 -124v-560c0 -14.667 4.16699 -24 12.5 -28s21.833 -6.66699 40.5 -8v-42h-333v42c28 2.66699 47.333 5.83398 58 9.50098s16 14.167 16 31.5z" />
    <glyph glyph-name="r" unicode="r" horiz-adv-x="478" 
d="M281 355l-0.000976562 -258c0 -22 6 -35.667 18 -41s32 -10 60 -14v-42h-337v42c18.667 1.33301 32.167 4 40.5 8s12.5 13.333 12.5 28v350l-53 34v31l223 60h40l-4 -156c18.667 60 38.5 101 59.5 123s47.5 33 79.5 33c12.667 0 23.334 -1.66699 32.001 -5
s15.667 -7.33301 21 -12v-153h-26c-32 0 -62.333 -1.5 -91 -4.5s-53.667 -10.833 -75 -23.5z" />
    <glyph glyph-name="s" unicode="s" horiz-adv-x="487" 
d="M231 -10c-43.333 0 -81.1699 4.66699 -113.503 14s-59.833 21.666 -82.5 36.999l-6 135h51c8.66699 -40 26.167 -73.5 52.5 -100.5s58.5 -40.5 96.5 -40.5c22.667 0 41.834 5.33301 57.501 16s23.5 26.334 23.5 47.001c0 24.667 -9.16699 42.334 -27.5 53.001
s-43.5 20.667 -75.5 30c-58 16.667 -102.333 39.334 -133 68.001s-46 69 -46 121c0 59.333 20.333 104.666 61 135.999s92 47 154 47c34 0 66.5 -4.16699 97.5 -12.5s57.167 -19.5 78.5 -33.5v-120h-47c-4.66699 31.333 -18 59.333 -40 84s-50 37 -84 37
c-20 0 -36.333 -5 -49 -15s-19 -24 -19 -42c0 -20 7.33301 -35 22 -45s37.334 -20 68.001 -30c62 -20.667 109.5 -44.334 142.5 -71.001s49.5 -68.667 49.5 -126c0 -60 -21.167 -106.5 -63.5 -139.5s-98.166 -49.5 -167.499 -49.5z" />
    <glyph glyph-name="t" unicode="t" horiz-adv-x="405" 
d="M268 682l-0.000976562 -139h111v-57h-111v-331c0 -21.333 4.33301 -37 13 -47s21.334 -15 38.001 -15c12 0 23.833 2.16699 35.5 6.5s23.167 10.5 34.5 18.5l16 -25c-20 -33.333 -45 -58.833 -75 -76.5s-66 -26.5 -108 -26.5c-48 0 -87.167 13 -117.5 39
s-45.5 69 -45.5 129v328h-54v37c42 14.667 82 36.167 120 64.5s71 59.833 99 94.5h44z" />
    <glyph glyph-name="u" unicode="u" horiz-adv-x="669" 
d="M600 421v-302c0 -16.667 1.66699 -29.334 5 -38.001s12.333 -13 27 -13h23v-44l-225 -34h-39l3 98c-16.667 -22.667 -39.334 -44.667 -68.001 -66s-66 -32 -112 -32c-44.667 0 -81.5 14 -110.5 42s-43.5 71 -43.5 129v237c0 14 -2.33301 26.333 -7 37
s-14 18.334 -28 23.001l-15 5v40l224 50h38l-6 -132v-242c0 -22.667 4.83301 -40.334 14.5 -53.001s25.834 -19 48.501 -19c12.667 0 23.5 0.833008 32.5 2.5s19.833 4.5 32.5 8.5v280c0 14 -2.33301 26.333 -7 37s-14 18.334 -28 23.001l-15 5v40l224 50h38z" />
    <glyph glyph-name="v" unicode="v" horiz-adv-x="616" 
d="M611 543v-42c-16.667 -5.33301 -28.167 -10.666 -34.5 -15.999s-11.833 -13.333 -16.5 -24l-210 -464h-59l-235 464c-5.33301 10.667 -11 18.667 -17 24s-17.333 10.666 -34 15.999v42h342v-42c-26.667 -3.33301 -44.167 -7.33301 -52.5 -12s-12.5 -12.334 -12.5 -23.001
c0 -4.66699 0.666992 -8.83398 2 -12.501s3.33301 -8.83398 6 -15.501l100 -212l91 212c2.66699 6.66699 4.66699 11.834 6 15.501s2 7.83398 2 12.501c0 10.667 -4.16699 18.334 -12.5 23.001s-25.833 8.66699 -52.5 12v42h187z" />
    <glyph glyph-name="w" unicode="w" horiz-adv-x="923" 
d="M708 236l82.002 202.003c2.66699 6.66699 4.66699 12.667 6 18s2 10 2 14c0 10 -4.5 17.167 -13.5 21.5s-22.833 7.5 -41.5 9.5v42h175v-42c-16.667 -5.33301 -28.167 -10.666 -34.5 -15.999s-11.833 -13.333 -16.5 -24l-200 -464h-68l-118 302l-142 -302h-68l-215 464
c-4.66699 10.667 -10.167 18.667 -16.5 24s-17.833 10.666 -34.5 15.999v42h318v-42c-14.667 -2 -25.334 -5.33301 -32.001 -10s-10 -11 -10 -19c0 -4.66699 0.833008 -9.83398 2.5 -15.501s3.83398 -11.834 6.50098 -18.501l90 -214l70 145l-36 92
c-4 10.667 -9.33301 19 -16 25s-16.334 11 -29.001 15v42h316v-42c-20.667 -2.66699 -35.834 -5.83398 -45.501 -9.50098s-14.5 -11.5 -14.5 -23.5c0 -4 0.5 -8.5 1.5 -13.5s2.5 -10.5 4.5 -16.5z" />
    <glyph glyph-name="x" unicode="x" horiz-adv-x="632" 
d="M334 108l-84.001 113.005l-82 -110c-4.66699 -6 -8 -11.667 -10 -17s-3 -10.333 -3 -15c0 -10.667 5.33301 -19.334 16 -26.001s25.667 -10.334 45 -11.001v-42h-211v42c17.333 4.66699 31.5 10.834 42.5 18.501s19.833 15.834 26.5 24.501l140 185l-140 191
c-5.33301 7.33301 -11 14 -17 20s-16.333 12.667 -31 20v42h315v-42c-14 -0.666992 -24.833 -3.33398 -32.5 -8.00098s-11.5 -11.334 -11.5 -20.001c0 -4.66699 1.5 -10.167 4.5 -16.5s7.16699 -13.5 12.5 -21.5l65 -88l63 85c5.33301 7.33301 9.66602 14.333 12.999 21
s5 12.667 5 18c0 8 -3.83301 14.5 -11.5 19.5s-19.167 8.5 -34.5 10.5v42h185v-42c-17.333 -4.66699 -30.666 -10.834 -39.999 -18.501s-17.333 -15.834 -24 -24.501l-122 -158l161 -218c5.33301 -7.33301 11.833 -14.333 19.5 -21s18.834 -13 33.501 -19v-42h-330v42
c17.333 0.666992 30.5 3.5 39.5 8.5s13.5 11.833 13.5 20.5c0 4.66699 -1.33301 10.167 -4 16.5s-6.66699 13.166 -12 20.499z" />
    <glyph glyph-name="y" unicode="y" horiz-adv-x="616" 
d="M387 202l94 234c2.66699 6.66699 4.66699 12.167 6 16.5s2 8.83301 2 13.5c0 10.667 -4.16699 18.334 -12.5 23.001s-25.833 8.66699 -52.5 12v42h187v-42c-16.667 -5.33301 -28.167 -10.666 -34.5 -15.999s-11.833 -13.333 -16.5 -24l-232 -544
c-19.333 -45.333 -40.166 -79.833 -62.499 -103.5s-51.5 -35.5 -87.5 -35.5c-20.667 0 -38.334 3.66699 -53.001 11s-25.667 17 -33 29v81c13.333 -2.66699 26.333 -5 39 -7s27 -3 43 -3c28.667 0 50.5 4.16699 65.5 12.5s26.833 21.5 35.5 39.5l15 32l-234 488
c-4.66699 10.667 -10.167 18.667 -16.5 24s-17.833 10.666 -34.5 15.999v42h342v-42c-26.667 -3.33301 -44.167 -7.33301 -52.5 -12s-12.5 -12.334 -12.5 -23.001c0 -4.66699 0.666992 -9 2 -13l5 -15z" />
    <glyph glyph-name="z" unicode="z" horiz-adv-x="550" 
d="M15 0l-0.00195312 37.999l280 457h-80c-25.333 0 -48.166 -12.667 -68.499 -38s-43.166 -64.666 -68.499 -117.999h-42l14 236h40l22 -32h415v-37l-274 -457h90c34 0 61.5 12 82.5 36s45.5 63.333 73.5 118h41l-24 -203h-501z" />
    <glyph glyph-name="braceleft" unicode="{" horiz-adv-x="373" 
d="M50 304v20.002c24 4.66699 43.833 14.5 59.5 29.5s23.5 38.5 23.5 70.5v218c0 39.333 16.167 70.5 48.5 93.5s87.833 34.5 166.5 34.5v-31c-23.333 -2.66699 -43.333 -11.334 -60 -26.001s-25 -38.667 -25 -72v-205c0 -38.667 -11.333 -67 -34 -85
s-51.667 -30.333 -87 -37c35.333 -6.66699 64.333 -19 87 -37s34 -46.333 34 -85v-204c0 -33.333 8.33301 -57.333 25 -72s36.667 -23.334 60 -26.001v-31c-78.667 0 -134.167 11.5 -166.5 34.5s-48.5 54.167 -48.5 93.5v217c0 32 -7.83301 55.5 -23.5 70.5
s-35.5 24.833 -59.5 29.5z" />
    <glyph glyph-name="bar" unicode="|" horiz-adv-x="202" 
d="M142 770v-911h-82v911h82z" />
    <glyph glyph-name="braceright" unicode="}" horiz-adv-x="383" 
d="M333 324v-20.002c-24 -4.66699 -43.833 -14.5 -59.5 -29.5s-23.5 -38.5 -23.5 -70.5v-217c0 -39.333 -16.167 -70.5 -48.5 -93.5s-87.833 -34.5 -166.5 -34.5v31c23.333 2.66699 43.333 11.334 60 26.001s25 38.667 25 72v204c0 38.667 11.333 67 34 85
s51.667 30.333 87 37c-35.333 6.66699 -64.333 19 -87 37s-34 46.333 -34 85v205c0 33.333 -8.33301 57.333 -25 72s-36.667 23.334 -60 26.001v31c78.667 0 134.167 -11.5 166.5 -34.5s48.5 -54.167 48.5 -93.5v-218c0 -32 7.83301 -55.5 23.5 -70.5
s35.5 -24.833 59.5 -29.5z" />
    <glyph glyph-name="asciitilde" unicode="~" horiz-adv-x="502" 
d="M439 403l33 -17c-15.333 -55.333 -35.166 -97.333 -59.499 -126s-53.833 -43 -88.5 -43c-30 0 -58.333 12.667 -85 38s-53.667 38 -81 38c-21.333 0 -39.666 -7.16699 -54.999 -21.5s-28.666 -30.833 -39.999 -49.5l-33 17c15.333 55.333 35.166 97.333 59.499 126
s53.833 43 88.5 43c30 0 58.333 -12.667 85 -38s53.667 -38 81 -38c21.333 0 39.666 7.16699 54.999 21.5s28.666 30.833 39.999 49.5z" />
    <glyph glyph-name="exclamdown" unicode="&#xa1;" horiz-adv-x="305" 
d="M51 510c0 28 10 52.167 30 72.5s43.667 30.5 71 30.5c28.667 0 52.834 -10.167 72.501 -30.5s29.5 -44.5 29.5 -72.5c0 -29.333 -9.83301 -54.333 -29.5 -75s-43.834 -31 -72.501 -31c-27.333 0 -51 10.333 -71 31s-30 45.667 -30 75zM119 362h67l88 -461h-243z" />
    <glyph glyph-name="cent" unicode="&#xa2;" horiz-adv-x="537" 
d="M187 -117l19.002 115.997c-54.667 13.333 -99.334 42.833 -134.001 88.5s-52 104.167 -52 175.5c0 86 25.833 158.167 77.5 216.5s120.167 88.5 205.5 90.5l19 107h44l-19 -109c44 -4 81.667 -16.667 113 -38s47 -53 47 -95c0 -20.667 -5.16699 -37.667 -15.5 -51
s-21.5 -22.333 -33.5 -27h-80c1.33301 12.667 2.33301 24.334 3 35.001s1 20.334 1 29.001c0 24 -3 44.333 -9 61s-17.333 28.334 -34 35.001l-64 -376c11.333 -6.66699 23.833 -11.5 37.5 -14.5s28.167 -4.5 43.5 -4.5c32.667 0 60.334 6.5 83.001 19.5s42 30.833 58 53.5
l25 -15c-16.667 -66 -46.834 -114.167 -90.501 -144.5s-95.167 -45.5 -154.5 -45.5h-14c-4.66699 0 -9.33398 0.333008 -14.001 1l-18 -108h-44zM190.002 334.997c0 -36.667 3.99902 -68.5 11.999 -95.5s19.333 -49.167 34 -66.5l59 349
c-31.333 -2.66699 -56.666 -21.5 -75.999 -56.5s-29 -78.5 -29 -130.5z" />
    <glyph glyph-name="sterling" unicode="&#xa3;" horiz-adv-x="712" 
d="M99 347v45.0039h101l2 39c4.66699 92 28.5 161.833 71.5 209.5s108.167 71.5 195.5 71.5c50.667 0 96.167 -9.83301 136.5 -29.5s60.5 -51.5 60.5 -95.5c0 -20.667 -5.33301 -38.334 -16 -53.001s-23.334 -24.334 -38.001 -29.001h-106c4 9.33301 7.5 20.333 10.5 33
s4.5 28.334 4.5 47.001c0 19.333 -2 38.833 -6 58.5s-15.333 29.5 -34 29.5c-18 0 -31.167 -8.66699 -39.5 -26s-13.833 -42.333 -16.5 -75l-16 -180h148v-45h-152c-4.66699 -42.667 -11.5 -79.834 -20.5 -111.501s-18.5 -56.5 -28.5 -74.5c24.667 -8.66699 55 -15 91 -19
s67.333 -6 94 -6s48.334 5.16699 65.001 15.5s25 26.166 25 47.499c0 8 -0.666992 14.5 -2 19.5s-3.33301 10.5 -6 16.5l33 11c6.66699 -8.66699 13.5 -21.667 20.5 -39s10.5 -36.333 10.5 -57c0 -50 -14.667 -89.167 -44 -117.5s-71 -42.5 -125 -42.5
c-49.333 0 -91.833 9.83301 -127.5 29.5s-64.834 38.5 -87.501 56.5c-17.333 -24.667 -40.833 -45.167 -70.5 -61.5s-63.167 -24.5 -100.5 -24.5c-36.667 0 -66.167 9.66699 -88.5 29s-33.5 45.333 -33.5 78c0 34 10.667 60.333 32 79s48 28 80 28
c9.33301 0 20.333 -0.833008 33 -2.5s24.334 -4.83398 35.001 -9.50098l8 155h-99zM119 43.0039c20.667 0 36.833 8.5 48.5 25.5s17.834 40.5 18.501 70.5c-9.33301 5.33301 -19.333 10.333 -30 15s-22.334 7 -35.001 7c-18.667 0 -33 -5.66699 -43 -17s-15 -26.333 -15 -45
c0 -17.333 5.16699 -31 15.5 -41s23.833 -15 40.5 -15z" />
    <glyph glyph-name="yen" unicode="&#xa5;" horiz-adv-x="701" 
d="M92 351l-0.00195312 48.001h94l-123 221c-7.33301 14 -15.166 23 -23.499 27s-19.833 7.33301 -34.5 10v45h359v-45c-25.333 -0.666992 -42.166 -4 -50.499 -10s-12.5 -15.333 -12.5 -28c0 -10 2 -19.833 6 -29.5s10 -21.834 18 -36.501l109 -204l98 202
c6 12.667 10.5 24.167 13.5 34.5s4.5 21.5 4.5 33.5c0 12.667 -5.33301 22 -16 28s-26.667 9.33301 -48 10v45h210v-45c-14 -2.66699 -25.667 -6.5 -35 -11.5s-17 -13.5 -23 -25.5l-110 -221h95v-48h-119l-38 -78h157v-47h-158v-119c0 -25.333 5 -41.166 15 -47.499
s31.333 -11.166 64 -14.499v-45h-366v45c32.667 3.33301 54 8.16602 64 14.499s15 22.166 15 47.499v119h-165v47h164l-44 78h-120z" />
    <glyph glyph-name="section" unicode="&#xa7;" horiz-adv-x="531" 
d="M157 630c-20.667 -22 -35.834 -44.667 -45.501 -68s-14.5 -53 -14.5 -89c0 -52 11 -100.5 33 -145.5s49 -89.5 81 -133.5l101.5 -147c38.333 -56 58.833 -112 61.5 -168c20.667 22 35.834 44.667 45.501 68s14.5 53 14.5 89c0 51.333 -11 99.5 -33 144.5
s-49 89.833 -81 134.5l-101.5 146.5c-38.333 56.333 -58.833 112.5 -61.5 168.5zM230 -203c-47.333 0 -86.5 10.5 -117.5 31.5s-46.5 48.5 -46.5 82.5c0 18 4.66699 31.667 14 41s19.666 16 30.999 20h94v-50c0 -20 3.66699 -40 11 -60s25.333 -30 54 -30
c20.667 0 35.167 6 43.5 18s12.5 26.333 12.5 43c0 42.667 -17.333 86.5 -52 131.5l-104 140.5c-34 48 -63 96.833 -87 146.5s-36 103.5 -36 161.5c0 72.667 24.667 130.667 74 174s109.333 65 180 65c47.333 0 86.5 -10.5 117.5 -31.5s46.5 -48.5 46.5 -82.5
c0 -18 -4.66699 -31.667 -14 -41s-19.666 -16 -30.999 -20h-94v50c0 20 -3.66699 40 -11 60s-25.333 30 -54 30c-20.667 0 -35.167 -6 -43.5 -18s-12.5 -26.333 -12.5 -43c0 -42.667 17.333 -86.5 52 -131.5l104 -140.5c34 -48 63 -96.833 87 -146.5s36 -103.5 36 -161.5
c0 -72.667 -24.667 -130.667 -74 -174s-109.333 -65 -180 -65z" />
    <glyph glyph-name="dieresis" unicode="&#xa8;" 
d="M61 691c0 24 8.66699 44.667 26 62s38.333 26 63 26s45.834 -8.66699 63.501 -26s26.5 -38 26.5 -62s-8.83301 -44.667 -26.5 -62s-38.834 -26 -63.501 -26s-45.667 8.66699 -63 26s-26 38 -26 62zM271 691c0 24 8.83301 44.667 26.5 62s38.167 26 61.5 26
c25.333 0 46.833 -8.66699 64.5 -26s26.5 -38 26.5 -62s-8.83301 -44.667 -26.5 -62s-39.167 -26 -64.5 -26c-23.333 0 -43.833 8.66699 -61.5 26s-26.5 38 -26.5 62z" />
    <glyph glyph-name="copyright" unicode="&#xa9;" horiz-adv-x="776" 
d="M72 351c0 -88 29.5 -163.667 88.5 -227s134.833 -95 227.5 -95s168.5 31.667 227.5 95s88.5 139 88.5 227s-29.5 163.667 -88.5 227s-134.833 95 -227.5 95s-168.5 -31.667 -227.5 -95s-88.5 -139 -88.5 -227zM30 351c0 99.333 33.667 184.333 101 255s153 106 257 106
s189.667 -35.333 257 -106s101 -155.667 101 -255s-33.667 -184.333 -101 -255s-153 -106 -257 -106s-189.667 35.333 -257 106s-101 155.667 -101 255zM420 179c24.667 0 45.334 10.167 62.001 30.5s30.667 48.833 42 85.5h40l-9 -115c-18 -12 -39.5 -21.5 -64.5 -28.5
s-52.833 -10.5 -83.5 -10.5c-68.667 0 -121.667 19.167 -159 57.5s-56 86.833 -56 145.5c0 67.333 21.167 120.833 63.5 160.5s93.166 59.5 152.499 59.5c28.667 0 55.5 -3.83301 80.5 -11.5s45.167 -18.167 60.5 -31.5v-106h-39c-6 30.667 -16 56.834 -30 78.501
s-34.333 32.5 -61 32.5c-34 0 -57.833 -17.833 -71.5 -53.5s-20.5 -75.5 -20.5 -119.5c0 -52.667 7.5 -94.834 22.5 -126.501s38.5 -47.5 70.5 -47.5z" />
    <glyph glyph-name="ordfeminine" unicode="&#xaa;" horiz-adv-x="429" 
d="M197 414c6 0 11 0.666016 15 1.99902s8.33301 3.33301 13 6v111l-27 -12c-12.667 -6 -21.667 -13.5 -27 -22.5s-8 -21.167 -8 -36.5s3 -27.166 9 -35.499s14.333 -12.5 25 -12.5zM355 571.999v-140.001c0 -11.333 1.83301 -20 5.5 -26s9.16699 -9 16.5 -9
c3.33301 0 7.33301 0.333008 12 1s9.33398 1.66699 14.001 3l6 -20c-11.333 -11.333 -25.333 -20.833 -42 -28.5s-34.334 -11.5 -53.001 -11.5c-22 0 -40.833 5.83301 -56.5 17.5s-25.834 26.834 -30.501 45.501c-11.333 -20 -25.833 -35 -43.5 -45s-38.167 -15 -61.5 -15
c-26.667 0 -48.667 8.16699 -66 24.5s-26 38.166 -26 65.499c0 28.667 8.83301 49.834 26.5 63.501s37.834 24.167 60.501 31.5l108 35v54c0 22 -1.83301 38.333 -5.5 49s-11.5 16 -23.5 16s-20.667 -4.16699 -26 -12.5s-8 -19.5 -8 -33.5c0 -8 0.833008 -16.5 2.5 -25.5
s3.83398 -17.833 6.50098 -26.5l-92 -13c-8.66699 3.33301 -15.834 9.5 -21.501 18.5s-8.5 18.833 -8.5 29.5c0 30.667 14.333 53.667 43 69s65.667 23 111 23c52 0 90.333 -10 115 -30s37 -56.667 37 -110z" />
    <glyph glyph-name="guillemotleft" unicode="&#xab;" horiz-adv-x="474" 
d="M20 273v6l187 202h50l-82 -205l82 -205h-50zM217 273v6l187 202h50l-82 -205l82 -205h-50z" />
    <glyph glyph-name="registered" unicode="&#xae;" horiz-adv-x="515" 
d="M242 584l-6 -0.000976562v-97h6c14 0 25 4.5 33 13.5s12 20.833 12 35.5s-4 26.334 -12 35.001s-19 13 -33 13zM144 607.999l114.998 -0.00195312c36 0 61.667 -7.16699 77 -21.5s23 -30.833 23 -49.5s-5.5 -33.167 -16.5 -43.5s-22.833 -17.5 -35.5 -21.5l46 -62
c4.66699 -6.66699 9.33398 -11.667 14.001 -15s9.66699 -5.33301 15 -6v-19h-70c-5.33301 2.66699 -10.5 6.83398 -15.5 12.501s-9.83301 11.834 -14.5 18.501l-42 64h-4v-51c0 -9.33301 1.33301 -15.833 4 -19.5s9.33398 -5.5 20.001 -5.5v-19h-116v19
c11.333 0 18.5 1.83301 21.5 5.5s4.5 10.167 4.5 19.5v150c0 10 -1.5 16.333 -4.5 19s-10.167 4.66699 -21.5 6v19zM66.998 483.997c0 -51.333 18 -96.333 54 -135s81.333 -58 136 -58c55.333 0 101 19.333 137 58s54 83.667 54 135c0 52 -18 97.333 -54 136
s-81.667 58 -137 58c-54.667 0 -100 -19.333 -136 -58s-54 -84 -54 -136zM29.998 483.997c0 62.667 21.333 116.334 64 161.001s97 67 163 67s120.5 -22.333 163.5 -67s64.5 -98.334 64.5 -161.001c0 -62 -21.5 -115.333 -64.5 -160s-97.5 -67 -163.5 -67
s-120.333 22.333 -163 67s-64 98 -64 160z" />
    <glyph glyph-name="macron" unicode="&#xaf;" 
d="M110 625v95h294v-95h-294z" />
    <glyph glyph-name="degree" unicode="&#xb0;" horiz-adv-x="288" 
d="M77 590c0 -20.667 6 -37.834 18 -51.501s28.667 -20.5 50 -20.5c20.667 0 36.834 6.83301 48.501 20.5s17.5 30.834 17.5 51.501s-5.83301 37.667 -17.5 51s-27.834 20 -48.501 20c-21.333 0 -38 -6.66699 -50 -20s-18 -30.333 -18 -51zM20 590
c0 34 12.167 62.833 36.5 86.5s53.833 35.5 88.5 35.5c34 0 63 -11.833 87 -35.5s36 -52.5 36 -86.5c0 -34.667 -12 -63.834 -36 -87.501s-53 -35.5 -87 -35.5c-34.667 0 -64.167 11.833 -88.5 35.5s-36.5 52.834 -36.5 87.501z" />
    <glyph glyph-name="plusminus" unicode="&#xb1;" horiz-adv-x="576" 
d="M252 608h71v-141h186v-70h-186v-140h-71v140h-184v70h184v141zM68 135v71h441v-71h-441z" />
    <glyph glyph-name="twosuperior" unicode="&#xb2;" horiz-adv-x="399" 
d="M160 402l108.998 -0.00292969c14.667 0 25.334 2.83301 32.001 8.5s15.334 15.834 26.001 30.501h22l-11 -139h-308v28l117 108c21.333 20 37.166 39.167 47.499 57.5s15.5 37.833 15.5 58.5c0 19.333 -5.33301 35 -16 47s-26.334 18 -47.001 18
c-19.333 0 -36.166 -4.33301 -50.499 -13s-26.166 -18.667 -35.499 -30l-23 20c14 29.333 35 55.333 63 78s63 34 105 34c38.667 0 69.5 -10.167 92.5 -30.5s34.5 -48.5 34.5 -84.5c0 -43.333 -17.333 -79.666 -52 -108.999s-75 -56.666 -121 -81.999z" />
    <glyph glyph-name="threesuperior" unicode="&#xb3;" horiz-adv-x="394" 
d="M224 528c38 -0.666992 69.165 -10.0029 93.498 -28.0029s36.5 -43.667 36.5 -77c0 -39.333 -17 -69.166 -51 -89.499s-74.667 -30.5 -122 -30.5c-49.333 0 -85.166 8.16699 -107.499 24.5s-33.5 35.833 -33.5 58.5c0 13.333 3 23.833 9 31.5s12.333 12.834 19 15.501h73
c-2 -6 -3.33301 -11.167 -4 -15.5s-1 -9.16602 -1 -14.499c0 -20.667 4.33301 -37.334 13 -50.001s21 -19 37 -19c14.667 0 26.834 5.83301 36.501 17.5s14.5 29.834 14.5 54.501s-6.5 44.167 -19.5 58.5s-33.167 21.5 -60.5 21.5h-14l-8 23
c28.667 11.333 48.167 22.166 58.5 32.499s15.5 22.833 15.5 37.5c0 13.333 -4.5 24.833 -13.5 34.5s-22.5 14.5 -40.5 14.5s-32.833 -4.33301 -44.5 -13s-21.5 -18 -29.5 -28l-26 20c13.333 26.667 33.5 50.834 60.5 72.501s61.167 32.5 102.5 32.5c34 0 61.333 -8 82 -24
s31 -38.333 31 -67c0 -28 -10.833 -49.5 -32.5 -64.5s-46.5 -24.5 -74.5 -28.5z" />
    <glyph glyph-name="acute" unicode="&#xb4;" 
d="M161 766h197v-10l-185 -153h-59z" />
    <glyph glyph-name="paragraph" unicode="&#xb6;" horiz-adv-x="617" 
d="M313 -197v391c-88.667 0 -157.167 25.5 -205.5 76.5s-72.5 110.167 -72.5 177.5s24.167 126.5 72.5 177.5s116.833 76.5 205.5 76.5h278v-43c-40 0 -67 -4.5 -81 -13.5s-21 -28.833 -21 -59.5v-783h-49v856h-78v-856h-49zM313 235v426
c-35.333 -4.66699 -62.166 -29.167 -80.499 -73.5s-27.5 -90.833 -27.5 -139.5s9.16699 -95.167 27.5 -139.5s45.166 -68.833 80.499 -73.5z" />
    <glyph glyph-name="onesuperior" unicode="&#xb9;" horiz-adv-x="347" 
d="M202 712h36v-329c0 -17.333 4 -28 12 -32s25.333 -7 52 -9v-36h-262v36c32 2 51 5 57 9s9 14.667 9 32v210h-66v34l25 5c34 6.66699 61.333 16.5 82 29.5s39 29.833 55 50.5z" />
    <glyph glyph-name="ordmasculine" unicode="&#xba;" horiz-adv-x="431" 
d="M221 373c17.333 0 29.333 12.5 36 37.5s10 58.5 10 100.5c0 48 -4.66699 88.167 -14 120.5s-23.666 48.5 -42.999 48.5c-17.333 0 -29.333 -12.5 -36 -37.5s-10 -58.5 -10 -100.5c0 -48 4.66699 -88.167 14 -120.5s23.666 -48.5 42.999 -48.5zM210 341
c-56 0 -100.833 16.667 -134.5 50s-50.5 76.333 -50.5 129c0 58.667 18.167 105.334 54.5 140.001s83.5 52 141.5 52c56 0 100.833 -16.667 134.5 -50s50.5 -76.333 50.5 -129c0 -58.667 -18.167 -105.334 -54.5 -140.001s-83.5 -52 -141.5 -52z" />
    <glyph glyph-name="guillemotright" unicode="&#xbb;" horiz-adv-x="474" 
d="M454 279v-6l-187 -202h-50l82 205l-82 205h50zM257 279v-6l-187 -202h-50l82 205l-82 205h50z" />
    <glyph glyph-name="onequarter" unicode="&#xbc;" horiz-adv-x="808" 
d="M436 145h129v164zM202 712h36v-329c0 -17.333 4 -28 12 -32s25.333 -7 52 -9v-36h-262v36c32 2 51 5 57 9s9 14.667 9 32v210h-66v34l25 5c34 6.66699 61.333 16.5 82 29.5s39 29.833 55 50.5zM746 0h-232.002v36c20.667 1.33301 34.334 4.16602 41.001 8.49902
s10 15.166 10 32.499v27h-187v34l199 258h118v-251h78v-41h-78v-27c0 -17.333 3.33301 -28.166 10 -32.499s20.334 -7.16602 41.001 -8.49902v-36zM150.998 -10l438 722h58l-439 -722h-57z" />
    <glyph glyph-name="onehalf" unicode="&#xbd;" horiz-adv-x="817" 
d="M202 712h36v-329c0 -17.333 4 -28 12 -32s25.333 -7 52 -9v-36h-262v36c32 2 51 5 57 9s9 14.667 9 32v210h-66v34l25 5c34 6.66699 61.333 16.5 82 29.5s39 29.833 55 50.5zM578 100l108.998 -0.00292969c14.667 0 25.334 2.83301 32.001 8.5
s15.334 15.834 26.001 30.501h22l-11 -139h-308v28l117 108c21.333 20 37.166 39.167 47.499 57.5s15.5 37.833 15.5 58.5c0 19.333 -5.33301 35 -16 47s-26.334 18 -47.001 18c-19.333 0 -36.166 -4.33301 -50.499 -13s-26.166 -18.667 -35.499 -30l-23 20
c14 29.333 35 55.333 63 78s63 34 105 34c38.667 0 69.5 -10.167 92.5 -30.5s34.5 -48.5 34.5 -84.5c0 -43.333 -17.333 -79.666 -52 -108.999s-75 -56.666 -121 -81.999zM150.998 -10.0029l438 722h58l-439 -722h-57z" />
    <glyph glyph-name="threequarters" unicode="&#xbe;" horiz-adv-x="834" 
d="M224 528c38 -0.666992 69.165 -10.0029 93.498 -28.0029s36.5 -43.667 36.5 -77c0 -39.333 -17 -69.166 -51 -89.499s-74.667 -30.5 -122 -30.5c-49.333 0 -85.166 8.16699 -107.499 24.5s-33.5 35.833 -33.5 58.5c0 13.333 3 23.833 9 31.5s12.333 12.834 19 15.501h73
c-2 -6 -3.33301 -11.167 -4 -15.5s-1 -9.16602 -1 -14.499c0 -20.667 4.33301 -37.334 13 -50.001s21 -19 37 -19c14.667 0 26.834 5.83301 36.501 17.5s14.5 29.834 14.5 54.501s-6.5 44.167 -19.5 58.5s-33.167 21.5 -60.5 21.5h-14l-8 23
c28.667 11.333 48.167 22.166 58.5 32.499s15.5 22.833 15.5 37.5c0 13.333 -4.5 24.833 -13.5 34.5s-22.5 14.5 -40.5 14.5s-32.833 -4.33301 -44.5 -13s-21.5 -18 -29.5 -28l-26 20c13.333 26.667 33.5 50.834 60.5 72.501s61.167 32.5 102.5 32.5c34 0 61.333 -8 82 -24
s31 -38.333 31 -67c0 -28 -10.833 -49.5 -32.5 -64.5s-46.5 -24.5 -74.5 -28.5zM461.998 144.997h129v164zM771.998 -0.00292969h-232.002v36c20.667 1.33301 34.334 4.16602 41.001 8.49902s10 15.166 10 32.499v27h-187v34l199 258h118v-251h78v-41h-78v-27
c0 -17.333 3.33301 -28.166 10 -32.499s20.334 -7.16602 41.001 -8.49902v-36zM176.996 -10.0029l438 722h58l-439 -722h-57z" />
    <glyph glyph-name="questiondown" unicode="&#xbf;" horiz-adv-x="477" 
d="M176 3c0 -20.667 5.3291 -37.334 15.9961 -50.001s26.334 -19 47.001 -19c26.667 0 44.834 10 54.501 30s14.5 42.333 14.5 67c0 14.667 -0.666992 26 -2 34s-2.66602 17 -3.99902 27h119c14.667 -6.66699 25.667 -16 33 -28s11 -25.667 11 -41
c0 -40 -20.5 -72 -61.5 -96s-95.167 -36 -162.5 -36c-73.333 0 -129.666 15 -168.999 45s-59 72 -59 126c0 42.667 11.5 78.667 34.5 108s57.5 57 103.5 83c28.667 16.667 49 32 61 46s18 32.667 18 56v9h29c27.333 -9.33301 48.833 -23.333 64.5 -42s23.5 -42 23.5 -70
c0 -21.333 -6.33301 -42.666 -19 -63.999s-32 -41.333 -58 -60c-25.333 -18.667 -47.333 -37.5 -66 -56.5s-28 -41.833 -28 -68.5zM348.996 510c0 -29.333 -9.83301 -54.333 -29.5 -75s-43.5 -31 -71.5 -31c-28.667 0 -52.834 10.333 -72.501 31s-29.5 45.667 -29.5 75
c0 28 9.83301 52.167 29.5 72.5s43.834 30.5 72.501 30.5c28 0 51.833 -10.167 71.5 -30.5s29.5 -44.5 29.5 -72.5z" />
    <glyph glyph-name="Agrave" unicode="&#xc0;" horiz-adv-x="773" 
d="M461 129l-32 82.0049h-247l-30 -82c-2.66699 -6.66699 -4.66699 -13.167 -6 -19.5s-2 -11.833 -2 -16.5c0 -16.667 7 -28.334 21 -35.001s33.667 -11 59 -13v-45h-219v45c13.333 2.66699 25 6.16699 35 10.5s17.667 13.166 23 26.499l203 533l-35 87h233l245 -620
c4.66699 -12.667 12 -21.334 22 -26.001s22.333 -8.33398 37 -11.001v-45h-375v45c22.667 0.666992 41 4.5 55 11.5s21 18.833 21 35.5c0 4.66699 -0.666992 10.167 -2 16.5s-3.33301 13.166 -6 20.499zM302 536.005l-99 -267h203zM168 890.005h197l47 -149h-64l-180 139v10
z" />
    <glyph glyph-name="Aacute" unicode="&#xc1;" horiz-adv-x="773" 
d="M461 129l-32 82.0049h-247l-30 -82c-2.66699 -6.66699 -4.66699 -13.167 -6 -19.5s-2 -11.833 -2 -16.5c0 -16.667 7 -28.334 21 -35.001s33.667 -11 59 -13v-45h-219v45c13.333 2.66699 25 6.16699 35 10.5s17.667 13.166 23 26.499l203 533l-35 87h233l245 -620
c4.66699 -12.667 12 -21.334 22 -26.001s22.333 -8.33398 37 -11.001v-45h-375v45c22.667 0.666992 41 4.5 55 11.5s21 18.833 21 35.5c0 4.66699 -0.666992 10.167 -2 16.5s-3.33301 13.166 -6 20.499zM302 536.005l-99 -267h203zM345 890.005h197v-10l-180 -139h-64z" />
    <glyph glyph-name="Acircumflex" unicode="&#xc2;" horiz-adv-x="773" 
d="M461 129l-32 82.0049h-247l-30 -82c-2.66699 -6.66699 -4.66699 -13.167 -6 -19.5s-2 -11.833 -2 -16.5c0 -16.667 7 -28.334 21 -35.001s33.667 -11 59 -13v-45h-219v45c13.333 2.66699 25 6.16699 35 10.5s17.667 13.166 23 26.499l203 533l-35 87h233l245 -620
c4.66699 -12.667 12 -21.334 22 -26.001s22.333 -8.33398 37 -11.001v-45h-375v45c22.667 0.666992 41 4.5 55 11.5s21 18.833 21 35.5c0 4.66699 -0.666992 10.167 -2 16.5s-3.33301 13.166 -6 20.499zM302 536.005l-99 -267h203zM426 893.005l118 -152h-65l-121 65
l-121 -65h-65l118 152h136z" />
    <glyph glyph-name="Atilde" unicode="&#xc3;" horiz-adv-x="773" 
d="M461 129l-32 82.0049h-247l-30 -82c-2.66699 -6.66699 -4.66699 -13.167 -6 -19.5s-2 -11.833 -2 -16.5c0 -16.667 7 -28.334 21 -35.001s33.667 -11 59 -13v-45h-219v45c13.333 2.66699 25 6.16699 35 10.5s17.667 13.166 23 26.499l203 533l-35 87h233l245 -620
c4.66699 -12.667 12 -21.334 22 -26.001s22.333 -8.33398 37 -11.001v-45h-375v45c22.667 0.666992 41 4.5 55 11.5s21 18.833 21 35.5c0 4.66699 -0.666992 10.167 -2 16.5s-3.33301 13.166 -6 20.499zM302 536.005l-99 -267h203zM428 741.005
c-32.667 0 -58.167 10 -76.5 30s-38.166 30 -59.499 30c-14 0 -26 -5.33301 -36 -16s-19.667 -23.667 -29 -39l-40 22c16.667 42.667 34 76.5 52 101.5s41 37.5 69 37.5c32.667 0 58.167 -10 76.5 -30s38.166 -30 59.499 -30c14 0 26 5.33301 36 16s19.667 23.667 29 39
l40 -22c-16.667 -42.667 -34 -76.5 -52 -101.5s-41 -37.5 -69 -37.5z" />
    <glyph glyph-name="Adieresis" unicode="&#xc4;" horiz-adv-x="773" 
d="M461 129l-32 82.0049h-247l-30 -82c-2.66699 -6.66699 -4.66699 -13.167 -6 -19.5s-2 -11.833 -2 -16.5c0 -16.667 7 -28.334 21 -35.001s33.667 -11 59 -13v-45h-219v45c13.333 2.66699 25 6.16699 35 10.5s17.667 13.166 23 26.499l203 533l-35 87h233l245 -620
c4.66699 -12.667 12 -21.334 22 -26.001s22.333 -8.33398 37 -11.001v-45h-375v45c22.667 0.666992 41 4.5 55 11.5s21 18.833 21 35.5c0 4.66699 -0.666992 10.167 -2 16.5s-3.33301 13.166 -6 20.499zM302 536.005l-99 -267h203zM164 823.005c0 24 8.66699 44.667 26 62
s38.333 26 63 26s45.834 -8.66699 63.501 -26s26.5 -38 26.5 -62s-8.83301 -44.667 -26.5 -62s-38.834 -26 -63.501 -26s-45.667 8.66699 -63 26s-26 38 -26 62zM374 823.005c0 24 8.83301 44.667 26.5 62s38.167 26 61.5 26c25.333 0 46.833 -8.66699 64.5 -26
s26.5 -38 26.5 -62s-8.83301 -44.667 -26.5 -62s-39.167 -26 -64.5 -26c-23.333 0 -43.833 8.66699 -61.5 26s-26.5 38 -26.5 62z" />
    <glyph glyph-name="Aring" unicode="&#xc5;" horiz-adv-x="773" 
d="M461 129l-32 82.0049h-247l-30 -82c-2.66699 -6.66699 -4.66699 -13.167 -6 -19.5s-2 -11.833 -2 -16.5c0 -16.667 7 -28.334 21 -35.001s33.667 -11 59 -13v-45h-219v45c13.333 2.66699 25 6.16699 35 10.5s17.667 13.166 23 26.499l203 533l-35 87h233l245 -620
c4.66699 -12.667 12 -21.334 22 -26.001s22.333 -8.33398 37 -11.001v-45h-375v45c22.667 0.666992 41 4.5 55 11.5s21 18.833 21 35.5c0 4.66699 -0.666992 10.167 -2 16.5s-3.33301 13.166 -6 20.499zM302 536.005l-99 -267h203zM309 829.005
c0 -14 4.16699 -25.667 12.5 -35s20.5 -14 36.5 -14s28.167 4.66699 36.5 14s12.5 21 12.5 35c0 14.667 -4.16699 26.667 -12.5 36s-20.5 14 -36.5 14s-28.167 -4.66699 -36.5 -14s-12.5 -21.333 -12.5 -36zM250 829.005c0 29.333 10.167 54.166 30.5 74.499
s46.166 30.5 77.499 30.5s57 -10.167 77 -30.5s30 -45.166 30 -74.499c0 -28.667 -10 -53.167 -30 -73.5s-45.667 -30.5 -77 -30.5s-57.166 10.167 -77.499 30.5s-30.5 44.833 -30.5 73.5z" />
    <glyph glyph-name="AE" unicode="&#xc6;" horiz-adv-x="1049" 
d="M63 82l336.997 544.995c-8.66699 8.66699 -20.5 15.5 -35.5 20.5s-33.833 8.16699 -56.5 9.5v45h689l5 -199h-42c-26.667 56 -50.5 94.833 -71.5 116.5s-55.5 32.5 -103.5 32.5h-86v-260h83c23.333 0 39.166 6.83301 47.499 20.5s14.5 37.834 18.5 72.501h47v-246h-47
c-4 34.667 -10.167 58.834 -18.5 72.501s-24.166 20.5 -47.499 20.5h-83v-215c0 -26.667 6.33301 -44.5 19 -53.5s32 -13.5 58 -13.5h22c46.667 0 80.334 12.333 101.001 37s49.334 71.334 86.001 140.001h50l-33 -227h-591v45c32.667 3.33301 52.334 9 59.001 17
s10 24.667 10 50v137h-237l-74 -120c-4.66699 -8.66699 -8.33398 -16 -11.001 -22s-4 -12.333 -4 -19c0 -14 7.33301 -24.333 22 -31s36.334 -10.667 65.001 -12v-45h-236v45c13.333 2.66699 24.5 6.33398 33.5 11.001s17.167 13.334 24.5 26.001zM479.997 632.995
l-201 -326h201v326z" />
    <glyph glyph-name="Ccedilla" unicode="&#xc7;" horiz-adv-x="695" 
d="M311 -233l-9.00195 37.002c36 0 62.167 4.66699 78.5 14s24.5 20.333 24.5 33c0 13.333 -7 21.833 -21 25.5s-32.667 5.83398 -56 6.50098l43 108c-107.333 4.66699 -191.833 37.167 -253.5 97.5s-92.5 141.166 -92.5 242.499c0 117.333 38.333 210.166 115 278.499
s167.667 102.5 273 102.5c46 0 87.833 -5.16699 125.5 -15.5s70.834 -24.833 99.501 -43.5l4 -181h-54c-12.667 60 -32.334 106 -59.001 138s-62.667 48 -108 48c-59.333 0 -101.833 -29 -127.5 -87s-38.5 -128.667 -38.5 -212c0 -90 14.833 -164.5 44.5 -223.5
s73.5 -88.5 131.5 -88.5c38.667 0 73.834 16.5 105.501 49.5s57.834 87.833 78.501 164.5h55l-18 -203c-28 -20.667 -63.333 -37 -106 -49s-88 -18.333 -136 -19l-11 -28c32 0 57.833 -7.33301 77.5 -22s29.5 -35.334 29.5 -62.001c0 -38 -20 -66 -60 -84s-85 -27 -135 -27z
" />
    <glyph glyph-name="Egrave" unicode="&#xc8;" horiz-adv-x="664" 
d="M26 0l-0.00195312 44.9971c32.667 3.33301 52.334 9 59.001 17s10 24.667 10 50v478c0 25.333 -3.33301 42 -10 50s-26.334 13.667 -59.001 17v45h586l5 -199h-42c-26.667 56 -50.5 94.833 -71.5 116.5s-55.5 32.5 -103.5 32.5h-86v-260h83
c23.333 0 39.166 6.83301 47.499 20.5s14.5 37.834 18.5 72.501h47v-246h-47c-4 34.667 -10.167 58.834 -18.5 72.501s-24.166 20.5 -47.499 20.5h-83v-215c0 -26.667 6.33301 -44.5 19 -53.5s32 -13.5 58 -13.5h22c46.667 0 80.334 12.333 101.001 37
s49.334 71.334 86.001 140.001h50l-33 -227h-591zM157.998 889.997h197l47 -149h-64l-180 139v10z" />
    <glyph glyph-name="Eacute" unicode="&#xc9;" horiz-adv-x="664" 
d="M26 0l-0.00195312 44.9971c32.667 3.33301 52.334 9 59.001 17s10 24.667 10 50v478c0 25.333 -3.33301 42 -10 50s-26.334 13.667 -59.001 17v45h586l5 -199h-42c-26.667 56 -50.5 94.833 -71.5 116.5s-55.5 32.5 -103.5 32.5h-86v-260h83
c23.333 0 39.166 6.83301 47.499 20.5s14.5 37.834 18.5 72.501h47v-246h-47c-4 34.667 -10.167 58.834 -18.5 72.501s-24.166 20.5 -47.499 20.5h-83v-215c0 -26.667 6.33301 -44.5 19 -53.5s32 -13.5 58 -13.5h22c46.667 0 80.334 12.333 101.001 37
s49.334 71.334 86.001 140.001h50l-33 -227h-591zM334.998 889.997h197v-10l-180 -139h-64z" />
    <glyph glyph-name="Ecircumflex" unicode="&#xca;" horiz-adv-x="664" 
d="M26 0l-0.00195312 44.9971c32.667 3.33301 52.334 9 59.001 17s10 24.667 10 50v478c0 25.333 -3.33301 42 -10 50s-26.334 13.667 -59.001 17v45h586l5 -199h-42c-26.667 56 -50.5 94.833 -71.5 116.5s-55.5 32.5 -103.5 32.5h-86v-260h83
c23.333 0 39.166 6.83301 47.499 20.5s14.5 37.834 18.5 72.501h47v-246h-47c-4 34.667 -10.167 58.834 -18.5 72.501s-24.166 20.5 -47.499 20.5h-83v-215c0 -26.667 6.33301 -44.5 19 -53.5s32 -13.5 58 -13.5h22c46.667 0 80.334 12.333 101.001 37
s49.334 71.334 86.001 140.001h50l-33 -227h-591zM415.998 892.997l118 -152h-65l-121 65l-121 -65h-65l118 152h136z" />
    <glyph glyph-name="Edieresis" unicode="&#xcb;" horiz-adv-x="664" 
d="M26 0l-0.00195312 44.9971c32.667 3.33301 52.334 9 59.001 17s10 24.667 10 50v478c0 25.333 -3.33301 42 -10 50s-26.334 13.667 -59.001 17v45h586l5 -199h-42c-26.667 56 -50.5 94.833 -71.5 116.5s-55.5 32.5 -103.5 32.5h-86v-260h83
c23.333 0 39.166 6.83301 47.499 20.5s14.5 37.834 18.5 72.501h47v-246h-47c-4 34.667 -10.167 58.834 -18.5 72.501s-24.166 20.5 -47.499 20.5h-83v-215c0 -26.667 6.33301 -44.5 19 -53.5s32 -13.5 58 -13.5h22c46.667 0 80.334 12.333 101.001 37
s49.334 71.334 86.001 140.001h50l-33 -227h-591zM153.998 822.997c0 24 8.66699 44.667 26 62s38.333 26 63 26s45.834 -8.66699 63.501 -26s26.5 -38 26.5 -62s-8.83301 -44.667 -26.5 -62s-38.834 -26 -63.501 -26s-45.667 8.66699 -63 26s-26 38 -26 62z
M363.998 822.997c0 24 8.83301 44.667 26.5 62s38.167 26 61.5 26c25.333 0 46.833 -8.66699 64.5 -26s26.5 -38 26.5 -62s-8.83301 -44.667 -26.5 -62s-39.167 -26 -64.5 -26c-23.333 0 -43.833 8.66699 -61.5 26s-26.5 38 -26.5 62z" />
    <glyph glyph-name="Igrave" unicode="&#xcc;" horiz-adv-x="409" 
d="M314 590v-478c0 -25.333 3.33301 -42 10 -50s26.334 -13.667 59.001 -17v-45h-357v45c32.667 3.33301 52.334 9 59.001 17s10 24.667 10 50v478c0 25.333 -3.33301 42 -10 50s-26.334 13.667 -59.001 17v45h357v-45c-32.667 -3.33301 -52.334 -9 -59.001 -17
s-10 -24.667 -10 -50zM14 890h197l47 -149h-64l-180 139v10z" />
    <glyph glyph-name="Iacute" unicode="&#xcd;" horiz-adv-x="409" 
d="M314 590v-478c0 -25.333 3.33301 -42 10 -50s26.334 -13.667 59.001 -17v-45h-357v45c32.667 3.33301 52.334 9 59.001 17s10 24.667 10 50v478c0 25.333 -3.33301 42 -10 50s-26.334 13.667 -59.001 17v45h357v-45c-32.667 -3.33301 -52.334 -9 -59.001 -17
s-10 -24.667 -10 -50zM191 890h197v-10l-180 -139h-64z" />
    <glyph glyph-name="Icircumflex" unicode="&#xce;" horiz-adv-x="409" 
d="M314 590v-478c0 -25.333 3.33301 -42 10 -50s26.334 -13.667 59.001 -17v-45h-357v45c32.667 3.33301 52.334 9 59.001 17s10 24.667 10 50v478c0 25.333 -3.33301 42 -10 50s-26.334 13.667 -59.001 17v45h357v-45c-32.667 -3.33301 -52.334 -9 -59.001 -17
s-10 -24.667 -10 -50zM272 893l118 -152h-65l-121 65l-121 -65h-65l118 152h136z" />
    <glyph glyph-name="Idieresis" unicode="&#xcf;" horiz-adv-x="409" 
d="M314 590v-478c0 -25.333 3.33301 -42 10 -50s26.334 -13.667 59.001 -17v-45h-357v45c32.667 3.33301 52.334 9 59.001 17s10 24.667 10 50v478c0 25.333 -3.33301 42 -10 50s-26.334 13.667 -59.001 17v45h357v-45c-32.667 -3.33301 -52.334 -9 -59.001 -17
s-10 -24.667 -10 -50zM10 823c0 24 8.66699 44.667 26 62s38.333 26 63 26s45.834 -8.66699 63.501 -26s26.5 -38 26.5 -62s-8.83301 -44.667 -26.5 -62s-38.834 -26 -63.501 -26s-45.667 8.66699 -63 26s-26 38 -26 62zM220 823c0 24 8.83301 44.667 26.5 62
s38.167 26 61.5 26c25.333 0 46.833 -8.66699 64.5 -26s26.5 -38 26.5 -62s-8.83301 -44.667 -26.5 -62s-39.167 -26 -64.5 -26c-23.333 0 -43.833 8.66699 -61.5 26s-26.5 38 -26.5 62z" />
    <glyph glyph-name="Eth" unicode="&#xd0;" horiz-adv-x="817" 
d="M36 320l-0.000976562 68h69v202c0 25.333 -3.33301 42 -10 50s-26.334 13.667 -59.001 17v45h339c140.667 0 245.334 -32.833 314.001 -98.5s103 -148.167 103 -247.5c0 -110.667 -35 -197.667 -105 -261s-165.667 -95 -287 -95h-364v45
c32.667 3.33301 52.334 9 59.001 17s10 24.667 10 50v208h-69zM336.999 652l-13.001 0.000976562v-264h126v-68h-126v-200c0 -29.333 5.33301 -48.333 16 -57s26.334 -13 47.001 -13h6c52.667 0 94.667 26.667 126 80s47 122.666 47 207.999
c0 98.667 -20.667 175.667 -62 231s-97 83 -167 83z" />
    <glyph glyph-name="Ntilde" unicode="&#xd1;" horiz-adv-x="757" 
d="M598 337l-0.000976562 252.999c0 25.333 -7 42.166 -21 50.499s-41 13.833 -81 16.5v45h244v-45c-32.667 -3.33301 -52.334 -9 -59.001 -17s-10 -24.667 -10 -50v-590h-82l-421 516v-404c0 -25.333 7 -42.166 21 -50.499s41 -13.833 81 -16.5v-45h-244v45
c32.667 3.33301 52.334 9 59.001 17s10 24.667 10 50v480c-11.333 20.667 -21.666 36.334 -30.999 47.001s-22 16.667 -38 18v45h274zM460.999 740.999c-32.667 0 -58.167 10 -76.5 30s-38.166 30 -59.499 30c-14 0 -26 -5.33301 -36 -16s-19.667 -23.667 -29 -39l-40 22
c16.667 42.667 34 76.5 52 101.5s41 37.5 69 37.5c32.667 0 58.167 -10 76.5 -30s38.166 -30 59.499 -30c14 0 26 5.33301 36 16s19.667 23.667 29 39l40 -22c-16.667 -42.667 -34 -76.5 -52 -101.5s-41 -37.5 -69 -37.5z" />
    <glyph glyph-name="Ograve" unicode="&#xd2;" horiz-adv-x="758" 
d="M384 42c46.667 0 78.167 31.667 94.5 95s24.5 129.666 24.5 198.999c0 91.333 -9.66699 168.166 -29 230.499s-52.666 93.5 -99.999 93.5c-46.667 0 -78.167 -31.667 -94.5 -95s-24.5 -129.666 -24.5 -198.999c0 -91.333 9.66699 -168.166 29 -230.499
s52.666 -93.5 99.999 -93.5zM369 -10c-112.667 0 -198.167 34.5 -256.5 103.5s-87.5 150.167 -87.5 243.5c0 114.667 34.167 205.834 102.5 273.501s155.5 101.5 261.5 101.5c112.667 0 198.167 -34.5 256.5 -103.5s87.5 -150.167 87.5 -243.5
c0 -114.667 -34.167 -205.834 -102.5 -273.501s-155.5 -101.5 -261.5 -101.5zM193 890h197l47 -149h-64l-180 139v10z" />
    <glyph glyph-name="Oacute" unicode="&#xd3;" horiz-adv-x="758" 
d="M384 42c46.667 0 78.167 31.667 94.5 95s24.5 129.666 24.5 198.999c0 91.333 -9.66699 168.166 -29 230.499s-52.666 93.5 -99.999 93.5c-46.667 0 -78.167 -31.667 -94.5 -95s-24.5 -129.666 -24.5 -198.999c0 -91.333 9.66699 -168.166 29 -230.499
s52.666 -93.5 99.999 -93.5zM369 -10c-112.667 0 -198.167 34.5 -256.5 103.5s-87.5 150.167 -87.5 243.5c0 114.667 34.167 205.834 102.5 273.501s155.5 101.5 261.5 101.5c112.667 0 198.167 -34.5 256.5 -103.5s87.5 -150.167 87.5 -243.5
c0 -114.667 -34.167 -205.834 -102.5 -273.501s-155.5 -101.5 -261.5 -101.5zM370 890h197v-10l-180 -139h-64z" />
    <glyph glyph-name="Ocircumflex" unicode="&#xd4;" horiz-adv-x="758" 
d="M384 42c46.667 0 78.167 31.667 94.5 95s24.5 129.666 24.5 198.999c0 91.333 -9.66699 168.166 -29 230.499s-52.666 93.5 -99.999 93.5c-46.667 0 -78.167 -31.667 -94.5 -95s-24.5 -129.666 -24.5 -198.999c0 -91.333 9.66699 -168.166 29 -230.499
s52.666 -93.5 99.999 -93.5zM369 -10c-112.667 0 -198.167 34.5 -256.5 103.5s-87.5 150.167 -87.5 243.5c0 114.667 34.167 205.834 102.5 273.501s155.5 101.5 261.5 101.5c112.667 0 198.167 -34.5 256.5 -103.5s87.5 -150.167 87.5 -243.5
c0 -114.667 -34.167 -205.834 -102.5 -273.501s-155.5 -101.5 -261.5 -101.5zM451 893l118 -152h-65l-121 65l-121 -65h-65l118 152h136z" />
    <glyph glyph-name="Otilde" unicode="&#xd5;" horiz-adv-x="758" 
d="M384 42c46.667 0 78.167 31.667 94.5 95s24.5 129.666 24.5 198.999c0 91.333 -9.66699 168.166 -29 230.499s-52.666 93.5 -99.999 93.5c-46.667 0 -78.167 -31.667 -94.5 -95s-24.5 -129.666 -24.5 -198.999c0 -91.333 9.66699 -168.166 29 -230.499
s52.666 -93.5 99.999 -93.5zM369 -10c-112.667 0 -198.167 34.5 -256.5 103.5s-87.5 150.167 -87.5 243.5c0 114.667 34.167 205.834 102.5 273.501s155.5 101.5 261.5 101.5c112.667 0 198.167 -34.5 256.5 -103.5s87.5 -150.167 87.5 -243.5
c0 -114.667 -34.167 -205.834 -102.5 -273.501s-155.5 -101.5 -261.5 -101.5zM462 741c-32.667 0 -58.167 10 -76.5 30s-38.166 30 -59.499 30c-14 0 -26 -5.33301 -36 -16s-19.667 -23.667 -29 -39l-40 22c16.667 42.667 34 76.5 52 101.5s41 37.5 69 37.5
c32.667 0 58.167 -10 76.5 -30s38.166 -30 59.499 -30c14 0 26 5.33301 36 16s19.667 23.667 29 39l40 -22c-16.667 -42.667 -34 -76.5 -52 -101.5s-41 -37.5 -69 -37.5z" />
    <glyph glyph-name="Odieresis" unicode="&#xd6;" horiz-adv-x="758" 
d="M384 42c46.667 0 78.167 31.667 94.5 95s24.5 129.666 24.5 198.999c0 91.333 -9.66699 168.166 -29 230.499s-52.666 93.5 -99.999 93.5c-46.667 0 -78.167 -31.667 -94.5 -95s-24.5 -129.666 -24.5 -198.999c0 -91.333 9.66699 -168.166 29 -230.499
s52.666 -93.5 99.999 -93.5zM369 -10c-112.667 0 -198.167 34.5 -256.5 103.5s-87.5 150.167 -87.5 243.5c0 114.667 34.167 205.834 102.5 273.501s155.5 101.5 261.5 101.5c112.667 0 198.167 -34.5 256.5 -103.5s87.5 -150.167 87.5 -243.5
c0 -114.667 -34.167 -205.834 -102.5 -273.501s-155.5 -101.5 -261.5 -101.5zM189 823c0 24 8.66699 44.667 26 62s38.333 26 63 26s45.834 -8.66699 63.501 -26s26.5 -38 26.5 -62s-8.83301 -44.667 -26.5 -62s-38.834 -26 -63.501 -26s-45.667 8.66699 -63 26
s-26 38 -26 62zM399 823c0 24 8.83301 44.667 26.5 62s38.167 26 61.5 26c25.333 0 46.833 -8.66699 64.5 -26s26.5 -38 26.5 -62s-8.83301 -44.667 -26.5 -62s-39.167 -26 -64.5 -26c-23.333 0 -43.833 8.66699 -61.5 26s-26.5 38 -26.5 62z" />
    <glyph glyph-name="multiply" unicode="&#xd7;" horiz-adv-x="499" 
d="M200 365l-136 136l50 50l135 -137l136 137l51 -50l-137 -136l137 -136l-51 -49l-136 136l-135 -136l-50 49z" />
    <glyph glyph-name="Oslash" unicode="&#xd8;" horiz-adv-x="758" 
d="M369 -10c-37.333 0 -71.6699 4.16699 -103.003 12.5s-59.666 19.833 -84.999 34.5l-74 -97l-42 32l73 95c-37.333 32.667 -65.5 72.5 -84.5 119.5s-28.5 97.167 -28.5 150.5c0 114.667 34.167 205.834 102.5 273.501s155.5 101.5 261.5 101.5
c40.667 0 77.834 -5 111.501 -15s63.834 -24 90.501 -42l70 91l42 -32l-71 -92c33.333 -32 58.5 -70.333 75.5 -115s25.5 -92 25.5 -142c0 -114.667 -34.167 -205.834 -102.5 -273.501s-155.5 -101.5 -261.5 -101.5zM254.996 366
c0 -24.667 0.665039 -48.501 1.99805 -71.501s3.33301 -44.833 6 -65.5l224 291c-9.33301 42 -23.166 75.833 -41.499 101.5s-42.166 38.5 -71.499 38.5c-46.667 0 -78.167 -31.667 -94.5 -95s-24.5 -129.666 -24.5 -198.999zM383.994 41.999
c46.667 0 78.167 31.668 94.5 95.001s24.5 129.666 24.5 198.999c0 19.333 -0.5 38.5 -1.5 57.5s-2.16699 37.167 -3.5 54.5l-222 -288c9.33301 -36 23 -64.667 41 -86s40.333 -32 67 -32z" />
    <glyph glyph-name="Ugrave" unicode="&#xd9;" horiz-adv-x="763" 
d="M303 590l0.00195312 -324.999c0 -56 11.167 -100.5 33.5 -133.5s60.5 -49.5 114.5 -49.5c41.333 0 77.5 13.833 108.5 41.5s46.5 76.167 46.5 145.5v321c0 25.333 -5.33301 42.166 -16 50.499s-36 13.833 -76 16.5v45h234v-45c-32.667 -3.33301 -52.334 -9 -59.001 -17
s-10 -24.667 -10 -50v-341c0 -88 -27.667 -153.167 -83 -195.5s-122.666 -63.5 -201.999 -63.5c-99.333 0 -175.833 21.833 -229.5 65.5s-80.5 108.167 -80.5 193.5v341c0 25.333 -3.33301 42 -10 50s-26.334 13.667 -59.001 17v45h357v-45
c-32.667 -3.33301 -52.334 -9 -59.001 -17s-10 -24.667 -10 -50zM235.002 890.001h197l47 -149h-64l-180 139v10z" />
    <glyph glyph-name="Uacute" unicode="&#xda;" horiz-adv-x="763" 
d="M303 590l0.00195312 -324.999c0 -56 11.167 -100.5 33.5 -133.5s60.5 -49.5 114.5 -49.5c41.333 0 77.5 13.833 108.5 41.5s46.5 76.167 46.5 145.5v321c0 25.333 -5.33301 42.166 -16 50.499s-36 13.833 -76 16.5v45h234v-45c-32.667 -3.33301 -52.334 -9 -59.001 -17
s-10 -24.667 -10 -50v-341c0 -88 -27.667 -153.167 -83 -195.5s-122.666 -63.5 -201.999 -63.5c-99.333 0 -175.833 21.833 -229.5 65.5s-80.5 108.167 -80.5 193.5v341c0 25.333 -3.33301 42 -10 50s-26.334 13.667 -59.001 17v45h357v-45
c-32.667 -3.33301 -52.334 -9 -59.001 -17s-10 -24.667 -10 -50zM412.002 890.001h197v-10l-180 -139h-64z" />
    <glyph glyph-name="Ucircumflex" unicode="&#xdb;" horiz-adv-x="763" 
d="M303 590l0.00195312 -324.999c0 -56 11.167 -100.5 33.5 -133.5s60.5 -49.5 114.5 -49.5c41.333 0 77.5 13.833 108.5 41.5s46.5 76.167 46.5 145.5v321c0 25.333 -5.33301 42.166 -16 50.499s-36 13.833 -76 16.5v45h234v-45c-32.667 -3.33301 -52.334 -9 -59.001 -17
s-10 -24.667 -10 -50v-341c0 -88 -27.667 -153.167 -83 -195.5s-122.666 -63.5 -201.999 -63.5c-99.333 0 -175.833 21.833 -229.5 65.5s-80.5 108.167 -80.5 193.5v341c0 25.333 -3.33301 42 -10 50s-26.334 13.667 -59.001 17v45h357v-45
c-32.667 -3.33301 -52.334 -9 -59.001 -17s-10 -24.667 -10 -50zM493.002 893.001l118 -152h-65l-121 65l-121 -65h-65l118 152h136z" />
    <glyph glyph-name="Udieresis" unicode="&#xdc;" horiz-adv-x="763" 
d="M303 590l0.00195312 -324.999c0 -56 11.167 -100.5 33.5 -133.5s60.5 -49.5 114.5 -49.5c41.333 0 77.5 13.833 108.5 41.5s46.5 76.167 46.5 145.5v321c0 25.333 -5.33301 42.166 -16 50.499s-36 13.833 -76 16.5v45h234v-45c-32.667 -3.33301 -52.334 -9 -59.001 -17
s-10 -24.667 -10 -50v-341c0 -88 -27.667 -153.167 -83 -195.5s-122.666 -63.5 -201.999 -63.5c-99.333 0 -175.833 21.833 -229.5 65.5s-80.5 108.167 -80.5 193.5v341c0 25.333 -3.33301 42 -10 50s-26.334 13.667 -59.001 17v45h357v-45
c-32.667 -3.33301 -52.334 -9 -59.001 -17s-10 -24.667 -10 -50zM231.002 823.001c0 24 8.66699 44.667 26 62s38.333 26 63 26s45.834 -8.66699 63.501 -26s26.5 -38 26.5 -62s-8.83301 -44.667 -26.5 -62s-38.834 -26 -63.501 -26s-45.667 8.66699 -63 26s-26 38 -26 62z
M441.002 823.001c0 24 8.83301 44.667 26.5 62s38.167 26 61.5 26c25.333 0 46.833 -8.66699 64.5 -26s26.5 -38 26.5 -62s-8.83301 -44.667 -26.5 -62s-39.167 -26 -64.5 -26c-23.333 0 -43.833 8.66699 -61.5 26s-26.5 38 -26.5 62z" />
    <glyph glyph-name="Yacute" unicode="&#xdd;" horiz-adv-x="727" 
d="M481 258l-0.00292969 -151.002c0 -25.333 5 -41.166 15 -47.499s31.333 -11.166 64 -14.499v-45h-372v45c32.667 3.33301 54 8.16602 64 14.499s15 22.166 15 47.499v146l-204 367c-7.33301 14 -15.166 23 -23.499 27s-19.833 7.33301 -34.5 10v45h365v-45
c-25.333 -0.666992 -42.166 -3.83398 -50.499 -9.50098s-12.5 -14.5 -12.5 -26.5c0 -10.667 2 -21 6 -31s10 -22.333 18 -37l123 -210l103 208c6 12.667 11.667 25.334 17 38.001s8 23.334 8 32.001c0 12 -5.66699 20.833 -17 26.5s-27.666 8.83398 -48.999 9.50098v45h206
v-45c-14 -2.66699 -25.667 -6.5 -35 -11.5s-17 -13.5 -23 -25.5zM401.997 889.998h197v-10l-180 -139h-64z" />
    <glyph glyph-name="Thorn" unicode="&#xde;" horiz-adv-x="687" 
d="M314 590l0.000976562 -14h76c98.667 0 171.667 -20.167 219 -60.5s71 -91.166 71 -152.499c0 -70.667 -24.833 -125.334 -74.5 -164.001s-125.167 -58 -226.5 -58h-65v-29c0 -25.333 8.33301 -42.333 25 -51s46.667 -14 90 -16v-45h-403v45
c32.667 3.33301 52.334 9 59.001 17s10 24.667 10 50v478c0 25.333 -3.33301 42 -10 50s-26.334 13.667 -59.001 17v45h357v-45c-32.667 -3.33301 -52.334 -9 -59.001 -17s-10 -24.667 -10 -50zM314.001 526v-328h13c44.667 0 79.167 15 103.5 45s36.5 70 36.5 120
c0 52 -13.167 92.167 -39.5 120.5s-59.833 42.5 -100.5 42.5h-13z" />
    <glyph glyph-name="germandbls" unicode="&#xdf;" horiz-adv-x="745" 
d="M382 783c70.667 0 126.835 -12.833 168.502 -38.5s62.5 -60.834 62.5 -105.501c0 -54 -23 -89.333 -69 -106s-69 -38 -69 -64c0 -10.667 9.16699 -21.834 27.5 -33.501s42.833 -26.5 73.5 -44.5c45.333 -26.667 82.333 -55.334 111 -86.001s43 -73 43 -127
c0 -58.667 -20.667 -104.667 -62 -138s-94.666 -50 -159.999 -50c-34.667 0 -66.334 4.5 -95.001 13.5s-53.334 21.833 -74.001 38.5l-6 129h51c9.33301 -38 25.333 -70.167 48 -96.5s49.667 -39.5 81 -39.5c21.333 0 38.5 5.83301 51.5 17.5s19.5 26.834 19.5 45.501
c0 22.667 -7.83301 42.334 -23.5 59.001s-41.834 36 -78.501 58c-42.667 25.333 -74.167 49.833 -94.5 73.5s-30.5 51.834 -30.5 84.501c0 56 21.167 98.667 63.5 128s63.5 76 63.5 140c0 28.667 -8 52.167 -24 70.5s-39.667 27.5 -71 27.5c-38 0 -65.333 -13.5 -82 -40.5
s-25 -63.833 -25 -110.5v-588h-259v42c18.667 1.33301 32.167 4 40.5 8s12.5 13.333 12.5 28v408h-71v45l72 17l1 8c8.66699 69.333 39.5 124.5 92.5 165.5s123.5 61.5 211.5 61.5z" />
    <glyph glyph-name="agrave" unicode="&#xe0;" horiz-adv-x="568" 
d="M276 98c5.33301 0 10.332 0.499023 14.999 1.49902s9.33398 2.16699 14.001 3.5v185l-40 -15c-16 -6 -29 -14.667 -39 -26s-15 -31.666 -15 -60.999c0 -24.667 4.83301 -45.5 14.5 -62.5s26.5 -25.5 50.5 -25.5zM506.999 374.999l-0.000976562 -265.002
c0 -10 1.33301 -19.333 4 -28s9.66699 -13 21 -13c6.66699 0 12.834 0.666992 18.501 2l12.5 3l7 -30c-17.333 -16 -37.333 -29 -60 -39s-49 -15 -79 -15c-30.667 0 -56.667 7.16699 -78 21.5s-36.333 34.833 -45 61.5c-14 -21.333 -33 -39.833 -57 -55.5
s-54.333 -23.5 -91 -23.5c-42.667 0 -77.834 11.667 -105.501 35s-41.5 57 -41.5 101s13 76.667 39 98s56.333 38 91 50l162 56v110c0 20 -3 36.167 -9 48.5s-17.333 18.5 -34 18.5c-17.333 0 -29.666 -7.16699 -36.999 -21.5s-11 -32.833 -11 -55.5
c0 -12 1 -24.167 3 -36.5s4.33301 -24.833 7 -37.5l-124 -16c-14.667 4.66699 -27 13.334 -37 26.001s-15 28.334 -15 47.001c0 47.333 21.667 81.833 65 103.5s96 32.5 158 32.5c72.667 0 130.167 -12.833 172.5 -38.5s63.5 -72.167 63.5 -139.5zM94.998 765.997h197
l47 -163h-59l-185 153v10z" />
    <glyph glyph-name="aacute" unicode="&#xe1;" horiz-adv-x="568" 
d="M276 98c5.33301 0 10.332 0.499023 14.999 1.49902s9.33398 2.16699 14.001 3.5v185l-40 -15c-16 -6 -29 -14.667 -39 -26s-15 -31.666 -15 -60.999c0 -24.667 4.83301 -45.5 14.5 -62.5s26.5 -25.5 50.5 -25.5zM506.999 374.999l-0.000976562 -265.002
c0 -10 1.33301 -19.333 4 -28s9.66699 -13 21 -13c6.66699 0 12.834 0.666992 18.501 2l12.5 3l7 -30c-17.333 -16 -37.333 -29 -60 -39s-49 -15 -79 -15c-30.667 0 -56.667 7.16699 -78 21.5s-36.333 34.833 -45 61.5c-14 -21.333 -33 -39.833 -57 -55.5
s-54.333 -23.5 -91 -23.5c-42.667 0 -77.834 11.667 -105.501 35s-41.5 57 -41.5 101s13 76.667 39 98s56.333 38 91 50l162 56v110c0 20 -3 36.167 -9 48.5s-17.333 18.5 -34 18.5c-17.333 0 -29.666 -7.16699 -36.999 -21.5s-11 -32.833 -11 -55.5
c0 -12 1 -24.167 3 -36.5s4.33301 -24.833 7 -37.5l-124 -16c-14.667 4.66699 -27 13.334 -37 26.001s-15 28.334 -15 47.001c0 47.333 21.667 81.833 65 103.5s96 32.5 158 32.5c72.667 0 130.167 -12.833 172.5 -38.5s63.5 -72.167 63.5 -139.5zM265.998 765.997h197v-10
l-185 -153h-59z" />
    <glyph glyph-name="acircumflex" unicode="&#xe2;" horiz-adv-x="568" 
d="M276 98c5.33301 0 10.332 0.499023 14.999 1.49902s9.33398 2.16699 14.001 3.5v185l-40 -15c-16 -6 -29 -14.667 -39 -26s-15 -31.666 -15 -60.999c0 -24.667 4.83301 -45.5 14.5 -62.5s26.5 -25.5 50.5 -25.5zM506.999 374.999l-0.000976562 -265.002
c0 -10 1.33301 -19.333 4 -28s9.66699 -13 21 -13c6.66699 0 12.834 0.666992 18.501 2l12.5 3l7 -30c-17.333 -16 -37.333 -29 -60 -39s-49 -15 -79 -15c-30.667 0 -56.667 7.16699 -78 21.5s-36.333 34.833 -45 61.5c-14 -21.333 -33 -39.833 -57 -55.5
s-54.333 -23.5 -91 -23.5c-42.667 0 -77.834 11.667 -105.501 35s-41.5 57 -41.5 101s13 76.667 39 98s56.333 38 91 50l162 56v110c0 20 -3 36.167 -9 48.5s-17.333 18.5 -34 18.5c-17.333 0 -29.666 -7.16699 -36.999 -21.5s-11 -32.833 -11 -55.5
c0 -12 1 -24.167 3 -36.5s4.33301 -24.833 7 -37.5l-124 -16c-14.667 4.66699 -27 13.334 -37 26.001s-15 28.334 -15 47.001c0 47.333 21.667 81.833 65 103.5s96 32.5 158 32.5c72.667 0 130.167 -12.833 172.5 -38.5s63.5 -72.167 63.5 -139.5zM348.998 765.997l118 -169
h-65l-121 80l-121 -80h-65l118 169h136z" />
    <glyph glyph-name="atilde" unicode="&#xe3;" horiz-adv-x="568" 
d="M276 98c5.33301 0 10.332 0.499023 14.999 1.49902s9.33398 2.16699 14.001 3.5v185l-40 -15c-16 -6 -29 -14.667 -39 -26s-15 -31.666 -15 -60.999c0 -24.667 4.83301 -45.5 14.5 -62.5s26.5 -25.5 50.5 -25.5zM506.999 374.999l-0.000976562 -265.002
c0 -10 1.33301 -19.333 4 -28s9.66699 -13 21 -13c6.66699 0 12.834 0.666992 18.501 2l12.5 3l7 -30c-17.333 -16 -37.333 -29 -60 -39s-49 -15 -79 -15c-30.667 0 -56.667 7.16699 -78 21.5s-36.333 34.833 -45 61.5c-14 -21.333 -33 -39.833 -57 -55.5
s-54.333 -23.5 -91 -23.5c-42.667 0 -77.834 11.667 -105.501 35s-41.5 57 -41.5 101s13 76.667 39 98s56.333 38 91 50l162 56v110c0 20 -3 36.167 -9 48.5s-17.333 18.5 -34 18.5c-17.333 0 -29.666 -7.16699 -36.999 -21.5s-11 -32.833 -11 -55.5
c0 -12 1 -24.167 3 -36.5s4.33301 -24.833 7 -37.5l-124 -16c-14.667 4.66699 -27 13.334 -37 26.001s-15 28.334 -15 47.001c0 47.333 21.667 81.833 65 103.5s96 32.5 158 32.5c72.667 0 130.167 -12.833 172.5 -38.5s63.5 -72.167 63.5 -139.5zM346.998 601.997
c-32.667 0 -58.167 10 -76.5 30s-38.166 30 -59.499 30c-14 0 -26 -5.33301 -36 -16s-19.667 -23.667 -29 -39l-40 22c16.667 42.667 34 76.5 52 101.5s41 37.5 69 37.5c32.667 0 58.167 -10 76.5 -30s38.166 -30 59.499 -30c14 0 26 5.33301 36 16s19.667 23.667 29 39
l40 -22c-16.667 -42.667 -34 -76.5 -52 -101.5s-41 -37.5 -69 -37.5z" />
    <glyph glyph-name="adieresis" unicode="&#xe4;" horiz-adv-x="568" 
d="M276 98c5.33301 0 10.332 0.499023 14.999 1.49902s9.33398 2.16699 14.001 3.5v185l-40 -15c-16 -6 -29 -14.667 -39 -26s-15 -31.666 -15 -60.999c0 -24.667 4.83301 -45.5 14.5 -62.5s26.5 -25.5 50.5 -25.5zM506.999 374.999l-0.000976562 -265.002
c0 -10 1.33301 -19.333 4 -28s9.66699 -13 21 -13c6.66699 0 12.834 0.666992 18.501 2l12.5 3l7 -30c-17.333 -16 -37.333 -29 -60 -39s-49 -15 -79 -15c-30.667 0 -56.667 7.16699 -78 21.5s-36.333 34.833 -45 61.5c-14 -21.333 -33 -39.833 -57 -55.5
s-54.333 -23.5 -91 -23.5c-42.667 0 -77.834 11.667 -105.501 35s-41.5 57 -41.5 101s13 76.667 39 98s56.333 38 91 50l162 56v110c0 20 -3 36.167 -9 48.5s-17.333 18.5 -34 18.5c-17.333 0 -29.666 -7.16699 -36.999 -21.5s-11 -32.833 -11 -55.5
c0 -12 1 -24.167 3 -36.5s4.33301 -24.833 7 -37.5l-124 -16c-14.667 4.66699 -27 13.334 -37 26.001s-15 28.334 -15 47.001c0 47.333 21.667 81.833 65 103.5s96 32.5 158 32.5c72.667 0 130.167 -12.833 172.5 -38.5s63.5 -72.167 63.5 -139.5zM86.998 690.997
c0 24 8.66699 44.667 26 62s38.333 26 63 26s45.834 -8.66699 63.501 -26s26.5 -38 26.5 -62s-8.83301 -44.667 -26.5 -62s-38.834 -26 -63.501 -26s-45.667 8.66699 -63 26s-26 38 -26 62zM296.998 690.997c0 24 8.83301 44.667 26.5 62s38.167 26 61.5 26
c25.333 0 46.833 -8.66699 64.5 -26s26.5 -38 26.5 -62s-8.83301 -44.667 -26.5 -62s-39.167 -26 -64.5 -26c-23.333 0 -43.833 8.66699 -61.5 26s-26.5 38 -26.5 62z" />
    <glyph glyph-name="aring" unicode="&#xe5;" horiz-adv-x="568" 
d="M276 98c5.33301 0 10.332 0.499023 14.999 1.49902s9.33398 2.16699 14.001 3.5v185l-40 -15c-16 -6 -29 -14.667 -39 -26s-15 -31.666 -15 -60.999c0 -24.667 4.83301 -45.5 14.5 -62.5s26.5 -25.5 50.5 -25.5zM506.999 374.999l-0.000976562 -265.002
c0 -10 1.33301 -19.333 4 -28s9.66699 -13 21 -13c6.66699 0 12.834 0.666992 18.501 2l12.5 3l7 -30c-17.333 -16 -37.333 -29 -60 -39s-49 -15 -79 -15c-30.667 0 -56.667 7.16699 -78 21.5s-36.333 34.833 -45 61.5c-14 -21.333 -33 -39.833 -57 -55.5
s-54.333 -23.5 -91 -23.5c-42.667 0 -77.834 11.667 -105.501 35s-41.5 57 -41.5 101s13 76.667 39 98s56.333 38 91 50l162 56v110c0 20 -3 36.167 -9 48.5s-17.333 18.5 -34 18.5c-17.333 0 -29.666 -7.16699 -36.999 -21.5s-11 -32.833 -11 -55.5
c0 -12 1 -24.167 3 -36.5s4.33301 -24.833 7 -37.5l-124 -16c-14.667 4.66699 -27 13.334 -37 26.001s-15 28.334 -15 47.001c0 47.333 21.667 81.833 65 103.5s96 32.5 158 32.5c72.667 0 130.167 -12.833 172.5 -38.5s63.5 -72.167 63.5 -139.5zM231.998 683.997
c0 -14 4.16699 -25.667 12.5 -35s20.5 -14 36.5 -14s28.167 4.66699 36.5 14s12.5 21 12.5 35c0 14.667 -4.16699 26.667 -12.5 36s-20.5 14 -36.5 14s-28.167 -4.66699 -36.5 -14s-12.5 -21.333 -12.5 -36zM172.998 683.997c0 29.333 10.167 54.166 30.5 74.499
s46.166 30.5 77.499 30.5s57 -10.167 77 -30.5s30 -45.166 30 -74.499c0 -28.667 -10 -53.167 -30 -73.5s-45.667 -30.5 -77 -30.5s-57.166 10.167 -77.499 30.5s-30.5 44.833 -30.5 73.5z" />
    <glyph glyph-name="ae" unicode="&#xe6;" horiz-adv-x="808" 
d="M568 553c72.667 0 127.834 -21.001 165.501 -63.001s56.5 -95.667 56.5 -161v-25h-308c0 -52 12.833 -95 38.5 -129s62.167 -51 109.5 -51c28 0 54 5.5 78 16.5s45.333 28.833 64 53.5l21 -13c-14 -58 -40.833 -104.333 -80.5 -139s-92.167 -52 -157.5 -52
c-42 0 -80.833 7.66699 -116.5 23s-64.834 37.666 -87.501 66.999c-24 -26.667 -48.5 -47.667 -73.5 -63s-62.167 -23 -111.5 -23c-46 0 -83 11.667 -111 35s-42 57 -42 101s13 76.667 39 98s56.333 38 91 50l160 55c1.33301 7.33301 3 14.5 5 21.5l6 20.5
c1.33301 45.333 -3.33398 79.333 -14.001 102s-24.667 34 -42 34c-15.333 0 -26.5 -7.16699 -33.5 -21.5s-10.5 -32.833 -10.5 -55.5c0 -12 1 -24.167 3 -36.5s4.33301 -24.833 7 -37.5l-124 -16c-14.667 4.66699 -27 13.334 -37 26.001s-15 28.334 -15 47.001
c0 47.333 21.667 81.833 65 103.5s96 32.5 158 32.5c31.333 0 59.333 -3.33301 84 -10s44.667 -18.334 60 -35.001c22 14.667 45.833 25.834 71.5 33.501s52.834 11.5 81.501 11.5zM551 508.999c-24.667 0 -41.667 -14.3311 -51 -42.998s-15 -66.334 -17 -113.001h132
c0 49.333 -4.66699 87.666 -14 114.999s-26 41 -50 41zM289 98.001c6 0 12.499 1 19.499 3s14.5 4.66699 22.5 8c-10.667 20.667 -19.167 43.5 -25.5 68.5s-9.5 52.5 -9.5 82.5v12.5c0 4.33301 0.333008 8.5 1 12.5l-20 -8c-22 -8 -38.5 -17.833 -49.5 -29.5
s-16.5 -32.167 -16.5 -61.5c0 -24.667 5.33301 -45.5 16 -62.5s31.334 -25.5 62.001 -25.5z" />
    <glyph glyph-name="ccedilla" unicode="&#xe7;" horiz-adv-x="517" 
d="M159 -233l-8.99902 37.001c36 0 62.167 4.66699 78.5 14s24.5 20.333 24.5 33c0 13.333 -7 21.833 -21 25.5s-32.667 5.83398 -56 6.50098l44 112c-58 10.667 -105.833 38.667 -143.5 84s-56.5 104 -56.5 176c0 85.333 25.833 156.333 77.5 213s119.834 85 204.501 85
c50.667 0 95 -10.333 133 -31s57 -54 57 -100c0 -20.667 -5 -37.334 -15 -50.001s-20.667 -21.334 -32 -26.001h-103c1.33301 12 2.33301 22.833 3 32.5s1 18.834 1 27.501c0 30 -4.5 54 -13.5 72s-24.5 27 -46.5 27c-28 0 -49.667 -16.667 -65 -50s-23 -75 -23 -125
c0 -62.667 13.5 -112.167 40.5 -148.5s65.167 -54.5 114.5 -54.5c28.667 0 53.667 4.83301 75 14.5s39.666 25.5 54.999 47.5l24 -15c-16.667 -64 -45.334 -110.667 -86.001 -140s-90 -44 -148 -44h-15l-11 -28c32 0 57.833 -7.33301 77.5 -22s29.5 -35.334 29.5 -62.001
c0 -38 -20 -66 -60 -84s-85 -27 -135 -27z" />
    <glyph glyph-name="egrave" unicode="&#xe8;" horiz-adv-x="541" 
d="M297 553c74.667 0 130.999 -20.998 168.999 -62.998s57 -95.667 57 -161v-25h-317c0 -54.667 14 -98.334 42 -131.001s64 -49 108 -49c31.333 0 59.333 5.5 84 16.5s46.334 28.833 65.001 53.5l21 -13c-14 -58 -40.833 -104.333 -80.5 -139s-92.167 -52 -157.5 -52
c-74 0 -137.167 23.167 -189.5 69.5s-78.5 113.166 -78.5 200.499c0 90 27.833 161.333 83.5 214s120.167 79 193.5 79zM283.999 509.002c-24.667 0 -43.167 -14.3311 -55.5 -42.998s-19.5 -66.334 -21.5 -113.001h141c0 49.333 -4.66699 87.666 -14 114.999s-26 41 -50 41z
M110.999 766.004h197l47 -163h-59l-185 153v10z" />
    <glyph glyph-name="eacute" unicode="&#xe9;" horiz-adv-x="541" 
d="M297 553c74.667 0 130.999 -20.998 168.999 -62.998s57 -95.667 57 -161v-25h-317c0 -54.667 14 -98.334 42 -131.001s64 -49 108 -49c31.333 0 59.333 5.5 84 16.5s46.334 28.833 65.001 53.5l21 -13c-14 -58 -40.833 -104.333 -80.5 -139s-92.167 -52 -157.5 -52
c-74 0 -137.167 23.167 -189.5 69.5s-78.5 113.166 -78.5 200.499c0 90 27.833 161.333 83.5 214s120.167 79 193.5 79zM283.999 509.002c-24.667 0 -43.167 -14.3311 -55.5 -42.998s-19.5 -66.334 -21.5 -113.001h141c0 49.333 -4.66699 87.666 -14 114.999s-26 41 -50 41z
M281.999 766.004h197v-10l-185 -153h-59z" />
    <glyph glyph-name="ecircumflex" unicode="&#xea;" horiz-adv-x="541" 
d="M297 553c74.667 0 130.999 -20.998 168.999 -62.998s57 -95.667 57 -161v-25h-317c0 -54.667 14 -98.334 42 -131.001s64 -49 108 -49c31.333 0 59.333 5.5 84 16.5s46.334 28.833 65.001 53.5l21 -13c-14 -58 -40.833 -104.333 -80.5 -139s-92.167 -52 -157.5 -52
c-74 0 -137.167 23.167 -189.5 69.5s-78.5 113.166 -78.5 200.499c0 90 27.833 161.333 83.5 214s120.167 79 193.5 79zM283.999 509.002c-24.667 0 -43.167 -14.3311 -55.5 -42.998s-19.5 -66.334 -21.5 -113.001h141c0 49.333 -4.66699 87.666 -14 114.999s-26 41 -50 41z
M364.999 766.004l118 -169h-65l-121 80l-121 -80h-65l118 169h136z" />
    <glyph glyph-name="edieresis" unicode="&#xeb;" horiz-adv-x="541" 
d="M297 553c74.667 0 130.999 -20.998 168.999 -62.998s57 -95.667 57 -161v-25h-317c0 -54.667 14 -98.334 42 -131.001s64 -49 108 -49c31.333 0 59.333 5.5 84 16.5s46.334 28.833 65.001 53.5l21 -13c-14 -58 -40.833 -104.333 -80.5 -139s-92.167 -52 -157.5 -52
c-74 0 -137.167 23.167 -189.5 69.5s-78.5 113.166 -78.5 200.499c0 90 27.833 161.333 83.5 214s120.167 79 193.5 79zM283.999 509.002c-24.667 0 -43.167 -14.3311 -55.5 -42.998s-19.5 -66.334 -21.5 -113.001h141c0 49.333 -4.66699 87.666 -14 114.999s-26 41 -50 41z
M102.999 691.004c0 24 8.66699 44.667 26 62s38.333 26 63 26s45.834 -8.66699 63.501 -26s26.5 -38 26.5 -62s-8.83301 -44.667 -26.5 -62s-38.834 -26 -63.501 -26s-45.667 8.66699 -63 26s-26 38 -26 62zM312.999 691.004c0 24 8.83301 44.667 26.5 62s38.167 26 61.5 26
c25.333 0 46.833 -8.66699 64.5 -26s26.5 -38 26.5 -62s-8.83301 -44.667 -26.5 -62s-39.167 -26 -64.5 -26c-23.333 0 -43.833 8.66699 -61.5 26s-26.5 38 -26.5 62z" />
    <glyph glyph-name="igrave" unicode="&#xec;" horiz-adv-x="350" 
d="M281 553v-475c0 -14.667 4.16699 -24 12.5 -28s21.833 -6.66699 40.5 -8v-42h-312v42c18.667 1.33301 32.167 4 40.5 8s12.5 13.333 12.5 28v350l-53 34v31l223 60h36zM-4 766h197l47 -163h-59l-185 153v10z" />
    <glyph glyph-name="iacute" unicode="&#xed;" horiz-adv-x="350" 
d="M281 553v-475c0 -14.667 4.16699 -24 12.5 -28s21.833 -6.66699 40.5 -8v-42h-312v42c18.667 1.33301 32.167 4 40.5 8s12.5 13.333 12.5 28v350l-53 34v31l223 60h36zM167 766h197v-10l-185 -153h-59z" />
    <glyph glyph-name="icircumflex" unicode="&#xee;" horiz-adv-x="350" 
d="M238 766l107 -167h-59l-110 79l-110 -79h-60l108 167h124zM281 553v-475c0 -14.667 4.16699 -24 12.5 -28s21.833 -6.66699 40.5 -8v-42h-312v42c18.667 1.33301 32.167 4 40.5 8s12.5 13.333 12.5 28v350l-53 34v31l223 60h36z" />
    <glyph glyph-name="idieresis" unicode="&#xef;" horiz-adv-x="350" 
d="M281 553v-475c0 -14.667 4.16699 -24 12.5 -28s21.833 -6.66699 40.5 -8v-42h-312v42c18.667 1.33301 32.167 4 40.5 8s12.5 13.333 12.5 28v350l-53 34v31l223 60h36zM-19 691c0 24 8.66699 44.667 26 62s38.333 26 63 26s45.834 -8.66699 63.501 -26s26.5 -38 26.5 -62
s-8.83301 -44.667 -26.5 -62s-38.834 -26 -63.501 -26s-45.667 8.66699 -63 26s-26 38 -26 62zM191 691c0 24 8.83301 44.667 26.5 62s38.167 26 61.5 26c25.333 0 46.833 -8.66699 64.5 -26s26.5 -38 26.5 -62s-8.83301 -44.667 -26.5 -62s-39.167 -26 -64.5 -26
c-23.333 0 -43.833 8.66699 -61.5 26s-26.5 38 -26.5 62z" />
    <glyph glyph-name="eth" unicode="&#xf0;" horiz-adv-x="618" 
d="M122 589l-13.001 46.0029l152 46c-19.333 15.333 -41.5 29 -66.5 41s-53.5 21.667 -85.5 29l21 37c48.667 -4.66699 93.334 -13.334 134.001 -26.001s77.334 -28 110.001 -46l136 42l13 -46l-97 -30c59.333 -44.667 102.833 -98.167 130.5 -160.5
s41.5 -125.5 41.5 -189.5c0 -102 -25 -184.5 -75 -247.5s-123 -94.5 -219 -94.5c-85.333 0 -154 26.667 -206 80s-78 118.666 -78 195.999c0 87.333 27.167 156.833 81.5 208.5s116.166 77.5 185.499 77.5c14 0 28.333 -2 43 -6s26 -10 34 -18
c-8 21.333 -17.167 41.666 -27.5 60.999s-22.833 37.333 -37.5 54zM314.999 34.0029c26.667 0 44.334 17.667 53.001 53s13 84 13 146c0 85.333 -5.5 152.666 -16.5 201.999s-30.833 74 -59.5 74c-26.667 0 -44.334 -17.667 -53.001 -53s-13 -84 -13 -146
c0 -85.333 5.5 -152.666 16.5 -201.999s30.833 -74 59.5 -74z" />
    <glyph glyph-name="ntilde" unicode="&#xf1;" horiz-adv-x="684" 
d="M417 78v293c0 18.667 -4.16699 33.667 -12.5 45s-24.833 17 -49.5 17c-14 0 -27 -1.16699 -39 -3.5s-23.667 -5.5 -35 -9.5v-342c0 -14.667 3.66699 -24 11 -28s20.333 -6.66699 39 -8v-42h-309v42c18.667 1.33301 32.167 4 40.5 8s12.5 13.333 12.5 28v350l-53 34v31
l223 60h40l-4 -101c18 23.333 42 46 72 68s68.333 33 115 33c48 0 85.833 -13.667 113.5 -41s41.5 -68.333 41.5 -123v-311c0 -14.667 4.16699 -24 12.5 -28s21.833 -6.66699 40.5 -8v-42h-309v42c18.667 1.33301 31.667 4 39 8s11 13.333 11 28zM427 602
c-32.667 0 -58.167 10 -76.5 30s-38.166 30 -59.499 30c-14 0 -26 -5.33301 -36 -16s-19.667 -23.667 -29 -39l-40 22c16.667 42.667 34 76.5 52 101.5s41 37.5 69 37.5c32.667 0 58.167 -10 76.5 -30s38.166 -30 59.499 -30c14 0 26 5.33301 36 16s19.667 23.667 29 39
l40 -22c-16.667 -42.667 -34 -76.5 -52 -101.5s-41 -37.5 -69 -37.5z" />
    <glyph glyph-name="ograve" unicode="&#xf2;" horiz-adv-x="620" 
d="M315 34c26.667 0 44.334 17.667 53.001 53s13 84 13 146c0 85.333 -5.5 152.666 -16.5 201.999s-30.833 74 -59.5 74c-26.667 0 -44.334 -17.667 -53.001 -53s-13 -84 -13 -146c0 -85.333 5.5 -152.666 16.5 -201.999s30.833 -74 59.5 -74zM310 -10
c-85.333 0 -155 24.5 -209 73.5s-81 115.167 -81 198.5s27 152.666 81 207.999s123.667 83 209 83s155 -24.5 209 -73.5s81 -115.167 81 -198.5s-27 -152.666 -81 -207.999s-123.667 -83 -209 -83zM128 766h197l47 -163h-59l-185 153v10z" />
    <glyph glyph-name="oacute" unicode="&#xf3;" horiz-adv-x="620" 
d="M315 34c26.667 0 44.334 17.667 53.001 53s13 84 13 146c0 85.333 -5.5 152.666 -16.5 201.999s-30.833 74 -59.5 74c-26.667 0 -44.334 -17.667 -53.001 -53s-13 -84 -13 -146c0 -85.333 5.5 -152.666 16.5 -201.999s30.833 -74 59.5 -74zM310 -10
c-85.333 0 -155 24.5 -209 73.5s-81 115.167 -81 198.5s27 152.666 81 207.999s123.667 83 209 83s155 -24.5 209 -73.5s81 -115.167 81 -198.5s-27 -152.666 -81 -207.999s-123.667 -83 -209 -83zM299 766h197v-10l-185 -153h-59z" />
    <glyph glyph-name="ocircumflex" unicode="&#xf4;" horiz-adv-x="620" 
d="M315 34c26.667 0 44.334 17.667 53.001 53s13 84 13 146c0 85.333 -5.5 152.666 -16.5 201.999s-30.833 74 -59.5 74c-26.667 0 -44.334 -17.667 -53.001 -53s-13 -84 -13 -146c0 -85.333 5.5 -152.666 16.5 -201.999s30.833 -74 59.5 -74zM310 -10
c-85.333 0 -155 24.5 -209 73.5s-81 115.167 -81 198.5s27 152.666 81 207.999s123.667 83 209 83s155 -24.5 209 -73.5s81 -115.167 81 -198.5s-27 -152.666 -81 -207.999s-123.667 -83 -209 -83zM382 766l118 -169h-65l-121 80l-121 -80h-65l118 169h136z" />
    <glyph glyph-name="otilde" unicode="&#xf5;" horiz-adv-x="620" 
d="M315 34c26.667 0 44.334 17.667 53.001 53s13 84 13 146c0 85.333 -5.5 152.666 -16.5 201.999s-30.833 74 -59.5 74c-26.667 0 -44.334 -17.667 -53.001 -53s-13 -84 -13 -146c0 -85.333 5.5 -152.666 16.5 -201.999s30.833 -74 59.5 -74zM310 -10
c-85.333 0 -155 24.5 -209 73.5s-81 115.167 -81 198.5s27 152.666 81 207.999s123.667 83 209 83s155 -24.5 209 -73.5s81 -115.167 81 -198.5s-27 -152.666 -81 -207.999s-123.667 -83 -209 -83zM380 602c-32.667 0 -58.167 10 -76.5 30s-38.166 30 -59.499 30
c-14 0 -26 -5.33301 -36 -16s-19.667 -23.667 -29 -39l-40 22c16.667 42.667 34 76.5 52 101.5s41 37.5 69 37.5c32.667 0 58.167 -10 76.5 -30s38.166 -30 59.499 -30c14 0 26 5.33301 36 16s19.667 23.667 29 39l40 -22c-16.667 -42.667 -34 -76.5 -52 -101.5
s-41 -37.5 -69 -37.5z" />
    <glyph glyph-name="odieresis" unicode="&#xf6;" horiz-adv-x="620" 
d="M315 34c26.667 0 44.334 17.667 53.001 53s13 84 13 146c0 85.333 -5.5 152.666 -16.5 201.999s-30.833 74 -59.5 74c-26.667 0 -44.334 -17.667 -53.001 -53s-13 -84 -13 -146c0 -85.333 5.5 -152.666 16.5 -201.999s30.833 -74 59.5 -74zM310 -10
c-85.333 0 -155 24.5 -209 73.5s-81 115.167 -81 198.5s27 152.666 81 207.999s123.667 83 209 83s155 -24.5 209 -73.5s81 -115.167 81 -198.5s-27 -152.666 -81 -207.999s-123.667 -83 -209 -83zM120 691c0 24 8.66699 44.667 26 62s38.333 26 63 26
s45.834 -8.66699 63.501 -26s26.5 -38 26.5 -62s-8.83301 -44.667 -26.5 -62s-38.834 -26 -63.501 -26s-45.667 8.66699 -63 26s-26 38 -26 62zM330 691c0 24 8.83301 44.667 26.5 62s38.167 26 61.5 26c25.333 0 46.833 -8.66699 64.5 -26s26.5 -38 26.5 -62
s-8.83301 -44.667 -26.5 -62s-39.167 -26 -64.5 -26c-23.333 0 -43.833 8.66699 -61.5 26s-26.5 38 -26.5 62z" />
    <glyph glyph-name="divide" unicode="&#xf7;" horiz-adv-x="576" 
d="M66 333v72h444v-72h-444zM227 195c0 17.333 5.83301 32 17.5 44s25.834 18 42.501 18s31.167 -6 43.5 -18s18.5 -26.667 18.5 -44c0 -16.667 -6.16699 -31 -18.5 -43s-26.833 -18 -43.5 -18s-30.834 6 -42.501 18s-17.5 26.333 -17.5 43zM227 543
c0 16.667 5.83301 30.834 17.5 42.501s25.834 17.5 42.501 17.5s31.167 -5.83301 43.5 -17.5s18.5 -25.834 18.5 -42.501s-6.16699 -31.167 -18.5 -43.5s-26.833 -18.5 -43.5 -18.5s-30.834 6.16699 -42.501 18.5s-17.5 26.833 -17.5 43.5z" />
    <glyph glyph-name="oslash" unicode="&#xf8;" horiz-adv-x="620" 
d="M310 -10c-28.667 0 -55.667 2.83203 -81 8.49902s-48.666 13.834 -69.999 24.501l-61 -83l-38 27l59 81c-30.667 23.333 -54.834 53.333 -72.501 90s-26.5 78 -26.5 124c0 83.333 27 152.666 81 207.999s123.667 83 209 83c28.667 0 56 -3 82 -9s49.667 -14.667 71 -26
l57 78l38 -27l-56 -76c30.667 -23.333 54.667 -53 72 -89s26 -77 26 -123c0 -83.333 -27 -152.666 -81 -207.999s-123.667 -83 -209 -83zM239 309.999c0 -17.333 0.167969 -34 0.500977 -50s0.833008 -31 1.5 -45l131 179c-5.33301 36 -13.333 64.167 -24 84.5
s-25 30.5 -43 30.5c-26.667 0 -44.334 -17.667 -53.001 -53s-13 -84 -13 -146zM315.001 33.999c26.667 0 44.334 17.667 53.001 53s13 84 13 146c0 16 -0.333008 31.667 -1 47s-1.33398 29.666 -2.00098 42.999l-130 -178c5.33301 -35.333 13.333 -62.666 24 -81.999
s25 -29 43 -29z" />
    <glyph glyph-name="ugrave" unicode="&#xf9;" horiz-adv-x="669" 
d="M600 421v-302c0 -16.667 1.66699 -29.334 5 -38.001s12.333 -13 27 -13h23v-44l-225 -34h-39l3 98c-16.667 -22.667 -39.334 -44.667 -68.001 -66s-66 -32 -112 -32c-44.667 0 -81.5 14 -110.5 42s-43.5 71 -43.5 129v237c0 14 -2.33301 26.333 -7 37
s-14 18.334 -28 23.001l-15 5v40l224 50h38l-6 -132v-242c0 -22.667 4.83301 -40.334 14.5 -53.001s25.834 -19 48.501 -19c12.667 0 23.5 0.833008 32.5 2.5s19.833 4.5 32.5 8.5v280c0 14 -2.33301 26.333 -7 37s-14 18.334 -28 23.001l-15 5v40l224 50h38zM148 766h197
l47 -163h-59l-185 153v10z" />
    <glyph glyph-name="uacute" unicode="&#xfa;" horiz-adv-x="669" 
d="M600 421v-302c0 -16.667 1.66699 -29.334 5 -38.001s12.333 -13 27 -13h23v-44l-225 -34h-39l3 98c-16.667 -22.667 -39.334 -44.667 -68.001 -66s-66 -32 -112 -32c-44.667 0 -81.5 14 -110.5 42s-43.5 71 -43.5 129v237c0 14 -2.33301 26.333 -7 37
s-14 18.334 -28 23.001l-15 5v40l224 50h38l-6 -132v-242c0 -22.667 4.83301 -40.334 14.5 -53.001s25.834 -19 48.501 -19c12.667 0 23.5 0.833008 32.5 2.5s19.833 4.5 32.5 8.5v280c0 14 -2.33301 26.333 -7 37s-14 18.334 -28 23.001l-15 5v40l224 50h38zM319 766h197
v-10l-185 -153h-59z" />
    <glyph glyph-name="ucircumflex" unicode="&#xfb;" horiz-adv-x="669" 
d="M600 421v-302c0 -16.667 1.66699 -29.334 5 -38.001s12.333 -13 27 -13h23v-44l-225 -34h-39l3 98c-16.667 -22.667 -39.334 -44.667 -68.001 -66s-66 -32 -112 -32c-44.667 0 -81.5 14 -110.5 42s-43.5 71 -43.5 129v237c0 14 -2.33301 26.333 -7 37
s-14 18.334 -28 23.001l-15 5v40l224 50h38l-6 -132v-242c0 -22.667 4.83301 -40.334 14.5 -53.001s25.834 -19 48.501 -19c12.667 0 23.5 0.833008 32.5 2.5s19.833 4.5 32.5 8.5v280c0 14 -2.33301 26.333 -7 37s-14 18.334 -28 23.001l-15 5v40l224 50h38zM402 766
l118 -169h-65l-121 80l-121 -80h-65l118 169h136z" />
    <glyph glyph-name="udieresis" unicode="&#xfc;" horiz-adv-x="669" 
d="M600 421v-302c0 -16.667 1.66699 -29.334 5 -38.001s12.333 -13 27 -13h23v-44l-225 -34h-39l3 98c-16.667 -22.667 -39.334 -44.667 -68.001 -66s-66 -32 -112 -32c-44.667 0 -81.5 14 -110.5 42s-43.5 71 -43.5 129v237c0 14 -2.33301 26.333 -7 37
s-14 18.334 -28 23.001l-15 5v40l224 50h38l-6 -132v-242c0 -22.667 4.83301 -40.334 14.5 -53.001s25.834 -19 48.501 -19c12.667 0 23.5 0.833008 32.5 2.5s19.833 4.5 32.5 8.5v280c0 14 -2.33301 26.333 -7 37s-14 18.334 -28 23.001l-15 5v40l224 50h38zM140 691
c0 24 8.66699 44.667 26 62s38.333 26 63 26s45.834 -8.66699 63.501 -26s26.5 -38 26.5 -62s-8.83301 -44.667 -26.5 -62s-38.834 -26 -63.501 -26s-45.667 8.66699 -63 26s-26 38 -26 62zM350 691c0 24 8.83301 44.667 26.5 62s38.167 26 61.5 26
c25.333 0 46.833 -8.66699 64.5 -26s26.5 -38 26.5 -62s-8.83301 -44.667 -26.5 -62s-39.167 -26 -64.5 -26c-23.333 0 -43.833 8.66699 -61.5 26s-26.5 38 -26.5 62z" />
    <glyph glyph-name="yacute" unicode="&#xfd;" horiz-adv-x="616" 
d="M387 202l94 234c2.66699 6.66699 4.66699 12.167 6 16.5s2 8.83301 2 13.5c0 10.667 -4.16699 18.334 -12.5 23.001s-25.833 8.66699 -52.5 12v42h187v-42c-16.667 -5.33301 -28.167 -10.666 -34.5 -15.999s-11.833 -13.333 -16.5 -24l-232 -544
c-19.333 -45.333 -40.166 -79.833 -62.499 -103.5s-51.5 -35.5 -87.5 -35.5c-20.667 0 -38.334 3.66699 -53.001 11s-25.667 17 -33 29v81c13.333 -2.66699 26.333 -5 39 -7s27 -3 43 -3c28.667 0 50.5 4.16699 65.5 12.5s26.833 21.5 35.5 39.5l15 32l-234 488
c-4.66699 10.667 -10.167 18.667 -16.5 24s-17.833 10.666 -34.5 15.999v42h342v-42c-26.667 -3.33301 -44.167 -7.33301 -52.5 -12s-12.5 -12.334 -12.5 -23.001c0 -4.66699 0.666992 -9 2 -13l5 -15zM339 766h197v-10l-185 -153h-59z" />
    <glyph glyph-name="thorn" unicode="&#xfe;" horiz-adv-x="655" 
d="M425 247c0 67.333 -10.833 115.166 -32.5 143.499s-49.167 42.5 -82.5 42.5c-8 0 -15.667 -0.666992 -23 -2s-15 -3.66602 -23 -6.99902v-283c0 -29.333 4 -53.333 12 -72s24.333 -28 49 -28c33.333 0 58.333 19.833 75 59.5s25 88.5 25 146.5zM58 -134
l-0.000976562 811.001l-53 27v34l224 45h35v-329c12.667 22 33 44 61 66s63.667 33 107 33c58 0 106.333 -20.333 145 -61s58 -102.667 58 -186c0 -104.667 -28 -183.5 -84 -236.5s-124.667 -79.5 -206 -79.5c-18 0 -34.167 1.5 -48.5 4.5s-25.166 7.16699 -32.499 12.5
v-136c0 -17.333 5.33301 -27.833 16 -31.5s30 -6.83398 58 -9.50098v-42h-333v42c18.667 1.33301 32.167 4 40.5 8s12.5 13.333 12.5 28z" />
    <glyph glyph-name="ydieresis" unicode="&#xff;" horiz-adv-x="616" 
d="M387 202l94 234c2.66699 6.66699 4.66699 12.167 6 16.5s2 8.83301 2 13.5c0 10.667 -4.16699 18.334 -12.5 23.001s-25.833 8.66699 -52.5 12v42h187v-42c-16.667 -5.33301 -28.167 -10.666 -34.5 -15.999s-11.833 -13.333 -16.5 -24l-232 -544
c-19.333 -45.333 -40.166 -79.833 -62.499 -103.5s-51.5 -35.5 -87.5 -35.5c-20.667 0 -38.334 3.66699 -53.001 11s-25.667 17 -33 29v81c13.333 -2.66699 26.333 -5 39 -7s27 -3 43 -3c28.667 0 50.5 4.16699 65.5 12.5s26.833 21.5 35.5 39.5l15 32l-234 488
c-4.66699 10.667 -10.167 18.667 -16.5 24s-17.833 10.666 -34.5 15.999v42h342v-42c-26.667 -3.33301 -44.167 -7.33301 -52.5 -12s-12.5 -12.334 -12.5 -23.001c0 -4.66699 0.666992 -9 2 -13l5 -15zM160 691c0 24 8.66699 44.667 26 62s38.333 26 63 26
s45.834 -8.66699 63.501 -26s26.5 -38 26.5 -62s-8.83301 -44.667 -26.5 -62s-38.834 -26 -63.501 -26s-45.667 8.66699 -63 26s-26 38 -26 62zM370 691c0 24 8.83301 44.667 26.5 62s38.167 26 61.5 26c25.333 0 46.833 -8.66699 64.5 -26s26.5 -38 26.5 -62
s-8.83301 -44.667 -26.5 -62s-39.167 -26 -64.5 -26c-23.333 0 -43.833 8.66699 -61.5 26s-26.5 38 -26.5 62z" />
    <glyph glyph-name="Amacron" unicode="&#x100;" horiz-adv-x="773" 
d="M461 129l-32 82.0049h-247l-30 -82c-2.66699 -6.66699 -4.66699 -13.167 -6 -19.5s-2 -11.833 -2 -16.5c0 -16.667 7 -28.334 21 -35.001s33.667 -11 59 -13v-45h-219v45c13.333 2.66699 25 6.16699 35 10.5s17.667 13.166 23 26.499l203 533l-35 87h233l245 -620
c4.66699 -12.667 12 -21.334 22 -26.001s22.333 -8.33398 37 -11.001v-45h-375v45c22.667 0.666992 41 4.5 55 11.5s21 18.833 21 35.5c0 4.66699 -0.666992 10.167 -2 16.5s-3.33301 13.166 -6 20.499zM302 536.005l-99 -267h203zM211 746.005v95h294v-95h-294z" />
    <glyph glyph-name="amacron" unicode="&#x101;" horiz-adv-x="568" 
d="M276 98c5.33301 0 10.332 0.499023 14.999 1.49902s9.33398 2.16699 14.001 3.5v185l-40 -15c-16 -6 -29 -14.667 -39 -26s-15 -31.666 -15 -60.999c0 -24.667 4.83301 -45.5 14.5 -62.5s26.5 -25.5 50.5 -25.5zM506.999 374.999l-0.000976562 -265.002
c0 -10 1.33301 -19.333 4 -28s9.66699 -13 21 -13c6.66699 0 12.834 0.666992 18.501 2l12.5 3l7 -30c-17.333 -16 -37.333 -29 -60 -39s-49 -15 -79 -15c-30.667 0 -56.667 7.16699 -78 21.5s-36.333 34.833 -45 61.5c-14 -21.333 -33 -39.833 -57 -55.5
s-54.333 -23.5 -91 -23.5c-42.667 0 -77.834 11.667 -105.501 35s-41.5 57 -41.5 101s13 76.667 39 98s56.333 38 91 50l162 56v110c0 20 -3 36.167 -9 48.5s-17.333 18.5 -34 18.5c-17.333 0 -29.666 -7.16699 -36.999 -21.5s-11 -32.833 -11 -55.5
c0 -12 1 -24.167 3 -36.5s4.33301 -24.833 7 -37.5l-124 -16c-14.667 4.66699 -27 13.334 -37 26.001s-15 28.334 -15 47.001c0 47.333 21.667 81.833 65 103.5s96 32.5 158 32.5c72.667 0 130.167 -12.833 172.5 -38.5s63.5 -72.167 63.5 -139.5zM133.998 624.997v95h294
v-95h-294z" />
    <glyph glyph-name="Abreve" unicode="&#x102;" horiz-adv-x="773" 
d="M461 129l-32 82.0049h-247l-30 -82c-2.66699 -6.66699 -4.66699 -13.167 -6 -19.5s-2 -11.833 -2 -16.5c0 -16.667 7 -28.334 21 -35.001s33.667 -11 59 -13v-45h-219v45c13.333 2.66699 25 6.16699 35 10.5s17.667 13.166 23 26.499l203 533l-35 87h233l245 -620
c4.66699 -12.667 12 -21.334 22 -26.001s22.333 -8.33398 37 -11.001v-45h-375v45c22.667 0.666992 41 4.5 55 11.5s21 18.833 21 35.5c0 4.66699 -0.666992 10.167 -2 16.5s-3.33301 13.166 -6 20.499zM302 536.005l-99 -267h203zM358 738.005
c-48 0 -85.002 14 -111.002 42s-39 66 -39 114h51c4.66699 -23.333 16.834 -39 36.501 -47s40.5 -12 62.5 -12s42.833 4 62.5 12s31.834 23.667 36.501 47h51c0 -48 -13 -86 -39 -114s-63 -42 -111 -42z" />
    <glyph glyph-name="abreve" unicode="&#x103;" horiz-adv-x="568" 
d="M276 98c5.33301 0 10.332 0.499023 14.999 1.49902s9.33398 2.16699 14.001 3.5v185l-40 -15c-16 -6 -29 -14.667 -39 -26s-15 -31.666 -15 -60.999c0 -24.667 4.83301 -45.5 14.5 -62.5s26.5 -25.5 50.5 -25.5zM506.999 374.999l-0.000976562 -265.002
c0 -10 1.33301 -19.333 4 -28s9.66699 -13 21 -13c6.66699 0 12.834 0.666992 18.501 2l12.5 3l7 -30c-17.333 -16 -37.333 -29 -60 -39s-49 -15 -79 -15c-30.667 0 -56.667 7.16699 -78 21.5s-36.333 34.833 -45 61.5c-14 -21.333 -33 -39.833 -57 -55.5
s-54.333 -23.5 -91 -23.5c-42.667 0 -77.834 11.667 -105.501 35s-41.5 57 -41.5 101s13 76.667 39 98s56.333 38 91 50l162 56v110c0 20 -3 36.167 -9 48.5s-17.333 18.5 -34 18.5c-17.333 0 -29.666 -7.16699 -36.999 -21.5s-11 -32.833 -11 -55.5
c0 -12 1 -24.167 3 -36.5s4.33301 -24.833 7 -37.5l-124 -16c-14.667 4.66699 -27 13.334 -37 26.001s-15 28.334 -15 47.001c0 47.333 21.667 81.833 65 103.5s96 32.5 158 32.5c72.667 0 130.167 -12.833 172.5 -38.5s63.5 -72.167 63.5 -139.5zM280.998 597.997
c-48 0 -84.835 15.167 -110.502 45.5s-38.5 71.833 -38.5 124.5h50c4 -26.667 15.333 -45 34 -55s40.334 -15 65.001 -15s46.334 5 65.001 15s30 28.333 34 55h50c0 -52.667 -12.833 -94.167 -38.5 -124.5s-62.5 -45.5 -110.5 -45.5z" />
    <glyph glyph-name="Aogonek" unicode="&#x104;" horiz-adv-x="773" 
d="M302 536l-99 -267h203zM394 29c21.333 8.66699 39.501 16.3379 54.501 23.0049s22.5 18.334 22.5 35.001c0 4.66699 -0.666992 10.167 -2 16.5s-3.33301 13.166 -6 20.499l-34 87h-247l-30 -82c-2.66699 -6.66699 -4.66699 -13.167 -6 -19.5s-2 -11.833 -2 -16.5
c0 -16.667 7 -28.334 21 -35.001s33.667 -11 59 -13v-45h-219v45c13.333 2.66699 25 6.16699 35 10.5s17.667 13.166 23 26.499l203 533l-35 87h233l245 -620c4.66699 -12.667 12 -21.334 22 -26.001s22.333 -8.33398 37 -11.001v-45h-343c-22 -6.66699 -37.5 -18 -46.5 -34
s-13.5 -33 -13.5 -51c0 -16.667 4.33301 -30.167 13 -40.5s20.667 -15.5 36 -15.5c10 0 19 1.83301 27 5.5s17.333 8.83398 28 15.501l17 -21c-19.333 -24.667 -39.5 -43.334 -60.5 -56.001s-44.833 -19 -71.5 -19s-50.334 8.16699 -71.001 24.5s-31 41.5 -31 75.5
c0 36.667 13.667 66.167 41 88.5s61 41.166 101 56.499z" />
    <glyph glyph-name="aogonek" unicode="&#x105;" horiz-adv-x="568" 
d="M507 375l-0.00488281 -265.003c0 -10 1.33301 -19.333 4 -28s9.66699 -13 21 -13c6.66699 0 12.834 0.666992 18.501 2l12.5 3l7 -30c-25.333 -22.667 -55.333 -41.334 -90 -56.001s-52 -41 -52 -79c0 -14 3.83301 -25.833 11.5 -35.5s18.834 -14.5 33.501 -14.5
c12 0 22.167 1.83301 30.5 5.5s17.833 8.83398 28.5 15.501l17 -21c-19.333 -24.667 -39.666 -43.334 -60.999 -56.001s-47 -19 -77 -19c-26 0 -48.5 7.33301 -67.5 22s-28.5 35.334 -28.5 62.001c0 27.333 8.5 50.833 25.5 70.5s39.833 36.834 68.5 51.501
c-23.333 4 -44.166 13.167 -62.499 27.5s-31.166 32.833 -38.499 55.5c-14 -21.333 -33 -39.833 -57 -55.5s-54.333 -23.5 -91 -23.5c-42.667 0 -77.834 11.667 -105.501 35s-41.5 57 -41.5 101s13 76.667 39 98s56.333 38 91 50l162 56v110c0 20 -3 36.167 -9 48.5
s-17.333 18.5 -34 18.5c-17.333 0 -29.666 -7.16699 -36.999 -21.5s-11 -32.833 -11 -55.5c0 -12 1 -24.167 3 -36.5s4.33301 -24.833 7 -37.5l-124 -16c-14.667 4.66699 -27 13.334 -37 26.001s-15 28.334 -15 47.001c0 47.333 21.667 81.833 65 103.5s96 32.5 158 32.5
c72.667 0 130.167 -12.833 172.5 -38.5s63.5 -72.167 63.5 -139.5zM275.995 97.9971c5.33301 0 10.332 0.499023 14.999 1.49902s9.33398 2.16699 14.001 3.5v185l-40 -15c-16 -6 -29 -14.667 -39 -26s-15 -31.666 -15 -60.999c0 -24.667 4.83301 -45.5 14.5 -62.5
s26.5 -25.5 50.5 -25.5z" />
    <glyph glyph-name="Cacute" unicode="&#x106;" horiz-adv-x="695" 
d="M413 712c46 0 87.832 -5.16602 125.499 -15.499s70.834 -24.833 99.501 -43.5l4 -181h-54c-12.667 60 -32.334 106 -59.001 138s-62.667 48 -108 48c-59.333 0 -101.833 -29 -127.5 -87s-38.5 -128.667 -38.5 -212c0 -90 14.833 -164.5 44.5 -223.5
s73.5 -88.5 131.5 -88.5c38.667 0 73.834 16.5 105.501 49.5s57.834 87.833 78.501 164.5h55l-18 -203c-28.667 -21.333 -65.334 -38 -110.001 -50s-91.667 -18 -141 -18c-116 0 -207.667 30.333 -275 91s-101 144 -101 250c0 117.333 38.333 210.166 115 278.499
s167.667 102.5 273 102.5zM403.999 890.001h197v-10l-180 -139h-64z" />
    <glyph glyph-name="cacute" unicode="&#x107;" horiz-adv-x="517" 
d="M198 330c0 -62.667 13.501 -112.166 40.501 -148.499s65.167 -54.5 114.5 -54.5c28.667 0 53.667 4.83301 75 14.5s39.666 25.5 54.999 47.5l24 -15c-16.667 -64 -45.334 -110.667 -86.001 -140s-90 -44 -148 -44c-70.667 0 -130.5 23.5 -179.5 70.5
s-73.5 111.833 -73.5 194.5c0 85.333 25.833 156.333 77.5 213s119.834 85 204.501 85c50.667 0 95 -10.333 133 -31s57 -54 57 -100c0 -20.667 -5 -37.334 -15 -50.001s-20.667 -21.334 -32 -26.001h-103c1.33301 12 2.33301 22.833 3 32.5s1 18.834 1 27.501
c0 30 -4.5 54 -13.5 72s-24.5 27 -46.5 27c-28 0 -49.667 -16.667 -65 -50s-23 -75 -23 -125zM286.001 766.001h197v-10l-185 -153h-59z" />
    <glyph glyph-name="Ccircumflex" unicode="&#x108;" horiz-adv-x="695" 
d="M413 712c46 0 87.832 -5.16602 125.499 -15.499s70.834 -24.833 99.501 -43.5l4 -181h-54c-12.667 60 -32.334 106 -59.001 138s-62.667 48 -108 48c-59.333 0 -101.833 -29 -127.5 -87s-38.5 -128.667 -38.5 -212c0 -90 14.833 -164.5 44.5 -223.5
s73.5 -88.5 131.5 -88.5c38.667 0 73.834 16.5 105.501 49.5s57.834 87.833 78.501 164.5h55l-18 -203c-28.667 -21.333 -65.334 -38 -110.001 -50s-91.667 -18 -141 -18c-116 0 -207.667 30.333 -275 91s-101 144 -101 250c0 117.333 38.333 210.166 115 278.499
s167.667 102.5 273 102.5zM484.999 893.001l118 -152h-65l-121 65l-121 -65h-65l118 152h136z" />
    <glyph glyph-name="ccircumflex" unicode="&#x109;" horiz-adv-x="517" 
d="M198 330c0 -62.667 13.501 -112.166 40.501 -148.499s65.167 -54.5 114.5 -54.5c28.667 0 53.667 4.83301 75 14.5s39.666 25.5 54.999 47.5l24 -15c-16.667 -64 -45.334 -110.667 -86.001 -140s-90 -44 -148 -44c-70.667 0 -130.5 23.5 -179.5 70.5
s-73.5 111.833 -73.5 194.5c0 85.333 25.833 156.333 77.5 213s119.834 85 204.501 85c50.667 0 95 -10.333 133 -31s57 -54 57 -100c0 -20.667 -5 -37.334 -15 -50.001s-20.667 -21.334 -32 -26.001h-103c1.33301 12 2.33301 22.833 3 32.5s1 18.834 1 27.501
c0 30 -4.5 54 -13.5 72s-24.5 27 -46.5 27c-28 0 -49.667 -16.667 -65 -50s-23 -75 -23 -125zM359.001 766.001l118 -169h-65l-121 80l-121 -80h-65l118 169h136z" />
    <glyph glyph-name="Cdotaccent" unicode="&#x10a;" horiz-adv-x="695" 
d="M413 712c46 0 87.832 -5.16602 125.499 -15.499s70.834 -24.833 99.501 -43.5l4 -181h-54c-12.667 60 -32.334 106 -59.001 138s-62.667 48 -108 48c-59.333 0 -101.833 -29 -127.5 -87s-38.5 -128.667 -38.5 -212c0 -90 14.833 -164.5 44.5 -223.5
s73.5 -88.5 131.5 -88.5c38.667 0 73.834 16.5 105.501 49.5s57.834 87.833 78.501 164.5h55l-18 -203c-28.667 -21.333 -65.334 -38 -110.001 -50s-91.667 -18 -141 -18c-116 0 -207.667 30.333 -275 91s-101 144 -101 250c0 117.333 38.333 210.166 115 278.499
s167.667 102.5 273 102.5zM416.999 737.001c-33.333 0 -59.333 9.83301 -78 29.5s-28 42.834 -28 69.501s9.33301 49.834 28 69.501s44.667 29.5 78 29.5c32.667 0 58.5 -9.83301 77.5 -29.5s28.5 -42.834 28.5 -69.501s-9.5 -49.834 -28.5 -69.501
s-44.833 -29.5 -77.5 -29.5z" />
    <glyph glyph-name="cdotaccent" unicode="&#x10b;" horiz-adv-x="517" 
d="M198 330c0 -62.667 13.501 -112.166 40.501 -148.499s65.167 -54.5 114.5 -54.5c28.667 0 53.667 4.83301 75 14.5s39.666 25.5 54.999 47.5l24 -15c-16.667 -64 -45.334 -110.667 -86.001 -140s-90 -44 -148 -44c-70.667 0 -130.5 23.5 -179.5 70.5
s-73.5 111.833 -73.5 194.5c0 85.333 25.833 156.333 77.5 213s119.834 85 204.501 85c50.667 0 95 -10.333 133 -31s57 -54 57 -100c0 -20.667 -5 -37.334 -15 -50.001s-20.667 -21.334 -32 -26.001h-103c1.33301 12 2.33301 22.833 3 32.5s1 18.834 1 27.501
c0 30 -4.5 54 -13.5 72s-24.5 27 -46.5 27c-28 0 -49.667 -16.667 -65 -50s-23 -75 -23 -125zM296.001 594.001c-33.333 0 -59.333 9.83301 -78 29.5s-28 42.834 -28 69.501s9.33301 49.834 28 69.501s44.667 29.5 78 29.5c32.667 0 58.5 -9.83301 77.5 -29.5
s28.5 -42.834 28.5 -69.501s-9.5 -49.834 -28.5 -69.501s-44.833 -29.5 -77.5 -29.5z" />
    <glyph glyph-name="Ccaron" unicode="&#x10c;" horiz-adv-x="695" 
d="M413 712c46 0 87.832 -5.16602 125.499 -15.499s70.834 -24.833 99.501 -43.5l4 -181h-54c-12.667 60 -32.334 106 -59.001 138s-62.667 48 -108 48c-59.333 0 -101.833 -29 -127.5 -87s-38.5 -128.667 -38.5 -212c0 -90 14.833 -164.5 44.5 -223.5
s73.5 -88.5 131.5 -88.5c38.667 0 73.834 16.5 105.501 49.5s57.834 87.833 78.501 164.5h55l-18 -203c-28.667 -21.333 -65.334 -38 -110.001 -50s-91.667 -18 -141 -18c-116 0 -207.667 30.333 -275 91s-101 144 -101 250c0 117.333 38.333 210.166 115 278.499
s167.667 102.5 273 102.5zM602.999 894.001l-118 -152h-136l-118 152h65l121 -65l121 65h65z" />
    <glyph glyph-name="ccaron" unicode="&#x10d;" horiz-adv-x="517" 
d="M198 330c0 -62.667 13.501 -112.166 40.501 -148.499s65.167 -54.5 114.5 -54.5c28.667 0 53.667 4.83301 75 14.5s39.666 25.5 54.999 47.5l24 -15c-16.667 -64 -45.334 -110.667 -86.001 -140s-90 -44 -148 -44c-70.667 0 -130.5 23.5 -179.5 70.5
s-73.5 111.833 -73.5 194.5c0 85.333 25.833 156.333 77.5 213s119.834 85 204.501 85c50.667 0 95 -10.333 133 -31s57 -54 57 -100c0 -20.667 -5 -37.334 -15 -50.001s-20.667 -21.334 -32 -26.001h-103c1.33301 12 2.33301 22.833 3 32.5s1 18.834 1 27.501
c0 30 -4.5 54 -13.5 72s-24.5 27 -46.5 27c-28 0 -49.667 -16.667 -65 -50s-23 -75 -23 -125zM483.001 771.001l-118 -169h-136l-118 169h65l121 -80l121 80h65z" />
    <glyph glyph-name="Dcaron" unicode="&#x10e;" horiz-adv-x="807" 
d="M327 652l-13.001 0.000976562v-532c0 -29.333 5.33301 -48.333 16 -57s26.334 -13 47.001 -13h6c52.667 0 94.667 26.667 126 80s47 122.666 47 207.999c0 98.667 -20.667 175.667 -62 231s-97 83 -167 83zM389.999 0.000976562h-364.001v45
c32.667 3.33301 52.334 9 59.001 17s10 24.667 10 50v478c0 25.333 -3.33301 42 -10 50s-26.334 13.667 -59.001 17v45h339c140.667 0 245.334 -32.833 314.001 -98.5s103 -148.167 103 -247.5c0 -110.667 -35 -197.667 -105 -261s-165.667 -95 -287 -95zM557.998 894.001
l-118 -152h-136l-118 152h65l121 -65l121 65h65z" />
    <glyph glyph-name="dcaron" unicode="&#x10f;" horiz-adv-x="660" 
d="M325 486c-32.667 0 -57.001 -16.334 -73.001 -49.001s-24 -76 -24 -130c0 -61.333 10 -110.833 30 -148.5s47.667 -56.5 83 -56.5c6.66699 0 13.834 0.5 21.501 1.5s15.167 2.83301 22.5 5.5v284c0 30.667 -4 53.834 -12 69.501s-24 23.5 -48 23.5zM384.999 676.999
l-53.002 27.002v34l224 45h35v-664c0 -16.667 1.66699 -29.334 5 -38.001s12.333 -13 27 -13h23v-44l-225 -34h-39l3 95c-20.667 -32 -44.667 -55.833 -72 -71.5s-57.666 -23.5 -90.999 -23.5c-58 0 -106.167 22 -144.5 66s-57.5 107.667 -57.5 191
c0 98.667 26.5 173.5 79.5 224.5s116.5 76.5 190.5 76.5c19.333 0 37.333 -2.33301 54 -7s30.334 -11.334 41.001 -20.001v156zM796.997 771.001l-119 -193h-47l11 205h155v-12z" />
    <glyph glyph-name="Dcroat" unicode="&#x110;" horiz-adv-x="817" 
d="M36 320l-0.000976562 68h69v202c0 25.333 -3.33301 42 -10 50s-26.334 13.667 -59.001 17v45h339c140.667 0 245.334 -32.833 314.001 -98.5s103 -148.167 103 -247.5c0 -110.667 -35 -197.667 -105 -261s-165.667 -95 -287 -95h-364v45
c32.667 3.33301 52.334 9 59.001 17s10 24.667 10 50v208h-69zM336.999 652l-13.001 0.000976562v-264h126v-68h-126v-200c0 -29.333 5.33301 -48.333 16 -57s26.334 -13 47.001 -13h6c52.667 0 94.667 26.667 126 80s47 122.666 47 207.999
c0 98.667 -20.667 175.667 -62 231s-97 83 -167 83z" />
    <glyph glyph-name="Emacron" unicode="&#x112;" horiz-adv-x="664" 
d="M26 0l-0.00195312 44.9971c32.667 3.33301 52.334 9 59.001 17s10 24.667 10 50v478c0 25.333 -3.33301 42 -10 50s-26.334 13.667 -59.001 17v45h586l5 -199h-42c-26.667 56 -50.5 94.833 -71.5 116.5s-55.5 32.5 -103.5 32.5h-86v-260h83
c23.333 0 39.166 6.83301 47.499 20.5s14.5 37.834 18.5 72.501h47v-246h-47c-4 34.667 -10.167 58.834 -18.5 72.501s-24.166 20.5 -47.499 20.5h-83v-215c0 -26.667 6.33301 -44.5 19 -53.5s32 -13.5 58 -13.5h22c46.667 0 80.334 12.333 101.001 37
s49.334 71.334 86.001 140.001h50l-33 -227h-591zM200.998 745.997v95h294v-95h-294z" />
    <glyph glyph-name="emacron" unicode="&#x113;" horiz-adv-x="541" 
d="M297 553c74.667 0 130.999 -20.998 168.999 -62.998s57 -95.667 57 -161v-25h-317c0 -54.667 14 -98.334 42 -131.001s64 -49 108 -49c31.333 0 59.333 5.5 84 16.5s46.334 28.833 65.001 53.5l21 -13c-14 -58 -40.833 -104.333 -80.5 -139s-92.167 -52 -157.5 -52
c-74 0 -137.167 23.167 -189.5 69.5s-78.5 113.166 -78.5 200.499c0 90 27.833 161.333 83.5 214s120.167 79 193.5 79zM283.999 509.002c-24.667 0 -43.167 -14.3311 -55.5 -42.998s-19.5 -66.334 -21.5 -113.001h141c0 49.333 -4.66699 87.666 -14 114.999s-26 41 -50 41z
M149.999 625.004v95h294v-95h-294z" />
    <glyph glyph-name="Ebreve" unicode="&#x114;" horiz-adv-x="664" 
d="M26 0l-0.00195312 44.9971c32.667 3.33301 52.334 9 59.001 17s10 24.667 10 50v478c0 25.333 -3.33301 42 -10 50s-26.334 13.667 -59.001 17v45h586l5 -199h-42c-26.667 56 -50.5 94.833 -71.5 116.5s-55.5 32.5 -103.5 32.5h-86v-260h83
c23.333 0 39.166 6.83301 47.499 20.5s14.5 37.834 18.5 72.501h47v-246h-47c-4 34.667 -10.167 58.834 -18.5 72.501s-24.166 20.5 -47.499 20.5h-83v-215c0 -26.667 6.33301 -44.5 19 -53.5s32 -13.5 58 -13.5h22c46.667 0 80.334 12.333 101.001 37
s49.334 71.334 86.001 140.001h50l-33 -227h-591zM347.998 737.997c-48 0 -85.002 14 -111.002 42s-39 66 -39 114h51c4.66699 -23.333 16.834 -39 36.501 -47s40.5 -12 62.5 -12s42.833 4 62.5 12s31.834 23.667 36.501 47h51c0 -48 -13 -86 -39 -114s-63 -42 -111 -42z
" />
    <glyph glyph-name="ebreve" unicode="&#x115;" horiz-adv-x="541" 
d="M297 553c74.667 0 130.999 -20.998 168.999 -62.998s57 -95.667 57 -161v-25h-317c0 -54.667 14 -98.334 42 -131.001s64 -49 108 -49c31.333 0 59.333 5.5 84 16.5s46.334 28.833 65.001 53.5l21 -13c-14 -58 -40.833 -104.333 -80.5 -139s-92.167 -52 -157.5 -52
c-74 0 -137.167 23.167 -189.5 69.5s-78.5 113.166 -78.5 200.499c0 90 27.833 161.333 83.5 214s120.167 79 193.5 79zM283.999 509.002c-24.667 0 -43.167 -14.3311 -55.5 -42.998s-19.5 -66.334 -21.5 -113.001h141c0 49.333 -4.66699 87.666 -14 114.999s-26 41 -50 41z
M296.999 598.004c-48 0 -84.835 15.167 -110.502 45.5s-38.5 71.833 -38.5 124.5h50c4 -26.667 15.333 -45 34 -55s40.334 -15 65.001 -15s46.334 5 65.001 15s30 28.333 34 55h50c0 -52.667 -12.833 -94.167 -38.5 -124.5s-62.5 -45.5 -110.5 -45.5z" />
    <glyph glyph-name="Edotaccent" unicode="&#x116;" horiz-adv-x="664" 
d="M26 0l-0.00195312 44.9971c32.667 3.33301 52.334 9 59.001 17s10 24.667 10 50v478c0 25.333 -3.33301 42 -10 50s-26.334 13.667 -59.001 17v45h586l5 -199h-42c-26.667 56 -50.5 94.833 -71.5 116.5s-55.5 32.5 -103.5 32.5h-86v-260h83
c23.333 0 39.166 6.83301 47.499 20.5s14.5 37.834 18.5 72.501h47v-246h-47c-4 34.667 -10.167 58.834 -18.5 72.501s-24.166 20.5 -47.499 20.5h-83v-215c0 -26.667 6.33301 -44.5 19 -53.5s32 -13.5 58 -13.5h22c46.667 0 80.334 12.333 101.001 37
s49.334 71.334 86.001 140.001h50l-33 -227h-591zM347.998 736.997c-33.333 0 -59.333 9.83301 -78 29.5s-28 42.834 -28 69.501s9.33301 49.834 28 69.501s44.667 29.5 78 29.5c32.667 0 58.5 -9.83301 77.5 -29.5s28.5 -42.834 28.5 -69.501s-9.5 -49.834 -28.5 -69.501
s-44.833 -29.5 -77.5 -29.5z" />
    <glyph glyph-name="edotaccent" unicode="&#x117;" horiz-adv-x="541" 
d="M297 553c74.667 0 130.999 -20.998 168.999 -62.998s57 -95.667 57 -161v-25h-317c0 -54.667 14 -98.334 42 -131.001s64 -49 108 -49c31.333 0 59.333 5.5 84 16.5s46.334 28.833 65.001 53.5l21 -13c-14 -58 -40.833 -104.333 -80.5 -139s-92.167 -52 -157.5 -52
c-74 0 -137.167 23.167 -189.5 69.5s-78.5 113.166 -78.5 200.499c0 90 27.833 161.333 83.5 214s120.167 79 193.5 79zM283.999 509.002c-24.667 0 -43.167 -14.3311 -55.5 -42.998s-19.5 -66.334 -21.5 -113.001h141c0 49.333 -4.66699 87.666 -14 114.999s-26 41 -50 41z
M296.999 594.004c-33.333 0 -59.333 9.83301 -78 29.5s-28 42.834 -28 69.501s9.33301 49.834 28 69.501s44.667 29.5 78 29.5c32.667 0 58.5 -9.83301 77.5 -29.5s28.5 -42.834 28.5 -69.501s-9.5 -49.834 -28.5 -69.501s-44.833 -29.5 -77.5 -29.5z" />
    <glyph glyph-name="Eogonek" unicode="&#x118;" horiz-adv-x="664" 
d="M26 0l-0.00488281 44.9971c32.667 3.33301 52.334 9 59.001 17s10 24.667 10 50v478c0 25.333 -3.33301 42 -10 50s-26.334 13.667 -59.001 17v45h586l5 -199h-42c-26.667 56 -50.5 94.833 -71.5 116.5s-55.5 32.5 -103.5 32.5h-86v-260h83
c23.333 0 39.166 6.83301 47.499 20.5s14.5 37.834 18.5 72.501h47v-246h-47c-4 34.667 -10.167 58.834 -18.5 72.501s-24.166 20.5 -47.499 20.5h-83v-215c0 -26.667 6.33301 -44.5 19 -53.5s32 -13.5 58 -13.5h22c46.667 0 80.334 12.333 101.001 37
s49.334 71.334 86.001 140.001h50l-33 -227h-107c-17.333 -12.667 -30.333 -26.334 -39 -41.001s-13 -31.334 -13 -50.001c0 -14 3.83301 -25.833 11.5 -35.5s18.834 -14.5 33.501 -14.5c12 0 22.167 1.83301 30.5 5.5s17.833 8.83398 28.5 15.501l17 -21
c-19.333 -24.667 -39.666 -43.334 -60.999 -56.001s-47 -19 -77 -19c-26 0 -48.5 7.33301 -67.5 22s-28.5 35.334 -28.5 62.001c0 30 9.83301 55.833 29.5 77.5s43.834 39.834 72.501 54.501h-421z" />
    <glyph glyph-name="eogonek" unicode="&#x119;" horiz-adv-x="541" 
d="M301 553c72.667 0 127.831 -21 165.498 -63s56.5 -95.667 56.5 -161v-25h-317c0 -54.667 14 -98.334 42 -131.001s64 -49 108 -49c31.333 0 59.333 5.5 84 16.5s46.334 28.833 65.001 53.5l21 -13c-10 -40 -25.833 -74.167 -47.5 -102.5s-48.834 -50.833 -81.501 -67.5
c-23.333 -12 -41.166 -25.667 -53.499 -41s-18.5 -32.666 -18.5 -51.999c0 -18.667 4.16699 -33.167 12.5 -43.5s19.833 -15.5 34.5 -15.5c12 0 22.167 1.83301 30.5 5.5s17.833 8.83398 28.5 15.501l17 -21c-19.333 -24.667 -39.666 -43.334 -60.999 -56.001
s-47 -19 -77 -19c-26 0 -48.667 7.33301 -68 22s-29 35.334 -29 62.001s8.16699 50 24.5 70s36.833 37.333 61.5 52h-11c-74 0 -137.167 23.167 -189.5 69.5s-78.5 113.166 -78.5 200.499c0 90 28 161.333 84 214s121.667 79 197 79zM283.997 509
c-24.667 0 -43.167 -14.3311 -55.5 -42.998s-19.5 -66.334 -21.5 -113.001h141c0 49.333 -4.66699 87.666 -14 114.999s-26 41 -50 41z" />
    <glyph glyph-name="Ecaron" unicode="&#x11a;" horiz-adv-x="664" 
d="M26 0l-0.00195312 44.9971c32.667 3.33301 52.334 9 59.001 17s10 24.667 10 50v478c0 25.333 -3.33301 42 -10 50s-26.334 13.667 -59.001 17v45h586l5 -199h-42c-26.667 56 -50.5 94.833 -71.5 116.5s-55.5 32.5 -103.5 32.5h-86v-260h83
c23.333 0 39.166 6.83301 47.499 20.5s14.5 37.834 18.5 72.501h47v-246h-47c-4 34.667 -10.167 58.834 -18.5 72.501s-24.166 20.5 -47.499 20.5h-83v-215c0 -26.667 6.33301 -44.5 19 -53.5s32 -13.5 58 -13.5h22c46.667 0 80.334 12.333 101.001 37
s49.334 71.334 86.001 140.001h50l-33 -227h-591zM533.998 893.997l-118 -152h-136l-118 152h65l121 -65l121 65h65z" />
    <glyph glyph-name="ecaron" unicode="&#x11b;" horiz-adv-x="541" 
d="M297 553c74.667 0 130.999 -20.998 168.999 -62.998s57 -95.667 57 -161v-25h-317c0 -54.667 14 -98.334 42 -131.001s64 -49 108 -49c31.333 0 59.333 5.5 84 16.5s46.334 28.833 65.001 53.5l21 -13c-14 -58 -40.833 -104.333 -80.5 -139s-92.167 -52 -157.5 -52
c-74 0 -137.167 23.167 -189.5 69.5s-78.5 113.166 -78.5 200.499c0 90 27.833 161.333 83.5 214s120.167 79 193.5 79zM283.999 509.002c-24.667 0 -43.167 -14.3311 -55.5 -42.998s-19.5 -66.334 -21.5 -113.001h141c0 49.333 -4.66699 87.666 -14 114.999s-26 41 -50 41z
M482.999 771.004l-118 -169h-136l-118 169h65l121 -80l121 80h65z" />
    <glyph glyph-name="Gcircumflex" unicode="&#x11c;" horiz-adv-x="752" 
d="M469 50l0.00195312 172.001c0 25.333 -3.33301 42 -10 50s-26.334 13.667 -59.001 17v45h342v-45c-32.667 -3.33301 -52.334 -9 -59.001 -17s-10 -24.667 -10 -50v-166c-34.667 -22 -76.334 -38.5 -125.001 -49.5s-100 -16.5 -154 -16.5c-122 0 -214 32.667 -276 98
s-93 146.666 -93 243.999c0 117.333 38.667 210 116 278s169.333 102 276 102c46 0 88.167 -5.16699 126.5 -15.5s71.833 -24.833 100.5 -43.5l4 -181h-54c-12.667 60 -32.5 106 -59.5 138s-63.5 48 -109.5 48c-60 0 -103.333 -29 -130 -87s-40 -128.667 -40 -212
s14 -156.5 42 -219.5s70.667 -94.5 128 -94.5c8.66699 0 16.334 0.333008 23.001 1s13.667 2 21 4zM495.002 893.001l118 -152h-65l-121 65l-121 -65h-65l118 152h136z" />
    <glyph glyph-name="gcircumflex" unicode="&#x11d;" horiz-adv-x="571" 
d="M265 187c-18.667 0 -38.0039 1.3291 -58.0039 3.99609s-39.333 7 -58 13c-6.66699 -6 -12.5 -12.5 -17.5 -19.5s-7.5 -15.167 -7.5 -24.5c0 -7.33301 2.33301 -13.666 7 -18.999s11.334 -8 20.001 -8h223c71.333 0 122.5 -14.167 153.5 -42.5s46.5 -65.5 46.5 -111.5
c0 -65.333 -28.5 -115.333 -85.5 -150s-132.167 -52 -225.5 -52c-81.333 0 -146 10.333 -194 31s-72 50.667 -72 90c0 24.667 10.167 42.667 30.5 54s40.833 18 61.5 20c-21.333 8.66699 -38 22.834 -50 42.501s-18 40.167 -18 61.5c0 34 10 62.167 30 84.5
s43.333 40.5 70 54.5c-28 12.667 -51.167 30.834 -69.5 54.501s-27.5 53.834 -27.5 90.501c0 60.667 23.667 108 71 142s107 51 179 51c20.667 0 38.834 -1.33301 54.501 -4s29.834 -5.66699 42.501 -9l183 4v-72h-47l-57 2c18.667 -12.667 33.5 -28.5 44.5 -47.5
s16.5 -40.833 16.5 -65.5c0 -56 -23.667 -99 -71 -129s-105.666 -45 -174.999 -45zM385.996 -54.0039h-274c-2 -2.66699 -3.33301 -6.5 -4 -11.5s-1 -10.167 -1 -15.5c0 -28.667 14.833 -51 44.5 -67s67.834 -24 114.501 -24c43.333 0 82.166 5.66699 116.499 17
s51.5 32.333 51.5 63c0 12.667 -4 22.167 -12 28.5s-20 9.5 -36 9.5zM271.996 229.996c20.667 0 34.333 11.5 41 34.5s10 56.833 10 101.5c0 36.667 -4.5 69.5 -13.5 98.5s-23.833 43.5 -44.5 43.5c-20 0 -33.5 -11.5 -40.5 -34.5s-10.5 -55.5 -10.5 -97.5
c0 -39.333 4.66699 -73.5 14 -102.5s24 -43.5 44 -43.5zM352.995 765.996l118 -169h-65l-121 80l-121 -80h-65l118 169h136z" />
    <glyph glyph-name="Gbreve" unicode="&#x11e;" horiz-adv-x="752" 
d="M469 50l0.00195312 172.001c0 25.333 -3.33301 42 -10 50s-26.334 13.667 -59.001 17v45h342v-45c-32.667 -3.33301 -52.334 -9 -59.001 -17s-10 -24.667 -10 -50v-166c-34.667 -22 -76.334 -38.5 -125.001 -49.5s-100 -16.5 -154 -16.5c-122 0 -214 32.667 -276 98
s-93 146.666 -93 243.999c0 117.333 38.667 210 116 278s169.333 102 276 102c46 0 88.167 -5.16699 126.5 -15.5s71.833 -24.833 100.5 -43.5l4 -181h-54c-12.667 60 -32.5 106 -59.5 138s-63.5 48 -109.5 48c-60 0 -103.333 -29 -130 -87s-40 -128.667 -40 -212
s14 -156.5 42 -219.5s70.667 -94.5 128 -94.5c8.66699 0 16.334 0.333008 23.001 1s13.667 2 21 4zM427.002 738.001c-48 0 -85.002 14 -111.002 42s-39 66 -39 114h51c4.66699 -23.333 16.834 -39 36.501 -47s40.5 -12 62.5 -12s42.833 4 62.5 12s31.834 23.667 36.501 47
h51c0 -48 -13 -86 -39 -114s-63 -42 -111 -42z" />
    <glyph glyph-name="gbreve" unicode="&#x11f;" horiz-adv-x="571" 
d="M265 187c-18.667 0 -38.0039 1.3291 -58.0039 3.99609s-39.333 7 -58 13c-6.66699 -6 -12.5 -12.5 -17.5 -19.5s-7.5 -15.167 -7.5 -24.5c0 -7.33301 2.33301 -13.666 7 -18.999s11.334 -8 20.001 -8h223c71.333 0 122.5 -14.167 153.5 -42.5s46.5 -65.5 46.5 -111.5
c0 -65.333 -28.5 -115.333 -85.5 -150s-132.167 -52 -225.5 -52c-81.333 0 -146 10.333 -194 31s-72 50.667 -72 90c0 24.667 10.167 42.667 30.5 54s40.833 18 61.5 20c-21.333 8.66699 -38 22.834 -50 42.501s-18 40.167 -18 61.5c0 34 10 62.167 30 84.5
s43.333 40.5 70 54.5c-28 12.667 -51.167 30.834 -69.5 54.501s-27.5 53.834 -27.5 90.501c0 60.667 23.667 108 71 142s107 51 179 51c20.667 0 38.834 -1.33301 54.501 -4s29.834 -5.66699 42.501 -9l183 4v-72h-47l-57 2c18.667 -12.667 33.5 -28.5 44.5 -47.5
s16.5 -40.833 16.5 -65.5c0 -56 -23.667 -99 -71 -129s-105.666 -45 -174.999 -45zM385.996 -54.0039h-274c-2 -2.66699 -3.33301 -6.5 -4 -11.5s-1 -10.167 -1 -15.5c0 -28.667 14.833 -51 44.5 -67s67.834 -24 114.501 -24c43.333 0 82.166 5.66699 116.499 17
s51.5 32.333 51.5 63c0 12.667 -4 22.167 -12 28.5s-20 9.5 -36 9.5zM271.996 229.996c20.667 0 34.333 11.5 41 34.5s10 56.833 10 101.5c0 36.667 -4.5 69.5 -13.5 98.5s-23.833 43.5 -44.5 43.5c-20 0 -33.5 -11.5 -40.5 -34.5s-10.5 -55.5 -10.5 -97.5
c0 -39.333 4.66699 -73.5 14 -102.5s24 -43.5 44 -43.5zM284.995 597.996c-48 0 -84.835 15.167 -110.502 45.5s-38.5 71.833 -38.5 124.5h50c4 -26.667 15.333 -45 34 -55s40.334 -15 65.001 -15s46.334 5 65.001 15s30 28.333 34 55h50
c0 -52.667 -12.833 -94.167 -38.5 -124.5s-62.5 -45.5 -110.5 -45.5z" />
    <glyph glyph-name="Gdotaccent" unicode="&#x120;" horiz-adv-x="752" 
d="M469 50l0.00195312 172.001c0 25.333 -3.33301 42 -10 50s-26.334 13.667 -59.001 17v45h342v-45c-32.667 -3.33301 -52.334 -9 -59.001 -17s-10 -24.667 -10 -50v-166c-34.667 -22 -76.334 -38.5 -125.001 -49.5s-100 -16.5 -154 -16.5c-122 0 -214 32.667 -276 98
s-93 146.666 -93 243.999c0 117.333 38.667 210 116 278s169.333 102 276 102c46 0 88.167 -5.16699 126.5 -15.5s71.833 -24.833 100.5 -43.5l4 -181h-54c-12.667 60 -32.5 106 -59.5 138s-63.5 48 -109.5 48c-60 0 -103.333 -29 -130 -87s-40 -128.667 -40 -212
s14 -156.5 42 -219.5s70.667 -94.5 128 -94.5c8.66699 0 16.334 0.333008 23.001 1s13.667 2 21 4zM427.002 737.001c-33.333 0 -59.333 9.83301 -78 29.5s-28 42.834 -28 69.501s9.33301 49.834 28 69.501s44.667 29.5 78 29.5c32.667 0 58.5 -9.83301 77.5 -29.5
s28.5 -42.834 28.5 -69.501s-9.5 -49.834 -28.5 -69.501s-44.833 -29.5 -77.5 -29.5z" />
    <glyph glyph-name="gdotaccent" unicode="&#x121;" horiz-adv-x="571" 
d="M265 187c-18.667 0 -38.0039 1.3291 -58.0039 3.99609s-39.333 7 -58 13c-6.66699 -6 -12.5 -12.5 -17.5 -19.5s-7.5 -15.167 -7.5 -24.5c0 -7.33301 2.33301 -13.666 7 -18.999s11.334 -8 20.001 -8h223c71.333 0 122.5 -14.167 153.5 -42.5s46.5 -65.5 46.5 -111.5
c0 -65.333 -28.5 -115.333 -85.5 -150s-132.167 -52 -225.5 -52c-81.333 0 -146 10.333 -194 31s-72 50.667 -72 90c0 24.667 10.167 42.667 30.5 54s40.833 18 61.5 20c-21.333 8.66699 -38 22.834 -50 42.501s-18 40.167 -18 61.5c0 34 10 62.167 30 84.5
s43.333 40.5 70 54.5c-28 12.667 -51.167 30.834 -69.5 54.501s-27.5 53.834 -27.5 90.501c0 60.667 23.667 108 71 142s107 51 179 51c20.667 0 38.834 -1.33301 54.501 -4s29.834 -5.66699 42.501 -9l183 4v-72h-47l-57 2c18.667 -12.667 33.5 -28.5 44.5 -47.5
s16.5 -40.833 16.5 -65.5c0 -56 -23.667 -99 -71 -129s-105.666 -45 -174.999 -45zM385.996 -54.0039h-274c-2 -2.66699 -3.33301 -6.5 -4 -11.5s-1 -10.167 -1 -15.5c0 -28.667 14.833 -51 44.5 -67s67.834 -24 114.501 -24c43.333 0 82.166 5.66699 116.499 17
s51.5 32.333 51.5 63c0 12.667 -4 22.167 -12 28.5s-20 9.5 -36 9.5zM271.996 229.996c20.667 0 34.333 11.5 41 34.5s10 56.833 10 101.5c0 36.667 -4.5 69.5 -13.5 98.5s-23.833 43.5 -44.5 43.5c-20 0 -33.5 -11.5 -40.5 -34.5s-10.5 -55.5 -10.5 -97.5
c0 -39.333 4.66699 -73.5 14 -102.5s24 -43.5 44 -43.5zM284.995 593.996c-33.333 0 -59.333 9.83301 -78 29.5s-28 42.834 -28 69.501s9.33301 49.834 28 69.501s44.667 29.5 78 29.5c32.667 0 58.5 -9.83301 77.5 -29.5s28.5 -42.834 28.5 -69.501
s-9.5 -49.834 -28.5 -69.501s-44.833 -29.5 -77.5 -29.5z" />
    <glyph glyph-name="Gcommaaccent" unicode="&#x122;" horiz-adv-x="752" 
d="M469 50l0.00195312 172.001c0 25.333 -3.33301 42 -10 50s-26.334 13.667 -59.001 17v45h342v-45c-32.667 -3.33301 -52.334 -9 -59.001 -17s-10 -24.667 -10 -50v-166c-34.667 -22 -76.334 -38.5 -125.001 -49.5s-100 -16.5 -154 -16.5c-122 0 -214 32.667 -276 98
s-93 146.666 -93 243.999c0 117.333 38.667 210 116 278s169.333 102 276 102c46 0 88.167 -5.16699 126.5 -15.5s71.833 -24.833 100.5 -43.5l4 -181h-54c-12.667 60 -32.5 106 -59.5 138s-63.5 48 -109.5 48c-60 0 -103.333 -29 -130 -87s-40 -128.667 -40 -212
s14 -156.5 42 -219.5s70.667 -94.5 128 -94.5c8.66699 0 16.334 0.333008 23.001 1s13.667 2 21 4zM441.002 -157.999l-55.998 -0.000976562c-14.667 4 -26.667 10.833 -36 20.5s-14 23.5 -14 41.5s7.5 33.167 22.5 45.5s35.833 18.5 62.5 18.5
c30.667 0 54.667 -9.16699 72 -27.5s26 -41.166 26 -68.499c0 -34 -13.833 -62.833 -41.5 -86.5s-72.834 -35.5 -135.501 -35.5v40c33.333 0 58.166 5.33301 74.499 16s24.833 22.667 25.5 36z" />
    <glyph glyph-name="gcommaaccent" unicode="&#x123;" horiz-adv-x="571" 
d="M265 187c-18.667 0 -38.0039 1.3291 -58.0039 3.99609s-39.333 7 -58 13c-6.66699 -6 -12.5 -12.5 -17.5 -19.5s-7.5 -15.167 -7.5 -24.5c0 -7.33301 2.33301 -13.666 7 -18.999s11.334 -8 20.001 -8h223c71.333 0 122.5 -14.167 153.5 -42.5s46.5 -65.5 46.5 -111.5
c0 -65.333 -28.5 -115.333 -85.5 -150s-132.167 -52 -225.5 -52c-81.333 0 -146 10.333 -194 31s-72 50.667 -72 90c0 24.667 10.167 42.667 30.5 54s40.833 18 61.5 20c-21.333 8.66699 -38 22.834 -50 42.501s-18 40.167 -18 61.5c0 34 10 62.167 30 84.5
s43.333 40.5 70 54.5c-28 12.667 -51.167 30.834 -69.5 54.501s-27.5 53.834 -27.5 90.501c0 60.667 23.667 108 71 142s107 51 179 51c20.667 0 38.834 -1.33301 54.501 -4s29.834 -5.66699 42.501 -9l183 4v-72h-47l-57 2c18.667 -12.667 33.5 -28.5 44.5 -47.5
s16.5 -40.833 16.5 -65.5c0 -56 -23.667 -99 -71 -129s-105.666 -45 -174.999 -45zM385.996 -54.0039h-274c-2 -2.66699 -3.33301 -6.5 -4 -11.5s-1 -10.167 -1 -15.5c0 -28.667 14.833 -51 44.5 -67s67.834 -24 114.501 -24c43.333 0 82.166 5.66699 116.499 17
s51.5 32.333 51.5 63c0 12.667 -4 22.167 -12 28.5s-20 9.5 -36 9.5zM271.996 229.996c20.667 0 34.333 11.5 41 34.5s10 56.833 10 101.5c0 36.667 -4.5 69.5 -13.5 98.5s-23.833 43.5 -44.5 43.5c-20 0 -33.5 -11.5 -40.5 -34.5s-10.5 -55.5 -10.5 -97.5
c0 -39.333 4.66699 -73.5 14 -102.5s24 -43.5 44 -43.5zM270.995 714.996l55.998 0.000976562c14.667 -4 26.667 -10.833 36 -20.5s14 -23.5 14 -41.5s-7.5 -33.167 -22.5 -45.5s-35.833 -18.5 -62.5 -18.5c-30.667 0 -54.667 9.16699 -72 27.5s-26 41.166 -26 68.499
c0 34 13.833 62.833 41.5 86.5s72.834 35.5 135.501 35.5v-40c-33.333 0 -58.166 -5.33301 -74.499 -16s-24.833 -22.667 -25.5 -36z" />
    <glyph glyph-name="Hcircumflex" unicode="&#x124;" horiz-adv-x="860" 
d="M314 590v-202h232v202c0 25.333 -3.33301 42 -10 50s-26.334 13.667 -59.001 17v45h357v-45c-32.667 -3.33301 -52.334 -9 -59.001 -17s-10 -24.667 -10 -50v-478c0 -25.333 3.33301 -42 10 -50s26.334 -13.667 59.001 -17v-45h-357v45
c32.667 3.33301 52.334 9 59.001 17s10 24.667 10 50v208h-232v-208c0 -25.333 3.33301 -42 10 -50s26.334 -13.667 59.001 -17v-45h-357v45c32.667 3.33301 52.334 9 59.001 17s10 24.667 10 50v478c0 25.333 -3.33301 42 -10 50s-26.334 13.667 -59.001 17v45h357v-45
c-32.667 -3.33301 -52.334 -9 -59.001 -17s-10 -24.667 -10 -50zM498 893l118 -152h-65l-121 65l-121 -65h-65l118 152h136z" />
    <glyph glyph-name="hcircumflex" unicode="&#x125;" horiz-adv-x="680" 
d="M71 78v599l-53 27v34l224 45h35v-331c18 23.333 42 46 72 68s68.333 33 115 33c48 0 85.833 -13.667 113.5 -41s41.5 -68.333 41.5 -123v-311c0 -14.667 4.16699 -24 12.5 -28s21.833 -6.66699 40.5 -8v-42h-309v42c18.667 1.33301 31.667 4 39 8s11 13.333 11 28v293
c0 18.667 -4.16699 33.667 -12.5 45s-24.833 17 -49.5 17c-14 0 -27 -1.16699 -39 -3.5s-23.667 -5.5 -35 -9.5v-342c0 -14.667 3.66699 -24 11 -28s20.333 -6.66699 39 -8v-42h-309v42c18.667 1.33301 32.167 4 40.5 8s12.5 13.333 12.5 28zM413 955l118 -152h-65l-121 65
l-121 -65h-65l118 152h136z" />
    <glyph glyph-name="Hbar" unicode="&#x126;" horiz-adv-x="880" 
d="M324 590v-35h232v35c0 25.333 -3.33301 42 -10 50s-26.334 13.667 -59.001 17v45h357v-45c-32.667 -3.33301 -52.334 -9 -59.001 -17s-10 -24.667 -10 -50v-35h69v-68h-69v-375c0 -25.333 3.33301 -42 10 -50s26.334 -13.667 59.001 -17v-45h-357v45
c32.667 3.33301 52.334 9 59.001 17s10 24.667 10 50v208h-232v-208c0 -25.333 3.33301 -42 10 -50s26.334 -13.667 59.001 -17v-45h-357v45c32.667 3.33301 52.334 9 59.001 17s10 24.667 10 50v375h-68v68h68v35c0 25.333 -3.33301 42 -10 50s-26.334 13.667 -59.001 17
v45h357v-45c-32.667 -3.33301 -52.334 -9 -59.001 -17s-10 -24.667 -10 -50zM324 388h232v99h-232v-99z" />
    <glyph glyph-name="hbar" unicode="&#x127;" horiz-adv-x="680" 
d="M71 78v509h-53v56h53v34l-53 27v34l224 45h35v-140h118v-56h-118v-135c18 23.333 42 46 72 68s68.333 33 115 33c48 0 85.833 -13.667 113.5 -41s41.5 -68.333 41.5 -123v-311c0 -14.667 4.16699 -24 12.5 -28s21.833 -6.66699 40.5 -8v-42h-309v42
c18.667 1.33301 31.667 4 39 8s11 13.333 11 28v293c0 18.667 -4.16699 33.667 -12.5 45s-24.833 17 -49.5 17c-14 0 -27 -1.16699 -39 -3.5s-23.667 -5.5 -35 -9.5v-342c0 -14.667 3.66699 -24 11 -28s20.333 -6.66699 39 -8v-42h-309v42c18.667 1.33301 32.167 4 40.5 8
s12.5 13.333 12.5 28z" />
    <glyph glyph-name="Itilde" unicode="&#x128;" horiz-adv-x="409" 
d="M314 590v-478c0 -25.333 3.33301 -42 10 -50s26.334 -13.667 59.001 -17v-45h-357v45c32.667 3.33301 52.334 9 59.001 17s10 24.667 10 50v478c0 25.333 -3.33301 42 -10 50s-26.334 13.667 -59.001 17v45h357v-45c-32.667 -3.33301 -52.334 -9 -59.001 -17
s-10 -24.667 -10 -50zM274 741c-32.667 0 -58.167 10 -76.5 30s-38.166 30 -59.499 30c-14 0 -26 -5.33301 -36 -16s-19.667 -23.667 -29 -39l-40 22c16.667 42.667 34 76.5 52 101.5s41 37.5 69 37.5c32.667 0 58.167 -10 76.5 -30s38.166 -30 59.499 -30
c14 0 26 5.33301 36 16s19.667 23.667 29 39l40 -22c-16.667 -42.667 -34 -76.5 -52 -101.5s-41 -37.5 -69 -37.5z" />
    <glyph glyph-name="itilde" unicode="&#x129;" horiz-adv-x="350" 
d="M236 603c-30.667 0 -54.668 9.99805 -72.001 29.998s-36.333 30 -57 30c-13.333 0 -24.833 -5.33301 -34.5 -16s-18.834 -23.667 -27.501 -39l-38 22c16 42.667 32.5 76.334 49.5 101.001s38.833 37 65.5 37c30.667 0 54.667 -9.83301 72 -29.5s36.333 -29.5 57 -29.5
c12.667 0 23.834 5.33301 33.501 16s18.834 23.334 27.501 38.001l38 -21c-15.333 -42.667 -31.5 -76.5 -48.5 -101.5s-38.833 -37.5 -65.5 -37.5zM280.999 552.998v-475c0 -14.667 4.16699 -24 12.5 -28s21.833 -6.66699 40.5 -8v-42h-312v42
c18.667 1.33301 32.167 4 40.5 8s12.5 13.333 12.5 28v350l-53 34v31l223 60h36z" />
    <glyph glyph-name="Imacron" unicode="&#x12a;" horiz-adv-x="409" 
d="M314 590v-478c0 -25.333 3.33301 -42 10 -50s26.334 -13.667 59.001 -17v-45h-357v45c32.667 3.33301 52.334 9 59.001 17s10 24.667 10 50v478c0 25.333 -3.33301 42 -10 50s-26.334 13.667 -59.001 17v45h357v-45c-32.667 -3.33301 -52.334 -9 -59.001 -17
s-10 -24.667 -10 -50zM57 746v95h294v-95h-294z" />
    <glyph glyph-name="imacron" unicode="&#x12b;" horiz-adv-x="350" 
d="M281 553v-475c0 -14.667 4.16699 -24 12.5 -28s21.833 -6.66699 40.5 -8v-42h-312v42c18.667 1.33301 32.167 4 40.5 8s12.5 13.333 12.5 28v350l-53 34v31l223 60h36zM35 625v95h294v-95h-294z" />
    <glyph glyph-name="Ibreve" unicode="&#x12c;" horiz-adv-x="409" 
d="M314 590v-478c0 -25.333 3.33301 -42 10 -50s26.334 -13.667 59.001 -17v-45h-357v45c32.667 3.33301 52.334 9 59.001 17s10 24.667 10 50v478c0 25.333 -3.33301 42 -10 50s-26.334 13.667 -59.001 17v45h357v-45c-32.667 -3.33301 -52.334 -9 -59.001 -17
s-10 -24.667 -10 -50zM204 738c-48 0 -85.002 14 -111.002 42s-39 66 -39 114h51c4.66699 -23.333 16.834 -39 36.501 -47s40.5 -12 62.5 -12s42.833 4 62.5 12s31.834 23.667 36.501 47h51c0 -48 -13 -86 -39 -114s-63 -42 -111 -42z" />
    <glyph glyph-name="ibreve" unicode="&#x12d;" horiz-adv-x="350" 
d="M281 553v-475c0 -14.667 4.16699 -24 12.5 -28s21.833 -6.66699 40.5 -8v-42h-312v42c18.667 1.33301 32.167 4 40.5 8s12.5 13.333 12.5 28v350l-53 34v31l223 60h36zM182 598c-48 0 -84.835 15.167 -110.502 45.5s-38.5 71.833 -38.5 124.5h50
c4 -26.667 15.333 -45 34 -55s40.334 -15 65.001 -15s46.334 5 65.001 15s30 28.333 34 55h50c0 -52.667 -12.833 -94.167 -38.5 -124.5s-62.5 -45.5 -110.5 -45.5z" />
    <glyph glyph-name="Iogonek" unicode="&#x12e;" horiz-adv-x="409" 
d="M314 590l-0.00292969 -478c0 -25.333 3.33301 -42 10 -50s26.334 -13.667 59.001 -17v-45h-131c-17.333 -12.667 -30.333 -26.334 -39 -41.001s-13 -31.334 -13 -50.001c0 -14 3.83301 -25.833 11.5 -35.5s18.834 -14.5 33.501 -14.5c12 0 22.167 1.83301 30.5 5.5
s17.833 8.83398 28.5 15.501l17 -21c-19.333 -24.667 -39.666 -43.334 -60.999 -56.001s-47 -19 -77 -19c-26 0 -48.5 7.33301 -67.5 22s-28.5 35.334 -28.5 62.001c0 30 9.83301 55.833 29.5 77.5s43.834 39.834 72.501 54.501h-163v45c32.667 3.33301 52.334 9 59.001 17
s10 24.667 10 50v478c0 25.333 -3.33301 42 -10 50s-26.334 13.667 -59.001 17v45h357v-45c-32.667 -3.33301 -52.334 -9 -59.001 -17s-10 -24.667 -10 -50z" />
    <glyph glyph-name="iogonek" unicode="&#x12f;" horiz-adv-x="350" 
d="M281 553l-0.00292969 -475c0 -14.667 4.16699 -24 12.5 -28s21.833 -6.66699 40.5 -8v-42h-108c-17.333 -12.667 -30.333 -26.334 -39 -41.001s-13 -31.334 -13 -50.001c0 -14 3.83301 -25.833 11.5 -35.5s18.834 -14.5 33.501 -14.5c12 0 22.167 1.83301 30.5 5.5
s17.833 8.83398 28.5 15.501l17 -21c-19.333 -24.667 -39.666 -43.334 -60.999 -56.001s-47 -19 -77 -19c-26 0 -48.5 7.33301 -67.5 22s-28.5 35.334 -28.5 62.001c0 30 9.83301 55.833 29.5 77.5s43.834 39.834 72.501 54.501h-141v42c18.667 1.33301 32.167 4 40.5 8
s12.5 13.333 12.5 28v350l-53 34v31l223 60h36zM180.997 590c-33.333 0 -59.333 9.83301 -78 29.5s-28 42.834 -28 69.501s9.33301 49.834 28 69.501s44.667 29.5 78 29.5c32.667 0 58.5 -9.83301 77.5 -29.5s28.5 -42.834 28.5 -69.501s-9.5 -49.834 -28.5 -69.501
s-44.833 -29.5 -77.5 -29.5z" />
    <glyph glyph-name="dotlessi" unicode="&#x131;" horiz-adv-x="350" 
d="M281 553v-475c0 -14.667 4.16699 -24 12.5 -28s21.833 -6.66699 40.5 -8v-42h-312v42c18.667 1.33301 32.167 4 40.5 8s12.5 13.333 12.5 28v350l-53 34v31l223 60h36z" />
    <glyph glyph-name="Jcircumflex" unicode="&#x134;" horiz-adv-x="606" 
d="M302 168l0.000976562 422.002c0 25.333 -3.33301 42 -10 50s-26.334 13.667 -59.001 17v45h357v-45c-32.667 -3.33301 -52.334 -9 -59.001 -17s-10 -24.667 -10 -50v-360c0 -83.333 -24.833 -144.166 -74.5 -182.499s-119.167 -57.5 -208.5 -57.5
c-79.333 0 -139.666 13.333 -180.999 40s-62 65 -62 115c0 21.333 4.83301 40.166 14.5 56.499s23.167 29.166 40.5 38.499h139c-2 -12.667 -3.66699 -25.334 -5 -38.001s-2 -27.667 -2 -45c0 -31.333 4 -59.333 12 -84s24.333 -37 49 -37c28 0 44.833 12.5 50.5 37.5
s8.5 56.5 8.5 94.5zM480.001 893.002l118 -152h-65l-121 65l-121 -65h-65l118 152h136z" />
    <glyph glyph-name="jcircumflex" unicode="&#x135;" horiz-adv-x="315" 
d="M59 428l-53 33.999v31l223 60h36v-442c0 -59.333 -7 -104.666 -21 -135.999s-33.667 -58.333 -59 -81c-30.667 -27.333 -59.667 -48 -87 -62s-59.333 -28.333 -96 -43l-17 22l41 63c16 24.667 25.5 53.167 28.5 85.5s4.5 67.833 4.5 106.5v362zM217 765.999l107 -167h-59
l-110 79l-110 -79h-60l108 167h124z" />
    <glyph glyph-name="Kcommaaccent" unicode="&#x136;" horiz-adv-x="792" 
d="M505 439l204.998 -331.004c10.667 -17.333 21.834 -31.5 33.501 -42.5s27.834 -17.833 48.501 -20.5v-45h-253c-16.667 14.667 -33 33 -49 55s-30.333 44.333 -43 67l-125 218l230 239c8.66699 8.66699 15.667 16.834 21 24.501s8 15.834 8 24.501
c0 8 -4.83301 14.667 -14.5 20s-27.167 8.33301 -52.5 9v45h244v-45c-20.667 -1.33301 -36.5 -4.16602 -47.5 -8.49902s-22.833 -13.166 -35.5 -26.499zM313.998 589.996v-478c0 -25.333 3.33301 -42 10 -50s26.334 -13.667 59.001 -17v-45h-357v45
c32.667 3.33301 52.334 9 59.001 17s10 24.667 10 50v478c0 25.333 -3.33301 42 -10 50s-26.334 13.667 -59.001 17v45h357v-45c-32.667 -3.33301 -52.334 -9 -59.001 -17s-10 -24.667 -10 -50zM423.998 -158.004l-55.998 -0.000976562c-14.667 4 -26.667 10.833 -36 20.5
s-14 23.5 -14 41.5s7.5 33.167 22.5 45.5s35.833 18.5 62.5 18.5c30.667 0 54.667 -9.16699 72 -27.5s26 -41.166 26 -68.499c0 -34 -13.833 -62.833 -41.5 -86.5s-72.834 -35.5 -135.501 -35.5v40c33.333 0 58.166 5.33301 74.499 16s24.833 22.667 25.5 36z" />
    <glyph glyph-name="kcommaaccent" unicode="&#x137;" horiz-adv-x="662" 
d="M283 283l152 136.999c14 12.667 23.167 22.667 27.5 30s6.5 14.333 6.5 21c0 8.66699 -4.16699 15.167 -12.5 19.5s-23.833 7.83301 -46.5 10.5v42h233v-42c-16.667 -2 -31.5 -5.16699 -44.5 -9.5s-26.167 -13.166 -39.5 -26.499l-106 -102l209 -334v-29h-212zM71 77.999
v599l-53 27v34l224 45h35v-705c0 -14.667 4.16699 -24 12.5 -28s21.833 -6.66699 40.5 -8v-42h-312v42c18.667 1.33301 32.167 4 40.5 8s12.5 13.333 12.5 28zM355 -158.001l-55.998 -0.000976562c-14.667 4 -26.667 10.833 -36 20.5s-14 23.5 -14 41.5
s7.5 33.167 22.5 45.5s35.833 18.5 62.5 18.5c30.667 0 54.667 -9.16699 72 -27.5s26 -41.166 26 -68.499c0 -34 -13.833 -62.833 -41.5 -86.5s-72.834 -35.5 -135.501 -35.5v40c33.333 0 58.166 5.33301 74.499 16s24.833 22.667 25.5 36z" />
    <glyph glyph-name="kgreenlandic" unicode="&#x138;" horiz-adv-x="666" 
d="M287 283l152 136.999c14 12.667 23.167 22.667 27.5 30s6.5 14.333 6.5 21c0 8.66699 -4.16699 15.167 -12.5 19.5s-23.833 7.83301 -46.5 10.5v42h233v-42c-16.667 -2 -31.5 -5.16699 -44.5 -9.5s-26.167 -13.166 -39.5 -26.499l-106 -102l209 -334v-29h-212zM75 77.999
v349l-53 36v30l224 60h35v-475c0 -14.667 4.16699 -24 12.5 -28s21.833 -6.66699 40.5 -8v-42h-312v42c18.667 1.33301 32.167 4 40.5 8s12.5 13.333 12.5 28z" />
    <glyph glyph-name="Lacute" unicode="&#x139;" horiz-adv-x="658" 
d="M314 590l0.000976562 -473c0 -26.667 5.66699 -44.5 17 -53.5s30 -13.5 56 -13.5h21c30.667 0 59 12.667 85 38s63 78.333 111 159h47l-39 -247h-586v45c32.667 3.33301 52.334 9 59.001 17s10 24.667 10 50v478c0 25.333 -3.33301 42 -10 50s-26.334 13.667 -59.001 17
v45h357v-45c-32.667 -3.33301 -52.334 -9 -59.001 -17s-10 -24.667 -10 -50zM223.001 890h197v-10l-180 -139h-64z" />
    <glyph glyph-name="lacute" unicode="&#x13a;" horiz-adv-x="346" 
d="M277 783v-705c0 -14.667 4.16699 -24 12.5 -28s21.833 -6.66699 40.5 -8v-42h-312v42c18.667 1.33301 32.167 4 40.5 8s12.5 13.333 12.5 28v599l-53 27v34l224 45h35zM161 953h197v-10l-180 -139h-64z" />
    <glyph glyph-name="Lcommaaccent" unicode="&#x13b;" horiz-adv-x="658" 
d="M314 590l0.000976562 -473c0 -26.667 5.66699 -44.5 17 -53.5s30 -13.5 56 -13.5h21c30.667 0 59 12.667 85 38s63 78.333 111 159h47l-39 -247h-586v45c32.667 3.33301 52.334 9 59.001 17s10 24.667 10 50v478c0 25.333 -3.33301 42 -10 50s-26.334 13.667 -59.001 17
v45h357v-45c-32.667 -3.33301 -52.334 -9 -59.001 -17s-10 -24.667 -10 -50zM353.001 -158l-55.998 -0.000976562c-14.667 4 -26.667 10.833 -36 20.5s-14 23.5 -14 41.5s7.5 33.167 22.5 45.5s35.833 18.5 62.5 18.5c30.667 0 54.667 -9.16699 72 -27.5
s26 -41.166 26 -68.499c0 -34 -13.833 -62.833 -41.5 -86.5s-72.834 -35.5 -135.501 -35.5v40c33.333 0 58.166 5.33301 74.499 16s24.833 22.667 25.5 36z" />
    <glyph glyph-name="lcommaaccent" unicode="&#x13c;" horiz-adv-x="346" 
d="M277 783v-705c0 -14.667 4.16699 -24 12.5 -28s21.833 -6.66699 40.5 -8v-42h-312v42c18.667 1.33301 32.167 4 40.5 8s12.5 13.333 12.5 28v599l-53 27v34l224 45h35zM189 -158l-55.998 -0.000976562c-14.667 4 -26.667 10.833 -36 20.5s-14 23.5 -14 41.5
s7.5 33.167 22.5 45.5s35.833 18.5 62.5 18.5c30.667 0 54.667 -9.16699 72 -27.5s26 -41.166 26 -68.499c0 -34 -13.833 -62.833 -41.5 -86.5s-72.834 -35.5 -135.501 -35.5v40c33.333 0 58.166 5.33301 74.499 16s24.833 22.667 25.5 36z" />
    <glyph glyph-name="Lcaron" unicode="&#x13d;" horiz-adv-x="658" 
d="M314 590l0.000976562 -473c0 -26.667 5.66699 -44.5 17 -53.5s30 -13.5 56 -13.5h21c30.667 0 59 12.667 85 38s63 78.333 111 159h47l-39 -247h-586v45c32.667 3.33301 52.334 9 59.001 17s10 24.667 10 50v478c0 25.333 -3.33301 42 -10 50s-26.334 13.667 -59.001 17
v45h357v-45c-32.667 -3.33301 -52.334 -9 -59.001 -17s-10 -24.667 -10 -50zM603.001 690l-119 -193h-47l11 205h155v-12z" />
    <glyph glyph-name="lcaron" unicode="&#x13e;" horiz-adv-x="346" 
d="M277 783v-705c0 -14.667 4.16699 -24 12.5 -28s21.833 -6.66699 40.5 -8v-42h-312v42c18.667 1.33301 32.167 4 40.5 8s12.5 13.333 12.5 28v599l-53 27v34l224 45h35zM483 771l-119 -193h-47l11 205h155v-12z" />
    <glyph glyph-name="Ldot" unicode="&#x13f;" horiz-adv-x="658" 
d="M314 590l0.000976562 -473c0 -26.667 5.66699 -44.5 17 -53.5s30 -13.5 56 -13.5h21c30.667 0 59 12.667 85 38s63 78.333 111 159h47l-39 -247h-586v45c32.667 3.33301 52.334 9 59.001 17s10 24.667 10 50v478c0 25.333 -3.33301 42 -10 50s-26.334 13.667 -59.001 17
v45h357v-45c-32.667 -3.33301 -52.334 -9 -59.001 -17s-10 -24.667 -10 -50zM441.001 409c0 30.667 10.167 55.834 30.5 75.501s44.833 29.5 73.5 29.5s53.167 -9.83301 73.5 -29.5s30.5 -44.834 30.5 -75.501s-10.167 -55.667 -30.5 -75s-44.833 -29 -73.5 -29
s-53.167 9.66699 -73.5 29s-30.5 44.333 -30.5 75z" />
    <glyph glyph-name="ldot" unicode="&#x140;" horiz-adv-x="488" 
d="M277 783v-705c0 -14.667 4.16699 -24 12.5 -28s21.833 -6.66699 40.5 -8v-42h-312v42c18.667 1.33301 32.167 4 40.5 8s12.5 13.333 12.5 28v599l-53 27v34l224 45h35zM309 390c0 30.667 10.167 55.834 30.5 75.501s44.833 29.5 73.5 29.5s53.167 -9.83301 73.5 -29.5
s30.5 -44.834 30.5 -75.501s-10.167 -55.667 -30.5 -75s-44.833 -29 -73.5 -29s-53.167 9.66699 -73.5 29s-30.5 44.333 -30.5 75z" />
    <glyph glyph-name="Lslash" unicode="&#x141;" horiz-adv-x="658" 
d="M314 590l0.000976562 -186l136 43v-66l-136 -44v-220c0 -26.667 5.66699 -44.5 17 -53.5s30 -13.5 56 -13.5h21c30.667 0 59 12.667 85 38s63 78.333 111 159h47l-39 -247h-586v45c32.667 3.33301 52.334 9 59.001 17s10 24.667 10 50v162l-69 -22v66l69 22v250
c0 25.333 -3.33301 42 -10 50s-26.334 13.667 -59.001 17v45h357v-45c-32.667 -3.33301 -52.334 -9 -59.001 -17s-10 -24.667 -10 -50z" />
    <glyph glyph-name="lslash" unicode="&#x142;" horiz-adv-x="367" 
d="M284 783v-274l78 36v-63l-78 -37v-367c0 -14.667 4.16699 -24 12.5 -28s21.833 -6.66699 40.5 -8v-42h-312v42c18.667 1.33301 32.167 4 40.5 8s12.5 13.333 12.5 28v291l-73 -32v63l73 33v244l-53 27v34l224 45h35z" />
    <glyph glyph-name="Nacute" unicode="&#x143;" horiz-adv-x="757" 
d="M598 337l-0.000976562 252.999c0 25.333 -7 42.166 -21 50.499s-41 13.833 -81 16.5v45h244v-45c-32.667 -3.33301 -52.334 -9 -59.001 -17s-10 -24.667 -10 -50v-590h-82l-421 516v-404c0 -25.333 7 -42.166 21 -50.499s41 -13.833 81 -16.5v-45h-244v45
c32.667 3.33301 52.334 9 59.001 17s10 24.667 10 50v480c-11.333 20.667 -21.666 36.334 -30.999 47.001s-22 16.667 -38 18v45h274zM377.999 889.999h197v-10l-180 -139h-64z" />
    <glyph glyph-name="nacute" unicode="&#x144;" horiz-adv-x="684" 
d="M417 78v293c0 18.667 -4.16699 33.667 -12.5 45s-24.833 17 -49.5 17c-14 0 -27 -1.16699 -39 -3.5s-23.667 -5.5 -35 -9.5v-342c0 -14.667 3.66699 -24 11 -28s20.333 -6.66699 39 -8v-42h-309v42c18.667 1.33301 32.167 4 40.5 8s12.5 13.333 12.5 28v350l-53 34v31
l223 60h40l-4 -101c18 23.333 42 46 72 68s68.333 33 115 33c48 0 85.833 -13.667 113.5 -41s41.5 -68.333 41.5 -123v-311c0 -14.667 4.16699 -24 12.5 -28s21.833 -6.66699 40.5 -8v-42h-309v42c18.667 1.33301 31.667 4 39 8s11 13.333 11 28zM346 766h197v-10l-185 -153
h-59z" />
    <glyph glyph-name="Ncommaaccent" unicode="&#x145;" horiz-adv-x="757" 
d="M598 337l-0.000976562 252.999c0 25.333 -7 42.166 -21 50.499s-41 13.833 -81 16.5v45h244v-45c-32.667 -3.33301 -52.334 -9 -59.001 -17s-10 -24.667 -10 -50v-590h-82l-421 516v-404c0 -25.333 7 -42.166 21 -50.499s41 -13.833 81 -16.5v-45h-244v45
c32.667 3.33301 52.334 9 59.001 17s10 24.667 10 50v480c-11.333 20.667 -21.666 36.334 -30.999 47.001s-22 16.667 -38 18v45h274zM405.999 -158.001l-55.998 -0.000976562c-14.667 4 -26.667 10.833 -36 20.5s-14 23.5 -14 41.5s7.5 33.167 22.5 45.5
s35.833 18.5 62.5 18.5c30.667 0 54.667 -9.16699 72 -27.5s26 -41.166 26 -68.499c0 -34 -13.833 -62.833 -41.5 -86.5s-72.834 -35.5 -135.501 -35.5v40c33.333 0 58.166 5.33301 74.499 16s24.833 22.667 25.5 36z" />
    <glyph glyph-name="ncommaaccent" unicode="&#x146;" horiz-adv-x="684" 
d="M417 78v293c0 18.667 -4.16699 33.667 -12.5 45s-24.833 17 -49.5 17c-14 0 -27 -1.16699 -39 -3.5s-23.667 -5.5 -35 -9.5v-342c0 -14.667 3.66699 -24 11 -28s20.333 -6.66699 39 -8v-42h-309v42c18.667 1.33301 32.167 4 40.5 8s12.5 13.333 12.5 28v350l-53 34v31
l223 60h40l-4 -101c18 23.333 42 46 72 68s68.333 33 115 33c48 0 85.833 -13.667 113.5 -41s41.5 -68.333 41.5 -123v-311c0 -14.667 4.16699 -24 12.5 -28s21.833 -6.66699 40.5 -8v-42h-309v42c18.667 1.33301 31.667 4 39 8s11 13.333 11 28zM376 -158
l-55.998 -0.000976562c-14.667 4 -26.667 10.833 -36 20.5s-14 23.5 -14 41.5s7.5 33.167 22.5 45.5s35.833 18.5 62.5 18.5c30.667 0 54.667 -9.16699 72 -27.5s26 -41.166 26 -68.499c0 -34 -13.833 -62.833 -41.5 -86.5s-72.834 -35.5 -135.501 -35.5v40
c33.333 0 58.166 5.33301 74.499 16s24.833 22.667 25.5 36z" />
    <glyph glyph-name="Ncaron" unicode="&#x147;" horiz-adv-x="757" 
d="M598 337l-0.000976562 252.999c0 25.333 -7 42.166 -21 50.499s-41 13.833 -81 16.5v45h244v-45c-32.667 -3.33301 -52.334 -9 -59.001 -17s-10 -24.667 -10 -50v-590h-82l-421 516v-404c0 -25.333 7 -42.166 21 -50.499s41 -13.833 81 -16.5v-45h-244v45
c32.667 3.33301 52.334 9 59.001 17s10 24.667 10 50v480c-11.333 20.667 -21.666 36.334 -30.999 47.001s-22 16.667 -38 18v45h274zM576.999 893.999l-118 -152h-136l-118 152h65l121 -65l121 65h65z" />
    <glyph glyph-name="ncaron" unicode="&#x148;" horiz-adv-x="684" 
d="M417 78v293c0 18.667 -4.16699 33.667 -12.5 45s-24.833 17 -49.5 17c-14 0 -27 -1.16699 -39 -3.5s-23.667 -5.5 -35 -9.5v-342c0 -14.667 3.66699 -24 11 -28s20.333 -6.66699 39 -8v-42h-309v42c18.667 1.33301 32.167 4 40.5 8s12.5 13.333 12.5 28v350l-53 34v31
l223 60h40l-4 -101c18 23.333 42 46 72 68s68.333 33 115 33c48 0 85.833 -13.667 113.5 -41s41.5 -68.333 41.5 -123v-311c0 -14.667 4.16699 -24 12.5 -28s21.833 -6.66699 40.5 -8v-42h-309v42c18.667 1.33301 31.667 4 39 8s11 13.333 11 28zM547 771l-118 -169h-136
l-118 169h65l121 -80l121 80h65z" />
    <glyph glyph-name="Eng" unicode="&#x14a;" horiz-adv-x="757" 
d="M519 88l-351.001 427.999v-404c0 -25.333 7 -42.166 21 -50.499s41 -13.833 81 -16.5v-45h-244v45c32.667 3.33301 52.334 9 59.001 17s10 24.667 10 50v480c-11.333 20.667 -21.666 36.334 -30.999 47.001s-22 16.667 -38 18v45h274l298 -365v253
c0 25.333 -7 42.166 -21 50.499s-41 13.833 -81 16.5v45h244v-45c-32.667 -3.33301 -52.334 -9 -59.001 -17s-10 -24.667 -10 -50v-479c0 -56 -5.5 -99.5 -16.5 -130.5s-28.833 -58.833 -53.5 -83.5c-29.333 -28.667 -56.333 -50.167 -81 -64.5
s-55.334 -28.833 -92.001 -43.5l-17 22l48 62c24.667 32 40.834 65.333 48.501 100s11.5 73 11.5 115z" />
    <glyph glyph-name="eng" unicode="&#x14b;" horiz-adv-x="673" 
d="M417 66v304.999c0 18.667 -4.16699 33.667 -12.5 45s-24.833 17 -49.5 17c-14 0 -27 -1.16699 -39 -3.5s-23.667 -5.5 -35 -9.5v-342c0 -14.667 3.66699 -24 11 -28s20.333 -6.66699 39 -8v-42h-309v42c18.667 1.33301 32.167 4 40.5 8s12.5 13.333 12.5 28v350l-53 34
v31l223 60h40l-4 -101c18 23.333 42 46 72 68s68.333 33 115 33c48 0 85.833 -13.667 113.5 -41s41.5 -68.333 41.5 -123v-278c0 -59.333 -7 -104.666 -21 -135.999s-33.667 -58.333 -59 -81c-30.667 -27.333 -59.667 -48 -87 -62s-59.333 -28.333 -96 -43l-17 22l41 63
c16 24.667 25.5 53.167 28.5 85.5s4.5 67.833 4.5 106.5z" />
    <glyph glyph-name="Omacron" unicode="&#x14c;" horiz-adv-x="758" 
d="M384 42c46.667 0 78.167 31.667 94.5 95s24.5 129.666 24.5 198.999c0 91.333 -9.66699 168.166 -29 230.499s-52.666 93.5 -99.999 93.5c-46.667 0 -78.167 -31.667 -94.5 -95s-24.5 -129.666 -24.5 -198.999c0 -91.333 9.66699 -168.166 29 -230.499
s52.666 -93.5 99.999 -93.5zM369 -10c-112.667 0 -198.167 34.5 -256.5 103.5s-87.5 150.167 -87.5 243.5c0 114.667 34.167 205.834 102.5 273.501s155.5 101.5 261.5 101.5c112.667 0 198.167 -34.5 256.5 -103.5s87.5 -150.167 87.5 -243.5
c0 -114.667 -34.167 -205.834 -102.5 -273.501s-155.5 -101.5 -261.5 -101.5zM236 746v95h294v-95h-294z" />
    <glyph glyph-name="omacron" unicode="&#x14d;" horiz-adv-x="620" 
d="M315 34c26.667 0 44.334 17.667 53.001 53s13 84 13 146c0 85.333 -5.5 152.666 -16.5 201.999s-30.833 74 -59.5 74c-26.667 0 -44.334 -17.667 -53.001 -53s-13 -84 -13 -146c0 -85.333 5.5 -152.666 16.5 -201.999s30.833 -74 59.5 -74zM310 -10
c-85.333 0 -155 24.5 -209 73.5s-81 115.167 -81 198.5s27 152.666 81 207.999s123.667 83 209 83s155 -24.5 209 -73.5s81 -115.167 81 -198.5s-27 -152.666 -81 -207.999s-123.667 -83 -209 -83zM167 625v95h294v-95h-294z" />
    <glyph glyph-name="Obreve" unicode="&#x14e;" horiz-adv-x="758" 
d="M384 42c46.667 0 78.167 31.667 94.5 95s24.5 129.666 24.5 198.999c0 91.333 -9.66699 168.166 -29 230.499s-52.666 93.5 -99.999 93.5c-46.667 0 -78.167 -31.667 -94.5 -95s-24.5 -129.666 -24.5 -198.999c0 -91.333 9.66699 -168.166 29 -230.499
s52.666 -93.5 99.999 -93.5zM369 -10c-112.667 0 -198.167 34.5 -256.5 103.5s-87.5 150.167 -87.5 243.5c0 114.667 34.167 205.834 102.5 273.501s155.5 101.5 261.5 101.5c112.667 0 198.167 -34.5 256.5 -103.5s87.5 -150.167 87.5 -243.5
c0 -114.667 -34.167 -205.834 -102.5 -273.501s-155.5 -101.5 -261.5 -101.5zM383 738c-48 0 -85.002 14 -111.002 42s-39 66 -39 114h51c4.66699 -23.333 16.834 -39 36.501 -47s40.5 -12 62.5 -12s42.833 4 62.5 12s31.834 23.667 36.501 47h51c0 -48 -13 -86 -39 -114
s-63 -42 -111 -42z" />
    <glyph glyph-name="obreve" unicode="&#x14f;" horiz-adv-x="620" 
d="M315 34c26.667 0 44.334 17.667 53.001 53s13 84 13 146c0 85.333 -5.5 152.666 -16.5 201.999s-30.833 74 -59.5 74c-26.667 0 -44.334 -17.667 -53.001 -53s-13 -84 -13 -146c0 -85.333 5.5 -152.666 16.5 -201.999s30.833 -74 59.5 -74zM310 -10
c-85.333 0 -155 24.5 -209 73.5s-81 115.167 -81 198.5s27 152.666 81 207.999s123.667 83 209 83s155 -24.5 209 -73.5s81 -115.167 81 -198.5s-27 -152.666 -81 -207.999s-123.667 -83 -209 -83zM314 598c-48 0 -84.835 15.167 -110.502 45.5s-38.5 71.833 -38.5 124.5h50
c4 -26.667 15.333 -45 34 -55s40.334 -15 65.001 -15s46.334 5 65.001 15s30 28.333 34 55h50c0 -52.667 -12.833 -94.167 -38.5 -124.5s-62.5 -45.5 -110.5 -45.5z" />
    <glyph glyph-name="Ohungarumlaut" unicode="&#x150;" horiz-adv-x="758" 
d="M384 42c46.667 0 78.167 31.667 94.5 95s24.5 129.666 24.5 198.999c0 91.333 -9.66699 168.166 -29 230.499s-52.666 93.5 -99.999 93.5c-46.667 0 -78.167 -31.667 -94.5 -95s-24.5 -129.666 -24.5 -198.999c0 -91.333 9.66699 -168.166 29 -230.499
s52.666 -93.5 99.999 -93.5zM369 -10c-112.667 0 -198.167 34.5 -256.5 103.5s-87.5 150.167 -87.5 243.5c0 114.667 34.167 205.834 102.5 273.501s155.5 101.5 261.5 101.5c112.667 0 198.167 -34.5 256.5 -103.5s87.5 -150.167 87.5 -243.5
c0 -114.667 -34.167 -205.834 -102.5 -273.501s-155.5 -101.5 -261.5 -101.5zM306 890h162v-10l-149 -139h-61zM494 890h162v-10l-149 -139h-61z" />
    <glyph glyph-name="ohungarumlaut" unicode="&#x151;" horiz-adv-x="620" 
d="M315 34c26.667 0 44.334 17.667 53.001 53s13 84 13 146c0 85.333 -5.5 152.666 -16.5 201.999s-30.833 74 -59.5 74c-26.667 0 -44.334 -17.667 -53.001 -53s-13 -84 -13 -146c0 -85.333 5.5 -152.666 16.5 -201.999s30.833 -74 59.5 -74zM310 -10
c-85.333 0 -155 24.5 -209 73.5s-81 115.167 -81 198.5s27 152.666 81 207.999s123.667 83 209 83s155 -24.5 209 -73.5s81 -115.167 81 -198.5s-27 -152.666 -81 -207.999s-123.667 -83 -209 -83zM225 766h162v-10l-149 -153h-61zM413 766h162v-10l-149 -153h-61z" />
    <glyph glyph-name="OE" unicode="&#x152;" horiz-adv-x="1063" 
d="M494 652l-33 -0.000976562c-66 0 -117.5 -26.667 -154.5 -80s-55.5 -122.666 -55.5 -207.999c0 -98.667 20.667 -175.667 62 -231s97 -83 167 -83h14v602zM1016 -0.000976562l-574.002 -0.00292969c-140.667 0 -245.334 32.833 -314.001 98.5s-103 148.167 -103 247.5
c0 110.667 37.333 197.667 112 261s177.334 95 308.001 95h571v-199h-42c-26.667 56 -50.5 94.833 -71.5 116.5s-55.5 32.5 -103.5 32.5h-86v-260h83c23.333 0 39.166 6.83301 47.499 20.5s14.5 37.834 18.5 72.501h47v-246h-47c-4 34.667 -10.167 58.834 -18.5 72.501
s-24.166 20.5 -47.499 20.5h-83v-215c0 -26.667 6.33301 -44.5 19 -53.5s32 -13.5 58 -13.5h22c46.667 0 80.334 12.333 101.001 37s49.334 71.334 86.001 140.001h50z" />
    <glyph glyph-name="oe" unicode="&#x153;" horiz-adv-x="908" 
d="M310 553c36 0 70.332 -6.33105 102.999 -18.998s60.667 -29.334 84 -50.001c22.667 20.667 48.334 37.334 77.001 50.001s60 19 94 19c72.667 0 127.834 -21 165.501 -63s56.5 -95.667 56.5 -161v-25h-317c0 -54.667 14 -98.334 42 -131.001s64 -49 108 -49
c31.333 0 59.333 5.5 84 16.5s46.334 28.833 65.001 53.5l21 -13c-14 -58 -40.833 -104.333 -80.5 -139s-92.167 -52 -157.5 -52c-32.667 0 -63.834 6.16699 -93.501 18.5s-55.834 28.5 -78.501 48.5c-22.667 -19.333 -49 -35.333 -79 -48s-61.333 -19 -94 -19
c-85.333 0 -155 24.5 -209 73.5s-81 115.167 -81 198.5s27 152.666 81 207.999s123.667 83 209 83zM314.999 34.002c26.667 0 44.334 17.667 53.001 53s13 84 13 146c0 85.333 -5.5 152.666 -16.5 201.999s-30.833 74 -59.5 74c-26.667 0 -44.334 -17.667 -53.001 -53
s-13 -84 -13 -146c0 -85.333 5.5 -152.666 16.5 -201.999s30.833 -74 59.5 -74zM650.999 509.002c-24.667 0 -43.167 -14.3311 -55.5 -42.998s-19.5 -66.334 -21.5 -113.001h141c0 49.333 -4.66699 87.666 -14 114.999s-26 41 -50 41z" />
    <glyph glyph-name="Racute" unicode="&#x154;" horiz-adv-x="778" 
d="M335 649l-21 0.000976562v-305h22c42 0 75.167 13.667 99.5 41s36.5 65.666 36.5 114.999c0 47.333 -12 84 -36 110s-57.667 39 -101 39zM314 290.001v-178c0 -25.333 3.33301 -42 10 -50s26.334 -13.667 59.001 -17v-45h-357v45c32.667 3.33301 52.334 9 59.001 17
s10 24.667 10 50v478c0 25.333 -3.33301 42 -10 50s-26.334 13.667 -59.001 17v45h389c80 0 145.5 -17.833 196.5 -53.5s76.5 -84.834 76.5 -147.501c0 -48.667 -14.833 -87.5 -44.5 -116.5s-62.5 -49.833 -98.5 -62.5l133 -196c20 -30 36 -50.667 48 -62
s29.333 -17.666 52 -18.999v-45h-247c-14 10.667 -27.833 25.167 -41.5 43.5s-27.834 40.5 -42.501 66.5l-103 180h-30zM361 890.001h197v-10l-180 -139h-64z" />
    <glyph glyph-name="racute" unicode="&#x155;" horiz-adv-x="478" 
d="M281 355l-0.000976562 -258c0 -22 6 -35.667 18 -41s32 -10 60 -14v-42h-337v42c18.667 1.33301 32.167 4 40.5 8s12.5 13.333 12.5 28v350l-53 34v31l223 60h40l-4 -156c18.667 60 38.5 101 59.5 123s47.5 33 79.5 33c12.667 0 23.334 -1.66699 32.001 -5
s15.667 -7.33301 21 -12v-153h-26c-32 0 -62.333 -1.5 -91 -4.5s-53.667 -10.833 -75 -23.5zM253.999 766h197v-10l-185 -153h-59z" />
    <glyph glyph-name="Rcommaaccent" unicode="&#x156;" horiz-adv-x="778" 
d="M335 649l-21 0.000976562v-305h22c42 0 75.167 13.667 99.5 41s36.5 65.666 36.5 114.999c0 47.333 -12 84 -36 110s-57.667 39 -101 39zM314 290.001v-178c0 -25.333 3.33301 -42 10 -50s26.334 -13.667 59.001 -17v-45h-357v45c32.667 3.33301 52.334 9 59.001 17
s10 24.667 10 50v478c0 25.333 -3.33301 42 -10 50s-26.334 13.667 -59.001 17v45h389c80 0 145.5 -17.833 196.5 -53.5s76.5 -84.834 76.5 -147.501c0 -48.667 -14.833 -87.5 -44.5 -116.5s-62.5 -49.833 -98.5 -62.5l133 -196c20 -30 36 -50.667 48 -62
s29.333 -17.666 52 -18.999v-45h-247c-14 10.667 -27.833 25.167 -41.5 43.5s-27.834 40.5 -42.501 66.5l-103 180h-30zM407 -157.999l-55.998 -0.000976562c-14.667 4 -26.667 10.833 -36 20.5s-14 23.5 -14 41.5s7.5 33.167 22.5 45.5s35.833 18.5 62.5 18.5
c30.667 0 54.667 -9.16699 72 -27.5s26 -41.166 26 -68.499c0 -34 -13.833 -62.833 -41.5 -86.5s-72.834 -35.5 -135.501 -35.5v40c33.333 0 58.166 5.33301 74.499 16s24.833 22.667 25.5 36z" />
    <glyph glyph-name="rcommaaccent" unicode="&#x157;" horiz-adv-x="478" 
d="M281 355l-0.000976562 -258c0 -22 6 -35.667 18 -41s32 -10 60 -14v-42h-337v42c18.667 1.33301 32.167 4 40.5 8s12.5 13.333 12.5 28v350l-53 34v31l223 60h40l-4 -156c18.667 60 38.5 101 59.5 123s47.5 33 79.5 33c12.667 0 23.334 -1.66699 32.001 -5
s15.667 -7.33301 21 -12v-153h-26c-32 0 -62.333 -1.5 -91 -4.5s-53.667 -10.833 -75 -23.5zM201.999 -158l-55.998 -0.000976562c-14.667 4 -26.667 10.833 -36 20.5s-14 23.5 -14 41.5s7.5 33.167 22.5 45.5s35.833 18.5 62.5 18.5c30.667 0 54.667 -9.16699 72 -27.5
s26 -41.166 26 -68.499c0 -34 -13.833 -62.833 -41.5 -86.5s-72.834 -35.5 -135.501 -35.5v40c33.333 0 58.166 5.33301 74.499 16s24.833 22.667 25.5 36z" />
    <glyph glyph-name="Rcaron" unicode="&#x158;" horiz-adv-x="778" 
d="M335 649l-21 0.000976562v-305h22c42 0 75.167 13.667 99.5 41s36.5 65.666 36.5 114.999c0 47.333 -12 84 -36 110s-57.667 39 -101 39zM314 290.001v-178c0 -25.333 3.33301 -42 10 -50s26.334 -13.667 59.001 -17v-45h-357v45c32.667 3.33301 52.334 9 59.001 17
s10 24.667 10 50v478c0 25.333 -3.33301 42 -10 50s-26.334 13.667 -59.001 17v45h389c80 0 145.5 -17.833 196.5 -53.5s76.5 -84.834 76.5 -147.501c0 -48.667 -14.833 -87.5 -44.5 -116.5s-62.5 -49.833 -98.5 -62.5l133 -196c20 -30 36 -50.667 48 -62
s29.333 -17.666 52 -18.999v-45h-247c-14 10.667 -27.833 25.167 -41.5 43.5s-27.834 40.5 -42.501 66.5l-103 180h-30zM560 894.001l-118 -152h-136l-118 152h65l121 -65l121 65h65z" />
    <glyph glyph-name="rcaron" unicode="&#x159;" horiz-adv-x="478" 
d="M281 355l-0.000976562 -258c0 -22 6 -35.667 18 -41s32 -10 60 -14v-42h-337v42c18.667 1.33301 32.167 4 40.5 8s12.5 13.333 12.5 28v350l-53 34v31l223 60h40l-4 -156c18.667 60 38.5 101 59.5 123s47.5 33 79.5 33c12.667 0 23.334 -1.66699 32.001 -5
s15.667 -7.33301 21 -12v-153h-26c-32 0 -62.333 -1.5 -91 -4.5s-53.667 -10.833 -75 -23.5zM454.999 771l-118 -169h-136l-118 169h65l121 -80l121 80h65z" />
    <glyph glyph-name="Sacute" unicode="&#x15a;" horiz-adv-x="592" 
d="M281 -10c-50.667 0 -97.3311 6.49707 -139.998 19.4971s-76.334 28.833 -101.001 47.5l-12 175h59c12.667 -54 35.667 -99.167 69 -135.5s75 -54.5 125 -54.5c32.667 0 59.334 7.33301 80.001 22s31 36.667 31 66c0 30 -11.5 53.333 -34.5 70
s-61.167 32.334 -114.5 47.001c-69.333 18.667 -122 46.334 -158 83.001s-54 85.667 -54 147c0 73.333 25.167 130.833 75.5 172.5s113.166 62.5 188.499 62.5c47.333 0 89.833 -5.5 127.5 -16.5s68.5 -25.5 92.5 -43.5v-153h-49c-12.667 48 -32.834 87 -60.501 117
s-64.5 45 -110.5 45c-28.667 0 -52.167 -7.66699 -70.5 -23s-27.5 -36.666 -27.5 -63.999c0 -30.667 11.333 -54.167 34 -70.5s59 -31.5 109 -45.5c66 -18.667 119.833 -44.5 161.5 -77.5s62.5 -86.167 62.5 -159.5c0 -80 -27.833 -138.5 -83.5 -175.5
s-122.167 -55.5 -199.5 -55.5zM301.003 889.997h197v-10l-180 -139h-64z" />
    <glyph glyph-name="sacute" unicode="&#x15b;" horiz-adv-x="487" 
d="M231 -10c-43.333 0 -81.1699 4.66699 -113.503 14s-59.833 21.666 -82.5 36.999l-6 135h51c8.66699 -40 26.167 -73.5 52.5 -100.5s58.5 -40.5 96.5 -40.5c22.667 0 41.834 5.33301 57.501 16s23.5 26.334 23.5 47.001c0 24.667 -9.16699 42.334 -27.5 53.001
s-43.5 20.667 -75.5 30c-58 16.667 -102.333 39.334 -133 68.001s-46 69 -46 121c0 59.333 20.333 104.666 61 135.999s92 47 154 47c34 0 66.5 -4.16699 97.5 -12.5s57.167 -19.5 78.5 -33.5v-120h-47c-4.66699 31.333 -18 59.333 -40 84s-50 37 -84 37
c-20 0 -36.333 -5 -49 -15s-19 -24 -19 -42c0 -20 7.33301 -35 22 -45s37.334 -20 68.001 -30c62 -20.667 109.5 -44.334 142.5 -71.001s49.5 -68.667 49.5 -126c0 -60 -21.167 -106.5 -63.5 -139.5s-98.166 -49.5 -167.499 -49.5zM237.996 766h197v-10l-185 -153h-59z" />
    <glyph glyph-name="Scircumflex" unicode="&#x15c;" horiz-adv-x="592" 
d="M281 -10c-50.667 0 -97.3311 6.49707 -139.998 19.4971s-76.334 28.833 -101.001 47.5l-12 175h59c12.667 -54 35.667 -99.167 69 -135.5s75 -54.5 125 -54.5c32.667 0 59.334 7.33301 80.001 22s31 36.667 31 66c0 30 -11.5 53.333 -34.5 70
s-61.167 32.334 -114.5 47.001c-69.333 18.667 -122 46.334 -158 83.001s-54 85.667 -54 147c0 73.333 25.167 130.833 75.5 172.5s113.166 62.5 188.499 62.5c47.333 0 89.833 -5.5 127.5 -16.5s68.5 -25.5 92.5 -43.5v-153h-49c-12.667 48 -32.834 87 -60.501 117
s-64.5 45 -110.5 45c-28.667 0 -52.167 -7.66699 -70.5 -23s-27.5 -36.666 -27.5 -63.999c0 -30.667 11.333 -54.167 34 -70.5s59 -31.5 109 -45.5c66 -18.667 119.833 -44.5 161.5 -77.5s62.5 -86.167 62.5 -159.5c0 -80 -27.833 -138.5 -83.5 -175.5
s-122.167 -55.5 -199.5 -55.5zM373.003 892.997l118 -152h-65l-121 65l-121 -65h-65l118 152h136z" />
    <glyph glyph-name="scircumflex" unicode="&#x15d;" horiz-adv-x="487" 
d="M231 -10c-43.333 0 -81.1699 4.66699 -113.503 14s-59.833 21.666 -82.5 36.999l-6 135h51c8.66699 -40 26.167 -73.5 52.5 -100.5s58.5 -40.5 96.5 -40.5c22.667 0 41.834 5.33301 57.501 16s23.5 26.334 23.5 47.001c0 24.667 -9.16699 42.334 -27.5 53.001
s-43.5 20.667 -75.5 30c-58 16.667 -102.333 39.334 -133 68.001s-46 69 -46 121c0 59.333 20.333 104.666 61 135.999s92 47 154 47c34 0 66.5 -4.16699 97.5 -12.5s57.167 -19.5 78.5 -33.5v-120h-47c-4.66699 31.333 -18 59.333 -40 84s-50 37 -84 37
c-20 0 -36.333 -5 -49 -15s-19 -24 -19 -42c0 -20 7.33301 -35 22 -45s37.334 -20 68.001 -30c62 -20.667 109.5 -44.334 142.5 -71.001s49.5 -68.667 49.5 -126c0 -60 -21.167 -106.5 -63.5 -139.5s-98.166 -49.5 -167.499 -49.5zM320.996 766l118 -169h-65l-121 80
l-121 -80h-65l118 169h136z" />
    <glyph glyph-name="Scedilla" unicode="&#x15e;" horiz-adv-x="592" 
d="M180 -233l-8.99902 36.9971c36 0 62.167 4.66699 78.5 14s24.5 20.333 24.5 33c0 13.333 -7 21.833 -21 25.5s-32.667 5.83398 -56 6.50098l43 109c-42 2.66699 -80.667 10.167 -116 22.5s-63.333 26.5 -84 42.5l-12 175h59c12.667 -54 35.667 -99.167 69 -135.5
s75 -54.5 125 -54.5c32.667 0 59.334 7.33301 80.001 22s31 36.667 31 66c0 30 -11.5 53.333 -34.5 70s-61.167 32.334 -114.5 47.001c-69.333 18.667 -122 46.334 -158 83.001s-54 85.667 -54 147c0 73.333 25.167 130.833 75.5 172.5s113.166 62.5 188.499 62.5
c47.333 0 89.833 -5.5 127.5 -16.5s68.5 -25.5 92.5 -43.5v-153h-49c-12.667 48 -32.834 87 -60.501 117s-64.5 45 -110.5 45c-28.667 0 -52.167 -7.66699 -70.5 -23s-27.5 -36.666 -27.5 -63.999c0 -30.667 11.333 -54.167 34 -70.5s59 -31.5 109 -45.5
c66 -18.667 119.833 -44.5 161.5 -77.5s62.5 -86.167 62.5 -159.5c0 -80 -27.833 -138.5 -83.5 -175.5s-122.167 -55.5 -199.5 -55.5h-2l-11 -28c32 0 57.833 -7.33301 77.5 -22s29.5 -35.334 29.5 -62.001c0 -38 -20 -66 -60 -84s-85 -27 -135 -27z" />
    <glyph glyph-name="scedilla" unicode="&#x15f;" horiz-adv-x="487" 
d="M127 -233l-9.00293 36.9971c36 0 62.167 4.66699 78.5 14s24.5 20.333 24.5 33c0 13.333 -7 21.833 -21 25.5s-32.667 5.83398 -56 6.50098l43 109c-32.667 2.66699 -61.5 8.33398 -86.5 17.001s-46.833 19.334 -65.5 32.001l-6 135h51
c8.66699 -40 26.167 -73.5 52.5 -100.5s58.5 -40.5 96.5 -40.5c22.667 0 41.834 5.33301 57.501 16s23.5 26.334 23.5 47.001c0 24.667 -9.16699 42.334 -27.5 53.001s-43.5 20.667 -75.5 30c-58 16.667 -102.333 39.334 -133 68.001s-46 69 -46 121
c0 59.333 20.333 104.666 61 135.999s92 47 154 47c34 0 66.5 -4.16699 97.5 -12.5s57.167 -19.5 78.5 -33.5v-120h-47c-4.66699 31.333 -18 59.333 -40 84s-50 37 -84 37c-20 0 -36.333 -5 -49 -15s-19 -24 -19 -42c0 -20 7.33301 -35 22 -45s37.334 -20 68.001 -30
c62 -20.667 109.5 -44.334 142.5 -71.001s49.5 -68.667 49.5 -126c0 -60 -21.167 -106.5 -63.5 -139.5s-98.166 -49.5 -167.499 -49.5h-5l-11 -28c32 0 57.833 -7.33301 77.5 -22s29.5 -35.334 29.5 -62.001c0 -38 -20 -66 -60 -84s-85 -27 -135 -27z" />
    <glyph glyph-name="Scaron" unicode="&#x160;" horiz-adv-x="592" 
d="M281 -10c-50.667 0 -97.3311 6.49707 -139.998 19.4971s-76.334 28.833 -101.001 47.5l-12 175h59c12.667 -54 35.667 -99.167 69 -135.5s75 -54.5 125 -54.5c32.667 0 59.334 7.33301 80.001 22s31 36.667 31 66c0 30 -11.5 53.333 -34.5 70
s-61.167 32.334 -114.5 47.001c-69.333 18.667 -122 46.334 -158 83.001s-54 85.667 -54 147c0 73.333 25.167 130.833 75.5 172.5s113.166 62.5 188.499 62.5c47.333 0 89.833 -5.5 127.5 -16.5s68.5 -25.5 92.5 -43.5v-153h-49c-12.667 48 -32.834 87 -60.501 117
s-64.5 45 -110.5 45c-28.667 0 -52.167 -7.66699 -70.5 -23s-27.5 -36.666 -27.5 -63.999c0 -30.667 11.333 -54.167 34 -70.5s59 -31.5 109 -45.5c66 -18.667 119.833 -44.5 161.5 -77.5s62.5 -86.167 62.5 -159.5c0 -80 -27.833 -138.5 -83.5 -175.5
s-122.167 -55.5 -199.5 -55.5zM490.003 893.997l-118 -152h-136l-118 152h65l121 -65l121 65h65z" />
    <glyph glyph-name="scaron" unicode="&#x161;" horiz-adv-x="487" 
d="M231 -10c-43.333 0 -81.1699 4.66699 -113.503 14s-59.833 21.666 -82.5 36.999l-6 135h51c8.66699 -40 26.167 -73.5 52.5 -100.5s58.5 -40.5 96.5 -40.5c22.667 0 41.834 5.33301 57.501 16s23.5 26.334 23.5 47.001c0 24.667 -9.16699 42.334 -27.5 53.001
s-43.5 20.667 -75.5 30c-58 16.667 -102.333 39.334 -133 68.001s-46 69 -46 121c0 59.333 20.333 104.666 61 135.999s92 47 154 47c34 0 66.5 -4.16699 97.5 -12.5s57.167 -19.5 78.5 -33.5v-120h-47c-4.66699 31.333 -18 59.333 -40 84s-50 37 -84 37
c-20 0 -36.333 -5 -49 -15s-19 -24 -19 -42c0 -20 7.33301 -35 22 -45s37.334 -20 68.001 -30c62 -20.667 109.5 -44.334 142.5 -71.001s49.5 -68.667 49.5 -126c0 -60 -21.167 -106.5 -63.5 -139.5s-98.166 -49.5 -167.499 -49.5zM438.996 771l-118 -169h-136l-118 169h65
l121 -80l121 80h65z" />
    <glyph glyph-name="Tcaron" unicode="&#x164;" horiz-adv-x="723" 
d="M30 702h663.002l15 -261h-45c-38 80.667 -67.833 137.167 -89.5 169.5s-47.834 48.5 -78.501 48.5h-24v-552c0 -25.333 5 -41.166 15 -47.499s31.333 -11.166 64 -14.499v-45h-377v45c32.667 3.33301 54 8.16602 64 14.499s15 22.166 15 47.499v552h-24
c-30.667 0 -56.834 -16.167 -78.501 -48.5s-51.5 -88.833 -89.5 -169.5h-45zM547.002 894l-118 -152h-136l-118 152h65l121 -65l121 65h65z" />
    <glyph glyph-name="tcaron" unicode="&#x165;" horiz-adv-x="405" 
d="M268 682l-0.000976562 -139h111v-57h-111v-331c0 -21.333 4.33301 -37 13 -47s21.334 -15 38.001 -15c12 0 23.833 2.16699 35.5 6.5s23.167 10.5 34.5 18.5l16 -25c-20 -33.333 -45 -58.833 -75 -76.5s-66 -26.5 -108 -26.5c-48 0 -87.167 13 -117.5 39
s-45.5 69 -45.5 129v328h-54v37c42 14.667 82 36.167 120 64.5s71 59.833 99 94.5h44zM467.999 771l-119 -193h-47l11 205h155v-12z" />
    <glyph glyph-name="Tbar" unicode="&#x166;" horiz-adv-x="723" 
d="M30 702h663.002l15 -261h-45c-38 80.667 -67.833 137.167 -89.5 169.5s-47.834 48.5 -78.501 48.5h-24v-271h102v-68h-102v-213c0 -25.333 5 -41.166 15 -47.499s31.333 -11.166 64 -14.499v-45h-377v45c32.667 3.33301 54 8.16602 64 14.499s15 22.166 15 47.499v213
h-102v68h102v271h-24c-30.667 0 -56.834 -16.167 -78.501 -48.5s-51.5 -88.833 -89.5 -169.5h-45z" />
    <glyph glyph-name="tbar" unicode="&#x167;" horiz-adv-x="415" 
d="M273 682l-0.000976562 -139h111v-57h-111v-103h111v-57h-111v-171c0 -21.333 4.33301 -37 13 -47s21.334 -15 38.001 -15c12 0 23.833 2.16699 35.5 6.5s23.167 10.5 34.5 18.5l16 -25c-20 -33.333 -45 -58.833 -75 -76.5s-66 -26.5 -108 -26.5
c-48 0 -87.167 13 -117.5 39s-45.5 69 -45.5 129v168h-54v57h54v103h-54v37c42 14.667 82 36.167 120 64.5s71 59.833 99 94.5h44z" />
    <glyph glyph-name="Utilde" unicode="&#x168;" horiz-adv-x="763" 
d="M303 590l0.00195312 -324.999c0 -56 11.167 -100.5 33.5 -133.5s60.5 -49.5 114.5 -49.5c41.333 0 77.5 13.833 108.5 41.5s46.5 76.167 46.5 145.5v321c0 25.333 -5.33301 42.166 -16 50.499s-36 13.833 -76 16.5v45h234v-45c-32.667 -3.33301 -52.334 -9 -59.001 -17
s-10 -24.667 -10 -50v-341c0 -88 -27.667 -153.167 -83 -195.5s-122.666 -63.5 -201.999 -63.5c-99.333 0 -175.833 21.833 -229.5 65.5s-80.5 108.167 -80.5 193.5v341c0 25.333 -3.33301 42 -10 50s-26.334 13.667 -59.001 17v45h357v-45
c-32.667 -3.33301 -52.334 -9 -59.001 -17s-10 -24.667 -10 -50zM495.002 741.001c-32.667 0 -58.167 10 -76.5 30s-38.166 30 -59.499 30c-14 0 -26 -5.33301 -36 -16s-19.667 -23.667 -29 -39l-40 22c16.667 42.667 34 76.5 52 101.5s41 37.5 69 37.5
c32.667 0 58.167 -10 76.5 -30s38.166 -30 59.499 -30c14 0 26 5.33301 36 16s19.667 23.667 29 39l40 -22c-16.667 -42.667 -34 -76.5 -52 -101.5s-41 -37.5 -69 -37.5z" />
    <glyph glyph-name="utilde" unicode="&#x169;" horiz-adv-x="669" 
d="M600 421v-302c0 -16.667 1.66699 -29.334 5 -38.001s12.333 -13 27 -13h23v-44l-225 -34h-39l3 98c-16.667 -22.667 -39.334 -44.667 -68.001 -66s-66 -32 -112 -32c-44.667 0 -81.5 14 -110.5 42s-43.5 71 -43.5 129v237c0 14 -2.33301 26.333 -7 37
s-14 18.334 -28 23.001l-15 5v40l224 50h38l-6 -132v-242c0 -22.667 4.83301 -40.334 14.5 -53.001s25.834 -19 48.501 -19c12.667 0 23.5 0.833008 32.5 2.5s19.833 4.5 32.5 8.5v280c0 14 -2.33301 26.333 -7 37s-14 18.334 -28 23.001l-15 5v40l224 50h38zM400 602
c-32.667 0 -58.167 10 -76.5 30s-38.166 30 -59.499 30c-14 0 -26 -5.33301 -36 -16s-19.667 -23.667 -29 -39l-40 22c16.667 42.667 34 76.5 52 101.5s41 37.5 69 37.5c32.667 0 58.167 -10 76.5 -30s38.166 -30 59.499 -30c14 0 26 5.33301 36 16s19.667 23.667 29 39
l40 -22c-16.667 -42.667 -34 -76.5 -52 -101.5s-41 -37.5 -69 -37.5z" />
    <glyph glyph-name="Umacron" unicode="&#x16a;" horiz-adv-x="763" 
d="M303 590l0.00195312 -324.999c0 -56 11.167 -100.5 33.5 -133.5s60.5 -49.5 114.5 -49.5c41.333 0 77.5 13.833 108.5 41.5s46.5 76.167 46.5 145.5v321c0 25.333 -5.33301 42.166 -16 50.499s-36 13.833 -76 16.5v45h234v-45c-32.667 -3.33301 -52.334 -9 -59.001 -17
s-10 -24.667 -10 -50v-341c0 -88 -27.667 -153.167 -83 -195.5s-122.666 -63.5 -201.999 -63.5c-99.333 0 -175.833 21.833 -229.5 65.5s-80.5 108.167 -80.5 193.5v341c0 25.333 -3.33301 42 -10 50s-26.334 13.667 -59.001 17v45h357v-45
c-32.667 -3.33301 -52.334 -9 -59.001 -17s-10 -24.667 -10 -50zM278.002 746.001v95h294v-95h-294z" />
    <glyph glyph-name="umacron" unicode="&#x16b;" horiz-adv-x="669" 
d="M600 421v-302c0 -16.667 1.66699 -29.334 5 -38.001s12.333 -13 27 -13h23v-44l-225 -34h-39l3 98c-16.667 -22.667 -39.334 -44.667 -68.001 -66s-66 -32 -112 -32c-44.667 0 -81.5 14 -110.5 42s-43.5 71 -43.5 129v237c0 14 -2.33301 26.333 -7 37
s-14 18.334 -28 23.001l-15 5v40l224 50h38l-6 -132v-242c0 -22.667 4.83301 -40.334 14.5 -53.001s25.834 -19 48.501 -19c12.667 0 23.5 0.833008 32.5 2.5s19.833 4.5 32.5 8.5v280c0 14 -2.33301 26.333 -7 37s-14 18.334 -28 23.001l-15 5v40l224 50h38zM187 625v95
h294v-95h-294z" />
    <glyph glyph-name="Ubreve" unicode="&#x16c;" horiz-adv-x="763" 
d="M303 590l0.00195312 -324.999c0 -56 11.167 -100.5 33.5 -133.5s60.5 -49.5 114.5 -49.5c41.333 0 77.5 13.833 108.5 41.5s46.5 76.167 46.5 145.5v321c0 25.333 -5.33301 42.166 -16 50.499s-36 13.833 -76 16.5v45h234v-45c-32.667 -3.33301 -52.334 -9 -59.001 -17
s-10 -24.667 -10 -50v-341c0 -88 -27.667 -153.167 -83 -195.5s-122.666 -63.5 -201.999 -63.5c-99.333 0 -175.833 21.833 -229.5 65.5s-80.5 108.167 -80.5 193.5v341c0 25.333 -3.33301 42 -10 50s-26.334 13.667 -59.001 17v45h357v-45
c-32.667 -3.33301 -52.334 -9 -59.001 -17s-10 -24.667 -10 -50zM425.002 738.001c-48 0 -85.002 14 -111.002 42s-39 66 -39 114h51c4.66699 -23.333 16.834 -39 36.501 -47s40.5 -12 62.5 -12s42.833 4 62.5 12s31.834 23.667 36.501 47h51c0 -48 -13 -86 -39 -114
s-63 -42 -111 -42z" />
    <glyph glyph-name="ubreve" unicode="&#x16d;" horiz-adv-x="669" 
d="M600 421v-302c0 -16.667 1.66699 -29.334 5 -38.001s12.333 -13 27 -13h23v-44l-225 -34h-39l3 98c-16.667 -22.667 -39.334 -44.667 -68.001 -66s-66 -32 -112 -32c-44.667 0 -81.5 14 -110.5 42s-43.5 71 -43.5 129v237c0 14 -2.33301 26.333 -7 37
s-14 18.334 -28 23.001l-15 5v40l224 50h38l-6 -132v-242c0 -22.667 4.83301 -40.334 14.5 -53.001s25.834 -19 48.501 -19c12.667 0 23.5 0.833008 32.5 2.5s19.833 4.5 32.5 8.5v280c0 14 -2.33301 26.333 -7 37s-14 18.334 -28 23.001l-15 5v40l224 50h38zM334 598
c-48 0 -84.835 15.167 -110.502 45.5s-38.5 71.833 -38.5 124.5h50c4 -26.667 15.333 -45 34 -55s40.334 -15 65.001 -15s46.334 5 65.001 15s30 28.333 34 55h50c0 -52.667 -12.833 -94.167 -38.5 -124.5s-62.5 -45.5 -110.5 -45.5z" />
    <glyph glyph-name="Uring" unicode="&#x16e;" horiz-adv-x="763" 
d="M303 590l0.00195312 -324.999c0 -56 11.167 -100.5 33.5 -133.5s60.5 -49.5 114.5 -49.5c41.333 0 77.5 13.833 108.5 41.5s46.5 76.167 46.5 145.5v321c0 25.333 -5.33301 42.166 -16 50.499s-36 13.833 -76 16.5v45h234v-45c-32.667 -3.33301 -52.334 -9 -59.001 -17
s-10 -24.667 -10 -50v-341c0 -88 -27.667 -153.167 -83 -195.5s-122.666 -63.5 -201.999 -63.5c-99.333 0 -175.833 21.833 -229.5 65.5s-80.5 108.167 -80.5 193.5v341c0 25.333 -3.33301 42 -10 50s-26.334 13.667 -59.001 17v45h357v-45
c-32.667 -3.33301 -52.334 -9 -59.001 -17s-10 -24.667 -10 -50zM376.002 829.001c0 -14 4.16699 -25.667 12.5 -35s20.5 -14 36.5 -14s28.167 4.66699 36.5 14s12.5 21 12.5 35c0 14.667 -4.16699 26.667 -12.5 36s-20.5 14 -36.5 14s-28.167 -4.66699 -36.5 -14
s-12.5 -21.333 -12.5 -36zM317.002 829.001c0 29.333 10.167 54.166 30.5 74.499s46.166 30.5 77.499 30.5s57 -10.167 77 -30.5s30 -45.166 30 -74.499c0 -28.667 -10 -53.167 -30 -73.5s-45.667 -30.5 -77 -30.5s-57.166 10.167 -77.499 30.5s-30.5 44.833 -30.5 73.5z
" />
    <glyph glyph-name="uring" unicode="&#x16f;" horiz-adv-x="669" 
d="M600 421v-302c0 -16.667 1.66699 -29.334 5 -38.001s12.333 -13 27 -13h23v-44l-225 -34h-39l3 98c-16.667 -22.667 -39.334 -44.667 -68.001 -66s-66 -32 -112 -32c-44.667 0 -81.5 14 -110.5 42s-43.5 71 -43.5 129v237c0 14 -2.33301 26.333 -7 37
s-14 18.334 -28 23.001l-15 5v40l224 50h38l-6 -132v-242c0 -22.667 4.83301 -40.334 14.5 -53.001s25.834 -19 48.501 -19c12.667 0 23.5 0.833008 32.5 2.5s19.833 4.5 32.5 8.5v280c0 14 -2.33301 26.333 -7 37s-14 18.334 -28 23.001l-15 5v40l224 50h38zM285 684
c0 -14 4.16699 -25.667 12.5 -35s20.5 -14 36.5 -14s28.167 4.66699 36.5 14s12.5 21 12.5 35c0 14.667 -4.16699 26.667 -12.5 36s-20.5 14 -36.5 14s-28.167 -4.66699 -36.5 -14s-12.5 -21.333 -12.5 -36zM226 684c0 29.333 10.167 54.166 30.5 74.499
s46.166 30.5 77.499 30.5s57 -10.167 77 -30.5s30 -45.166 30 -74.499c0 -28.667 -10 -53.167 -30 -73.5s-45.667 -30.5 -77 -30.5s-57.166 10.167 -77.499 30.5s-30.5 44.833 -30.5 73.5z" />
    <glyph glyph-name="Uhungarumlaut" unicode="&#x170;" horiz-adv-x="763" 
d="M303 590l0.00195312 -324.999c0 -56 11.167 -100.5 33.5 -133.5s60.5 -49.5 114.5 -49.5c41.333 0 77.5 13.833 108.5 41.5s46.5 76.167 46.5 145.5v321c0 25.333 -5.33301 42.166 -16 50.499s-36 13.833 -76 16.5v45h234v-45c-32.667 -3.33301 -52.334 -9 -59.001 -17
s-10 -24.667 -10 -50v-341c0 -88 -27.667 -153.167 -83 -195.5s-122.666 -63.5 -201.999 -63.5c-99.333 0 -175.833 21.833 -229.5 65.5s-80.5 108.167 -80.5 193.5v341c0 25.333 -3.33301 42 -10 50s-26.334 13.667 -59.001 17v45h357v-45
c-32.667 -3.33301 -52.334 -9 -59.001 -17s-10 -24.667 -10 -50zM348.002 890.001h162v-10l-149 -139h-61zM536.002 890.001h162v-10l-149 -139h-61z" />
    <glyph glyph-name="uhungarumlaut" unicode="&#x171;" horiz-adv-x="669" 
d="M600 421v-302c0 -16.667 1.66699 -29.334 5 -38.001s12.333 -13 27 -13h23v-44l-225 -34h-39l3 98c-16.667 -22.667 -39.334 -44.667 -68.001 -66s-66 -32 -112 -32c-44.667 0 -81.5 14 -110.5 42s-43.5 71 -43.5 129v237c0 14 -2.33301 26.333 -7 37
s-14 18.334 -28 23.001l-15 5v40l224 50h38l-6 -132v-242c0 -22.667 4.83301 -40.334 14.5 -53.001s25.834 -19 48.501 -19c12.667 0 23.5 0.833008 32.5 2.5s19.833 4.5 32.5 8.5v280c0 14 -2.33301 26.333 -7 37s-14 18.334 -28 23.001l-15 5v40l224 50h38zM245 766h162
v-10l-149 -153h-61zM433 766h162v-10l-149 -153h-61z" />
    <glyph glyph-name="Uogonek" unicode="&#x172;" horiz-adv-x="763" 
d="M303 590l0.000976562 -325c0 -56 11.167 -100.5 33.5 -133.5s60.5 -49.5 114.5 -49.5c41.333 0 77.5 13.833 108.5 41.5s46.5 76.167 46.5 145.5v321c0 25.333 -5.33301 42.166 -16 50.499s-36 13.833 -76 16.5v45h234v-45c-32.667 -3.33301 -52.334 -9 -59.001 -17
s-10 -24.667 -10 -50v-341c0 -64 -15.333 -116 -46 -156s-70.334 -68.333 -119.001 -85c-20.667 -12.667 -36.5 -27.167 -47.5 -43.5s-16.5 -34.833 -16.5 -55.5c0 -14 3.83301 -25.833 11.5 -35.5s18.834 -14.5 33.501 -14.5c12 0 22.167 1.83301 30.5 5.5
s17.833 8.83398 28.5 15.501l17 -21c-19.333 -24.667 -39.666 -43.334 -60.999 -56.001s-47 -19 -77 -19c-26 0 -48.5 7.33301 -67.5 22s-28.5 35.334 -28.5 62.001c0 27.333 8.33301 51 25 71s37.334 37.333 62.001 52c-4.66699 0 -9.66699 -0.166992 -15 -0.5
s-10.333 -0.5 -15 -0.5c-99.333 0 -175.833 21.833 -229.5 65.5s-80.5 108.167 -80.5 193.5v341c0 25.333 -3.33301 42 -10 50s-26.334 13.667 -59.001 17v45h357v-45c-32.667 -3.33301 -52.334 -9 -59.001 -17s-10 -24.667 -10 -50z" />
    <glyph glyph-name="uogonek" unicode="&#x173;" horiz-adv-x="669" 
d="M600 421l-0.00292969 -301.998c0 -16.667 1.66699 -29.334 5 -38.001s12.333 -13 27 -13h23v-44c-95.333 -12.667 -159.666 -26.334 -192.999 -41.001s-50 -40 -50 -76c0 -12.667 3.83301 -23.834 11.5 -33.501s18.834 -14.5 33.501 -14.5c12 0 22.167 1.83301 30.5 5.5
s17.833 8.83398 28.5 15.501l17 -21c-19.333 -24.667 -39.666 -43.334 -60.999 -56.001s-46.333 -19 -75 -19c-26.667 0 -49.667 7.66699 -69 23s-29 37.333 -29 66c0 26.667 8 49.167 24 67.5s38.667 34.833 68 49.5l3 98c-16.667 -22.667 -39.334 -44.667 -68.001 -66
s-66 -32 -112 -32c-44.667 0 -81.5 14 -110.5 42s-43.5 71 -43.5 129v237c0 14 -2.33301 26.333 -7 37s-14 18.334 -28 23.001l-15 5v40l224 50h38l-6 -132v-242c0 -22.667 4.83301 -40.334 14.5 -53.001s25.834 -19 48.501 -19c12.667 0 23.5 0.833008 32.5 2.5
s19.833 4.5 32.5 8.5v280c0 14 -2.33301 26.333 -7 37s-14 18.334 -28 23.001l-15 5v40l224 50h38z" />
    <glyph glyph-name="Wcircumflex" unicode="&#x174;" horiz-adv-x="1028" 
d="M661 -3l-133 385l-143 -385h-81l-241 623c-4.66699 10.667 -12 18.834 -22 24.501s-22 9.83398 -36 12.501v45h345v-45c-16.667 -2 -28.5 -6.16699 -35.5 -12.5s-10.5 -14.833 -10.5 -25.5c0 -8 1.5 -17 4.5 -27s6.5 -20.333 10.5 -31l108 -287l71 193l-52 153
c-4 10.667 -9.66699 18.834 -17 24.501s-18 9.83398 -32 12.501v45h345v-45c-24.667 -0.666992 -41.667 -4.5 -51 -11.5s-14 -17.5 -14 -31.5c0 -8.66699 1.33301 -18.5 4 -29.5s6 -23.167 10 -36.5l86 -269l93 273c3.33301 10.667 6.33301 21 9 31s4 19 4 27
c0 13.333 -4.66699 24.166 -14 32.499s-26 13.166 -50 14.499v45h204v-45c-14 -2.66699 -26.167 -6.83398 -36.5 -12.501s-17.5 -13.834 -21.5 -24.501l-222 -623h-82zM628 893l118 -152h-65l-121 65l-121 -65h-65l118 152h136z" />
    <glyph glyph-name="wcircumflex" unicode="&#x175;" horiz-adv-x="923" 
d="M708 236l82.002 202.003c2.66699 6.66699 4.66699 12.667 6 18s2 10 2 14c0 10 -4.5 17.167 -13.5 21.5s-22.833 7.5 -41.5 9.5v42h175v-42c-16.667 -5.33301 -28.167 -10.666 -34.5 -15.999s-11.833 -13.333 -16.5 -24l-200 -464h-68l-118 302l-142 -302h-68l-215 464
c-4.66699 10.667 -10.167 18.667 -16.5 24s-17.833 10.666 -34.5 15.999v42h318v-42c-14.667 -2 -25.334 -5.33301 -32.001 -10s-10 -11 -10 -19c0 -4.66699 0.833008 -9.83398 2.5 -15.501s3.83398 -11.834 6.50098 -18.501l90 -214l70 145l-36 92
c-4 10.667 -9.33301 19 -16 25s-16.334 11 -29.001 15v42h316v-42c-20.667 -2.66699 -35.834 -5.83398 -45.501 -9.50098s-14.5 -11.5 -14.5 -23.5c0 -4 0.5 -8.5 1.5 -13.5s2.5 -10.5 4.5 -16.5zM561.002 766.003l118 -169h-65l-121 80l-121 -80h-65l118 169h136z" />
    <glyph glyph-name="Ycircumflex" unicode="&#x176;" horiz-adv-x="727" 
d="M481 258l-0.00292969 -151.002c0 -25.333 5 -41.166 15 -47.499s31.333 -11.166 64 -14.499v-45h-372v45c32.667 3.33301 54 8.16602 64 14.499s15 22.166 15 47.499v146l-204 367c-7.33301 14 -15.166 23 -23.499 27s-19.833 7.33301 -34.5 10v45h365v-45
c-25.333 -0.666992 -42.166 -3.83398 -50.499 -9.50098s-12.5 -14.5 -12.5 -26.5c0 -10.667 2 -21 6 -31s10 -22.333 18 -37l123 -210l103 208c6 12.667 11.667 25.334 17 38.001s8 23.334 8 32.001c0 12 -5.66699 20.833 -17 26.5s-27.666 8.83398 -48.999 9.50098v45h206
v-45c-14 -2.66699 -25.667 -6.5 -35 -11.5s-17 -13.5 -23 -25.5zM482.997 892.998l118 -152h-65l-121 65l-121 -65h-65l118 152h136z" />
    <glyph glyph-name="ycircumflex" unicode="&#x177;" horiz-adv-x="616" 
d="M387 202l94 234c2.66699 6.66699 4.66699 12.167 6 16.5s2 8.83301 2 13.5c0 10.667 -4.16699 18.334 -12.5 23.001s-25.833 8.66699 -52.5 12v42h187v-42c-16.667 -5.33301 -28.167 -10.666 -34.5 -15.999s-11.833 -13.333 -16.5 -24l-232 -544
c-19.333 -45.333 -40.166 -79.833 -62.499 -103.5s-51.5 -35.5 -87.5 -35.5c-20.667 0 -38.334 3.66699 -53.001 11s-25.667 17 -33 29v81c13.333 -2.66699 26.333 -5 39 -7s27 -3 43 -3c28.667 0 50.5 4.16699 65.5 12.5s26.833 21.5 35.5 39.5l15 32l-234 488
c-4.66699 10.667 -10.167 18.667 -16.5 24s-17.833 10.666 -34.5 15.999v42h342v-42c-26.667 -3.33301 -44.167 -7.33301 -52.5 -12s-12.5 -12.334 -12.5 -23.001c0 -4.66699 0.666992 -9 2 -13l5 -15zM422 766l118 -169h-65l-121 80l-121 -80h-65l118 169h136z" />
    <glyph glyph-name="Ydieresis" unicode="&#x178;" horiz-adv-x="727" 
d="M481 258l-0.00292969 -151.002c0 -25.333 5 -41.166 15 -47.499s31.333 -11.166 64 -14.499v-45h-372v45c32.667 3.33301 54 8.16602 64 14.499s15 22.166 15 47.499v146l-204 367c-7.33301 14 -15.166 23 -23.499 27s-19.833 7.33301 -34.5 10v45h365v-45
c-25.333 -0.666992 -42.166 -3.83398 -50.499 -9.50098s-12.5 -14.5 -12.5 -26.5c0 -10.667 2 -21 6 -31s10 -22.333 18 -37l123 -210l103 208c6 12.667 11.667 25.334 17 38.001s8 23.334 8 32.001c0 12 -5.66699 20.833 -17 26.5s-27.666 8.83398 -48.999 9.50098v45h206
v-45c-14 -2.66699 -25.667 -6.5 -35 -11.5s-17 -13.5 -23 -25.5zM220.997 822.998c0 24 8.66699 44.667 26 62s38.333 26 63 26s45.834 -8.66699 63.501 -26s26.5 -38 26.5 -62s-8.83301 -44.667 -26.5 -62s-38.834 -26 -63.501 -26s-45.667 8.66699 -63 26s-26 38 -26 62z
M430.997 822.998c0 24 8.83301 44.667 26.5 62s38.167 26 61.5 26c25.333 0 46.833 -8.66699 64.5 -26s26.5 -38 26.5 -62s-8.83301 -44.667 -26.5 -62s-39.167 -26 -64.5 -26c-23.333 0 -43.833 8.66699 -61.5 26s-26.5 38 -26.5 62z" />
    <glyph glyph-name="Zacute" unicode="&#x179;" horiz-adv-x="643" 
d="M266 50h105c42 0 76.333 12.167 103 36.5s62 75.166 106 152.499h48l-37 -239h-576v39l339 613h-97c-48 0 -81.5 -12.667 -100.5 -38s-43.5 -70.666 -73.5 -135.999h-45l10 224h559v-39zM320 890h197v-10l-180 -139h-64z" />
    <glyph glyph-name="zacute" unicode="&#x17a;" horiz-adv-x="550" 
d="M15 0l-0.00195312 37.999l280 457h-80c-25.333 0 -48.166 -12.667 -68.499 -38s-43.166 -64.666 -68.499 -117.999h-42l14 236h40l22 -32h415v-37l-274 -457h90c34 0 61.5 12 82.5 36s45.5 63.333 73.5 118h41l-24 -203h-501zM285.998 765.999h197v-10l-185 -153h-59z
" />
    <glyph glyph-name="Zdotaccent" unicode="&#x17b;" horiz-adv-x="643" 
d="M266 50h105c42 0 76.333 12.167 103 36.5s62 75.166 106 152.499h48l-37 -239h-576v39l339 613h-97c-48 0 -81.5 -12.667 -100.5 -38s-43.5 -70.666 -73.5 -135.999h-45l10 224h559v-39zM333 737c-33.333 0 -59.333 9.83301 -78 29.5s-28 42.834 -28 69.501
s9.33301 49.834 28 69.501s44.667 29.5 78 29.5c32.667 0 58.5 -9.83301 77.5 -29.5s28.5 -42.834 28.5 -69.501s-9.5 -49.834 -28.5 -69.501s-44.833 -29.5 -77.5 -29.5z" />
    </font>
</defs>
</svg>
