<?xml version="1.0" encoding="UTF-8"?>
<svg width="24px" height="24px" viewBox="0 0 24 24" version="1.1" xmlns="http://www.w3.org/2000/svg" xmlns:xlink="http://www.w3.org/1999/xlink">
    <!-- Generator: Sketch 51.1 (57501) - http://www.bohemiancoding.com/sketch -->
    <title>news</title>
    <desc>Created with Sketch.</desc>
    <defs></defs>
    <g id="news" stroke="none" stroke-width="1" fill="none" fill-rule="evenodd">
        <path d="M21.3136923,20 L5,20 C4.32592773,20 3.99979381,19.3721768 4,19 L4,5 C4,4.25390625 4.62556508,4 5,4 L21.3045389,4.02340797 C21.6787677,4.02340797 21.9824806,4.32508433 21.9824806,4.69726115 L21.991634,19.3261468 C21.991634,19.6981187 21.6879211,20 21.3136923,20 Z M3,6 L3.0091534,18.9852414 C3.0091534,19.7678223 3.3730844,19.9998975 3.3730844,19.9998975 L2.66957562,19.9998975 C2.2951407,19.9998975 1.99163398,19.6982212 1.99163398,19.3260444 L2,6.67405812 C2,6.30167636 2.12556508,6 2.5,6 L3,6 Z M7.5,8 C7.22385763,8 7,8.22385763 7,8.5 C7,8.77614237 7.22385763,9 7.5,9 L11.5,9 C11.7761424,9 12,8.77614237 12,8.5 C12,8.22385763 11.7761424,8 11.5,8 L7.5,8 Z M14,8 C13.4477153,8 13,8.44771525 13,9 L13,12 C13,12.5522847 13.4477153,13 14,13 L18,13 C18.5522847,13 19,12.5522847 19,12 L19,9 C19,8.44771525 18.5522847,8 18,8 L14,8 Z M7.5,10 C7.22385763,10 7,10.2238576 7,10.5 C7,10.7761424 7.22385763,11 7.5,11 L11.5,11 C11.7761424,11 12,10.7761424 12,10.5 C12,10.2238576 11.7761424,10 11.5,10 L7.5,10 Z M7.5,12 C7.22385763,12 7,12.2238576 7,12.5 C7,12.7761424 7.22385763,13 7.5,13 L11.5,13 C11.7761424,13 12,12.7761424 12,12.5 C12,12.2238576 11.7761424,12 11.5,12 L7.5,12 Z M7.5,15 C7.22385763,15 7,15.2238576 7,15.5 C7,15.7761424 7.22385763,16 7.5,16 L18.5,16 C18.7761424,16 19,15.7761424 19,15.5 C19,15.2238576 18.7761424,15 18.5,15 L7.5,15 Z M7.5,17 C7.22385763,17 7,17.2238576 7,17.5 C7,17.7761424 7.22385763,18 7.5,18 L18.5,18 C18.7761424,18 19,17.7761424 19,17.5 C19,17.2238576 18.7761424,17 18.5,17 L7.5,17 Z" fill="#FC363B"></path>
    </g>
</svg>