<?xml version="1.0" encoding="UTF-8"?>
<svg width="24px" height="24px" viewBox="0 0 24 24" version="1.1" xmlns="http://www.w3.org/2000/svg" xmlns:xlink="http://www.w3.org/1999/xlink">
    <!-- Generator: Sketch 51.1 (57501) - http://www.bohemiancoding.com/sketch -->
    <title>opinion</title>
    <desc>Created with Sketch.</desc>
    <defs></defs>
    <g id="opinion" stroke="none" stroke-width="1" fill="none" fill-rule="evenodd">
        <path d="M20.4900671,9.62542527 C20.5433187,11.6375904 19.8227707,13.4821267 18.6107805,14.8771783 L18.6107805,18.349756 C18.6107805,18.6765602 18.4019021,18.9670756 18.0906485,19.0734674 L9.20175714,22.1000656 C8.86594173,22.214911 8.52207666,21.9691378 8.52207666,21.6175914 L8.52207666,19.760684 L6.40934988,19.760684 C5.66011207,19.760684 5.05411697,19.1553231 5.05411697,18.4068694 L5.05411697,14.7052196 L4.04274912,14.7052196 C3.51456742,14.7052196 3.19526415,14.1243948 3.48174957,13.6786215 C3.77256943,13.2287246 4.12881859,12.5905802 4.46855562,11.9402708 C4.79219333,11.3186213 5.05411697,10.2347037 5.05411697,9.53532217 L5.05411697,9.32253864 L5.07455072,9.32253864 C5.35298648,5.12212587 8.99700675,1.84171319 13.3372196,2.14851734 C17.2514196,2.42253798 20.3835639,5.70295067 20.4900671,9.62542527 Z M17.800035,10.7336728 C17.9843517,10.7008893 18.1152103,10.5415078 18.1152103,10.3656315 L18.1152103,9.87057993 L18.1152103,9.37573452 C18.1152103,9.19161079 17.9843517,9.03635305 17.800035,9.00356954 L16.8091009,8.83594066 C16.7149818,8.46377567 16.5674047,8.10789935 16.3671951,7.76831169 L16.948422,6.95037347 C17.0549252,6.79903325 17.0386195,6.59037343 16.9073481,6.45965177 L16.5554334,6.10769297 L16.2033122,5.75594036 C16.0722472,5.63325994 15.8633688,5.61697128 15.7159981,5.72336304 L14.9011245,6.30418784 C14.5655155,6.10356926 14.2051383,5.95655894 13.8325835,5.86233213 L13.6645725,4.87264131 C13.6358827,4.68851758 13.4763343,4.55758973 13.2920177,4.55758973 L12.7966538,4.55758973 L12.3010836,4.55758973 C12.1169733,4.55758973 11.9613465,4.68851758 11.9287351,4.87264131 L11.7607242,5.86233213 C11.3801196,5.95655894 11.0114864,6.10769297 10.6676213,6.3204765 L9.85687582,5.74377541 C9.70537704,5.63738365 9.49670502,5.65367231 9.36564001,5.78460016 L9.01351888,6.13635277 L8.66139774,6.48810538 C8.53033273,6.61903323 8.5138206,6.82769304 8.62032383,6.97903326 L9.20588517,7.80521891 C9.00939084,8.14047667 8.86594173,8.50460042 8.7718226,8.87264169 L7.78914458,9.02810562 C7.60482795,9.05676542 7.47396933,9.21635306 7.47396933,9.40027061 L7.47396933,9.8953222 L7.47396933,10.3901676 C7.47396933,10.5742913 7.60482795,10.7295491 7.78914458,10.7623326 L8.78812833,10.9299615 C8.88637549,11.3021265 9.03395263,11.6580028 9.23870302,11.9934667 L8.66139774,12.8031575 C8.55489452,12.9544978 8.57120024,13.1631576 8.70226526,13.2940854 L9.05438639,13.645838 L9.40650752,13.9975906 C9.53757254,14.1285185 9.74624456,14.1450133 9.89774333,14.0384154 L10.7247945,13.4534669 C11.06061,13.6501679 11.4251152,13.7930545 11.793542,13.8872813 L11.9572185,14.8689309 C11.9900364,15.0528485 12.1454568,15.1837763 12.3297734,15.1837763 L12.8251372,15.1837763 L13.3207075,15.1837763 C13.5048177,15.1837763 13.6604445,15.0528485 13.6934688,14.8689309 L13.8530172,13.8707865 C14.213188,13.7767659 14.5655155,13.6295494 14.8928685,13.4371782 L15.71187,14.0182092 C15.8633688,14.1243948 16.0722472,14.1078999 16.2033122,13.9769721 L16.5554334,13.6254256 L16.9073481,13.2734669 C17.0384131,13.1427452 17.0549252,12.9340854 16.948422,12.7827452 L16.3671951,11.9689306 C16.5674047,11.6334667 16.7149818,11.2736728 16.8091009,10.9013017 L17.800035,10.7336728 Z M12.8252404,7.67431168 C14.0283554,7.67431168 15.0036029,8.64853858 15.0036029,9.85018818 C15.0036029,11.052044 14.0283554,12.0260647 12.8252404,12.0260647 C11.6223319,12.0260647 10.6470843,11.052044 10.6470843,9.85018818 C10.6470843,8.64853858 11.6223319,7.67431168 12.8252404,7.67431168 Z" fill="#FC363B"></path>
    </g>
</svg>