<?xml version="1.0" encoding="UTF-8"?>
<svg width="269px" height="63px" viewBox="0 0 269 63" version="1.1" xmlns="http://www.w3.org/2000/svg" xmlns:xlink="http://www.w3.org/1999/xlink">
    <!-- Generator: Sketch 46.2 (44496) - http://www.bohemiancoding.com/sketch -->
    <title>latest</title>
    <desc>Created with Sketch.</desc>
    <defs></defs>
    <g id="Welcome" stroke="none" stroke-width="1" fill="none" fill-rule="evenodd">
        <g id="landing-page-desktop-copy-3" transform="translate(-412.000000, -4102.000000)" fill="#FFD8D9">
            <g id="Group-7" transform="translate(0.000000, 4055.000000)">
                <g id="Group-6" transform="translate(407.000000, 47.000000)">
                    <path d="M20.025,49.341 L20.025,1.637 L5.607,1.637 L5.607,61 L39.338,61 L39.338,49.341 L20.025,49.341 Z M82.147,52.456 L61.143,52.456 L58.562,61 L43.165,61 L62.745,1.637 L81.079,1.637 L100.57,61 L84.728,61 L82.147,52.456 Z M78.587,40.797 L71.645,18.636 L64.703,40.797 L78.587,40.797 Z M125.49,13.296 L125.49,61 L111.072,61 L111.072,13.296 L97.366,13.296 L97.366,1.637 L139.107,1.637 L139.107,13.296 L125.49,13.296 Z M157.975,13.296 L177.555,13.296 L177.555,1.637 L143.557,1.637 L143.557,61 L177.555,61 L177.555,49.341 L157.975,49.341 L157.975,37.059 L177.555,37.059 L177.555,25.4 L157.975,25.4 L157.975,13.296 Z M185.565,43.022 C185.565,54.77 193.664,62.157 206.658,62.157 C219.385,62.157 227.929,54.77 227.929,43.734 C227.929,38.928 226.238,34.834 222.945,31.808 C220.275,29.405 217.071,27.714 210.307,25.133 C205.768,23.442 204.611,22.908 203.543,22.196 C201.674,21.128 200.784,19.704 200.784,17.924 C200.784,15.076 203.098,13.207 206.658,13.207 C210.752,13.207 212.799,15.076 213.244,19.17 L227.929,19.17 C227.306,14.987 226.505,12.406 224.814,9.647 C221.343,3.862 214.757,0.48 206.747,0.48 C194.376,0.48 186.188,7.956 186.188,19.081 C186.188,28.159 191.261,33.588 204.255,38.216 C211.197,40.708 212.799,41.954 212.799,44.713 C212.799,47.383 210.129,49.43 206.658,49.43 C202.831,49.43 199.627,46.938 199.627,44.001 C199.627,43.823 199.627,43.378 199.716,43.022 L185.565,43.022 Z M259.88,13.296 L273.497,13.296 L273.497,1.637 L231.756,1.637 L231.756,13.296 L245.462,13.296 L245.462,61 L259.88,61 L259.88,13.296 Z" id="latest"></path>
                </g>
            </g>
        </g>
    </g>
</svg>