<?xml version="1.0" encoding="UTF-8"?>
<svg width="158px" height="49px" viewBox="0 0 158 49" version="1.1" xmlns="http://www.w3.org/2000/svg" xmlns:xlink="http://www.w3.org/1999/xlink">
    <!-- Generator: Sketch 46.2 (44496) - http://www.bohemiancoding.com/sketch -->
    <title>NEXT</title>
    <desc>Created with Sketch.</desc>
    <defs></defs>
    <g id="Welcome" stroke="none" stroke-width="1" fill="none" fill-rule="evenodd">
        <g id="case-study" transform="translate(-26.000000, -4446.000000)" fill="#FECDCE">
            <path d="M38.0921709,4466.94767 L55.5794273,4494.294 L67.2375982,4494.294 L67.2375982,4446.294 L55.5794273,4446.294 L55.5794273,4473.28051 L38.0921709,4446.294 L26.434,4446.294 L26.434,4494.294 L38.0921709,4494.294 L38.0921709,4466.94767 Z M85.8762789,4455.72129 L101.708363,4455.72129 L101.708363,4446.294 L74.2181079,4446.294 L74.2181079,4494.294 L101.708363,4494.294 L101.708363,4484.86671 L85.8762789,4484.86671 L85.8762789,4474.93568 L101.708363,4474.93568 L101.708363,4465.50839 L85.8762789,4465.50839 L85.8762789,4455.72129 Z M127.039697,4478.82174 L134.883775,4494.294 L148.125154,4494.294 L133.660387,4468.53088 L146.398018,4446.294 L133.156639,4446.294 L127.039697,4457.80824 L121.35454,4446.294 L108.041196,4446.294 L120.490972,4468.53088 L105.810312,4494.294 L119.195619,4494.294 L127.039697,4478.82174 Z M172.520957,4455.72129 L183.531451,4455.72129 L183.531451,4446.294 L149.780327,4446.294 L149.780327,4455.72129 L160.862786,4455.72129 L160.862786,4494.294 L172.520957,4494.294 L172.520957,4455.72129 Z" id="NEXT"></path>
        </g>
    </g>
</svg>