<?xml version="1.0" encoding="UTF-8"?>
<svg width="70px" height="49px" viewBox="0 0 70 49" version="1.1" xmlns="http://www.w3.org/2000/svg" xmlns:xlink="http://www.w3.org/1999/xlink">
    <!-- Generator: Sketch 46.2 (44496) - http://www.bohemiancoding.com/sketch -->
    <title>Group 3</title>
    <desc>Created with Sketch.</desc>
    <defs></defs>
    <g id="Welcome" stroke="none" stroke-width="1" fill="none" fill-rule="evenodd">
        <g id="case-study" transform="translate(-12.000000, -4200.000000)" fill="#FECDCE">
            <g id="Group-3" transform="translate(12.000000, 4200.000000)">
                <path d="M51.7802741,19.4019515 C52.2770662,15.2891019 54.0903503,12.3549327 57.2201308,10.5994437 C60.3499114,8.84396393 64.5477901,7.61512075 69.8137717,6.91292333 L69.8137717,0.141763452 C59.2818086,0.442703891 51.2089635,3.02577905 45.5952316,7.89097975 C39.9814997,12.7561896 37.1746315,19.5022681 37.1746315,28.1292243 C37.1746315,34.0477257 38.7395218,38.8627681 41.8693023,42.5743653 C44.9990829,46.2859625 49.1472856,48.1417635 54.313906,48.1417635 C58.5863034,48.1417635 62.237714,46.8376897 65.268138,44.2295377 C68.2985619,41.6213857 69.8137717,38.0602587 69.8137717,33.5461522 C69.8137717,29.4333026 68.6959929,26.2483465 66.4604353,23.9912932 C64.2248778,21.7342399 61.4180096,20.2044563 58.0398352,19.4019515 L51.7802741,19.4019515 Z M14.9680932,19.4019515 C15.464883,15.2891019 17.2781693,12.3549327 20.4079499,10.5994437 C23.5377305,8.84396393 27.7356115,7.61512075 33.0015907,6.91292333 L33.0015907,0.141763452 C22.4696323,0.442703891 14.3967848,3.02577905 8.78305065,7.89097975 C3.16931878,12.7561896 0.362450564,19.5022681 0.362450564,28.1292243 C0.362450564,34.0477257 1.92734085,38.8627681 5.05712141,42.5743653 C8.18690197,46.2859625 12.3351024,48.1417635 17.5017251,48.1417635 C21.7741247,48.1417635 25.4255354,46.8376897 28.4559571,44.2295377 C31.4863788,41.6213857 33.0015907,38.0602587 33.0015907,33.5461522 C33.0015907,29.4333026 31.883812,26.2483465 29.6482544,23.9912932 C27.4126969,21.7342399 24.6058309,20.2044563 21.2276543,19.4019515 L14.9680932,19.4019515 Z" id="“”"></path>
            </g>
        </g>
    </g>
</svg>