<svg width="31" height="29" viewBox="0 0 31 29" xmlns="http://www.w3.org/2000/svg" xmlns:xlink="http://www.w3.org/1999/xlink"><use xlink:href="#a" fill="#cdcdcd"/><defs><path id="a" d="M22.23 28.34c-1.733 0-3.207-.607-4.42-1.82-1.127-1.213-1.69-2.643-1.69-4.29 0-.953.26-1.907.78-2.86L27.56 0l2.99 1.69-8.06 14.43c1.733.087 3.163.737 4.29 1.95 1.127 1.213 1.69 2.6 1.69 4.16 0 1.647-.607 3.077-1.82 4.29s-2.687 1.82-4.42 1.82zm-16.12 0c-1.733 0-3.207-.607-4.42-1.82C.563 25.307 0 23.877 0 22.23c0-1.127.217-2.08.65-2.86L11.44 0l2.99 1.69-8.19 14.43c1.733.087 3.163.737 4.29 1.95 1.127 1.127 1.69 2.513 1.69 4.16 0 1.647-.607 3.077-1.82 4.29-1.127 1.213-2.557 1.82-4.29 1.82z"/></defs></svg>
