<?xml version="1.0" standalone="no"?>
<!DOCTYPE svg PUBLIC "-//W3C//DTD SVG 20010904//EN"
 "http://www.w3.org/TR/2001/REC-SVG-20010904/DTD/svg10.dtd">
<svg version="1.0" xmlns="http://www.w3.org/2000/svg"
 width="1200.000000pt" height="1200.000000pt" viewBox="0 0 1200.000000 1200.000000"
 preserveAspectRatio="xMidYMid meet">
<metadata>
Created by potrace 1.11, written by Peter Selinger 2001-2013
</metadata>
<g transform="translate(0.000000,1200.000000) scale(0.100000,-0.100000)"
fill="#000000" stroke="none">
<path d="M0 6000 l0 -6000 600 0 600 0 0 598 0 599 593 0 c326 0 598 2 603 5
7 5 11 1131 5 1191 -1 4 -271 7 -601 7 l-600 0 0 600 0 600 1800 0 c1433 0
1800 3 1801 13 1 16 1 1170 0 1180 -1 4 -270 7 -599 7 l-599 0 0 598 0 599
1796 0 1796 0 3 601 2 602 -600 0 -600 0 0 598 0 599 1793 0 c987 0 1798 2
1803 5 7 5 11 1131 5 1191 -1 4 -270 7 -599 7 l-599 0 0 598 0 599 1796 0
1796 0 3 601 2 602 -6000 0 -6000 0 0 -6000z m7196 4198 l1 -598 -2999 0
-2998 0 0 598 0 599 2998 -1 2997 -1 1 -597z m-2396 -2400 l0 -598 -1800 0
-1800 0 0 598 0 599 1800 0 1800 0 0 -599z m-2400 -2400 l0 -598 -600 0 -600
0 0 598 0 599 600 0 600 0 0 -599z"/>
</g>
</svg>
