<svg xmlns="http://www.w3.org/2000/svg" width="38" height="38" viewBox="0 0 38 38"><g fill-rule="evenodd"><path d="M37 20.818c-.364 0-.727.364-.727.727v14.546H1.727V2.273h14.728c.363 0 .727-.364.727-.728 0-.363-.364-.727-.727-.727H1c-.364 0-.727.364-.727.727v35.273c0 .364.363.727.727.727h36c.364 0 .727-.363.727-.727V21.545c0-.363-.363-.727-.727-.727z"/><path d="M37 .455H24.636c-.363 0-.727.363-.727.727 0 .363.364.727.727.727H35L14.09 23c-.363.364-.363.727 0 1.09.183.183.365.183.546.183.182 0 .364 0 .546-.182L36.272 3v10.364c0 .363.364.727.728.727s.727-.364.727-.727V1.182c0-.546-.363-.727-.727-.727z"/></g></svg>